<svg width="667" height="574" viewBox="0 0 667 574" fill="none" xmlns="http://www.w3.org/2000/svg">
<path d="M329.731 77.3246L333.333 81.0675L336.936 77.3246C410.653 0.734727 491.757 -8.74242 554.169 19.7863C616.896 48.459 661.667 115.895 661.667 195.073C661.667 274.561 628.876 335.548 583.678 386.442C546.885 427.873 502.14 462.352 460.225 494.651C450.456 502.179 440.84 509.588 431.515 516.94C414.164 530.618 397.447 543.638 380.97 553.266C364.492 562.894 348.731 568.836 333.333 568.836C317.936 568.836 302.174 562.894 285.696 553.266C269.22 543.638 252.504 530.618 235.153 516.94C225.827 509.588 216.211 502.178 206.442 494.65C164.527 462.352 119.782 427.872 82.9886 386.442C37.791 335.548 5 274.561 5 195.073C5 115.895 49.7702 48.459 112.497 19.7863C174.909 -8.74241 256.013 0.734719 329.731 77.3246Z" fill="#FF0000" stroke="black" stroke-width="10"/>
<mask id="path-2-outside-1_1_48" maskUnits="userSpaceOnUse" x="182" y="156" width="285" height="249" fill="black">
<rect fill="white" x="182" y="156" width="285" height="249"/>
<path d="M274.371 170.604C285.764 171.287 295.335 171.857 303.082 172.312C311.057 172.54 317.665 172.768 322.906 172.996C328.831 173.224 333.844 173.224 337.945 172.996C342.047 172.768 347.63 172.199 354.693 171.287C360.618 170.604 368.479 169.578 378.277 168.211C388.303 166.616 400.722 164.565 415.533 162.059C410.292 167.299 406.191 172.085 403.229 176.414C400.494 180.516 398.329 184.048 396.734 187.01C394.911 190.656 393.658 193.732 392.975 196.238C392.519 198.517 392.975 204.214 394.342 213.328C395.709 222.443 397.646 233.266 400.152 245.799C402.659 258.104 405.393 271.32 408.355 285.447C411.318 299.347 414.28 312.449 417.242 324.754C420.204 336.831 422.825 347.199 425.104 355.857C427.61 364.288 429.433 369.301 430.572 370.896C433.99 375.682 436.155 378.872 437.066 380.467C437.978 381.834 439.573 383.087 441.852 384.227C442.763 384.682 444.244 385.366 446.295 386.277C448.118 387.189 450.51 388.328 453.473 389.695C456.663 391.062 460.65 392.658 465.436 394.48C456.549 394.936 448.915 395.278 442.535 395.506C436.155 395.506 430.914 395.62 426.812 395.848C422.027 396.076 417.926 396.303 414.508 396.531C411.09 396.531 406.988 396.759 402.203 397.215C398.102 397.671 392.747 398.126 386.139 398.582C379.758 399.038 372.239 399.493 363.58 399.949C368.137 396.759 371.783 393.911 374.518 391.404C377.48 388.67 379.758 386.391 381.354 384.568C383.176 382.29 384.43 380.239 385.113 378.416C385.569 376.365 385.911 373.289 386.139 369.188C386.367 365.542 386.367 360.757 386.139 354.832C385.911 348.68 385.341 340.704 384.43 330.906L294.537 340.135C292.258 344.008 290.549 347.426 289.41 350.389C288.271 353.123 287.473 355.516 287.018 357.566C286.334 360.073 286.106 362.124 286.334 363.719C286.79 365.542 287.587 367.706 288.727 370.213C289.866 372.492 291.461 375.226 293.512 378.416C295.79 381.378 299.094 384.91 303.424 389.012C297.727 388.784 291.917 388.67 285.992 388.67C280.068 388.67 274.599 388.784 269.586 389.012C263.661 389.24 257.851 389.467 252.154 389.695C246.458 389.923 239.964 390.265 232.672 390.721C226.52 391.176 219.342 391.746 211.139 392.43C202.708 392.885 193.707 393.569 184.137 394.48C190.061 391.746 195.074 389.012 199.176 386.277C203.277 383.315 206.695 380.581 209.43 378.074C212.62 375.34 215.354 372.719 217.633 370.213C219.228 367.934 222.418 362.693 227.203 354.49C231.988 346.059 237.343 336.147 243.268 324.754C249.42 313.361 255.8 301.17 262.408 288.182C269.244 275.193 275.396 263.003 280.865 251.609C286.334 239.988 290.777 229.962 294.195 221.531C297.613 213.1 299.322 207.632 299.322 205.125C298.867 202.163 297.727 198.859 295.904 195.213C294.309 192.023 291.803 188.377 288.385 184.275C285.195 180.174 280.523 175.617 274.371 170.604ZM380.328 305.613C378.961 297.638 377.708 290.802 376.568 285.105C375.429 279.181 374.518 274.282 373.834 270.408C372.923 265.851 372.239 261.863 371.783 258.445C371.1 255.255 370.302 251.154 369.391 246.141C368.479 241.811 367.34 236.456 365.973 230.076C364.833 223.468 363.352 215.607 361.529 206.492C348.541 232.469 338.401 252.635 331.109 266.99C324.046 281.118 318.919 291.486 315.729 298.094C311.855 305.841 309.69 310.398 309.234 311.766L380.328 305.613Z"/>
</mask>
<path d="M274.371 170.604C285.764 171.287 295.335 171.857 303.082 172.312C311.057 172.54 317.665 172.768 322.906 172.996C328.831 173.224 333.844 173.224 337.945 172.996C342.047 172.768 347.63 172.199 354.693 171.287C360.618 170.604 368.479 169.578 378.277 168.211C388.303 166.616 400.722 164.565 415.533 162.059C410.292 167.299 406.191 172.085 403.229 176.414C400.494 180.516 398.329 184.048 396.734 187.01C394.911 190.656 393.658 193.732 392.975 196.238C392.519 198.517 392.975 204.214 394.342 213.328C395.709 222.443 397.646 233.266 400.152 245.799C402.659 258.104 405.393 271.32 408.355 285.447C411.318 299.347 414.28 312.449 417.242 324.754C420.204 336.831 422.825 347.199 425.104 355.857C427.61 364.288 429.433 369.301 430.572 370.896C433.99 375.682 436.155 378.872 437.066 380.467C437.978 381.834 439.573 383.087 441.852 384.227C442.763 384.682 444.244 385.366 446.295 386.277C448.118 387.189 450.51 388.328 453.473 389.695C456.663 391.062 460.65 392.658 465.436 394.48C456.549 394.936 448.915 395.278 442.535 395.506C436.155 395.506 430.914 395.62 426.812 395.848C422.027 396.076 417.926 396.303 414.508 396.531C411.09 396.531 406.988 396.759 402.203 397.215C398.102 397.671 392.747 398.126 386.139 398.582C379.758 399.038 372.239 399.493 363.58 399.949C368.137 396.759 371.783 393.911 374.518 391.404C377.48 388.67 379.758 386.391 381.354 384.568C383.176 382.29 384.43 380.239 385.113 378.416C385.569 376.365 385.911 373.289 386.139 369.188C386.367 365.542 386.367 360.757 386.139 354.832C385.911 348.68 385.341 340.704 384.43 330.906L294.537 340.135C292.258 344.008 290.549 347.426 289.41 350.389C288.271 353.123 287.473 355.516 287.018 357.566C286.334 360.073 286.106 362.124 286.334 363.719C286.79 365.542 287.587 367.706 288.727 370.213C289.866 372.492 291.461 375.226 293.512 378.416C295.79 381.378 299.094 384.91 303.424 389.012C297.727 388.784 291.917 388.67 285.992 388.67C280.068 388.67 274.599 388.784 269.586 389.012C263.661 389.24 257.851 389.467 252.154 389.695C246.458 389.923 239.964 390.265 232.672 390.721C226.52 391.176 219.342 391.746 211.139 392.43C202.708 392.885 193.707 393.569 184.137 394.48C190.061 391.746 195.074 389.012 199.176 386.277C203.277 383.315 206.695 380.581 209.43 378.074C212.62 375.34 215.354 372.719 217.633 370.213C219.228 367.934 222.418 362.693 227.203 354.49C231.988 346.059 237.343 336.147 243.268 324.754C249.42 313.361 255.8 301.17 262.408 288.182C269.244 275.193 275.396 263.003 280.865 251.609C286.334 239.988 290.777 229.962 294.195 221.531C297.613 213.1 299.322 207.632 299.322 205.125C298.867 202.163 297.727 198.859 295.904 195.213C294.309 192.023 291.803 188.377 288.385 184.275C285.195 180.174 280.523 175.617 274.371 170.604ZM380.328 305.613C378.961 297.638 377.708 290.802 376.568 285.105C375.429 279.181 374.518 274.282 373.834 270.408C372.923 265.851 372.239 261.863 371.783 258.445C371.1 255.255 370.302 251.154 369.391 246.141C368.479 241.811 367.34 236.456 365.973 230.076C364.833 223.468 363.352 215.607 361.529 206.492C348.541 232.469 338.401 252.635 331.109 266.99C324.046 281.118 318.919 291.486 315.729 298.094C311.855 305.841 309.69 310.398 309.234 311.766L380.328 305.613Z" fill="white"/>
<path d="M274.371 170.604L274.611 166.611L262.226 165.868L271.844 173.704L274.371 170.604ZM303.082 172.312L302.847 176.306L302.907 176.309L302.968 176.311L303.082 172.312ZM322.906 172.996L322.733 176.992L322.743 176.993L322.753 176.993L322.906 172.996ZM354.693 171.287L354.235 167.313L354.208 167.317L354.181 167.32L354.693 171.287ZM378.277 168.211L378.83 172.173L378.868 172.167L378.906 172.161L378.277 168.211ZM415.533 162.059L418.362 164.887L427.226 156.023L414.866 158.115L415.533 162.059ZM403.229 176.414L399.927 174.155L399.914 174.175L399.9 174.195L403.229 176.414ZM396.734 187.01L393.212 185.113L393.184 185.167L393.157 185.221L396.734 187.01ZM392.975 196.238L389.116 195.186L389.079 195.319L389.052 195.454L392.975 196.238ZM400.152 245.799L396.23 246.583L396.231 246.59L396.233 246.597L400.152 245.799ZM408.355 285.447L404.441 286.268L404.443 286.281L408.355 285.447ZM417.242 324.754L413.353 325.69L413.355 325.698L413.357 325.707L417.242 324.754ZM425.104 355.857L421.235 356.875L421.251 356.937L421.269 356.997L425.104 355.857ZM430.572 370.896L433.827 368.572L430.572 370.896ZM437.066 380.467L433.593 382.451L433.662 382.571L433.738 382.686L437.066 380.467ZM441.852 384.227L443.64 380.649L441.852 384.227ZM446.295 386.277L448.084 382.7L448.003 382.659L447.919 382.622L446.295 386.277ZM453.473 389.695L451.796 393.327L451.846 393.35L451.897 393.372L453.473 389.695ZM465.436 394.48L465.64 398.475L466.86 390.743L465.436 394.48ZM442.535 395.506V399.506H442.607L442.678 399.503L442.535 395.506ZM426.812 395.848L427.003 399.843L427.019 399.842L427.034 399.841L426.812 395.848ZM414.508 396.531V400.531H414.641L414.774 400.522L414.508 396.531ZM402.203 397.215L401.824 393.233L401.793 393.236L401.761 393.239L402.203 397.215ZM386.139 398.582L385.863 394.591L385.854 394.592L386.139 398.582ZM363.58 399.949L361.286 396.672L349.85 404.677L363.79 403.944L363.58 399.949ZM374.518 391.404L377.22 394.353L377.231 394.344L374.518 391.404ZM381.354 384.568L384.364 387.202L384.422 387.136L384.477 387.067L381.354 384.568ZM385.113 378.416L388.859 379.821L388.957 379.558L389.018 379.284L385.113 378.416ZM386.139 369.188L382.146 368.938L382.146 368.952L382.145 368.966L386.139 369.188ZM386.139 354.832L382.141 354.98L382.142 354.986L386.139 354.832ZM384.43 330.906L388.412 330.536L388.038 326.515L384.021 326.927L384.43 330.906ZM294.537 340.135L294.129 336.156L292.115 336.362L291.089 338.107L294.537 340.135ZM289.41 350.389L293.102 351.927L293.124 351.876L293.144 351.825L289.41 350.389ZM287.018 357.566L290.877 358.619L290.902 358.527L290.922 358.434L287.018 357.566ZM286.334 363.719L282.374 364.284L282.403 364.489L282.453 364.689L286.334 363.719ZM288.727 370.213L285.085 371.868L285.116 371.936L285.149 372.002L288.727 370.213ZM293.512 378.416L290.147 380.579L290.238 380.721L290.341 380.855L293.512 378.416ZM303.424 389.012L303.264 393.009L313.908 393.434L306.175 386.108L303.424 389.012ZM269.586 389.012L269.74 393.009L269.754 393.008L269.768 393.008L269.586 389.012ZM232.672 390.721L232.422 386.728L232.399 386.73L232.376 386.732L232.672 390.721ZM211.139 392.43L211.355 396.424L211.413 396.421L211.471 396.416L211.139 392.43ZM184.137 394.48L182.46 390.849L184.516 398.462L184.137 394.48ZM199.176 386.277L201.395 389.606L201.457 389.564L201.518 389.52L199.176 386.277ZM209.43 378.074L206.827 375.037L206.776 375.081L206.727 375.126L209.43 378.074ZM217.633 370.213L220.593 372.904L220.764 372.715L220.91 372.507L217.633 370.213ZM227.203 354.49L230.658 356.506L230.67 356.485L230.682 356.465L227.203 354.49ZM243.268 324.754L239.748 322.853L239.733 322.881L239.719 322.908L243.268 324.754ZM262.408 288.182L258.869 286.319L258.856 286.343L258.843 286.368L262.408 288.182ZM280.865 251.609L284.471 253.34L284.478 253.326L284.485 253.313L280.865 251.609ZM294.195 221.531L290.488 220.028L290.488 220.028L294.195 221.531ZM299.322 205.125H303.322V204.819L303.276 204.517L299.322 205.125ZM295.904 195.213L292.327 197.002L295.904 195.213ZM288.385 184.275L285.227 186.731L285.269 186.784L285.312 186.836L288.385 184.275ZM380.328 305.613L380.673 309.598L385.005 309.223L384.271 304.937L380.328 305.613ZM376.568 285.105L372.64 285.861L372.643 285.875L372.646 285.89L376.568 285.105ZM373.834 270.408L377.773 269.713L377.765 269.668L377.756 269.624L373.834 270.408ZM371.783 258.445L375.748 257.917L375.727 257.761L375.694 257.607L371.783 258.445ZM369.391 246.141L373.326 245.425L373.316 245.371L373.305 245.317L369.391 246.141ZM365.973 230.076L362.031 230.756L362.045 230.835L362.061 230.914L365.973 230.076ZM361.529 206.492L365.452 205.708L363.165 194.276L357.952 204.703L361.529 206.492ZM331.109 266.99L327.543 265.179L327.537 265.19L327.532 265.201L331.109 266.99ZM315.729 298.094L319.306 299.883L319.319 299.858L319.331 299.833L315.729 298.094ZM309.234 311.766L305.44 310.501L303.515 316.276L309.579 315.751L309.234 311.766ZM274.132 174.596C285.526 175.28 295.098 175.85 302.847 176.306L303.317 168.319C295.572 167.864 286.003 167.294 274.611 166.611L274.132 174.596ZM302.968 176.311C310.932 176.538 317.519 176.766 322.733 176.992L323.08 169C317.812 168.771 311.182 168.542 303.196 168.314L302.968 176.311ZM322.753 176.993C328.753 177.224 333.899 177.227 338.167 176.99L337.723 169.002C333.788 169.221 328.909 169.224 323.06 168.999L322.753 176.993ZM338.167 176.99C342.411 176.754 348.104 176.171 355.205 175.254L354.181 167.32C347.155 168.227 341.683 168.782 337.723 169.002L338.167 176.99ZM355.152 175.261C361.121 174.572 369.018 173.542 378.83 172.173L377.725 164.249C367.94 165.615 360.114 166.635 354.235 167.313L355.152 175.261ZM378.906 172.161C388.949 170.563 401.382 168.51 416.201 166.003L414.866 158.115C400.062 160.62 387.657 162.668 377.649 164.261L378.906 172.161ZM412.705 159.23C407.354 164.581 403.073 169.558 399.927 174.155L406.53 178.673C409.308 174.612 413.23 170.018 418.362 164.887L412.705 159.23ZM399.9 174.195C397.125 178.358 394.887 182.003 393.212 185.113L400.256 188.906C401.771 186.092 403.863 182.673 406.557 178.633L399.9 174.195ZM393.157 185.221C391.274 188.986 389.896 192.324 389.116 195.186L396.834 197.291C397.42 195.139 398.549 192.326 400.312 188.799L393.157 185.221ZM389.052 195.454C388.703 197.201 388.761 199.703 388.987 202.539C389.226 205.517 389.696 209.321 390.386 213.921L398.298 212.735C397.62 208.221 397.179 204.619 396.962 201.901C396.733 199.04 396.791 197.554 396.897 197.023L389.052 195.454ZM390.386 213.921C391.766 223.119 393.715 234.01 396.23 246.583L404.075 245.014C401.576 232.523 399.652 221.766 398.298 212.735L390.386 213.921ZM396.233 246.597C398.741 258.91 401.477 272.134 404.441 286.268L412.27 284.626C409.309 270.505 406.577 257.297 404.072 245L396.233 246.597ZM404.443 286.281C407.412 300.211 410.382 313.348 413.353 325.69L421.131 323.818C418.178 311.551 415.223 298.483 412.268 284.614L404.443 286.281ZM413.357 325.707C416.323 337.798 418.949 348.188 421.235 356.875L428.972 354.839C426.701 346.209 424.086 335.864 421.127 323.801L413.357 325.707ZM421.269 356.997C422.533 361.247 423.641 364.694 424.591 367.307C425.484 369.762 426.385 371.917 427.317 373.221L433.827 368.572C433.62 368.281 433.04 367.132 432.11 364.573C431.237 362.174 430.181 358.899 428.938 354.718L421.269 356.997ZM427.317 373.221C430.761 378.042 432.801 381.064 433.593 382.451L440.539 378.482C439.509 376.679 437.22 373.321 433.827 368.572L427.317 373.221ZM433.738 382.686C435.192 384.866 437.474 386.51 440.063 387.804L443.64 380.649C441.672 379.664 440.764 378.802 440.395 378.248L433.738 382.686ZM440.063 387.804C441.061 388.304 442.614 389.018 444.67 389.933L447.919 382.622C445.875 381.713 444.465 381.061 443.64 380.649L440.063 387.804ZM444.506 389.855C446.381 390.793 448.816 391.952 451.796 393.327L455.149 386.063C452.205 384.705 449.854 383.585 448.084 382.7L444.506 389.855ZM451.897 393.372C455.155 394.768 459.197 396.384 464.012 398.218L466.86 390.743C462.104 388.931 458.171 387.357 455.048 386.019L451.897 393.372ZM465.231 390.486C456.357 390.941 448.746 391.282 442.392 391.508L442.678 399.503C449.085 399.274 456.74 398.932 465.64 398.475L465.231 390.486ZM442.535 391.506C436.117 391.506 430.795 391.62 426.591 391.854L427.034 399.841C431.033 399.619 436.193 399.506 442.535 399.506V391.506ZM426.622 391.852C421.821 392.081 417.693 392.31 414.242 392.54L414.774 400.522C418.159 400.297 422.234 400.07 427.003 399.843L426.622 391.852ZM414.508 392.531C410.924 392.531 406.689 392.77 401.824 393.233L402.582 401.197C407.288 400.749 411.256 400.531 414.508 400.531V392.531ZM401.761 393.239C397.738 393.686 392.445 394.138 385.863 394.592L386.414 402.573C393.049 402.115 398.465 401.655 402.645 401.19L401.761 393.239ZM385.854 394.592C379.505 395.046 372.012 395.5 363.37 395.955L363.79 403.944C372.466 403.487 380.012 403.03 386.424 402.572L385.854 394.592ZM365.874 403.226C370.511 399.98 374.311 397.02 377.22 394.353L371.815 388.456C369.256 390.801 365.763 393.538 361.286 396.672L365.874 403.226ZM377.231 394.344C380.239 391.567 382.634 389.179 384.364 387.202L378.343 381.934C376.883 383.604 374.721 385.773 371.804 388.465L377.231 394.344ZM384.477 387.067C386.446 384.606 387.973 382.183 388.859 379.821L381.368 377.012C380.887 378.294 379.907 379.973 378.23 382.07L384.477 387.067ZM389.018 379.284C389.547 376.905 389.902 373.564 390.133 369.409L382.145 368.966C381.92 373.014 381.591 375.826 381.209 377.548L389.018 379.284ZM390.131 369.437C390.371 365.601 390.366 360.666 390.136 354.678L382.142 354.986C382.367 360.847 382.362 365.483 382.146 368.938L390.131 369.437ZM390.136 354.684C389.904 348.427 389.327 340.37 388.412 330.536L380.447 331.277C381.355 341.039 381.917 348.932 382.141 354.98L390.136 354.684ZM384.021 326.927L294.129 336.156L294.946 344.114L384.838 334.885L384.021 326.927ZM291.089 338.107C288.741 342.098 286.92 345.721 285.677 348.953L293.144 351.825C294.179 349.132 295.776 345.918 297.985 342.163L291.089 338.107ZM285.718 348.85C284.522 351.721 283.635 354.347 283.113 356.699L290.922 358.434C291.311 356.685 292.02 354.525 293.102 351.927L285.718 348.85ZM283.159 356.514C282.409 359.263 282.036 361.918 282.374 364.284L290.294 363.153C290.176 362.329 290.259 360.883 290.877 358.619L283.159 356.514ZM282.453 364.689C282.988 366.828 283.887 369.233 285.085 371.868L292.368 368.558C291.287 366.18 290.591 364.256 290.215 362.749L282.453 364.689ZM285.149 372.002C286.375 374.454 288.052 377.32 290.147 380.579L296.876 376.253C294.87 373.131 293.357 370.529 292.304 368.424L285.149 372.002ZM290.341 380.855C292.799 384.05 296.27 387.744 300.673 391.916L306.175 386.108C301.919 382.076 298.781 378.706 296.682 375.977L290.341 380.855ZM303.584 385.015C297.832 384.785 291.968 384.67 285.992 384.67V392.67C291.865 392.67 297.623 392.783 303.264 393.009L303.584 385.015ZM285.992 384.67C280.018 384.67 274.487 384.785 269.404 385.016L269.768 393.008C274.71 392.783 280.118 392.67 285.992 392.67V384.67ZM269.432 385.015C263.506 385.243 257.693 385.471 251.994 385.699L252.314 393.692C258.009 393.464 263.817 393.237 269.74 393.009L269.432 385.015ZM251.994 385.699C246.261 385.928 239.736 386.271 232.422 386.728L232.921 394.713C240.191 394.259 246.654 393.919 252.314 393.692L251.994 385.699ZM232.376 386.732C226.209 387.189 219.018 387.759 210.806 388.444L211.471 396.416C219.666 395.733 226.831 395.164 232.967 394.71L232.376 386.732ZM210.923 388.436C202.43 388.895 193.375 389.583 183.757 390.498L184.516 398.462C194.039 397.555 202.985 396.876 211.355 396.424L210.923 388.436ZM185.813 398.112C191.869 395.317 197.075 392.485 201.395 389.606L196.957 382.949C193.073 385.538 188.253 388.175 182.46 390.849L185.813 398.112ZM201.518 389.52C205.703 386.497 209.251 383.664 212.133 381.023L206.727 375.126C204.14 377.497 200.851 380.133 196.834 383.035L201.518 389.52ZM212.033 381.111C215.32 378.293 218.18 375.558 220.593 372.904L214.673 367.522C212.529 369.881 209.919 372.386 206.827 375.037L212.033 381.111ZM220.91 372.507C222.618 370.066 225.895 364.671 230.658 356.506L223.748 352.475C218.941 360.715 215.837 365.803 214.356 367.919L220.91 372.507ZM230.682 356.465C235.497 347.98 240.876 338.023 246.816 326.599L239.719 322.908C233.81 334.271 228.479 344.138 223.724 352.516L230.682 356.465ZM246.787 326.655C252.957 315.229 259.352 303.009 265.973 289.995L258.843 286.368C252.248 299.331 245.883 311.492 239.748 322.853L246.787 326.655ZM265.948 290.045C272.803 277.019 278.978 264.784 284.471 253.34L277.259 249.878C271.815 261.221 265.685 273.367 258.869 286.319L265.948 290.045ZM284.485 253.313C289.973 241.65 294.448 231.554 297.902 223.034L290.488 220.028C287.106 228.371 282.695 238.327 277.246 249.906L284.485 253.313ZM297.902 223.034C299.632 218.768 300.958 215.181 301.858 212.3C302.719 209.546 303.322 207.042 303.322 205.125H295.322C295.322 205.715 295.071 207.198 294.223 209.913C293.414 212.501 292.177 215.863 290.488 220.028L297.902 223.034ZM303.276 204.517C302.739 201.026 301.429 197.317 299.482 193.424L292.327 197.002C294.026 200.4 294.994 203.299 295.369 205.733L303.276 204.517ZM299.482 193.424C297.699 189.858 294.986 185.948 291.458 181.715L285.312 186.836C288.62 190.805 290.919 194.187 292.327 197.002L299.482 193.424ZM291.542 181.82C288.097 177.39 283.175 172.618 276.898 167.503L271.844 173.704C277.872 178.616 282.292 182.958 285.227 186.731L291.542 181.82ZM384.271 304.937C382.899 296.939 381.639 290.065 380.491 284.321L372.646 285.89C373.776 291.54 375.022 298.337 376.386 306.289L384.271 304.937ZM380.496 284.35C379.359 278.436 378.452 273.559 377.773 269.713L369.895 271.103C370.583 275.005 371.499 279.926 372.64 285.861L380.496 284.35ZM377.756 269.624C376.856 265.124 376.189 261.225 375.748 257.917L367.818 258.974C368.289 262.501 368.989 266.578 369.912 271.193L377.756 269.624ZM375.694 257.607C375.023 254.474 374.234 250.417 373.326 245.425L365.455 246.856C366.37 251.89 367.176 256.037 367.872 259.283L375.694 257.607ZM373.305 245.317C372.392 240.981 371.252 235.621 369.884 229.238L362.061 230.914C363.428 237.292 364.566 242.642 365.476 246.965L373.305 245.317ZM369.914 229.397C368.767 222.743 367.279 214.845 365.452 205.708L357.607 207.277C359.425 216.369 360.899 224.193 362.031 230.756L369.914 229.397ZM357.952 204.703C344.965 230.677 334.829 250.835 327.543 265.179L334.676 268.802C341.973 254.435 352.117 234.26 365.107 208.281L357.952 204.703ZM327.532 265.201C320.467 279.331 315.329 289.72 312.126 296.355L319.331 299.833C322.508 293.251 327.624 282.904 334.687 268.779L327.532 265.201ZM312.151 296.305C310.209 300.188 308.686 303.292 307.587 305.606C306.534 307.823 305.76 309.539 305.44 310.501L313.029 313.031C313.164 312.625 313.701 311.379 314.813 309.038C315.878 306.795 317.374 303.747 319.306 299.883L312.151 296.305ZM309.579 315.751L380.673 309.598L379.983 301.628L308.89 307.781L309.579 315.751Z" fill="black" mask="url(#path-2-outside-1_1_48)"/>
</svg>
