<svg width="667" height="574" viewBox="0 0 667 574" fill="none" xmlns="http://www.w3.org/2000/svg">
<path d="M329.731 77.3246L333.333 81.0675L336.936 77.3246C410.653 0.734727 491.757 -8.74242 554.169 19.7863C616.896 48.459 661.667 115.895 661.667 195.073C661.667 274.561 628.876 335.548 583.678 386.442C546.885 427.873 502.14 462.352 460.225 494.651C450.456 502.179 440.84 509.588 431.515 516.94C414.164 530.618 397.447 543.638 380.97 553.266C364.492 562.894 348.731 568.836 333.333 568.836C317.936 568.836 302.174 562.894 285.696 553.266C269.22 543.638 252.504 530.618 235.153 516.94C225.827 509.588 216.211 502.178 206.442 494.65C164.527 462.352 119.782 427.872 82.9886 386.442C37.791 335.548 5 274.561 5 195.073C5 115.895 49.7702 48.459 112.497 19.7863C174.909 -8.74241 256.013 0.734719 329.731 77.3246Z" fill="#FF0000" stroke="black" stroke-width="10"/>
<mask id="path-2-outside-1_1_54" maskUnits="userSpaceOnUse" x="210" y="158" width="234" height="250" fill="black">
<rect fill="white" x="210" y="158" width="234" height="250"/>
<path d="M223.873 165.615C231.165 167.438 238.115 168.805 244.723 169.717C251.331 170.628 257.141 171.312 262.154 171.768C268.079 172.451 273.548 172.679 278.561 172.451C284.941 172.451 292.916 171.882 302.486 170.742C312.285 169.603 322.311 168.577 332.564 167.666C342.818 166.527 352.617 165.843 361.959 165.615C371.529 165.16 379.277 165.729 385.201 167.324C391.126 168.691 397.164 170.856 403.316 173.818C409.697 176.553 415.507 180.085 420.748 184.414C425.989 188.516 430.318 193.415 433.736 199.111C437.154 204.58 439.091 210.846 439.547 217.91C439.319 226.797 437.268 235.114 433.395 242.861C430.204 249.469 424.85 256.305 417.33 263.369C409.811 270.205 398.987 275.446 384.859 279.092C391.923 280.003 397.962 281.598 402.975 283.877C408.215 285.928 412.659 288.434 416.305 291.396C420.178 294.131 423.255 297.207 425.533 300.625C428.04 304.043 429.977 307.461 431.344 310.879C434.762 318.854 436.357 327.741 436.129 337.539C434.762 350.299 432.141 360.439 428.268 367.959C424.622 375.479 420.406 381.289 415.621 385.391C410.836 389.492 405.937 392.34 400.924 393.936C395.911 395.531 391.354 396.784 387.252 397.695C383.15 398.607 378.137 399.062 372.213 399.062C366.288 399.062 359.908 398.949 353.072 398.721C346.464 398.265 339.628 397.923 332.564 397.695C325.501 397.24 318.779 397.24 312.398 397.695C307.158 398.151 300.777 398.607 293.258 399.062C286.878 399.518 278.902 400.088 269.332 400.771C259.762 401.227 248.596 401.797 235.836 402.48C238.342 400.658 240.393 398.607 241.988 396.328C243.811 393.822 245.292 391.657 246.432 389.834C247.571 387.555 248.596 385.391 249.508 383.34C250.191 381.517 250.761 376.504 251.217 368.301C251.673 360.098 252.014 350.299 252.242 338.906C252.47 327.285 252.584 314.867 252.584 301.65C252.812 288.206 252.698 275.332 252.242 263.027C252.014 250.495 251.559 239.443 250.875 229.873C250.419 220.075 249.736 213.011 248.824 208.682C247.457 203.896 245.634 198.997 243.355 193.984C241.533 189.655 238.912 184.984 235.494 179.971C232.304 174.958 228.43 170.173 223.873 165.615ZM295.992 200.479C295.992 201.39 296.106 204.466 296.334 209.707C296.562 214.264 296.79 221.328 297.018 230.898C297.473 240.241 298.043 253.571 298.727 270.889C304.423 273.395 310.006 274.762 315.475 274.99C320.943 274.99 325.842 274.762 330.172 274.307C335.185 273.623 339.97 272.484 344.527 270.889C350.68 268.382 355.465 264.281 358.883 258.584C362.529 252.887 364.921 246.963 366.061 240.811C367.428 234.43 367.77 228.506 367.086 223.037C366.402 217.34 364.921 213.239 362.643 210.732C358.313 206.859 352.958 203.669 346.578 201.162C341.109 199.111 334.16 197.744 325.729 197.061C317.525 196.149 307.613 197.288 295.992 200.479ZM294.283 362.49C302.714 366.82 310.12 369.668 316.5 371.035C322.88 372.402 328.235 373.086 332.564 373.086C337.577 373.086 341.907 372.402 345.553 371.035C349.882 368.984 354.098 366.25 358.199 362.832C362.529 359.186 365.719 354.971 367.77 350.186C370.048 345.173 370.96 339.704 370.504 333.779C370.048 327.627 367.428 320.905 362.643 313.613C358.313 308.372 353.072 304.271 346.92 301.309C341.451 298.802 334.501 297.207 326.07 296.523C317.867 295.84 307.727 297.777 295.65 302.334L294.283 362.49Z"/>
</mask>
<path d="M223.873 165.615C231.165 167.438 238.115 168.805 244.723 169.717C251.331 170.628 257.141 171.312 262.154 171.768C268.079 172.451 273.548 172.679 278.561 172.451C284.941 172.451 292.916 171.882 302.486 170.742C312.285 169.603 322.311 168.577 332.564 167.666C342.818 166.527 352.617 165.843 361.959 165.615C371.529 165.16 379.277 165.729 385.201 167.324C391.126 168.691 397.164 170.856 403.316 173.818C409.697 176.553 415.507 180.085 420.748 184.414C425.989 188.516 430.318 193.415 433.736 199.111C437.154 204.58 439.091 210.846 439.547 217.91C439.319 226.797 437.268 235.114 433.395 242.861C430.204 249.469 424.85 256.305 417.33 263.369C409.811 270.205 398.987 275.446 384.859 279.092C391.923 280.003 397.962 281.598 402.975 283.877C408.215 285.928 412.659 288.434 416.305 291.396C420.178 294.131 423.255 297.207 425.533 300.625C428.04 304.043 429.977 307.461 431.344 310.879C434.762 318.854 436.357 327.741 436.129 337.539C434.762 350.299 432.141 360.439 428.268 367.959C424.622 375.479 420.406 381.289 415.621 385.391C410.836 389.492 405.937 392.34 400.924 393.936C395.911 395.531 391.354 396.784 387.252 397.695C383.15 398.607 378.137 399.062 372.213 399.062C366.288 399.062 359.908 398.949 353.072 398.721C346.464 398.265 339.628 397.923 332.564 397.695C325.501 397.24 318.779 397.24 312.398 397.695C307.158 398.151 300.777 398.607 293.258 399.062C286.878 399.518 278.902 400.088 269.332 400.771C259.762 401.227 248.596 401.797 235.836 402.48C238.342 400.658 240.393 398.607 241.988 396.328C243.811 393.822 245.292 391.657 246.432 389.834C247.571 387.555 248.596 385.391 249.508 383.34C250.191 381.517 250.761 376.504 251.217 368.301C251.673 360.098 252.014 350.299 252.242 338.906C252.47 327.285 252.584 314.867 252.584 301.65C252.812 288.206 252.698 275.332 252.242 263.027C252.014 250.495 251.559 239.443 250.875 229.873C250.419 220.075 249.736 213.011 248.824 208.682C247.457 203.896 245.634 198.997 243.355 193.984C241.533 189.655 238.912 184.984 235.494 179.971C232.304 174.958 228.43 170.173 223.873 165.615ZM295.992 200.479C295.992 201.39 296.106 204.466 296.334 209.707C296.562 214.264 296.79 221.328 297.018 230.898C297.473 240.241 298.043 253.571 298.727 270.889C304.423 273.395 310.006 274.762 315.475 274.99C320.943 274.99 325.842 274.762 330.172 274.307C335.185 273.623 339.97 272.484 344.527 270.889C350.68 268.382 355.465 264.281 358.883 258.584C362.529 252.887 364.921 246.963 366.061 240.811C367.428 234.43 367.77 228.506 367.086 223.037C366.402 217.34 364.921 213.239 362.643 210.732C358.313 206.859 352.958 203.669 346.578 201.162C341.109 199.111 334.16 197.744 325.729 197.061C317.525 196.149 307.613 197.288 295.992 200.479ZM294.283 362.49C302.714 366.82 310.12 369.668 316.5 371.035C322.88 372.402 328.235 373.086 332.564 373.086C337.577 373.086 341.907 372.402 345.553 371.035C349.882 368.984 354.098 366.25 358.199 362.832C362.529 359.186 365.719 354.971 367.77 350.186C370.048 345.173 370.96 339.704 370.504 333.779C370.048 327.627 367.428 320.905 362.643 313.613C358.313 308.372 353.072 304.271 346.92 301.309C341.451 298.802 334.501 297.207 326.07 296.523C317.867 295.84 307.727 297.777 295.65 302.334L294.283 362.49Z" fill="white"/>
<path d="M223.873 165.615L224.843 161.735L210.833 158.232L221.045 168.444L223.873 165.615ZM262.154 171.768L262.613 167.794L262.565 167.788L262.516 167.784L262.154 171.768ZM278.561 172.451V168.451H278.47L278.379 168.455L278.561 172.451ZM302.486 170.742L302.024 166.769L302.013 166.77L302.486 170.742ZM332.564 167.666L332.919 171.65L332.962 171.646L333.006 171.642L332.564 167.666ZM361.959 165.615L362.057 169.614L362.103 169.613L362.149 169.611L361.959 165.615ZM385.201 167.324L384.161 171.187L384.231 171.206L384.302 171.222L385.201 167.324ZM403.316 173.818L401.581 177.422L401.66 177.46L401.741 177.495L403.316 173.818ZM420.748 184.414L418.201 187.498L418.241 187.532L418.283 187.564L420.748 184.414ZM433.736 199.111L430.306 201.169L430.325 201.2L430.344 201.231L433.736 199.111ZM439.547 217.91L443.546 218.013L443.55 217.832L443.539 217.653L439.547 217.91ZM433.395 242.861L429.817 241.072L429.804 241.097L429.792 241.122L433.395 242.861ZM417.33 263.369L420.021 266.329L420.045 266.307L420.069 266.285L417.33 263.369ZM384.859 279.092L383.86 275.219L384.347 283.059L384.859 279.092ZM402.975 283.877L401.319 287.518L401.417 287.563L401.517 287.602L402.975 283.877ZM416.305 291.396L413.782 294.501L413.887 294.586L413.998 294.664L416.305 291.396ZM425.533 300.625L422.205 302.844L422.255 302.918L422.308 302.99L425.533 300.625ZM431.344 310.879L427.63 312.364L427.648 312.41L427.667 312.455L431.344 310.879ZM436.129 337.539L440.106 337.965L440.124 337.799L440.128 337.632L436.129 337.539ZM428.268 367.959L424.712 366.127L424.689 366.17L424.668 366.214L428.268 367.959ZM400.924 393.936L402.137 397.747L400.924 393.936ZM353.072 398.721L352.797 402.711L352.868 402.716L352.939 402.718L353.072 398.721ZM332.564 397.695L332.307 401.687L332.371 401.691L332.435 401.693L332.564 397.695ZM312.398 397.695L312.113 393.705L312.083 393.708L312.052 393.71L312.398 397.695ZM293.258 399.062L293.016 395.07L292.994 395.071L292.973 395.073L293.258 399.062ZM269.332 400.771L269.522 404.767L269.57 404.765L269.617 404.761L269.332 400.771ZM235.836 402.48L233.483 399.246L222.549 407.198L236.05 406.475L235.836 402.48ZM241.988 396.328L238.753 393.975L238.732 394.005L238.711 394.034L241.988 396.328ZM246.432 389.834L249.824 391.954L249.924 391.793L250.009 391.623L246.432 389.834ZM249.508 383.34L253.163 384.964L253.211 384.856L253.253 384.744L249.508 383.34ZM252.242 338.906L256.241 338.986L256.241 338.985L252.242 338.906ZM252.584 301.65L248.585 301.583L248.584 301.616V301.65H252.584ZM252.242 263.027L248.243 263.1L248.244 263.138L248.245 263.175L252.242 263.027ZM250.875 229.873L246.879 230.059L246.882 230.109L246.885 230.158L250.875 229.873ZM248.824 208.682L252.738 207.858L252.709 207.719L252.67 207.583L248.824 208.682ZM243.355 193.984L239.669 195.537L239.691 195.588L239.714 195.64L243.355 193.984ZM235.494 179.971L232.119 182.118L232.154 182.172L232.189 182.224L235.494 179.971ZM295.992 200.479L294.933 196.621L291.992 197.429V200.479H295.992ZM296.334 209.707L292.338 209.881L292.338 209.894L292.339 209.907L296.334 209.707ZM297.018 230.898L293.019 230.994L293.02 231.044L293.022 231.093L297.018 230.898ZM298.727 270.889L294.73 271.046L294.828 273.543L297.116 274.55L298.727 270.889ZM315.475 274.99L315.308 278.987L315.391 278.99H315.475V274.99ZM330.172 274.307L330.591 278.285L330.652 278.278L330.712 278.27L330.172 274.307ZM344.527 270.889L345.849 274.664L345.944 274.631L346.037 274.593L344.527 270.889ZM358.883 258.584L355.514 256.428L355.483 256.476L355.453 256.526L358.883 258.584ZM366.061 240.811L362.149 239.972L362.138 240.027L362.127 240.082L366.061 240.811ZM367.086 223.037L363.114 223.514L363.116 223.523L363.117 223.533L367.086 223.037ZM362.643 210.732L365.602 208.042L365.464 207.889L365.31 207.751L362.643 210.732ZM346.578 201.162L348.041 197.439L348.012 197.428L347.983 197.417L346.578 201.162ZM325.729 197.061L325.287 201.036L325.346 201.043L325.405 201.047L325.729 197.061ZM294.283 362.49L290.284 362.399L290.227 364.904L292.456 366.049L294.283 362.49ZM316.5 371.035L315.662 374.946L316.5 371.035ZM345.553 371.035L346.957 374.78L347.114 374.722L347.265 374.65L345.553 371.035ZM358.199 362.832L360.76 365.905L360.768 365.898L360.776 365.892L358.199 362.832ZM367.77 350.186L364.128 348.53L364.11 348.57L364.093 348.61L367.77 350.186ZM370.504 333.779L366.515 334.075L366.516 334.086L370.504 333.779ZM362.643 313.613L365.987 311.419L365.866 311.235L365.726 311.066L362.643 313.613ZM346.92 301.309L348.655 297.705L348.621 297.688L348.587 297.672L346.92 301.309ZM326.07 296.523L325.738 300.51L325.747 300.51L326.07 296.523ZM295.65 302.334L294.238 298.592L291.713 299.545L291.651 302.243L295.65 302.334ZM222.903 169.496C230.317 171.349 237.409 172.746 244.176 173.679L245.269 165.754C238.82 164.865 232.012 163.527 224.843 161.735L222.903 169.496ZM244.176 173.679C250.827 174.597 256.701 175.288 261.792 175.751L262.516 167.784C257.581 167.335 251.834 166.66 245.269 165.754L244.176 173.679ZM261.696 175.741C267.794 176.445 273.48 176.686 278.742 176.447L278.379 168.455C273.615 168.672 268.363 168.457 262.613 167.794L261.696 175.741ZM278.561 176.451C285.157 176.451 293.302 175.864 302.959 174.714L302.013 166.77C292.53 167.899 284.725 168.451 278.561 168.451V176.451ZM302.948 174.715C312.709 173.58 322.699 172.559 332.919 171.65L332.21 163.682C321.922 164.596 311.86 165.625 302.024 166.769L302.948 174.715ZM333.006 171.642C343.157 170.514 352.84 169.839 362.057 169.614L361.861 161.616C352.393 161.847 342.479 162.54 332.123 163.69L333.006 171.642ZM362.149 169.611C371.51 169.165 378.797 169.742 384.161 171.187L386.241 163.462C379.757 161.716 371.548 161.154 361.769 161.62L362.149 169.611ZM384.302 171.222C389.905 172.515 395.664 174.573 401.581 177.422L405.052 170.214C398.665 167.139 392.346 164.868 386.101 163.427L384.302 171.222ZM401.741 177.495C407.778 180.082 413.26 183.417 418.201 187.498L423.296 181.33C417.754 176.753 411.615 173.023 404.892 170.142L401.741 177.495ZM418.283 187.564C423.139 191.364 427.141 195.893 430.306 201.169L437.166 197.053C433.496 190.936 428.839 185.667 423.213 181.264L418.283 187.564ZM430.344 201.231C433.378 206.085 435.138 211.699 435.555 218.168L443.539 217.653C443.044 209.994 440.931 203.075 437.128 196.991L430.344 201.231ZM435.548 217.808C435.335 226.124 433.421 233.864 429.817 241.072L436.972 244.65C441.115 236.364 443.303 227.47 443.546 218.013L435.548 217.808ZM429.792 241.122C426.883 247.149 421.888 253.6 414.591 260.454L420.069 266.285C427.812 259.011 433.526 251.79 436.997 244.6L429.792 241.122ZM414.639 260.409C407.765 266.659 397.614 271.669 383.86 275.219L385.859 282.965C400.36 279.223 411.856 273.751 420.021 266.329L414.639 260.409ZM384.347 283.059C391.125 283.933 396.757 285.445 401.319 287.518L404.63 280.235C399.166 277.752 392.721 276.073 385.371 275.125L384.347 283.059ZM401.517 287.602C406.447 289.531 410.513 291.845 413.782 294.501L418.827 288.292C414.804 285.024 409.984 282.324 404.432 280.152L401.517 287.602ZM413.998 294.664C417.531 297.158 420.238 299.893 422.205 302.844L428.861 298.406C426.271 294.521 422.826 291.104 418.611 288.129L413.998 294.664ZM422.308 302.99C424.644 306.177 426.405 309.302 427.63 312.364L435.058 309.393C433.548 305.62 431.435 301.909 428.759 298.26L422.308 302.99ZM427.667 312.455C430.832 319.839 432.346 328.146 432.13 337.446L440.128 337.632C440.367 327.335 438.692 317.87 435.02 309.303L427.667 312.455ZM432.152 337.113C430.813 349.611 428.274 359.212 424.712 366.127L431.823 369.791C436.009 361.667 438.711 350.988 440.106 337.965L432.152 337.113ZM424.668 366.214C421.188 373.392 417.274 378.706 413.018 382.354L418.224 388.428C423.539 383.872 428.055 377.565 431.867 369.704L424.668 366.214ZM413.018 382.354C408.561 386.174 404.123 388.72 399.711 390.124L402.137 397.747C407.751 395.961 413.111 392.81 418.224 388.428L413.018 382.354ZM399.711 390.124C394.785 391.691 390.345 392.91 386.384 393.791L388.12 401.6C392.362 400.657 397.037 399.37 402.137 397.747L399.711 390.124ZM386.384 393.791C382.657 394.619 377.954 395.062 372.213 395.062V403.062C378.321 403.062 383.644 402.595 388.12 401.6L386.384 393.791ZM372.213 395.062C366.339 395.062 360.004 394.95 353.206 394.723L352.939 402.718C359.813 402.948 366.238 403.062 372.213 403.062V395.062ZM353.347 394.73C346.688 394.271 339.803 393.927 332.693 393.697L332.435 401.693C339.454 401.92 346.241 402.259 352.797 402.711L353.347 394.73ZM332.822 393.704C325.596 393.237 318.692 393.236 312.113 393.705L312.683 401.685C318.865 401.244 325.405 401.242 332.307 401.687L332.822 393.704ZM312.052 393.71C306.857 394.162 300.514 394.615 293.016 395.07L293.5 403.055C301.041 402.598 307.458 402.14 312.745 401.68L312.052 393.71ZM292.973 395.073C292.823 395.083 292.973 395.073 292.823 395.083C292.806 395.085 292.765 395.088 292.748 395.089C292.735 395.09 292.723 395.091 292.71 395.091C292.698 395.092 292.685 395.093 292.673 395.094C292.66 395.095 292.647 395.096 292.635 395.097C292.622 395.098 292.61 395.099 292.597 395.099C292.589 395.1 292.53 395.104 292.522 395.105C292.505 395.106 292.387 395.115 292.37 395.116C292.218 395.127 292.218 395.127 292.065 395.138C292.02 395.141 291.804 395.156 291.758 395.159C291.621 395.169 291.586 395.172 291.448 395.182C291.293 395.193 291.293 395.193 291.136 395.204C291.068 395.209 290.577 395.244 290.505 395.249C289.867 395.295 289.867 395.295 289.216 395.341C289.144 395.346 288.632 395.383 288.557 395.388C288.52 395.391 288.261 395.409 288.224 395.412C288.205 395.413 288.075 395.422 288.057 395.424C288.043 395.425 288.029 395.426 288.015 395.427C288.001 395.428 287.987 395.429 287.973 395.43C287.959 395.431 287.945 395.432 287.931 395.433C287.917 395.434 287.903 395.435 287.889 395.436C287.739 395.446 287.701 395.449 287.551 395.46C287.419 395.469 287.344 395.475 287.211 395.484C287.136 395.49 286.602 395.528 286.524 395.533C285.83 395.583 285.828 395.583 285.122 395.633C285.044 395.639 284.488 395.679 284.407 395.684C284.397 395.685 284.327 395.69 284.317 395.691C284.037 395.711 284.507 395.677 284.227 395.697C284.212 395.698 284.197 395.7 284.182 395.701C284.167 395.702 284.152 395.703 284.137 395.704C284.127 395.705 284.056 395.71 284.046 395.71C284.026 395.712 283.885 395.722 283.865 395.723C283.855 395.724 283.784 395.729 283.774 395.73C283.759 395.731 283.744 395.732 283.728 395.733C283.713 395.734 283.698 395.735 283.683 395.736C283.521 395.748 283.48 395.751 283.317 395.762C283.277 395.765 282.991 395.786 282.949 395.789C282.868 395.794 282.29 395.836 282.206 395.842C281.455 395.895 281.456 395.895 280.692 395.95C280.308 395.977 280.308 395.977 279.921 396.005C279.727 396.019 279.727 396.019 279.532 396.033C279.185 396.058 279.489 396.036 279.141 396.061C278.966 396.073 278.923 396.076 278.747 396.089C278.736 396.09 278.659 396.095 278.648 396.096C278.632 396.097 278.615 396.098 278.599 396.099C278.582 396.101 278.566 396.102 278.549 396.103C278.533 396.104 278.516 396.105 278.5 396.106C278.483 396.108 278.467 396.109 278.45 396.11C278.439 396.111 278.362 396.116 278.351 396.117C277.953 396.146 277.953 396.145 277.552 396.174C276.926 396.219 276.564 396.245 275.926 396.29C275.559 396.316 275.881 396.294 275.513 396.32C275.496 396.321 275.479 396.322 275.462 396.323C275.444 396.325 275.427 396.326 275.41 396.327C275.393 396.328 275.375 396.33 275.358 396.331C275.341 396.332 275.324 396.333 275.306 396.335C275.203 396.342 275.203 396.342 275.099 396.349C275.087 396.35 275.006 396.356 274.995 396.357C274.977 396.358 274.96 396.359 274.942 396.361C274.925 396.362 274.908 396.363 274.89 396.364C274.873 396.366 274.856 396.367 274.838 396.368C274.821 396.369 274.803 396.37 274.786 396.372C274.734 396.375 274.734 396.375 274.682 396.379C274.311 396.406 274.634 396.383 274.262 396.409C274.245 396.41 274.227 396.412 274.21 396.413C274.192 396.414 274.174 396.415 274.157 396.417C274.104 396.42 274.104 396.42 274.052 396.424C273.97 396.43 273.923 396.433 273.84 396.439C273.823 396.441 273.805 396.442 273.787 396.443C273.77 396.444 273.752 396.446 273.735 396.447C273.717 396.448 273.699 396.449 273.682 396.451C273.664 396.452 273.646 396.453 273.629 396.454C273.611 396.456 273.593 396.457 273.576 396.458C273.558 396.459 273.54 396.461 273.523 396.462C273.505 396.463 273.487 396.464 273.469 396.466C273.452 396.467 273.434 396.468 273.416 396.47C273.039 396.497 273.368 396.473 272.99 396.5C272.8 396.514 272.752 396.517 272.561 396.531C271.891 396.579 271.506 396.606 270.823 396.655C270.713 396.663 270.713 396.663 270.603 396.671C270.548 396.674 270.548 396.674 270.493 396.678C270.474 396.68 270.456 396.681 270.438 396.682C270.419 396.684 270.401 396.685 270.382 396.686C270.186 396.7 270.468 396.68 270.272 396.694C270.253 396.695 270.235 396.697 270.217 396.698C270.198 396.699 270.18 396.701 270.161 396.702C270.051 396.71 270.051 396.71 269.94 396.718C269.891 396.721 269.544 396.746 269.494 396.75C269.476 396.751 269.457 396.752 269.439 396.754C269.42 396.755 269.401 396.756 269.383 396.758C269.364 396.759 269.346 396.76 269.327 396.762C269.308 396.763 269.29 396.764 269.271 396.766C269.215 396.77 269.215 396.77 269.159 396.774C269.14 396.775 269.122 396.776 269.103 396.778C269.084 396.779 269.066 396.78 269.047 396.782L269.617 404.761C269.636 404.76 269.654 404.759 269.673 404.757C269.692 404.756 269.71 404.755 269.729 404.753C269.748 404.752 269.766 404.751 269.785 404.749C269.804 404.748 269.822 404.747 269.841 404.745C269.903 404.741 270.002 404.734 270.064 404.729C270.164 404.722 270.188 404.721 270.287 404.713C270.306 404.712 270.324 404.711 270.343 404.709C270.361 404.708 270.38 404.707 270.399 404.705C270.417 404.704 270.436 404.703 270.454 404.702C270.473 404.7 270.491 404.699 270.51 404.698C270.528 404.696 270.547 404.695 270.565 404.694C270.584 404.692 270.602 404.691 270.62 404.69C270.639 404.688 270.657 404.687 270.676 404.686C270.694 404.684 270.713 404.683 270.731 404.682C270.75 404.68 270.768 404.679 270.787 404.678C270.805 404.676 270.823 404.675 270.842 404.674C270.86 404.673 270.879 404.671 270.897 404.67C270.916 404.669 270.934 404.667 270.952 404.666C271.246 404.645 271.1 404.655 271.393 404.634C271.491 404.627 271.515 404.626 271.612 404.619C271.709 404.612 271.624 404.618 271.722 404.611C271.74 404.61 271.758 404.608 271.776 404.607C271.794 404.606 271.813 404.604 271.831 404.603C271.904 404.598 271.867 404.601 271.94 404.595C271.958 404.594 271.976 404.593 271.995 404.591C272.013 404.59 272.031 404.589 272.049 404.588C272.146 404.581 272.17 404.579 272.267 404.572C272.556 404.551 272.194 404.577 272.484 404.557C272.724 404.539 272.351 404.566 272.592 404.549C272.61 404.548 272.628 404.546 272.646 404.545C272.664 404.544 272.682 404.542 272.7 404.541C272.718 404.54 272.736 404.539 272.754 404.537C272.772 404.536 272.79 404.535 272.808 404.533C273.048 404.516 272.676 404.543 272.916 404.526C273.012 404.519 272.928 404.525 273.024 404.518C273.053 404.516 273.101 404.512 273.131 404.51C273.37 404.493 273 404.52 273.239 404.503C273.256 404.501 273.274 404.5 273.292 404.499C273.31 404.498 273.328 404.496 273.346 404.495C273.441 404.488 273.465 404.486 273.56 404.48C273.844 404.459 273.49 404.485 273.773 404.464C273.815 404.461 273.945 404.452 273.986 404.449C274.152 404.437 274.246 404.431 274.41 404.419C274.481 404.414 274.446 404.416 274.516 404.411C274.534 404.41 274.551 404.409 274.569 404.408C274.586 404.406 274.604 404.405 274.622 404.404C274.715 404.397 274.739 404.395 274.832 404.389C274.925 404.382 274.844 404.388 274.937 404.381C274.955 404.38 274.972 404.379 274.99 404.378C275.007 404.376 275.025 404.375 275.042 404.374C275.112 404.369 275.077 404.371 275.147 404.366C275.164 404.365 275.182 404.364 275.199 404.363C275.217 404.361 275.234 404.36 275.251 404.359C275.344 404.352 275.368 404.351 275.46 404.344C275.478 404.343 275.495 404.341 275.512 404.34C275.53 404.339 275.547 404.338 275.565 404.336C275.582 404.335 275.599 404.334 275.617 404.333C275.634 404.332 275.651 404.33 275.669 404.329C275.738 404.324 275.703 404.327 275.772 404.322C275.865 404.315 275.784 404.321 275.876 404.314C275.968 404.308 275.991 404.306 276.083 404.299C276.175 404.293 276.095 404.299 276.187 404.292C276.204 404.291 276.221 404.29 276.238 404.288C276.255 404.287 276.273 404.286 276.29 404.285C276.358 404.28 276.324 404.282 276.393 404.277C276.41 404.276 276.427 404.275 276.444 404.274C276.461 404.272 276.479 404.271 276.496 404.27C276.61 404.262 276.792 404.249 276.906 404.241C276.974 404.236 276.94 404.238 277.008 404.233C277.025 404.232 277.042 404.231 277.059 404.23C277.076 404.229 277.093 404.227 277.11 404.226C277.2 404.22 277.223 404.218 277.313 404.212C277.584 404.192 277.246 404.216 277.516 404.197C277.584 404.192 277.55 404.195 277.618 404.19C277.635 404.189 277.651 404.187 277.668 404.186C277.685 404.185 277.702 404.184 277.719 404.183C277.809 404.176 277.831 404.175 277.921 404.168C277.937 404.167 277.954 404.166 277.971 404.165C277.988 404.163 278.005 404.162 278.021 404.161C278.038 404.16 278.055 404.159 278.072 404.157C278.088 404.156 278.105 404.155 278.122 404.154C278.189 404.149 278.155 404.151 278.222 404.147C278.534 404.124 278.011 404.162 278.323 404.139C278.412 404.133 278.434 404.132 278.523 404.125C278.611 404.119 278.633 404.117 278.722 404.111C278.788 404.106 278.755 404.109 278.822 404.104C278.976 404.093 278.766 404.108 278.921 404.097C278.954 404.094 279.284 404.071 279.317 404.068C279.383 404.064 279.35 404.066 279.416 404.061C279.432 404.06 279.449 404.059 279.465 404.058C279.481 404.057 279.498 404.056 279.514 404.054C279.602 404.048 279.624 404.047 279.711 404.04C280.016 404.019 279.504 404.055 279.809 404.033C279.825 404.032 279.841 404.031 279.858 404.03C279.874 404.029 279.89 404.028 279.907 404.026C279.972 404.022 279.939 404.024 280.004 404.019C280.021 404.018 280.037 404.017 280.053 404.016C280.07 404.015 280.086 404.014 280.102 404.012C280.189 404.006 280.211 404.005 280.297 403.998C280.599 403.977 280.092 404.013 280.394 403.992C280.41 403.99 280.426 403.989 280.443 403.988C280.459 403.987 280.475 403.986 280.491 403.985C280.923 403.954 280.447 403.988 280.878 403.957C280.963 403.951 280.985 403.949 281.07 403.943C281.086 403.942 281.246 403.931 281.262 403.93C281.369 403.922 281.538 403.91 281.644 403.902C281.66 403.901 281.676 403.9 281.692 403.899C281.708 403.898 281.723 403.897 281.739 403.895C281.755 403.894 281.771 403.893 281.787 403.892C281.803 403.891 281.818 403.89 281.834 403.889C281.919 403.883 281.94 403.881 282.024 403.875C282.04 403.874 282.055 403.873 282.071 403.872C282.087 403.871 282.103 403.869 282.118 403.868C282.137 403.867 282.194 403.863 282.213 403.862C282.229 403.86 282.244 403.859 282.26 403.858C282.276 403.857 282.291 403.856 282.307 403.855C282.453 403.844 282.255 403.859 282.401 403.848C282.433 403.846 282.745 403.824 282.776 403.821C283.192 403.792 282.734 403.824 283.149 403.795C283.231 403.789 283.252 403.787 283.334 403.782C283.417 403.776 283.345 403.781 283.427 403.775C283.442 403.774 283.458 403.773 283.473 403.772C283.488 403.771 283.504 403.769 283.519 403.768C283.601 403.762 283.622 403.761 283.703 403.755C283.719 403.754 283.734 403.753 283.749 403.752C283.765 403.751 283.78 403.75 283.795 403.749C283.811 403.747 283.826 403.746 283.841 403.745C283.857 403.744 283.872 403.743 283.887 403.742C284.295 403.713 283.846 403.745 284.253 403.716C284.268 403.715 284.283 403.714 284.298 403.713C284.314 403.712 284.329 403.71 284.344 403.709C284.359 403.708 284.374 403.707 284.389 403.706C284.405 403.705 284.42 403.704 284.435 403.703C284.657 403.687 284.304 403.712 284.526 403.696C284.541 403.695 284.556 403.694 284.571 403.693C284.586 403.692 284.601 403.691 284.616 403.69C284.697 403.684 284.717 403.683 284.797 403.677C284.877 403.671 284.897 403.67 284.977 403.664C285.377 403.636 284.937 403.667 285.336 403.639C285.351 403.637 285.366 403.636 285.381 403.635C285.395 403.634 285.41 403.633 285.425 403.632C285.44 403.631 285.455 403.63 285.47 403.629C285.485 403.628 285.499 403.627 285.514 403.626C285.732 403.61 285.385 403.635 285.603 403.619C285.618 403.618 285.633 403.617 285.648 403.616C285.663 403.615 285.677 403.614 285.692 403.613C285.771 403.607 285.791 403.606 285.869 403.6C285.884 403.599 285.899 403.598 285.914 403.597C285.928 403.596 285.943 403.595 285.958 403.594C285.973 403.593 285.987 403.592 286.002 403.591C286.017 403.59 286.031 403.589 286.046 403.588C286.095 403.584 286.173 403.579 286.222 403.575C286.3 403.57 286.32 403.568 286.398 403.563C286.412 403.562 286.427 403.561 286.442 403.56C286.456 403.559 286.471 403.557 286.485 403.556C286.493 403.556 286.565 403.551 286.573 403.55C286.786 403.535 286.447 403.559 286.66 403.544C286.675 403.543 286.689 403.542 286.704 403.541C286.718 403.54 286.733 403.539 286.747 403.538C286.824 403.532 286.844 403.531 286.921 403.525C287.266 403.501 286.749 403.538 287.094 403.513C287.248 403.502 287.027 403.518 287.18 403.507C287.195 403.506 287.209 403.505 287.224 403.504C287.238 403.503 287.252 403.502 287.267 403.501C287.343 403.495 287.362 403.494 287.439 403.488C287.453 403.487 287.467 403.486 287.482 403.485C287.496 403.484 287.51 403.483 287.524 403.482C287.539 403.481 287.553 403.48 287.567 403.479C287.582 403.478 287.596 403.477 287.61 403.476C287.895 403.456 287.411 403.49 287.696 403.47C287.71 403.469 287.724 403.468 287.738 403.467C287.753 403.466 287.767 403.465 287.781 403.464C287.857 403.458 287.876 403.457 287.951 403.452C288.291 403.427 287.782 403.464 288.121 403.44C288.497 403.413 288.084 403.442 288.459 403.415C288.794 403.392 288.291 403.427 288.627 403.403C288.775 403.393 288.561 403.408 288.71 403.398C288.724 403.397 288.738 403.396 288.752 403.395C288.766 403.394 288.78 403.393 288.794 403.392C288.868 403.386 288.887 403.385 288.961 403.38C289.293 403.356 288.795 403.391 289.127 403.368C289.496 403.341 289.089 403.37 289.457 403.344C289.64 403.331 289.357 403.351 289.54 403.338C289.553 403.337 289.567 403.336 289.581 403.335C289.594 403.334 289.608 403.333 289.622 403.332C289.768 403.322 289.558 403.337 289.704 403.327C289.718 403.326 289.731 403.325 289.745 403.324C289.758 403.323 289.772 403.322 289.786 403.321C289.932 403.31 290.292 403.285 290.435 403.274C290.507 403.269 290.525 403.268 290.596 403.263C290.864 403.244 290.409 403.276 290.676 403.257C290.69 403.256 290.703 403.255 290.716 403.254C290.73 403.253 290.743 403.252 290.757 403.251C290.828 403.246 290.845 403.245 290.916 403.24C291.234 403.217 290.758 403.251 291.075 403.229C291.428 403.203 291.04 403.231 291.392 403.206C291.81 403.176 291.289 403.213 291.706 403.184C291.845 403.174 292.192 403.149 292.328 403.139C292.465 403.129 292.499 403.127 292.635 403.117C292.648 403.116 292.661 403.115 292.673 403.114C292.686 403.114 292.699 403.113 292.712 403.112C292.791 403.106 292.709 403.112 292.788 403.106C292.923 403.097 292.805 403.105 292.94 403.095C293.12 403.083 293.366 403.065 293.543 403.052L292.973 395.073ZM269.142 396.776C259.561 397.232 248.388 397.802 235.622 398.486L236.05 406.475C248.805 405.791 259.962 405.222 269.522 404.767L269.142 396.776ZM238.189 405.715C241.013 403.662 243.389 401.302 245.265 398.622L238.711 394.034C237.397 395.911 235.672 397.653 233.483 399.246L238.189 405.715ZM245.223 398.681C247.079 396.128 248.618 393.882 249.824 391.954L243.04 387.714C241.966 389.431 240.543 391.515 238.753 393.975L245.223 398.681ZM250.009 391.623C251.172 389.297 252.224 387.077 253.163 384.964L245.853 381.715C244.969 383.704 243.97 385.814 242.854 388.045L250.009 391.623ZM253.253 384.744C253.79 383.312 254.141 381.141 254.422 378.665C254.719 376.049 254.981 372.66 255.211 368.523L247.223 368.079C246.997 372.145 246.746 375.363 246.473 377.761C246.185 380.298 245.909 381.545 245.762 381.935L253.253 384.744ZM255.211 368.523C255.67 360.258 256.013 350.41 256.241 338.986L248.243 338.826C248.016 350.189 247.675 359.937 247.223 368.079L255.211 368.523ZM256.241 338.985C256.47 327.334 256.584 314.889 256.584 301.65H248.584C248.584 314.844 248.47 327.236 248.243 338.828L256.241 338.985ZM256.583 301.718C256.812 288.209 256.698 275.262 256.239 262.879L248.245 263.175C248.698 275.402 248.811 288.204 248.585 301.583L256.583 301.718ZM256.242 262.955C256.013 250.371 255.555 239.247 254.865 229.588L246.885 230.158C247.562 239.64 248.016 250.618 248.243 263.1L256.242 262.955ZM254.871 229.687C254.414 219.868 253.721 212.527 252.738 207.858L244.91 209.506C245.75 213.495 246.425 220.281 246.879 230.059L254.871 229.687ZM252.67 207.583C251.243 202.589 249.349 197.504 246.997 192.329L239.714 195.64C241.919 200.491 243.671 205.204 244.978 209.781L252.67 207.583ZM247.042 192.432C245.091 187.798 242.326 182.891 238.799 177.717L232.189 182.224C235.498 187.077 237.974 191.512 239.669 195.537L247.042 192.432ZM238.869 177.823C235.509 172.544 231.448 167.533 226.701 162.787L221.045 168.444C225.413 172.812 229.099 177.371 232.119 182.118L238.869 177.823ZM291.992 200.479C291.992 201.501 292.112 204.692 292.338 209.881L300.33 209.533C300.1 204.24 299.992 201.279 299.992 200.479H291.992ZM292.339 209.907C292.564 214.409 292.791 221.429 293.019 230.994L301.016 230.803C300.788 221.227 300.56 214.12 300.329 209.507L292.339 209.907ZM293.022 231.093C293.477 240.417 294.046 253.733 294.73 271.046L302.723 270.731C302.04 253.409 301.469 240.065 301.013 230.704L293.022 231.093ZM297.116 274.55C303.207 277.23 309.278 278.735 315.308 278.987L315.641 270.994C310.734 270.789 305.64 269.56 300.338 267.227L297.116 274.55ZM315.475 278.99C321.05 278.99 326.092 278.758 330.591 278.285L329.753 270.329C325.593 270.767 320.837 270.99 315.475 270.99V278.99ZM330.712 278.27C335.979 277.552 341.026 276.352 345.849 274.664L343.206 267.113C338.914 268.615 334.391 269.694 329.631 270.343L330.712 278.27ZM346.037 274.593C352.99 271.76 358.45 267.081 362.313 260.642L355.453 256.526C352.48 261.48 348.369 265.004 343.018 267.184L346.037 274.593ZM362.252 260.74C366.153 254.644 368.753 248.239 369.994 241.539L362.127 240.082C361.09 245.687 358.904 251.131 355.514 256.428L362.252 260.74ZM369.972 241.649C371.416 234.909 371.803 228.528 371.055 222.541L363.117 223.533C363.736 228.484 363.439 233.952 362.149 239.972L369.972 241.649ZM371.057 222.561C370.337 216.553 368.709 211.459 365.602 208.042L359.683 213.423C361.133 215.019 362.468 218.128 363.114 223.514L371.057 222.561ZM365.31 207.751C360.569 203.509 354.785 200.089 348.041 197.439L345.116 204.885C351.131 207.248 356.058 210.208 359.975 213.713L365.31 207.751ZM347.983 197.417C342.049 195.192 334.703 193.775 326.052 193.074L325.405 201.047C333.616 201.713 340.17 203.031 345.174 204.907L347.983 197.417ZM326.17 193.085C317.289 192.098 306.838 193.353 294.933 196.621L297.051 204.336C308.389 201.223 317.762 200.2 325.287 201.036L326.17 193.085ZM292.456 366.049C301.072 370.473 308.821 373.481 315.662 374.946L317.338 367.124C311.418 365.855 304.356 363.166 296.11 358.932L292.456 366.049ZM315.662 374.946C322.194 376.346 327.85 377.086 332.564 377.086V369.086C328.62 369.086 323.567 368.459 317.338 367.124L315.662 374.946ZM332.564 377.086C337.926 377.086 342.754 376.357 346.957 374.78L344.148 367.29C341.06 368.448 337.229 369.086 332.564 369.086V377.086ZM347.265 374.65C351.931 372.44 356.429 369.514 360.76 365.905L355.638 359.759C351.767 362.986 347.833 365.529 343.84 367.42L347.265 374.65ZM360.776 365.892C365.54 361.88 369.128 357.169 371.446 351.761L364.093 348.61C362.309 352.772 359.517 356.493 355.623 359.772L360.776 365.892ZM371.411 351.841C373.991 346.165 374.995 340.015 374.492 333.473L366.516 334.086C366.924 339.392 366.106 344.18 364.128 348.53L371.411 351.841ZM374.493 333.484C373.971 326.431 370.999 319.057 365.987 311.419L359.298 315.808C363.856 322.753 366.126 328.823 366.515 334.075L374.493 333.484ZM365.726 311.066C361.027 305.377 355.326 300.916 348.655 297.705L345.185 304.913C350.819 307.625 355.599 311.367 359.559 316.161L365.726 311.066ZM348.587 297.672C342.56 294.91 335.115 293.244 326.394 292.537L325.747 300.51C333.887 301.17 340.342 302.694 345.253 304.945L348.587 297.672ZM326.402 292.537C317.365 291.784 306.588 293.931 294.238 298.592L297.063 306.076C308.867 301.622 318.369 299.896 325.738 300.51L326.402 292.537ZM291.651 302.243L290.284 362.399L298.282 362.581L299.649 302.425L291.651 302.243Z" fill="black" mask="url(#path-2-outside-1_1_54)"/>
</svg>
