<svg width="667" height="574" viewBox="0 0 667 574" fill="none" xmlns="http://www.w3.org/2000/svg">
<path d="M329.731 77.3246L333.333 81.0675L336.936 77.3246C410.653 0.734727 491.757 -8.74242 554.169 19.7863C616.896 48.459 661.667 115.895 661.667 195.073C661.667 274.561 628.876 335.548 583.678 386.442C546.885 427.873 502.14 462.352 460.225 494.651C450.456 502.179 440.84 509.588 431.515 516.94C414.164 530.618 397.447 543.638 380.97 553.266C364.492 562.894 348.731 568.836 333.333 568.836C317.936 568.836 302.174 562.894 285.696 553.266C269.22 543.638 252.504 530.618 235.153 516.94C225.827 509.588 216.211 502.178 206.442 494.65C164.527 462.352 119.782 427.872 82.9886 386.442C37.791 335.548 5 274.561 5 195.073C5 115.895 49.7702 48.459 112.497 19.7863C174.909 -8.74241 256.013 0.734719 329.731 77.3246Z" fill="#FF0000" stroke="black" stroke-width="10"/>
<mask id="path-2-outside-1_1_58" maskUnits="userSpaceOnUse" x="203.333" y="159.503" width="238" height="250" fill="black">
<rect fill="white" x="203.333" y="159.503" width="238" height="250"/>
<path d="M222.156 165.802C230.131 166.941 237.081 167.853 243.005 168.536C248.93 169.22 253.829 169.789 257.702 170.245C262.26 170.701 266.133 171.043 269.324 171.271C272.969 171.726 277.413 171.498 282.654 170.587C288.122 169.676 293.933 168.764 300.085 167.853C306.238 166.713 312.618 165.802 319.226 165.118C325.834 164.435 332.214 164.435 338.367 165.118C342.468 165.574 347.709 166.485 354.089 167.853C360.469 169.22 367.191 171.385 374.255 174.347C381.547 177.309 388.839 181.183 396.13 185.968C403.422 190.753 410.03 196.791 415.954 204.083C421.879 211.375 426.778 220.034 430.652 230.06C434.525 240.086 436.69 251.821 437.146 265.265C437.829 285.317 436.006 303.546 431.677 319.952C427.348 336.358 420.626 350.372 411.511 361.993C402.624 373.614 391.345 382.729 377.673 389.337C364.001 395.945 348.051 399.591 329.822 400.274C315.922 401.414 302.25 402.439 288.806 403.351C283.109 403.806 277.071 404.148 270.691 404.376C264.538 404.604 258.386 404.832 252.234 405.06C246.081 405.06 240.157 404.946 234.46 404.718C228.764 404.49 223.523 404.148 218.738 403.692C223.978 401.186 228.194 398.679 231.384 396.173C234.802 393.666 237.423 391.502 239.245 389.679C241.296 387.4 242.777 385.349 243.689 383.526C244.145 381.02 244.828 376.121 245.74 368.829C246.423 362.677 247.335 353.904 248.474 342.511C249.613 331.118 250.98 315.623 252.576 296.026L254.626 271.759C255.766 256.72 256.221 244.415 255.993 234.845C255.993 225.274 255.766 217.755 255.31 212.286C254.626 205.906 253.715 201.235 252.576 198.273C251.664 195.766 249.955 192.804 247.449 189.386C245.17 186.651 241.98 183.347 237.878 179.474C234.005 175.372 228.764 170.815 222.156 165.802ZM294.275 291.583C294.73 311.863 295.756 327.472 297.351 338.409C299.174 349.119 301.111 357.094 303.161 362.335C305.668 368.26 308.402 371.791 311.365 372.931C315.694 372.931 320.593 371.108 326.062 367.462C331.531 363.588 336.885 357.778 342.126 350.03C347.595 342.283 352.494 332.599 356.824 320.978C361.381 309.357 364.685 295.799 366.736 280.304C368.786 264.809 368.217 251.137 365.027 239.288C361.837 227.439 357.621 217.527 352.38 209.552C347.139 201.349 341.784 195.196 336.316 191.095C330.847 186.765 326.745 184.601 324.011 184.601C320.821 184.601 317.973 185.512 315.466 187.335C312.96 188.93 309.428 192.69 304.87 198.614C302.592 201.804 300.541 206.362 298.718 212.286C297.123 217.527 295.756 224.477 294.617 233.136C293.477 241.795 293.135 252.96 293.591 266.632L294.275 291.583Z"/>
</mask>
<path d="M222.156 165.802C230.131 166.941 237.081 167.853 243.005 168.536C248.93 169.22 253.829 169.789 257.702 170.245C262.26 170.701 266.133 171.043 269.324 171.271C272.969 171.726 277.413 171.498 282.654 170.587C288.122 169.676 293.933 168.764 300.085 167.853C306.238 166.713 312.618 165.802 319.226 165.118C325.834 164.435 332.214 164.435 338.367 165.118C342.468 165.574 347.709 166.485 354.089 167.853C360.469 169.22 367.191 171.385 374.255 174.347C381.547 177.309 388.839 181.183 396.13 185.968C403.422 190.753 410.03 196.791 415.954 204.083C421.879 211.375 426.778 220.034 430.652 230.06C434.525 240.086 436.69 251.821 437.146 265.265C437.829 285.317 436.006 303.546 431.677 319.952C427.348 336.358 420.626 350.372 411.511 361.993C402.624 373.614 391.345 382.729 377.673 389.337C364.001 395.945 348.051 399.591 329.822 400.274C315.922 401.414 302.25 402.439 288.806 403.351C283.109 403.806 277.071 404.148 270.691 404.376C264.538 404.604 258.386 404.832 252.234 405.06C246.081 405.06 240.157 404.946 234.46 404.718C228.764 404.49 223.523 404.148 218.738 403.692C223.978 401.186 228.194 398.679 231.384 396.173C234.802 393.666 237.423 391.502 239.245 389.679C241.296 387.4 242.777 385.349 243.689 383.526C244.145 381.02 244.828 376.121 245.74 368.829C246.423 362.677 247.335 353.904 248.474 342.511C249.613 331.118 250.98 315.623 252.576 296.026L254.626 271.759C255.766 256.72 256.221 244.415 255.993 234.845C255.993 225.274 255.766 217.755 255.31 212.286C254.626 205.906 253.715 201.235 252.576 198.273C251.664 195.766 249.955 192.804 247.449 189.386C245.17 186.651 241.98 183.347 237.878 179.474C234.005 175.372 228.764 170.815 222.156 165.802ZM294.275 291.583C294.73 311.863 295.756 327.472 297.351 338.409C299.174 349.119 301.111 357.094 303.161 362.335C305.668 368.26 308.402 371.791 311.365 372.931C315.694 372.931 320.593 371.108 326.062 367.462C331.531 363.588 336.885 357.778 342.126 350.03C347.595 342.283 352.494 332.599 356.824 320.978C361.381 309.357 364.685 295.799 366.736 280.304C368.786 264.809 368.217 251.137 365.027 239.288C361.837 227.439 357.621 217.527 352.38 209.552C347.139 201.349 341.784 195.196 336.316 191.095C330.847 186.765 326.745 184.601 324.011 184.601C320.821 184.601 317.973 185.512 315.466 187.335C312.96 188.93 309.428 192.69 304.87 198.614C302.592 201.804 300.541 206.362 298.718 212.286C297.123 217.527 295.756 224.477 294.617 233.136C293.477 241.795 293.135 252.96 293.591 266.632L294.275 291.583Z" fill="white"/>
<path d="M222.156 165.802L222.721 161.842L207.44 159.659L219.738 168.989L222.156 165.802ZM257.702 170.245L257.235 174.218L257.27 174.222L257.304 174.225L257.702 170.245ZM269.324 171.271L269.82 167.301L269.714 167.288L269.609 167.281L269.324 171.271ZM282.654 170.587L281.996 166.641L281.982 166.644L281.968 166.646L282.654 170.587ZM300.085 167.853L300.671 171.809L300.743 171.799L300.814 171.786L300.085 167.853ZM338.367 165.118L338.808 161.143L338.367 165.118ZM374.255 174.347L372.708 178.036L372.729 178.044L372.75 178.053L374.255 174.347ZM430.652 230.06L426.92 231.501L430.652 230.06ZM437.146 265.265L433.148 265.4L433.148 265.401L437.146 265.265ZM411.511 361.993L408.364 359.525L408.349 359.544L408.334 359.563L411.511 361.993ZM377.673 389.337L375.932 385.736L377.673 389.337ZM329.822 400.274L329.672 396.277L329.583 396.281L329.495 396.288L329.822 400.274ZM288.806 403.351L288.535 399.36L288.511 399.361L288.487 399.363L288.806 403.351ZM270.691 404.376L270.548 400.379L270.543 400.379L270.691 404.376ZM252.234 405.06V409.06H252.308L252.382 409.057L252.234 405.06ZM218.738 403.692L217.012 400.084L204 406.307L218.358 407.674L218.738 403.692ZM231.384 396.173L229.019 392.947L228.965 392.987L228.913 393.028L231.384 396.173ZM239.245 389.679L242.074 392.507L242.148 392.433L242.219 392.355L239.245 389.679ZM243.689 383.526L247.266 385.315L247.522 384.804L247.624 384.242L243.689 383.526ZM245.74 368.829L249.709 369.325L249.712 369.298L249.715 369.271L245.74 368.829ZM252.576 296.026L248.59 295.69L248.589 295.702L252.576 296.026ZM254.626 271.759L258.612 272.096L258.614 272.078L258.615 272.061L254.626 271.759ZM255.993 234.845H251.993V234.892L251.995 234.94L255.993 234.845ZM255.31 212.286L259.296 211.954L259.292 211.907L259.287 211.86L255.31 212.286ZM252.576 198.273L248.816 199.639L248.829 199.674L248.842 199.708L252.576 198.273ZM247.449 189.386L250.674 187.02L250.601 186.92L250.521 186.825L247.449 189.386ZM237.878 179.474L234.97 182.22L235.049 182.303L235.132 182.382L237.878 179.474ZM294.275 291.583L298.274 291.493L298.273 291.483L298.273 291.474L294.275 291.583ZM297.351 338.409L293.393 338.986L293.4 339.034L293.408 339.08L297.351 338.409ZM303.161 362.335L299.436 363.793L299.456 363.843L299.478 363.894L303.161 362.335ZM311.365 372.931L309.929 376.664L310.622 376.931H311.365V372.931ZM326.062 367.462L328.281 370.79L328.328 370.759L328.374 370.726L326.062 367.462ZM342.126 350.03L338.858 347.724L338.835 347.756L338.813 347.789L342.126 350.03ZM356.824 320.978L353.1 319.517L353.087 319.549L353.075 319.581L356.824 320.978ZM352.38 209.552L349.009 211.705L349.023 211.727L349.037 211.749L352.38 209.552ZM336.316 191.095L333.833 194.231L333.874 194.263L333.916 194.295L336.316 191.095ZM315.466 187.335L317.614 190.71L317.718 190.643L317.819 190.57L315.466 187.335ZM304.87 198.614L301.7 196.175L301.657 196.232L301.615 196.289L304.87 198.614ZM298.718 212.286L294.895 211.11L294.891 211.122L298.718 212.286ZM293.591 266.632L297.59 266.522L297.589 266.51L297.589 266.499L293.591 266.632ZM221.59 169.762C229.589 170.904 236.577 171.821 242.547 172.51L243.464 164.563C237.585 163.884 230.672 162.978 222.721 161.842L221.59 169.762ZM242.547 172.51C248.47 173.193 253.365 173.763 257.235 174.218L258.17 166.273C254.292 165.816 249.39 165.246 243.464 164.563L242.547 172.51ZM257.304 174.225C261.885 174.683 265.799 175.029 269.039 175.26L269.609 167.281C266.468 167.056 262.635 166.718 258.1 166.265L257.304 174.225ZM268.827 175.24C272.999 175.761 277.866 175.48 283.339 174.528L281.968 166.646C276.959 167.517 272.94 167.691 269.82 167.301L268.827 175.24ZM283.311 174.533C288.754 173.625 294.54 172.718 300.671 171.809L299.499 163.896C293.326 164.81 287.491 165.726 281.996 166.641L283.311 174.533ZM300.814 171.786C306.855 170.667 313.129 169.77 319.637 169.097L318.814 161.139C312.107 161.833 305.62 162.76 299.357 163.919L300.814 171.786ZM319.637 169.097C325.982 168.441 332.076 168.444 337.925 169.094L338.808 161.143C332.353 160.425 325.686 160.429 318.814 161.139L319.637 169.097ZM337.925 169.094C341.84 169.529 346.936 170.411 353.251 171.764L354.927 163.941C348.482 162.56 343.096 161.619 338.808 161.143L337.925 169.094ZM353.251 171.764C359.351 173.071 365.835 175.153 372.708 178.036L375.802 170.658C368.548 167.616 361.588 165.369 354.927 163.941L353.251 171.764ZM372.75 178.053C379.776 180.907 386.838 184.654 393.936 189.312L398.325 182.624C390.839 177.711 383.318 173.711 375.761 170.641L372.75 178.053ZM393.936 189.312C400.858 193.855 407.165 199.608 412.85 206.605L419.059 201.561C412.895 193.975 405.986 187.651 398.325 182.624L393.936 189.312ZM412.85 206.605C418.475 213.529 423.176 221.811 426.92 231.501L434.383 228.618C430.38 218.256 425.283 209.221 419.059 201.561L412.85 206.605ZM426.92 231.501C430.598 241.02 432.704 252.296 433.148 265.4L441.144 265.129C440.676 251.346 438.453 239.151 434.383 228.618L426.92 231.501ZM433.148 265.401C433.821 285.132 432.023 302.964 427.809 318.932L435.545 320.973C439.99 304.128 441.838 285.501 441.143 265.128L433.148 265.401ZM427.809 318.932C423.598 334.889 417.096 348.391 408.364 359.525L414.658 364.462C424.156 352.353 431.097 337.828 435.545 320.973L427.809 318.932ZM408.334 359.563C399.842 370.668 389.062 379.389 375.932 385.736L379.414 392.938C393.628 386.068 405.407 376.561 414.688 364.423L408.334 359.563ZM375.932 385.736C362.847 392.06 347.458 395.61 329.672 396.277L329.971 404.272C348.644 403.571 365.155 399.83 379.414 392.938L375.932 385.736ZM329.495 396.288C315.613 397.426 301.96 398.45 288.535 399.36L289.077 407.341C302.54 406.429 316.231 405.402 330.148 404.261L329.495 396.288ZM288.487 399.363C282.855 399.814 276.876 400.153 270.548 400.379L270.834 408.373C277.266 408.144 283.363 407.799 289.125 407.338L288.487 399.363ZM270.543 400.379C270.4 400.384 270.397 400.384 270.254 400.389C270.112 400.395 270.108 400.395 269.966 400.4C269.824 400.405 269.82 400.406 269.678 400.411C269.535 400.416 269.532 400.416 269.389 400.422C269.247 400.427 269.243 400.427 269.101 400.432C268.958 400.437 268.955 400.438 268.812 400.443C268.67 400.448 268.666 400.448 268.524 400.454C268.382 400.459 268.378 400.459 268.236 400.464C268.093 400.47 268.09 400.47 267.947 400.475C267.805 400.48 267.801 400.48 267.659 400.486C267.516 400.491 267.513 400.491 267.37 400.496C267.228 400.502 267.224 400.502 267.082 400.507C266.94 400.512 266.936 400.512 266.794 400.518C266.651 400.523 266.648 400.523 266.505 400.528C266.363 400.534 266.359 400.534 266.217 400.539C266.074 400.544 266.071 400.544 265.928 400.55C265.786 400.555 265.782 400.555 265.64 400.56C265.498 400.566 265.494 400.566 265.352 400.571C265.209 400.576 265.206 400.576 265.063 400.582C264.921 400.587 264.917 400.587 264.775 400.592C264.632 400.598 264.629 400.598 264.486 400.603C264.344 400.608 264.34 400.608 264.198 400.614C264.056 400.619 264.052 400.619 263.91 400.624C263.767 400.63 263.764 400.63 263.621 400.635C263.479 400.64 263.475 400.641 263.333 400.646C263.191 400.651 263.187 400.651 263.045 400.656C262.902 400.662 262.899 400.662 262.756 400.667C262.614 400.672 262.61 400.673 262.468 400.678C262.325 400.683 262.322 400.683 262.179 400.689C262.037 400.694 262.033 400.694 261.891 400.699C261.749 400.704 261.745 400.705 261.603 400.71C261.46 400.715 261.457 400.715 261.314 400.721C261.283 400.722 261.273 400.722 261.242 400.723C261.211 400.724 261.201 400.725 261.17 400.726C261.139 400.727 261.129 400.727 261.098 400.729C261.067 400.73 261.057 400.73 261.026 400.731C260.995 400.732 260.985 400.733 260.954 400.734C260.923 400.735 260.912 400.735 260.882 400.737C260.851 400.738 260.84 400.738 260.809 400.739C260.779 400.74 260.768 400.741 260.737 400.742C260.707 400.743 260.696 400.743 260.665 400.745C260.634 400.746 260.624 400.746 260.593 400.747C260.562 400.748 260.552 400.749 260.521 400.75C260.49 400.751 260.48 400.751 260.449 400.753C260.418 400.754 260.408 400.754 260.377 400.755C260.346 400.756 260.336 400.757 260.305 400.758C260.274 400.759 260.264 400.759 260.233 400.761C260.202 400.762 260.191 400.762 260.161 400.763C260.13 400.764 260.119 400.765 260.089 400.766C260.058 400.767 260.047 400.767 260.016 400.769C259.986 400.77 259.975 400.77 259.944 400.771C259.913 400.772 259.903 400.773 259.872 400.774C259.841 400.775 259.831 400.776 259.8 400.777C259.769 400.778 259.759 400.778 259.728 400.779C259.697 400.78 259.687 400.781 259.656 400.782C259.625 400.783 259.615 400.784 259.584 400.785C259.553 400.786 259.543 400.786 259.512 400.787C259.481 400.788 259.47 400.789 259.44 400.79C259.409 400.791 259.398 400.792 259.368 400.793C259.337 400.794 259.326 400.794 259.295 400.795C259.265 400.796 259.254 400.797 259.223 400.798C259.192 400.799 259.182 400.8 259.151 400.801C259.12 400.802 259.11 400.802 259.079 400.803C259.048 400.804 259.038 400.805 259.007 400.806C258.976 400.807 258.966 400.808 258.935 400.809C258.904 400.81 258.894 400.81 258.863 400.811C258.832 400.813 258.822 400.813 258.791 400.814C258.76 400.815 258.75 400.816 258.719 400.817C258.688 400.818 258.677 400.818 258.647 400.819C258.616 400.821 258.605 400.821 258.574 400.822C258.544 400.823 258.533 400.824 258.502 400.825C258.472 400.826 258.461 400.826 258.43 400.827C258.399 400.829 258.389 400.829 258.358 400.83C258.327 400.831 258.317 400.832 258.286 400.833C258.255 400.834 258.245 400.834 258.214 400.835C258.183 400.837 258.173 400.837 258.142 400.838C258.111 400.839 258.101 400.84 258.07 400.841C258.039 400.842 258.029 400.842 257.998 400.843C257.967 400.845 257.956 400.845 257.926 400.846C257.895 400.847 257.884 400.848 257.853 400.849C257.823 400.85 257.812 400.85 257.781 400.851C257.751 400.853 257.74 400.853 257.709 400.854C257.678 400.855 257.668 400.856 257.637 400.857C257.606 400.858 257.596 400.858 257.565 400.859C257.534 400.861 257.524 400.861 257.493 400.862C257.462 400.863 257.452 400.864 257.421 400.865C257.39 400.866 257.38 400.866 257.349 400.867C257.318 400.869 257.308 400.869 257.277 400.87C257.246 400.871 257.235 400.872 257.205 400.873C257.174 400.874 257.163 400.874 257.133 400.875C257.102 400.877 257.091 400.877 257.06 400.878C257.03 400.879 257.019 400.88 256.988 400.881C256.957 400.882 256.947 400.882 256.916 400.883C256.885 400.885 256.875 400.885 256.844 400.886C256.813 400.887 256.803 400.888 256.772 400.889C256.741 400.89 256.731 400.89 256.7 400.891C256.669 400.893 256.659 400.893 256.628 400.894C256.597 400.895 256.587 400.896 256.556 400.897C256.525 400.898 256.514 400.898 256.484 400.899C256.453 400.901 256.442 400.901 256.412 400.902C256.381 400.903 256.37 400.904 256.339 400.905C256.309 400.906 256.298 400.906 256.267 400.907C256.236 400.909 256.226 400.909 256.195 400.91C256.164 400.911 256.154 400.912 256.123 400.913C256.092 400.914 256.082 400.914 256.051 400.916C256.02 400.917 256.01 400.917 255.979 400.918C255.948 400.919 255.938 400.92 255.907 400.921C255.876 400.922 255.866 400.922 255.835 400.924C255.804 400.925 255.794 400.925 255.763 400.926C255.732 400.927 255.721 400.928 255.691 400.929C255.66 400.93 255.649 400.93 255.618 400.932C255.588 400.933 255.577 400.933 255.546 400.934C255.515 400.935 255.505 400.936 255.474 400.937C255.443 400.938 255.433 400.938 255.402 400.94C255.371 400.941 255.361 400.941 255.33 400.942C255.299 400.943 255.289 400.944 255.258 400.945C255.227 400.946 255.217 400.946 255.186 400.948C255.155 400.949 255.145 400.949 255.114 400.95C255.083 400.951 255.073 400.952 255.042 400.953C255.011 400.954 255 400.954 254.97 400.956C254.939 400.957 254.928 400.957 254.897 400.958C254.867 400.959 254.856 400.96 254.825 400.961C254.795 400.962 254.784 400.962 254.753 400.964C254.722 400.965 254.712 400.965 254.681 400.966C254.65 400.967 254.64 400.968 254.609 400.969C254.578 400.97 254.568 400.97 254.537 400.972C254.506 400.973 254.496 400.973 254.465 400.974C254.434 400.975 254.424 400.976 254.393 400.977C254.362 400.978 254.352 400.978 254.321 400.98C254.29 400.981 254.279 400.981 254.249 400.982C254.218 400.983 254.207 400.984 254.176 400.985C254.146 400.986 254.135 400.986 254.104 400.988C254.074 400.989 254.063 400.989 254.032 400.99C254.001 400.991 253.991 400.992 253.96 400.993C253.929 400.994 253.919 400.994 253.888 400.996C253.857 400.997 253.847 400.997 253.816 400.998C253.785 400.999 253.775 401 253.744 401.001C253.713 401.002 253.703 401.002 253.672 401.004C253.641 401.005 253.631 401.005 253.6 401.006C253.569 401.007 253.558 401.008 253.528 401.009C253.497 401.01 253.486 401.01 253.456 401.012C253.425 401.013 253.414 401.013 253.383 401.014C253.353 401.015 253.342 401.016 253.311 401.017C253.28 401.018 253.27 401.019 253.239 401.02C253.208 401.021 253.198 401.021 253.167 401.022C253.136 401.023 253.126 401.024 253.095 401.025C253.064 401.026 253.054 401.027 253.023 401.028C252.992 401.029 252.982 401.029 252.951 401.03C252.92 401.031 252.91 401.032 252.879 401.033C252.848 401.034 252.837 401.035 252.807 401.036C252.776 401.037 252.765 401.037 252.735 401.038C252.704 401.039 252.693 401.04 252.662 401.041C252.632 401.042 252.621 401.043 252.59 401.044C252.559 401.045 252.549 401.045 252.518 401.046C252.487 401.047 252.477 401.048 252.446 401.049C252.415 401.05 252.405 401.051 252.374 401.052C252.343 401.053 252.333 401.053 252.302 401.054C252.271 401.056 252.261 401.056 252.23 401.057C252.199 401.058 252.189 401.059 252.158 401.06C252.127 401.061 252.117 401.061 252.086 401.062L252.382 409.057C252.42 409.055 252.921 409.037 252.959 409.036C252.997 409.034 253.497 409.016 253.535 409.014C253.573 409.013 254.074 408.994 254.112 408.993C254.15 408.991 254.651 408.973 254.689 408.971C254.727 408.97 255.228 408.951 255.266 408.95C255.304 408.949 255.804 408.93 255.842 408.929C255.88 408.927 256.381 408.909 256.419 408.907C256.457 408.906 256.958 408.887 256.996 408.886C257.034 408.885 257.535 408.866 257.573 408.865C257.611 408.863 258.112 408.845 258.15 408.843C258.188 408.842 258.688 408.823 258.726 408.822C258.764 408.82 259.265 408.802 259.303 408.801C259.341 408.799 259.842 408.781 259.88 408.779C259.918 408.778 260.419 408.759 260.457 408.758C260.495 408.756 260.996 408.738 261.033 408.736C261.109 408.734 261.534 408.718 261.61 408.715C261.762 408.709 262.612 408.678 262.764 408.672C262.916 408.667 263.765 408.635 263.917 408.63C264.069 408.624 264.919 408.593 265.071 408.587C265.223 408.581 266.073 408.55 266.225 408.544C266.376 408.539 267.226 408.507 267.378 408.501C267.53 408.496 268.38 408.464 268.532 408.459C268.684 408.453 269.533 408.422 269.685 408.416C269.837 408.41 270.687 408.379 270.839 408.373L270.543 400.379ZM252.234 401.06C246.131 401.06 240.26 400.947 234.62 400.721L234.3 408.715C240.054 408.945 246.032 409.06 252.234 409.06V401.06ZM234.62 400.721C228.984 400.496 223.817 400.158 219.117 399.71L218.358 407.674C223.228 408.138 228.544 408.484 234.3 408.715L234.62 400.721ZM220.463 407.301C225.866 404.717 230.359 402.065 233.855 399.318L228.913 393.028C226.029 395.294 222.091 397.655 217.012 400.084L220.463 407.301ZM233.75 399.399C237.242 396.838 240.045 394.536 242.074 392.507L236.417 386.85C234.8 388.467 232.363 390.495 229.019 392.947L233.75 399.399ZM242.219 392.355C244.402 389.929 246.135 387.578 247.266 385.315L240.111 381.738C239.419 383.121 238.191 384.871 236.272 387.003L242.219 392.355ZM247.624 384.242C248.103 381.609 248.799 376.602 249.709 369.325L241.77 368.333C240.857 375.64 240.186 380.431 239.753 382.811L247.624 384.242ZM249.715 369.271C250.401 363.097 251.314 354.307 252.454 342.909L244.494 342.113C243.355 353.501 242.445 362.257 241.764 368.387L249.715 369.271ZM252.454 342.909C253.597 331.48 254.966 315.957 256.562 296.351L248.589 295.702C246.994 315.288 245.63 330.755 244.494 342.113L252.454 342.909ZM256.561 296.363L258.612 272.096L250.64 271.422L248.59 295.69L256.561 296.363ZM258.615 272.061C259.759 256.956 260.225 244.505 259.992 234.75L251.995 234.94C252.218 244.325 251.772 256.484 250.638 271.457L258.615 272.061ZM259.993 234.845C259.993 225.232 259.765 217.585 259.296 211.954L251.324 212.618C251.766 217.925 251.993 225.317 251.993 234.845H259.993ZM259.287 211.86C258.596 205.411 257.644 200.308 256.309 196.837L248.842 199.708C249.786 202.162 250.656 206.401 251.333 212.712L259.287 211.86ZM256.335 196.906C255.241 193.897 253.29 190.587 250.674 187.02L244.223 191.751C246.621 195.021 248.088 197.635 248.816 199.639L256.335 196.906ZM250.521 186.825C248.1 183.919 244.783 180.493 240.625 176.566L235.132 182.382C239.176 186.201 242.24 189.383 244.376 191.947L250.521 186.825ZM240.786 176.727C236.709 172.41 231.283 167.705 224.573 162.615L219.738 168.989C226.244 173.924 231.3 178.334 234.97 182.22L240.786 176.727ZM290.276 291.673C290.733 312.005 291.762 327.806 293.393 338.986L301.309 337.832C299.749 327.137 298.728 311.721 298.274 291.493L290.276 291.673ZM293.408 339.08C295.242 349.86 297.233 358.161 299.436 363.793L306.886 360.877C304.989 356.027 303.105 348.378 301.294 337.738L293.408 339.08ZM299.478 363.894C302.031 369.928 305.312 374.888 309.929 376.664L312.8 369.197C311.493 368.694 309.305 366.591 306.845 360.776L299.478 363.894ZM311.365 376.931C316.795 376.931 322.473 374.662 328.281 370.79L323.843 364.134C318.713 367.554 314.593 368.931 311.365 368.931V376.931ZM328.374 370.726C334.357 366.488 340.028 360.271 345.439 352.272L338.813 347.789C333.743 355.284 328.704 360.688 323.75 364.198L328.374 370.726ZM345.394 352.337C351.112 344.237 356.157 334.225 360.572 322.374L353.075 319.581C348.831 330.972 344.078 340.329 338.858 347.724L345.394 352.337ZM360.547 322.438C365.248 310.452 368.618 296.567 370.701 280.829L362.77 279.779C360.752 295.03 357.514 308.261 353.1 319.517L360.547 322.438ZM370.701 280.829C372.803 264.948 372.248 250.726 368.889 238.248L361.164 240.328C364.185 251.549 364.77 264.67 362.77 279.779L370.701 280.829ZM368.889 238.248C365.618 226.1 361.253 215.771 355.723 207.355L349.037 211.749C353.989 219.283 358.055 228.779 361.164 240.328L368.889 238.248ZM355.751 207.398C350.352 198.948 344.694 192.378 338.716 187.895L333.916 194.295C338.875 198.014 343.926 203.749 349.009 211.705L355.751 207.398ZM338.799 187.959C335.957 185.709 333.352 183.925 331.005 182.687C328.729 181.485 326.334 180.601 324.011 180.601V188.601C324.422 188.601 325.446 188.798 327.271 189.762C329.026 190.688 331.205 192.151 333.833 194.231L338.799 187.959ZM324.011 180.601C320.002 180.601 316.325 181.765 313.113 184.1L317.819 190.57C319.62 189.26 321.64 188.601 324.011 188.601V180.601ZM313.319 183.96C310.148 185.978 306.238 190.277 301.7 196.175L308.041 201.053C312.618 195.103 315.771 191.882 317.614 190.71L313.319 183.96ZM301.615 196.289C298.985 199.972 296.78 204.984 294.895 211.11L302.541 213.463C304.302 207.739 306.198 203.637 308.125 200.939L301.615 196.289ZM294.891 211.122C293.206 216.658 291.804 223.849 290.651 232.614L298.582 233.658C299.708 225.105 301.04 218.396 302.545 213.451L294.891 211.122ZM290.651 232.614C289.472 241.576 289.134 252.982 289.593 266.765L297.589 266.499C297.137 252.938 297.483 242.014 298.582 233.658L290.651 232.614ZM289.593 266.741L290.276 291.693L298.273 291.474L297.59 266.522L289.593 266.741Z" fill="black" mask="url(#path-2-outside-1_1_58)"/>
</svg>
