<svg width="668" height="575" viewBox="0 0 668 575" fill="none" xmlns="http://www.w3.org/2000/svg">
<path d="M330.398 77.8217L334 81.5645L337.602 77.8216C411.319 1.23174 492.423 -8.24541 554.836 20.2833C617.563 48.956 662.333 116.392 662.333 195.57C662.333 275.058 629.543 336.045 584.345 386.939C547.552 428.37 502.807 462.849 460.892 495.148C451.122 502.676 441.507 510.085 432.181 517.437C414.83 531.115 398.113 544.135 381.637 553.763C365.159 563.391 349.397 569.333 334 569.333C318.603 569.333 302.841 563.391 286.363 553.763C269.887 544.135 253.17 531.115 235.82 517.437C226.494 510.085 216.878 502.675 207.108 495.147C165.194 462.849 120.448 428.369 83.6553 386.939C38.4577 336.045 5.66668 275.058 5.66668 195.57C5.66668 116.392 50.4369 48.956 113.164 20.2833C175.576 -8.2454 256.68 1.23173 330.398 77.8217Z" fill="#FF0000" stroke="black" stroke-width="10"/>
<mask id="path-2-outside-1_1_17" maskUnits="userSpaceOnUse" x="207" y="159" width="235" height="255" fill="black">
<rect fill="white" x="207" y="159" width="235" height="255"/>
<path d="M219.404 167.324C227.38 168.236 234.102 168.919 239.57 169.375C245.039 169.603 249.368 169.831 252.559 170.059C256.432 170.286 259.508 170.4 261.787 170.4C265.661 170.4 270.104 170.286 275.117 170.059C279.447 169.831 284.46 169.489 290.156 169.033C296.081 168.35 302.461 167.324 309.297 165.957C306.107 169.375 303.486 172.679 301.436 175.869C299.385 178.831 297.79 181.566 296.65 184.072C295.283 186.807 294.144 189.313 293.232 191.592C292.321 194.554 291.296 199.111 290.156 205.264C289.017 210.505 287.764 217.91 286.396 227.48C285.257 237.051 283.776 249.583 281.953 265.078C289.701 265.306 296.423 265.42 302.119 265.42C307.816 265.192 312.601 265.078 316.475 265.078H327.754C330.944 264.85 334.59 264.622 338.691 264.395C345.527 264.167 355.895 263.483 369.795 262.344C370.934 251.862 371.504 242.861 371.504 235.342C371.732 227.594 371.618 221.1 371.162 215.859C370.706 209.935 370.023 204.922 369.111 200.82C368.428 198.542 367.402 195.807 366.035 192.617C364.896 189.883 363.301 186.579 361.25 182.705C359.427 178.604 356.921 173.704 353.73 168.008C359.655 168.919 364.896 169.603 369.453 170.059C374.238 170.286 378.226 170.514 381.416 170.742C385.062 170.97 388.138 171.084 390.645 171.084C393.151 171.084 396.455 170.97 400.557 170.742C403.975 170.514 408.19 170.4 413.203 170.4C418.216 170.173 424.368 169.831 431.66 169.375C429.837 172.565 428.242 175.869 426.875 179.287C425.508 182.705 424.368 185.781 423.457 188.516C422.546 191.706 421.634 194.896 420.723 198.086C419.583 202.871 418.558 209.821 417.646 218.936C416.963 228.05 416.279 238.19 415.596 249.355C415.14 260.521 414.684 272.142 414.229 284.219C414.001 296.296 413.773 307.689 413.545 318.398C413.545 329.108 413.659 338.678 413.887 347.109C414.115 355.312 414.57 361.123 415.254 364.541C415.938 368.643 417.077 372.858 418.672 377.188C420.039 381.061 421.862 385.277 424.141 389.834C426.419 394.163 429.382 398.265 433.027 402.139L350.654 408.291C354.072 405.101 356.807 402.025 358.857 399.062C360.908 395.872 362.503 393.138 363.643 390.859C364.782 388.353 365.579 385.96 366.035 383.682C366.263 380.947 366.605 376.162 367.061 369.326C367.516 363.63 367.972 355.54 368.428 345.059C368.883 334.577 369.339 320.677 369.795 303.359C366.605 303.359 362.731 303.473 358.174 303.701C353.844 303.701 349.743 303.815 345.869 304.043C341.312 304.271 336.527 304.385 331.514 304.385C326.501 304.613 321.26 304.84 315.791 305.068C311.234 305.524 306.107 305.98 300.41 306.436C294.941 306.663 289.473 307.005 284.004 307.461C283.548 317.031 283.548 325.462 284.004 332.754C284.46 339.818 285.143 345.856 286.055 350.869C286.966 356.794 288.105 361.921 289.473 366.25C290.84 370.352 292.321 374.453 293.916 378.555C295.283 382.201 296.878 386.074 298.701 390.176C300.752 394.277 302.803 397.923 304.854 401.113C300.524 400.658 296.536 400.316 292.891 400.088C289.245 399.632 286.055 399.176 283.32 398.721C280.13 398.493 277.054 398.265 274.092 398.037C271.13 398.037 267.598 397.923 263.496 397.695C259.85 397.467 255.293 397.354 249.824 397.354C244.355 397.126 237.975 397.012 230.684 397.012C235.013 392.682 238.431 388.467 240.938 384.365C243.672 380.036 245.609 376.162 246.748 372.744C248.115 368.643 249.027 364.883 249.482 361.465C249.71 358.503 249.824 352.92 249.824 344.717C250.052 336.514 250.052 327.171 249.824 316.689C249.824 305.98 249.71 294.814 249.482 283.193C249.255 271.344 248.913 260.293 248.457 250.039C248.229 239.785 247.887 231.012 247.432 223.721C247.204 216.201 246.976 211.53 246.748 209.707C245.609 205.605 243.9 201.162 241.621 196.377C239.57 192.503 236.836 188.06 233.418 183.047C230 177.806 225.329 172.565 219.404 167.324Z"/>
</mask>
<path d="M219.404 167.324C227.38 168.236 234.102 168.919 239.57 169.375C245.039 169.603 249.368 169.831 252.559 170.059C256.432 170.286 259.508 170.4 261.787 170.4C265.661 170.4 270.104 170.286 275.117 170.059C279.447 169.831 284.46 169.489 290.156 169.033C296.081 168.35 302.461 167.324 309.297 165.957C306.107 169.375 303.486 172.679 301.436 175.869C299.385 178.831 297.79 181.566 296.65 184.072C295.283 186.807 294.144 189.313 293.232 191.592C292.321 194.554 291.296 199.111 290.156 205.264C289.017 210.505 287.764 217.91 286.396 227.48C285.257 237.051 283.776 249.583 281.953 265.078C289.701 265.306 296.423 265.42 302.119 265.42C307.816 265.192 312.601 265.078 316.475 265.078H327.754C330.944 264.85 334.59 264.622 338.691 264.395C345.527 264.167 355.895 263.483 369.795 262.344C370.934 251.862 371.504 242.861 371.504 235.342C371.732 227.594 371.618 221.1 371.162 215.859C370.706 209.935 370.023 204.922 369.111 200.82C368.428 198.542 367.402 195.807 366.035 192.617C364.896 189.883 363.301 186.579 361.25 182.705C359.427 178.604 356.921 173.704 353.73 168.008C359.655 168.919 364.896 169.603 369.453 170.059C374.238 170.286 378.226 170.514 381.416 170.742C385.062 170.97 388.138 171.084 390.645 171.084C393.151 171.084 396.455 170.97 400.557 170.742C403.975 170.514 408.19 170.4 413.203 170.4C418.216 170.173 424.368 169.831 431.66 169.375C429.837 172.565 428.242 175.869 426.875 179.287C425.508 182.705 424.368 185.781 423.457 188.516C422.546 191.706 421.634 194.896 420.723 198.086C419.583 202.871 418.558 209.821 417.646 218.936C416.963 228.05 416.279 238.19 415.596 249.355C415.14 260.521 414.684 272.142 414.229 284.219C414.001 296.296 413.773 307.689 413.545 318.398C413.545 329.108 413.659 338.678 413.887 347.109C414.115 355.312 414.57 361.123 415.254 364.541C415.938 368.643 417.077 372.858 418.672 377.188C420.039 381.061 421.862 385.277 424.141 389.834C426.419 394.163 429.382 398.265 433.027 402.139L350.654 408.291C354.072 405.101 356.807 402.025 358.857 399.062C360.908 395.872 362.503 393.138 363.643 390.859C364.782 388.353 365.579 385.96 366.035 383.682C366.263 380.947 366.605 376.162 367.061 369.326C367.516 363.63 367.972 355.54 368.428 345.059C368.883 334.577 369.339 320.677 369.795 303.359C366.605 303.359 362.731 303.473 358.174 303.701C353.844 303.701 349.743 303.815 345.869 304.043C341.312 304.271 336.527 304.385 331.514 304.385C326.501 304.613 321.26 304.84 315.791 305.068C311.234 305.524 306.107 305.98 300.41 306.436C294.941 306.663 289.473 307.005 284.004 307.461C283.548 317.031 283.548 325.462 284.004 332.754C284.46 339.818 285.143 345.856 286.055 350.869C286.966 356.794 288.105 361.921 289.473 366.25C290.84 370.352 292.321 374.453 293.916 378.555C295.283 382.201 296.878 386.074 298.701 390.176C300.752 394.277 302.803 397.923 304.854 401.113C300.524 400.658 296.536 400.316 292.891 400.088C289.245 399.632 286.055 399.176 283.32 398.721C280.13 398.493 277.054 398.265 274.092 398.037C271.13 398.037 267.598 397.923 263.496 397.695C259.85 397.467 255.293 397.354 249.824 397.354C244.355 397.126 237.975 397.012 230.684 397.012C235.013 392.682 238.431 388.467 240.938 384.365C243.672 380.036 245.609 376.162 246.748 372.744C248.115 368.643 249.027 364.883 249.482 361.465C249.71 358.503 249.824 352.92 249.824 344.717C250.052 336.514 250.052 327.171 249.824 316.689C249.824 305.98 249.71 294.814 249.482 283.193C249.255 271.344 248.913 260.293 248.457 250.039C248.229 239.785 247.887 231.012 247.432 223.721C247.204 216.201 246.976 211.53 246.748 209.707C245.609 205.605 243.9 201.162 241.621 196.377C239.57 192.503 236.836 188.06 233.418 183.047C230 177.806 225.329 172.565 219.404 167.324Z" fill="white"/>
<path d="M219.404 167.324L219.858 163.35L207.245 161.909L216.754 170.32L219.404 167.324ZM239.57 169.375L239.238 173.361L239.321 173.368L239.404 173.372L239.57 169.375ZM252.559 170.059L252.274 174.048L252.299 174.05L252.324 174.052L252.559 170.059ZM275.117 170.059L275.299 174.054L275.313 174.054L275.327 174.053L275.117 170.059ZM290.156 169.033L290.475 173.02L290.545 173.015L290.615 173.007L290.156 169.033ZM309.297 165.957L312.221 168.686L320.705 159.596L308.512 162.035L309.297 165.957ZM301.436 175.869L304.724 178.146L304.763 178.09L304.8 178.032L301.436 175.869ZM296.65 184.072L300.228 185.861L300.261 185.795L300.292 185.727L296.65 184.072ZM293.232 191.592L289.519 190.106L289.458 190.259L289.409 190.415L293.232 191.592ZM290.156 205.264L294.065 206.113L294.078 206.053L294.089 205.992L290.156 205.264ZM286.396 227.48L282.437 226.915L282.43 226.961L282.425 227.008L286.396 227.48ZM281.953 265.078L277.981 264.611L277.47 268.948L281.836 269.076L281.953 265.078ZM302.119 265.42V269.42H302.199L302.279 269.417L302.119 265.42ZM327.754 265.078V269.078H327.897L328.039 269.068L327.754 265.078ZM338.691 264.395L338.558 260.397L338.514 260.398L338.47 260.401L338.691 264.395ZM369.795 262.344L370.122 266.33L373.414 266.06L373.771 262.776L369.795 262.344ZM371.504 235.342L367.506 235.224L367.504 235.283V235.342H371.504ZM371.162 215.859L367.174 216.166L367.175 216.186L367.177 216.206L371.162 215.859ZM369.111 200.82L373.016 199.953L372.984 199.81L372.943 199.671L369.111 200.82ZM366.035 192.617L362.343 194.156L362.351 194.174L362.359 194.193L366.035 192.617ZM361.25 182.705L357.595 184.33L357.651 184.455L357.715 184.577L361.25 182.705ZM353.73 168.008L354.339 164.054L346.234 162.807L350.24 169.962L353.73 168.008ZM369.453 170.059L369.055 174.039L369.159 174.049L369.263 174.054L369.453 170.059ZM381.416 170.742L381.131 174.732L381.149 174.733L381.167 174.734L381.416 170.742ZM400.557 170.742L400.779 174.736L400.801 174.735L400.823 174.733L400.557 170.742ZM413.203 170.4V174.4H413.294L413.385 174.396L413.203 170.4ZM431.66 169.375L435.133 171.36L438.813 164.92L431.411 165.383L431.66 169.375ZM423.457 188.516L419.662 187.251L419.635 187.333L419.611 187.417L423.457 188.516ZM420.723 198.086L416.877 196.987L416.852 197.073L416.831 197.159L420.723 198.086ZM417.646 218.936L413.666 218.538L413.661 218.587L413.658 218.636L417.646 218.936ZM415.596 249.355L411.603 249.111L411.601 249.152L411.599 249.192L415.596 249.355ZM414.229 284.219L410.231 284.068L410.23 284.106L410.229 284.143L414.229 284.219ZM413.545 318.398L409.546 318.313L409.545 318.356V318.398H413.545ZM413.887 347.109L409.888 347.217L409.888 347.22L413.887 347.109ZM415.254 364.541L419.199 363.883L419.189 363.82L419.176 363.757L415.254 364.541ZM418.672 377.188L422.444 375.856L422.435 375.83L422.425 375.805L418.672 377.188ZM424.141 389.834L420.563 391.623L420.582 391.66L420.601 391.697L424.141 389.834ZM433.027 402.139L433.325 406.128L441.687 405.503L435.94 399.397L433.027 402.139ZM350.654 408.291L347.925 405.367L339.611 413.127L350.952 412.28L350.654 408.291ZM358.857 399.062L362.146 401.339L362.185 401.283L362.222 401.226L358.857 399.062ZM363.643 390.859L367.22 392.648L367.253 392.582L367.284 392.515L363.643 390.859ZM366.035 383.682L369.957 384.466L370.002 384.242L370.021 384.014L366.035 383.682ZM367.061 369.326L363.073 369.007L363.071 369.034L363.069 369.06L367.061 369.326ZM369.795 303.359L373.794 303.465L373.902 299.359H369.795V303.359ZM358.174 303.701V307.701H358.274L358.374 307.696L358.174 303.701ZM345.869 304.043L346.069 308.038L346.086 308.037L346.104 308.036L345.869 304.043ZM331.514 304.385V300.385H331.423L331.332 300.389L331.514 304.385ZM315.791 305.068L315.624 301.072L315.509 301.077L315.393 301.088L315.791 305.068ZM300.41 306.436L300.577 310.432L300.653 310.429L300.729 310.423L300.41 306.436ZM284.004 307.461L283.672 303.475L280.175 303.766L280.008 307.271L284.004 307.461ZM284.004 332.754L280.012 333.003L280.012 333.011L284.004 332.754ZM286.055 350.869L290.008 350.261L290 350.207L289.99 350.154L286.055 350.869ZM289.473 366.25L285.658 367.455L285.668 367.485L285.678 367.515L289.473 366.25ZM293.916 378.555L297.661 377.15L297.653 377.127L297.644 377.105L293.916 378.555ZM298.701 390.176L295.046 391.8L295.083 391.883L295.123 391.965L298.701 390.176ZM304.854 401.113L304.435 405.091L312.727 405.964L308.218 398.95L304.854 401.113ZM292.891 400.088L292.394 404.057L292.517 404.072L292.641 404.08L292.891 400.088ZM283.32 398.721L283.978 394.775L283.793 394.744L283.605 394.731L283.32 398.721ZM274.092 398.037L274.399 394.049L274.245 394.037H274.092V398.037ZM263.496 397.695L263.247 401.688L263.26 401.688L263.274 401.689L263.496 397.695ZM249.824 397.354L249.658 401.35L249.741 401.354H249.824V397.354ZM230.684 397.012L227.855 394.183L221.027 401.012H230.684V397.012ZM240.938 384.365L237.556 382.229L237.54 382.254L237.524 382.279L240.938 384.365ZM249.482 361.465L253.447 361.993L253.462 361.883L253.471 361.772L249.482 361.465ZM249.824 344.717L245.826 344.606L245.824 344.661V344.717H249.824ZM249.824 316.689H245.824V316.733L245.825 316.776L249.824 316.689ZM249.482 283.193L245.483 283.27L245.483 283.272L249.482 283.193ZM248.457 250.039L244.458 250.128L244.459 250.172L244.461 250.217L248.457 250.039ZM247.432 223.721L243.433 223.842L243.435 223.906L243.439 223.97L247.432 223.721ZM246.748 209.707L250.717 209.211L250.681 208.919L250.602 208.636L246.748 209.707ZM241.621 196.377L245.233 194.657L245.196 194.581L245.156 194.505L241.621 196.377ZM233.418 183.047L230.068 185.232L230.09 185.266L230.113 185.3L233.418 183.047ZM218.95 171.298C226.949 172.213 233.715 172.901 239.238 173.361L239.902 165.389C234.488 164.938 227.81 164.259 219.858 163.35L218.95 171.298ZM239.404 173.372C244.856 173.599 249.141 173.825 252.274 174.048L252.844 166.069C249.596 165.837 245.222 165.607 239.737 165.378L239.404 173.372ZM252.324 174.052C256.23 174.281 259.395 174.4 261.787 174.4V166.4C259.622 166.4 256.635 166.291 252.793 166.065L252.324 174.052ZM261.787 174.4C265.736 174.4 270.242 174.284 275.299 174.054L274.936 166.063C269.966 166.289 265.586 166.4 261.787 166.4V174.4ZM275.327 174.053C279.702 173.823 284.753 173.478 290.475 173.02L289.837 165.046C284.166 165.5 279.191 165.839 274.907 166.064L275.327 174.053ZM290.615 173.007C296.665 172.309 303.155 171.265 310.081 169.879L308.512 162.035C301.767 163.384 295.497 164.39 289.698 165.06L290.615 173.007ZM306.373 163.228C303.055 166.782 300.277 170.274 298.071 173.706L304.8 178.032C306.696 175.084 309.158 171.968 312.221 168.686L306.373 163.228ZM298.147 173.592C295.999 176.695 294.272 179.639 293.009 182.417L300.292 185.727C301.308 183.493 302.77 180.968 304.724 178.146L298.147 173.592ZM293.073 182.283C291.667 185.094 290.48 187.703 289.519 190.106L296.946 193.077C297.808 190.923 298.899 188.519 300.228 185.861L293.073 182.283ZM289.409 190.415C288.427 193.608 287.368 198.351 286.223 204.535L294.089 205.992C295.223 199.871 296.215 195.501 297.056 192.768L289.409 190.415ZM286.248 204.414C285.078 209.795 283.809 217.312 282.437 226.915L290.356 228.046C291.719 218.509 292.956 211.214 294.065 206.113L286.248 204.414ZM282.425 227.008C281.285 236.581 279.804 249.115 277.981 264.611L285.926 265.545C287.749 250.052 289.229 237.521 290.368 227.953L282.425 227.008ZM281.836 269.076C289.609 269.305 296.372 269.42 302.119 269.42V261.42C296.473 261.42 289.792 261.307 282.071 261.08L281.836 269.076ZM302.279 269.417C307.945 269.19 312.673 269.078 316.475 269.078V261.078C312.529 261.078 307.687 261.194 301.959 261.423L302.279 269.417ZM316.475 269.078H327.754V261.078H316.475V269.078ZM328.039 269.068C331.203 268.842 334.827 268.615 338.913 268.388L338.47 260.401C334.352 260.629 330.685 260.859 327.469 261.088L328.039 269.068ZM338.825 268.392C345.762 268.161 356.209 267.471 370.122 266.33L369.468 258.357C355.581 259.495 345.293 260.172 338.558 260.397L338.825 268.392ZM373.771 262.776C374.921 252.203 375.504 243.05 375.504 235.342H367.504C367.504 242.673 366.948 251.521 365.818 261.912L373.771 262.776ZM375.502 235.459C375.733 227.622 375.621 220.962 375.147 215.513L367.177 216.206C367.615 221.239 367.731 227.567 367.506 235.224L375.502 235.459ZM375.15 215.553C374.686 209.51 373.982 204.297 373.016 199.953L365.207 201.688C366.064 205.547 366.727 210.36 367.174 216.166L375.15 215.553ZM372.943 199.671C372.201 197.198 371.114 194.314 369.712 191.042L362.359 194.193C363.691 197.301 364.655 199.885 365.28 201.97L372.943 199.671ZM369.727 191.079C368.524 188.191 366.869 184.77 364.785 180.834L357.715 184.577C359.733 188.388 361.267 191.574 362.343 194.156L369.727 191.079ZM364.905 181.081C363.016 176.829 360.446 171.814 357.22 166.053L350.24 169.962C353.395 175.595 355.839 180.378 357.595 184.33L364.905 181.081ZM353.122 171.961C359.097 172.88 364.41 173.574 369.055 174.039L369.851 166.078C365.382 165.632 360.213 164.958 354.339 164.054L353.122 171.961ZM369.263 174.054C374.03 174.281 377.984 174.507 381.131 174.732L381.701 166.752C378.468 166.521 374.446 166.292 369.643 166.063L369.263 174.054ZM381.167 174.734C384.862 174.965 388.027 175.084 390.645 175.084V167.084C388.249 167.084 385.262 166.975 381.666 166.75L381.167 174.734ZM390.645 175.084C393.257 175.084 396.643 174.966 400.779 174.736L400.335 166.748C396.267 166.974 393.046 167.084 390.645 167.084V175.084ZM400.823 174.733C404.122 174.513 408.242 174.4 413.203 174.4V166.4C408.138 166.4 403.827 166.515 400.291 166.751L400.823 174.733ZM413.385 174.396C418.428 174.167 424.605 173.824 431.91 173.367L431.411 165.383C424.132 165.838 418.004 166.178 413.021 166.405L413.385 174.396ZM428.187 167.39C426.272 170.741 424.597 174.212 423.161 177.802L430.589 180.773C431.888 177.526 433.402 174.389 435.133 171.36L428.187 167.39ZM423.161 177.802C421.772 181.273 420.604 184.425 419.662 187.251L427.252 189.781C428.133 187.137 429.243 184.137 430.589 180.773L423.161 177.802ZM419.611 187.417C419.565 187.579 419.572 187.553 419.525 187.716C419.479 187.878 419.486 187.852 419.44 188.015C419.394 188.177 419.401 188.151 419.355 188.314C419.308 188.476 419.316 188.451 419.269 188.613C419.223 188.775 419.23 188.75 419.184 188.912C419.137 189.075 419.145 189.049 419.098 189.211C419.052 189.374 419.059 189.348 419.013 189.51C418.966 189.673 418.974 189.647 418.927 189.809C418.881 189.972 418.888 189.946 418.842 190.108C418.795 190.271 418.803 190.245 418.756 190.407C418.71 190.57 418.717 190.544 418.671 190.707C418.625 190.869 418.632 190.843 418.586 191.006C418.539 191.168 418.547 191.142 418.5 191.305C418.454 191.467 418.461 191.441 418.415 191.604C418.368 191.766 418.376 191.74 418.329 191.903C418.283 192.065 418.29 192.039 418.244 192.202C418.058 192.852 418.088 192.748 417.902 193.398C417.716 194.048 417.746 193.945 417.56 194.594C417.374 195.244 417.404 195.141 417.218 195.791C417.033 196.441 417.062 196.337 416.877 196.987L424.569 199.185C424.615 199.022 424.608 199.048 424.654 198.886C424.701 198.723 424.693 198.749 424.74 198.587C424.786 198.424 424.779 198.45 424.825 198.288C424.872 198.125 424.864 198.151 424.911 197.989C424.957 197.826 424.95 197.852 424.996 197.689C425.042 197.527 425.035 197.553 425.081 197.39C425.128 197.228 425.12 197.254 425.167 197.091C425.213 196.929 425.206 196.955 425.252 196.792C425.299 196.63 425.291 196.656 425.338 196.493C425.384 196.331 425.377 196.357 425.423 196.194C425.47 196.032 425.462 196.057 425.509 195.895C425.555 195.733 425.548 195.758 425.594 195.596C425.641 195.433 425.633 195.459 425.68 195.297C425.726 195.134 425.719 195.16 425.765 194.998C425.811 194.835 425.804 194.861 425.85 194.699C425.897 194.536 425.89 194.562 425.936 194.4C426.122 193.75 426.092 193.853 426.278 193.203C426.463 192.553 426.434 192.657 426.62 192.007C426.805 191.357 426.776 191.461 426.961 190.811C427.147 190.161 427.117 190.264 427.303 189.615L419.611 187.417ZM416.831 197.159C415.629 202.208 414.583 209.369 413.666 218.538L421.627 219.334C422.533 210.273 423.537 203.534 424.614 199.012L416.831 197.159ZM413.658 218.636C412.972 227.773 412.288 237.931 411.603 249.111L419.588 249.6C420.271 238.449 420.953 228.328 421.635 219.235L413.658 218.636ZM411.599 249.192C411.143 260.362 410.687 271.987 410.231 284.068L418.226 284.37C418.681 272.297 419.137 260.68 419.592 249.519L411.599 249.192ZM410.229 284.143C410.001 296.217 409.774 307.607 409.546 318.313L417.544 318.484C417.772 307.77 418 296.374 418.228 284.294L410.229 284.143ZM409.545 318.398C409.545 329.135 409.659 338.742 409.888 347.217L417.885 347.001C417.659 338.614 417.545 329.081 417.545 318.398H409.545ZM409.888 347.22C410.116 355.429 410.575 361.542 411.332 365.325L419.176 363.757C418.566 360.704 418.113 355.196 417.885 346.998L409.888 347.22ZM411.308 365.199C412.037 369.573 413.246 374.031 414.919 378.57L422.425 375.805C420.908 371.685 419.838 367.713 419.199 363.883L411.308 365.199ZM414.9 378.519C416.334 382.581 418.227 386.951 420.563 391.623L427.718 388.045C425.497 383.603 423.745 379.542 422.444 375.856L414.9 378.519ZM420.601 391.697C423.062 396.373 426.242 400.766 430.115 404.88L435.94 399.397C432.521 395.764 429.777 391.954 427.68 387.971L420.601 391.697ZM432.729 398.15L350.356 404.302L350.952 412.28L433.325 406.128L432.729 398.15ZM353.384 411.215C356.952 407.884 359.893 404.594 362.146 401.339L355.569 396.786C353.72 399.455 351.192 402.318 347.925 405.367L353.384 411.215ZM362.222 401.226C364.317 397.967 365.994 395.101 367.22 392.648L360.065 389.071C359.013 391.175 357.499 393.778 355.493 396.899L362.222 401.226ZM367.284 392.515C368.527 389.779 369.432 387.094 369.957 384.466L362.113 382.897C361.727 384.827 361.036 386.927 360.001 389.204L367.284 392.515ZM370.021 384.014C370.252 381.243 370.596 376.427 371.052 369.592L363.069 369.06C362.614 375.897 362.274 380.652 362.049 383.349L370.021 384.014ZM371.048 369.645C371.509 363.876 371.968 355.73 372.424 345.232L364.432 344.885C363.976 355.351 363.523 363.383 363.073 369.007L371.048 369.645ZM372.424 345.232C372.881 334.718 373.338 320.793 373.794 303.465L365.796 303.254C365.341 320.562 364.886 334.436 364.432 344.885L372.424 345.232ZM369.795 299.359C366.517 299.359 362.572 299.476 357.974 299.706L358.374 307.696C362.89 307.47 366.693 307.359 369.795 307.359V299.359ZM358.174 299.701C353.775 299.701 349.594 299.817 345.634 300.05L346.104 308.036C349.891 307.813 353.914 307.701 358.174 307.701V299.701ZM345.669 300.048C341.185 300.272 336.466 300.385 331.514 300.385V308.385C336.587 308.385 341.439 308.269 346.069 308.038L345.669 300.048ZM331.332 300.389C326.324 300.617 321.089 300.844 315.624 301.072L315.958 309.065C321.431 308.837 326.677 308.609 331.695 308.381L331.332 300.389ZM315.393 301.088C310.868 301.541 305.768 301.994 300.091 302.448L300.729 310.423C306.446 309.965 311.6 309.507 316.189 309.049L315.393 301.088ZM300.244 302.439C294.719 302.669 289.195 303.014 283.672 303.475L284.336 311.447C289.75 310.996 295.163 310.658 300.577 310.432L300.244 302.439ZM280.008 307.271C279.548 316.945 279.545 325.528 280.012 333.003L287.996 332.504C287.552 325.396 287.549 317.117 287.999 307.651L280.008 307.271ZM280.012 333.011C280.474 340.175 281.172 346.375 282.119 351.585L289.99 350.154C289.115 345.337 288.445 339.461 287.996 332.496L280.012 333.011ZM282.101 351.477C283.035 357.544 284.214 362.88 285.658 367.455L293.287 365.045C291.997 360.961 290.898 356.043 290.008 350.261L282.101 351.477ZM285.678 367.515C287.066 371.68 288.57 375.843 290.188 380.004L297.644 377.105C296.072 373.063 294.613 369.023 293.267 364.985L285.678 367.515ZM290.171 379.959C291.57 383.689 293.196 387.637 295.046 391.8L302.356 388.551C300.561 384.511 298.997 380.712 297.661 377.15L290.171 379.959ZM295.123 391.965C297.226 396.169 299.346 399.944 301.489 403.276L308.218 398.95C306.259 395.903 304.278 392.386 302.279 388.387L295.123 391.965ZM305.272 397.135C300.897 396.675 296.852 396.328 293.14 396.096L292.641 404.08C296.221 404.304 300.151 404.64 304.435 405.091L305.272 397.135ZM293.387 396.119C289.779 395.668 286.645 395.22 283.978 394.775L282.663 402.666C285.465 403.133 288.711 403.597 292.394 404.057L293.387 396.119ZM283.605 394.731C280.422 394.503 277.353 394.276 274.399 394.049L273.785 402.025C276.755 402.254 279.838 402.482 283.035 402.711L283.605 394.731ZM274.092 394.037C271.226 394.037 267.772 393.927 263.718 393.701L263.274 401.689C267.424 401.92 271.034 402.037 274.092 402.037V394.037ZM263.746 393.703C259.987 393.468 255.34 393.354 249.824 393.354V401.354C255.246 401.354 259.714 401.467 263.247 401.688L263.746 393.703ZM249.991 393.357C244.452 393.126 238.014 393.012 230.684 393.012V401.012C237.937 401.012 244.259 401.125 249.658 401.35L249.991 393.357ZM233.512 399.84C238.007 395.345 241.642 390.884 244.351 386.451L237.524 382.279C235.22 386.05 232.019 390.02 227.855 394.183L233.512 399.84ZM244.319 386.501C247.16 382.003 249.269 377.831 250.543 374.009L242.953 371.479C241.949 374.493 240.184 378.068 237.556 382.229L244.319 386.501ZM250.543 374.009C251.971 369.725 252.951 365.715 253.447 361.993L245.518 360.936C245.102 364.05 244.26 367.56 242.953 371.479L250.543 374.009ZM253.471 361.772C253.712 358.634 253.824 352.904 253.824 344.717H245.824C245.824 352.936 245.709 358.371 245.494 361.158L253.471 361.772ZM253.823 344.828C254.053 336.544 254.052 327.133 253.823 316.603L245.825 316.776C246.052 327.209 246.051 336.484 245.826 344.606L253.823 344.828ZM253.824 316.689C253.824 305.952 253.71 294.76 253.482 283.115L245.483 283.272C245.711 294.869 245.824 306.008 245.824 316.689H253.824ZM253.482 283.116C253.253 271.239 252.911 260.154 252.453 249.861L244.461 250.217C244.915 260.432 245.256 271.45 245.483 283.27L253.482 283.116ZM252.456 249.95C252.227 239.662 251.884 230.833 251.424 223.471L243.439 223.97C243.891 231.192 244.231 239.908 244.458 250.128L252.456 249.95ZM251.43 223.6C251.204 216.153 250.974 211.264 250.717 209.211L242.779 210.203C242.978 211.796 243.203 216.249 243.433 223.842L251.43 223.6ZM250.602 208.636C249.388 204.266 247.588 199.603 245.233 194.657L238.01 198.097C240.212 202.721 241.829 206.945 242.894 210.778L250.602 208.636ZM245.156 194.505C243.015 190.461 240.195 185.887 236.723 180.794L230.113 185.3C233.476 190.233 236.125 194.545 238.086 198.249L245.156 194.505ZM236.768 180.862C233.111 175.254 228.181 169.747 222.055 164.328L216.754 170.32C222.477 175.383 226.889 180.358 230.068 185.232L236.768 180.862Z" fill="black" mask="url(#path-2-outside-1_1_17)"/>
</svg>
