<svg width="667" height="574" viewBox="0 0 667 574" fill="none" xmlns="http://www.w3.org/2000/svg">
<path d="M329.731 77.3246L333.333 81.0675L336.936 77.3246C410.653 0.734727 491.757 -8.74242 554.169 19.7863C616.896 48.459 661.667 115.895 661.667 195.073C661.667 274.561 628.876 335.548 583.678 386.442C546.885 427.873 502.14 462.352 460.225 494.651C450.456 502.179 440.84 509.588 431.515 516.94C414.164 530.618 397.447 543.638 380.97 553.266C364.492 562.894 348.731 568.836 333.333 568.836C317.936 568.836 302.174 562.894 285.696 553.266C269.22 543.638 252.504 530.618 235.153 516.94C225.827 509.588 216.211 502.178 206.442 494.65C164.527 462.352 119.782 427.872 82.9886 386.442C37.791 335.548 5 274.561 5 195.073C5 115.895 49.7702 48.459 112.497 19.7863C174.909 -8.74241 256.013 0.734719 329.731 77.3246Z" fill="#FF0000" stroke="black" stroke-width="10"/>
<mask id="path-2-outside-1_1_55" maskUnits="userSpaceOnUse" x="265.333" y="166.503" width="124" height="249" fill="black">
<rect fill="white" x="265.333" y="166.503" width="124" height="249"/>
<path d="M276.751 174.005C284.499 174.916 290.993 175.6 296.234 176.056C301.702 176.284 306.146 176.625 309.564 177.081C313.665 177.537 316.855 177.765 319.134 177.765C321.641 177.993 325.4 177.879 330.413 177.423C334.743 176.967 340.553 176.398 347.845 175.714C355.365 175.03 364.935 174.005 376.556 172.638C371.315 177.195 367.1 181.638 363.909 185.968C360.947 190.069 358.669 193.715 357.074 196.905C355.023 200.779 353.77 204.425 353.314 207.843C352.402 213.312 351.605 220.831 350.921 230.401C350.465 239.744 350.01 249.998 349.554 261.163C349.098 272.329 348.87 283.836 348.87 295.685C348.87 307.534 348.984 318.813 349.212 329.523C349.668 340.004 350.352 349.347 351.263 357.55C352.402 365.753 353.77 371.677 355.365 375.323C357.643 379.425 360.036 383.526 362.542 387.628C364.821 391.046 367.555 394.578 370.745 398.224C373.936 401.87 377.581 404.832 381.683 407.11C368.239 406.427 357.529 406.085 349.554 406.085H337.249C333.603 406.085 328.932 406.313 323.236 406.769C318.451 407.224 312.412 407.68 305.12 408.136C297.829 408.592 289.056 409.275 278.802 410.187C284.043 404.49 288.145 399.021 291.107 393.78C294.069 388.539 296.462 383.982 298.284 380.108C300.335 375.551 301.702 371.222 302.386 367.12C303.298 361.196 303.981 353.904 304.437 345.245C305.12 336.358 305.576 326.902 305.804 316.876C306.032 306.622 306.032 296.254 305.804 285.773C305.804 275.063 305.576 264.809 305.12 255.011C304.665 245.213 303.981 236.326 303.07 228.351C302.386 220.375 301.475 213.995 300.335 209.21C299.652 206.248 298.284 202.944 296.234 199.298C294.411 196.108 291.904 192.462 288.714 188.36C285.752 184.031 281.764 179.246 276.751 174.005Z"/>
</mask>
<path d="M276.751 174.005C284.499 174.916 290.993 175.6 296.234 176.056C301.702 176.284 306.146 176.625 309.564 177.081C313.665 177.537 316.855 177.765 319.134 177.765C321.641 177.993 325.4 177.879 330.413 177.423C334.743 176.967 340.553 176.398 347.845 175.714C355.365 175.03 364.935 174.005 376.556 172.638C371.315 177.195 367.1 181.638 363.909 185.968C360.947 190.069 358.669 193.715 357.074 196.905C355.023 200.779 353.77 204.425 353.314 207.843C352.402 213.312 351.605 220.831 350.921 230.401C350.465 239.744 350.01 249.998 349.554 261.163C349.098 272.329 348.87 283.836 348.87 295.685C348.87 307.534 348.984 318.813 349.212 329.523C349.668 340.004 350.352 349.347 351.263 357.55C352.402 365.753 353.77 371.677 355.365 375.323C357.643 379.425 360.036 383.526 362.542 387.628C364.821 391.046 367.555 394.578 370.745 398.224C373.936 401.87 377.581 404.832 381.683 407.11C368.239 406.427 357.529 406.085 349.554 406.085H337.249C333.603 406.085 328.932 406.313 323.236 406.769C318.451 407.224 312.412 407.68 305.12 408.136C297.829 408.592 289.056 409.275 278.802 410.187C284.043 404.49 288.145 399.021 291.107 393.78C294.069 388.539 296.462 383.982 298.284 380.108C300.335 375.551 301.702 371.222 302.386 367.12C303.298 361.196 303.981 353.904 304.437 345.245C305.12 336.358 305.576 326.902 305.804 316.876C306.032 306.622 306.032 296.254 305.804 285.773C305.804 275.063 305.576 264.809 305.12 255.011C304.665 245.213 303.981 236.326 303.07 228.351C302.386 220.375 301.475 213.995 300.335 209.21C299.652 206.248 298.284 202.944 296.234 199.298C294.411 196.108 291.904 192.462 288.714 188.36C285.752 184.031 281.764 179.246 276.751 174.005Z" fill="white"/>
<path d="M276.751 174.005L277.219 170.032L266.173 168.733L273.861 176.77L276.751 174.005ZM296.234 176.056L295.887 180.041L295.977 180.049L296.067 180.052L296.234 176.056ZM309.564 177.081L309.035 181.046L309.079 181.052L309.122 181.057L309.564 177.081ZM319.134 177.765L319.496 173.781L319.316 173.765H319.134V177.765ZM330.413 177.423L330.776 181.406L330.804 181.404L330.832 181.401L330.413 177.423ZM347.845 175.714L347.483 171.73L347.472 171.731L347.845 175.714ZM376.556 172.638L379.181 175.656L388.962 167.151L376.089 168.665L376.556 172.638ZM363.909 185.968L360.689 183.595L360.678 183.61L360.667 183.626L363.909 185.968ZM357.074 196.905L360.609 198.777L360.63 198.736L360.651 198.694L357.074 196.905ZM353.314 207.843L357.259 208.5L357.27 208.436L357.279 208.371L353.314 207.843ZM350.921 230.401L346.931 230.116L346.928 230.161L346.926 230.207L350.921 230.401ZM349.212 329.523L345.213 329.608L345.214 329.652L345.216 329.696L349.212 329.523ZM351.263 357.55L347.287 357.992L347.294 358.046L347.301 358.1L351.263 357.55ZM355.365 375.323L351.7 376.927L351.776 377.1L351.868 377.266L355.365 375.323ZM362.542 387.628L359.129 389.714L359.17 389.781L359.214 389.847L362.542 387.628ZM381.683 407.11L381.48 411.105L383.625 403.614L381.683 407.11ZM323.236 406.769L322.917 402.781L322.887 402.784L322.856 402.787L323.236 406.769ZM305.12 408.136L304.871 404.144L305.12 408.136ZM278.802 410.187L275.858 407.478L268.859 415.086L279.156 414.171L278.802 410.187ZM298.284 380.108L301.904 381.812L301.918 381.781L301.932 381.75L298.284 380.108ZM302.386 367.12L306.332 367.778L306.336 367.753L306.34 367.728L302.386 367.12ZM304.437 345.245L300.449 344.938L300.445 344.987L300.442 345.035L304.437 345.245ZM305.804 316.876L309.803 316.967L309.803 316.965L305.804 316.876ZM305.804 285.773H301.804V285.816L301.805 285.859L305.804 285.773ZM303.07 228.351L299.084 228.692L299.089 228.749L299.096 228.805L303.07 228.351ZM300.335 209.21L296.438 210.109L296.441 210.123L296.444 210.137L300.335 209.21ZM296.234 199.298L299.72 197.337L299.713 197.325L299.707 197.313L296.234 199.298ZM288.714 188.36L285.413 190.619L285.482 190.72L285.557 190.816L288.714 188.36ZM276.284 177.978C284.054 178.892 290.592 179.58 295.887 180.041L296.58 172.071C291.394 171.62 284.943 170.941 277.219 170.032L276.284 177.978ZM296.067 180.052C301.476 180.278 305.786 180.613 309.035 181.046L310.092 173.116C306.506 172.638 301.929 172.29 296.4 172.059L296.067 180.052ZM309.122 181.057C313.273 181.518 316.635 181.765 319.134 181.765V173.765C317.076 173.765 314.057 173.556 310.006 173.106L309.122 181.057ZM318.772 181.748C321.654 182.01 325.71 181.867 330.776 181.406L330.051 173.439C325.091 173.89 321.627 173.975 319.496 173.781L318.772 181.748ZM330.832 181.401C335.14 180.948 340.933 180.379 348.218 179.696L347.472 171.731C340.174 172.416 334.346 172.987 329.995 173.445L330.832 181.401ZM348.207 179.698C355.775 179.009 365.384 177.98 377.023 176.61L376.089 168.665C364.486 170.03 354.954 171.051 347.483 171.73L348.207 179.698ZM373.931 169.619C368.529 174.317 364.095 178.972 360.689 183.595L367.13 188.341C370.104 184.304 374.101 180.073 379.181 175.656L373.931 169.619ZM360.667 183.626C357.626 187.836 355.218 191.672 353.496 195.116L360.651 198.694C362.119 195.759 364.269 192.302 367.152 188.31L360.667 183.626ZM353.538 195.034C351.323 199.218 349.882 203.319 349.349 207.314L357.279 208.371C357.657 205.531 358.722 202.34 360.609 198.777L353.538 195.034ZM349.368 207.185C348.427 212.835 347.618 220.497 346.931 230.116L354.911 230.686C355.591 221.165 356.378 213.788 357.259 208.5L349.368 207.185ZM346.926 230.207C346.47 239.561 346.013 249.826 345.557 261L353.551 261.326C354.006 250.17 354.461 239.926 354.916 230.596L346.926 230.207ZM345.557 261C345.099 272.223 344.87 283.785 344.87 295.685H352.87C352.87 283.887 353.097 272.434 353.551 261.326L345.557 261ZM344.87 295.685C344.87 307.559 344.985 318.867 345.213 329.608L353.211 329.437C352.984 318.759 352.87 307.508 352.87 295.685H344.87ZM345.216 329.696C345.675 340.245 346.364 349.679 347.287 357.992L355.239 357.108C354.339 349.014 353.661 339.764 353.208 329.349L345.216 329.696ZM347.301 358.1C348.449 366.363 349.872 372.748 351.7 376.927L359.029 373.72C357.667 370.607 356.356 365.143 355.225 357L347.301 358.1ZM351.868 377.266C354.174 381.417 356.595 385.566 359.129 389.714L365.955 385.542C363.477 381.487 361.112 377.433 358.861 373.381L351.868 377.266ZM359.214 389.847C361.605 393.433 364.45 397.103 367.735 400.858L373.756 395.59C370.661 392.053 368.037 388.659 365.87 385.409L359.214 389.847ZM367.735 400.858C371.219 404.839 375.223 408.097 379.74 410.607L383.625 403.614C379.94 401.566 376.652 398.9 373.756 395.59L367.735 400.858ZM381.886 403.116C368.413 402.431 357.627 402.085 349.554 402.085V410.085C357.431 410.085 368.064 410.423 381.48 411.105L381.886 403.116ZM349.554 402.085H337.249V410.085H349.554V402.085ZM337.249 402.085C333.455 402.085 328.667 402.321 322.917 402.781L323.555 410.756C329.197 410.304 333.752 410.085 337.249 410.085V402.085ZM322.856 402.787C318.13 403.237 312.139 403.689 304.871 404.144L305.37 412.128C312.685 411.671 318.771 411.212 323.615 410.751L322.856 402.787ZM304.871 404.144C297.533 404.602 288.724 405.289 278.448 406.202L279.156 414.171C289.388 413.261 298.124 412.581 305.37 412.128L304.871 404.144ZM281.746 412.895C287.138 407.033 291.441 401.319 294.589 395.749L287.624 391.812C284.849 396.723 280.948 401.947 275.858 407.478L281.746 412.895ZM294.589 395.749C297.582 390.453 300.025 385.803 301.904 381.812L294.665 378.405C292.898 382.161 290.556 386.626 287.624 391.812L294.589 395.749ZM301.932 381.75C304.097 376.94 305.581 372.279 306.332 367.778L298.44 366.463C297.823 370.165 296.574 374.163 294.637 378.467L301.932 381.75ZM306.34 367.728C307.278 361.628 307.971 354.194 308.431 345.455L300.442 345.035C299.991 353.614 299.317 360.763 298.433 366.512L306.34 367.728ZM308.425 345.552C309.115 336.585 309.574 327.056 309.803 316.967L301.805 316.785C301.579 326.748 301.126 336.132 300.449 344.938L308.425 345.552ZM309.803 316.965C310.032 306.651 310.032 296.225 309.803 285.686L301.805 285.859C302.032 296.284 302.032 306.593 301.805 316.787L309.803 316.965ZM309.804 285.773C309.804 275.006 309.575 264.69 309.116 254.825L301.125 255.197C301.577 264.928 301.804 275.119 301.804 285.773H309.804ZM309.116 254.825C308.657 244.956 307.967 235.978 307.044 227.896L299.096 228.805C299.995 236.674 300.672 245.469 301.125 255.197L309.116 254.825ZM307.055 228.009C306.364 219.942 305.431 213.342 304.226 208.284L296.444 210.137C297.518 214.648 298.408 220.808 299.084 228.692L307.055 228.009ZM304.233 208.311C303.438 204.867 301.893 201.2 299.72 197.337L292.747 201.259C294.676 204.688 295.865 207.629 296.438 210.109L304.233 208.311ZM299.707 197.313C297.76 193.907 295.134 190.1 291.872 185.905L285.557 190.816C288.674 194.824 291.061 198.308 292.761 201.282L299.707 197.313ZM292.015 186.102C288.894 181.539 284.753 176.583 279.642 171.24L273.861 176.77C278.776 181.908 282.61 186.523 285.413 190.619L292.015 186.102Z" fill="black" mask="url(#path-2-outside-1_1_55)"/>
</svg>
