<svg width="667" height="574" viewBox="0 0 667 574" fill="none" xmlns="http://www.w3.org/2000/svg">
<path d="M329.731 77.3246L333.333 81.0675L336.936 77.3246C410.653 0.734727 491.757 -8.74242 554.169 19.7863C616.896 48.459 661.667 115.895 661.667 195.073C661.667 274.561 628.876 335.548 583.678 386.442C546.885 427.873 502.14 462.352 460.225 494.651C450.456 502.179 440.84 509.588 431.515 516.94C414.164 530.618 397.447 543.638 380.97 553.266C364.492 562.894 348.731 568.836 333.333 568.836C317.936 568.836 302.174 562.894 285.696 553.266C269.22 543.638 252.504 530.618 235.153 516.94C225.827 509.588 216.211 502.178 206.442 494.65C164.527 462.352 119.782 427.872 82.9886 386.442C37.791 335.548 5 274.561 5 195.073C5 115.895 49.7702 48.459 112.497 19.7863C174.909 -8.74241 256.013 0.734719 329.731 77.3246Z" fill="#FF0000" stroke="black" stroke-width="10"/>
<mask id="path-2-outside-1_1_49" maskUnits="userSpaceOnUse" x="203.333" y="157.503" width="238" height="259" fill="black">
<rect fill="white" x="203.333" y="157.503" width="238" height="259"/>
<path d="M217.029 164.776C225.687 166.827 233.435 168.422 240.271 169.562C247.335 170.473 253.259 171.157 258.044 171.612C263.741 172.296 268.754 172.524 273.083 172.296C278.552 172.068 285.388 171.271 293.591 169.903C301.794 168.536 310.453 167.169 319.568 165.802C328.682 164.435 337.683 163.295 346.57 162.384C355.456 161.472 363.204 161.358 369.812 162.042C376.42 162.726 383.37 164.321 390.661 166.827C397.953 169.106 404.789 172.296 411.169 176.397C417.549 180.271 423.018 185.056 427.576 190.753C432.361 196.45 435.323 203.058 436.462 210.577C437.602 217.869 436.918 225.73 434.411 234.161C431.905 242.364 427.917 250.453 422.449 258.429C416.98 266.176 410.144 273.354 401.941 279.962C393.738 286.57 384.623 291.925 374.597 296.026C366.622 298.989 357.963 301.267 348.62 302.862C340.645 304.229 331.303 305.141 320.593 305.597C310.111 305.825 298.946 304.685 287.097 302.179C285.502 308.787 284.59 314.939 284.363 320.636C284.363 326.104 284.59 331.004 285.046 335.333C285.73 340.346 286.641 344.903 287.781 349.005C289.148 353.106 290.857 357.892 292.908 363.36C294.73 367.918 296.781 373.5 299.06 380.108C301.566 386.489 304.529 393.666 307.947 401.642C303.845 401.642 299.857 401.756 295.984 401.983C292.11 401.983 288.578 402.097 285.388 402.325C281.742 402.553 278.324 402.781 275.134 403.009C271.488 403.237 267.387 403.692 262.829 404.376C258.956 404.832 254.057 405.515 248.132 406.427C242.436 407.338 235.941 408.478 228.65 409.845C233.435 403.009 237.195 396.743 239.929 391.046C242.891 385.121 245.056 379.994 246.423 375.665C248.018 370.652 249.044 366.095 249.499 361.993C249.727 358.575 249.727 352.537 249.499 343.878C249.499 335.219 249.385 325.193 249.158 313.8C248.93 302.407 248.588 290.444 248.132 277.911C247.676 265.379 247.107 253.644 246.423 242.706C245.74 231.541 244.942 221.97 244.031 213.995C243.347 206.02 242.663 200.779 241.98 198.272C241.068 195.31 239.473 192.12 237.195 188.702C235.372 185.74 232.751 182.322 229.333 178.448C226.143 174.347 222.042 169.789 217.029 164.776ZM287.781 232.11C287.553 234.389 287.439 236.782 287.439 239.288C287.439 244.073 287.781 250.226 288.464 257.745C290.059 261.619 291.996 264.809 294.275 267.315C296.781 269.822 299.402 271.759 302.136 273.126C305.098 274.493 308.061 275.405 311.023 275.86C313.985 276.316 316.947 276.544 319.909 276.544C326.745 276.316 333.923 274.721 341.443 271.759C351.469 267.429 358.533 261.277 362.634 253.302C366.736 245.326 368.9 237.123 369.128 228.692C369.356 220.261 367.875 212.514 364.685 205.45C361.723 198.386 358.077 193.601 353.747 191.095C350.102 189.5 345.43 188.816 339.734 189.044C334.721 189.272 328.454 190.525 320.935 192.804C313.415 195.082 304.187 199.184 293.249 205.108C292.11 209.21 291.199 212.856 290.515 216.046C289.831 219.236 289.262 222.084 288.806 224.591C288.35 227.325 288.008 229.832 287.781 232.11Z"/>
</mask>
<path d="M217.029 164.776C225.687 166.827 233.435 168.422 240.271 169.562C247.335 170.473 253.259 171.157 258.044 171.612C263.741 172.296 268.754 172.524 273.083 172.296C278.552 172.068 285.388 171.271 293.591 169.903C301.794 168.536 310.453 167.169 319.568 165.802C328.682 164.435 337.683 163.295 346.57 162.384C355.456 161.472 363.204 161.358 369.812 162.042C376.42 162.726 383.37 164.321 390.661 166.827C397.953 169.106 404.789 172.296 411.169 176.397C417.549 180.271 423.018 185.056 427.576 190.753C432.361 196.45 435.323 203.058 436.462 210.577C437.602 217.869 436.918 225.73 434.411 234.161C431.905 242.364 427.917 250.453 422.449 258.429C416.98 266.176 410.144 273.354 401.941 279.962C393.738 286.57 384.623 291.925 374.597 296.026C366.622 298.989 357.963 301.267 348.62 302.862C340.645 304.229 331.303 305.141 320.593 305.597C310.111 305.825 298.946 304.685 287.097 302.179C285.502 308.787 284.59 314.939 284.363 320.636C284.363 326.104 284.59 331.004 285.046 335.333C285.73 340.346 286.641 344.903 287.781 349.005C289.148 353.106 290.857 357.892 292.908 363.36C294.73 367.918 296.781 373.5 299.06 380.108C301.566 386.489 304.529 393.666 307.947 401.642C303.845 401.642 299.857 401.756 295.984 401.983C292.11 401.983 288.578 402.097 285.388 402.325C281.742 402.553 278.324 402.781 275.134 403.009C271.488 403.237 267.387 403.692 262.829 404.376C258.956 404.832 254.057 405.515 248.132 406.427C242.436 407.338 235.941 408.478 228.65 409.845C233.435 403.009 237.195 396.743 239.929 391.046C242.891 385.121 245.056 379.994 246.423 375.665C248.018 370.652 249.044 366.095 249.499 361.993C249.727 358.575 249.727 352.537 249.499 343.878C249.499 335.219 249.385 325.193 249.158 313.8C248.93 302.407 248.588 290.444 248.132 277.911C247.676 265.379 247.107 253.644 246.423 242.706C245.74 231.541 244.942 221.97 244.031 213.995C243.347 206.02 242.663 200.779 241.98 198.272C241.068 195.31 239.473 192.12 237.195 188.702C235.372 185.74 232.751 182.322 229.333 178.448C226.143 174.347 222.042 169.789 217.029 164.776ZM287.781 232.11C287.553 234.389 287.439 236.782 287.439 239.288C287.439 244.073 287.781 250.226 288.464 257.745C290.059 261.619 291.996 264.809 294.275 267.315C296.781 269.822 299.402 271.759 302.136 273.126C305.098 274.493 308.061 275.405 311.023 275.86C313.985 276.316 316.947 276.544 319.909 276.544C326.745 276.316 333.923 274.721 341.443 271.759C351.469 267.429 358.533 261.277 362.634 253.302C366.736 245.326 368.9 237.123 369.128 228.692C369.356 220.261 367.875 212.514 364.685 205.45C361.723 198.386 358.077 193.601 353.747 191.095C350.102 189.5 345.43 188.816 339.734 189.044C334.721 189.272 328.454 190.525 320.935 192.804C313.415 195.082 304.187 199.184 293.249 205.108C292.11 209.21 291.199 212.856 290.515 216.046C289.831 219.236 289.262 222.084 288.806 224.591C288.35 227.325 288.008 229.832 287.781 232.11Z" fill="white"/>
<path d="M217.029 164.776L217.95 160.884L204.23 157.634L214.2 167.605L217.029 164.776ZM240.271 169.562L239.613 173.507L239.686 173.519L239.759 173.529L240.271 169.562ZM258.044 171.612L258.521 167.641L258.472 167.635L258.423 167.63L258.044 171.612ZM273.083 172.296L272.917 168.299L272.895 168.3L272.873 168.301L273.083 172.296ZM390.661 166.827L389.361 170.61L389.414 170.628L389.468 170.645L390.661 166.827ZM411.169 176.397L409.006 179.762L409.049 179.79L409.093 179.817L411.169 176.397ZM427.576 190.753L424.452 193.252L424.482 193.289L424.513 193.326L427.576 190.753ZM436.462 210.577L432.507 211.176L432.509 211.186L432.51 211.195L436.462 210.577ZM434.411 234.161L438.237 235.33L438.241 235.316L438.246 235.301L434.411 234.161ZM422.449 258.429L425.716 260.735L425.732 260.713L425.747 260.691L422.449 258.429ZM374.597 296.026L375.99 299.776L376.051 299.753L376.112 299.729L374.597 296.026ZM348.62 302.862L347.947 298.919L347.945 298.92L348.62 302.862ZM320.593 305.597L320.68 309.596L320.722 309.595L320.763 309.593L320.593 305.597ZM287.097 302.179L287.925 298.265L284.121 297.461L283.209 301.24L287.097 302.179ZM284.363 320.636L280.366 320.476L280.363 320.556V320.636H284.363ZM285.046 335.333L281.068 335.752L281.075 335.813L281.083 335.873L285.046 335.333ZM287.781 349.005L283.927 350.075L283.954 350.173L283.986 350.27L287.781 349.005ZM292.908 363.36L289.162 364.765L289.177 364.806L289.194 364.846L292.908 363.36ZM299.06 380.108L295.278 381.412L295.306 381.492L295.337 381.571L299.06 380.108ZM307.947 401.642V405.642H314.013L311.623 400.066L307.947 401.642ZM295.984 401.983V405.983H296.101L296.219 405.976L295.984 401.983ZM285.388 402.325L285.638 406.317L285.655 406.316L285.673 406.315L285.388 402.325ZM275.134 403.009L275.384 407.001L275.401 407L275.419 406.999L275.134 403.009ZM262.829 404.376L263.297 408.349L263.36 408.341L263.423 408.332L262.829 404.376ZM248.132 406.427L247.524 402.473L247.512 402.475L247.5 402.477L248.132 406.427ZM228.65 409.845L225.373 407.551L219.75 415.583L229.387 413.776L228.65 409.845ZM239.929 391.046L236.351 389.257L236.337 389.286L236.323 389.315L239.929 391.046ZM246.423 375.665L242.611 374.452L242.609 374.461L246.423 375.665ZM249.499 361.993L253.475 362.435L253.485 362.347L253.49 362.259L249.499 361.993ZM249.499 343.878H245.499V343.931L245.501 343.983L249.499 343.878ZM246.423 242.706L242.431 242.95L242.431 242.956L246.423 242.706ZM244.031 213.995L240.045 214.337L240.05 214.393L240.056 214.449L244.031 213.995ZM241.98 198.272L245.839 197.22L245.822 197.158L245.803 197.096L241.98 198.272ZM237.195 188.702L233.788 190.799L233.826 190.86L233.866 190.921L237.195 188.702ZM229.333 178.448L226.176 180.904L226.252 181.002L226.334 181.095L229.333 178.448ZM288.464 257.745L284.481 258.107L284.535 258.709L284.765 259.268L288.464 257.745ZM294.275 267.315L291.315 270.006L291.379 270.077L291.446 270.144L294.275 267.315ZM302.136 273.126L300.347 276.704L300.403 276.732L300.46 276.758L302.136 273.126ZM319.909 276.544V280.544H319.976L320.043 280.542L319.909 276.544ZM341.443 271.759L342.909 275.48L342.969 275.457L343.028 275.431L341.443 271.759ZM364.685 205.45L360.996 206.997L361.017 207.047L361.039 207.097L364.685 205.45ZM353.747 191.095L355.752 187.633L355.557 187.52L355.351 187.43L353.747 191.095ZM339.734 189.044L339.574 185.047L339.563 185.048L339.552 185.048L339.734 189.044ZM293.249 205.108L291.344 201.591L289.85 202.401L289.395 204.038L293.249 205.108ZM288.806 224.591L284.87 223.875L284.865 223.904L284.86 223.933L288.806 224.591ZM216.107 168.669C224.83 170.735 232.668 172.35 239.613 173.507L240.928 165.616C234.202 164.495 226.545 162.92 217.95 160.884L216.107 168.669ZM239.759 173.529C246.848 174.443 252.82 175.133 257.665 175.594L258.423 167.63C253.698 167.18 247.821 166.503 240.783 165.594L239.759 173.529ZM257.568 175.584C263.424 176.287 268.675 176.533 273.294 176.29L272.873 168.301C268.833 168.514 264.058 168.305 258.521 167.641L257.568 175.584ZM273.25 176.292C278.944 176.055 285.957 175.231 294.249 173.849L292.934 165.958C284.819 167.31 278.16 168.081 272.917 168.299L273.25 176.292ZM294.249 173.849C302.428 172.486 311.066 171.122 320.161 169.758L318.974 161.846C309.841 163.216 301.16 164.587 292.934 165.958L294.249 173.849ZM320.161 169.758C329.216 168.399 338.155 167.268 346.978 166.363L346.162 158.405C337.211 159.323 328.149 160.47 318.974 161.846L320.161 169.758ZM346.978 166.363C355.679 165.471 363.139 165.373 369.4 166.021L370.223 158.063C363.268 157.344 355.234 157.474 346.162 158.405L346.978 166.363ZM369.4 166.021C375.662 166.669 382.312 168.187 389.361 170.61L391.962 163.044C384.427 160.454 377.178 158.783 370.223 158.063L369.4 166.021ZM389.468 170.645C396.42 172.818 402.93 175.856 409.006 179.762L413.332 173.033C406.648 168.736 399.486 165.394 391.855 163.009L389.468 170.645ZM409.093 179.817C415.083 183.453 420.194 187.929 424.452 193.252L430.699 188.254C425.842 182.183 420.016 177.089 413.245 172.978L409.093 179.817ZM424.513 193.326C428.814 198.446 431.476 204.367 432.507 211.176L440.417 209.978C439.17 201.748 435.908 194.453 430.638 188.18L424.513 193.326ZM432.51 211.195C433.542 217.797 432.947 225.052 430.577 233.021L438.246 235.301C440.889 226.408 441.661 217.941 440.414 209.96L432.51 211.195ZM430.586 232.992C428.212 240.76 424.417 248.485 419.15 256.167L425.747 260.691C431.417 252.422 435.597 243.968 438.237 235.33L430.586 232.992ZM419.181 256.122C413.948 263.535 407.377 270.446 399.431 276.847L404.45 283.077C412.911 276.261 420.011 268.818 425.716 260.735L419.181 256.122ZM399.431 276.847C391.538 283.205 382.76 288.365 373.082 292.324L376.112 299.729C386.486 295.485 395.937 289.935 404.45 283.077L399.431 276.847ZM373.204 292.277C365.487 295.143 357.072 297.362 347.947 298.919L349.294 306.805C358.854 305.173 367.757 302.834 375.99 299.776L373.204 292.277ZM347.945 298.92C340.18 300.251 331.014 301.15 320.423 301.6L320.763 309.593C331.592 309.132 341.11 308.208 349.296 306.805L347.945 298.92ZM320.506 301.598C310.375 301.818 299.518 300.718 287.925 298.265L286.269 306.092C298.373 308.653 309.848 309.831 320.68 309.596L320.506 301.598ZM283.209 301.24C281.563 308.056 280.606 314.472 280.366 320.476L288.359 320.796C288.575 315.406 289.441 309.517 290.985 303.117L283.209 301.24ZM280.363 320.636C280.363 326.211 280.595 331.253 281.068 335.752L289.024 334.914C288.586 330.754 288.363 325.998 288.363 320.636H280.363ZM281.083 335.873C281.786 341.033 282.731 345.771 283.927 350.075L291.635 347.934C290.552 344.036 289.673 339.659 289.01 334.793L281.083 335.873ZM283.986 350.27C285.373 354.431 287.1 359.265 289.162 364.765L296.653 361.956C294.614 356.518 292.923 351.782 291.575 347.74L283.986 350.27ZM289.194 364.846C290.985 369.324 293.013 374.842 295.278 381.412L302.841 378.804C300.55 372.159 298.476 366.511 296.621 361.875L289.194 364.846ZM295.337 381.571C297.862 387.998 300.84 395.214 304.27 403.217L311.623 400.066C308.217 392.119 305.271 384.98 302.783 378.646L295.337 381.571ZM307.947 397.642C303.771 397.642 299.705 397.758 295.749 397.99L296.219 405.976C300.01 405.753 303.919 405.642 307.947 405.642V397.642ZM295.984 397.983C292.034 397.983 288.405 398.099 285.103 398.335L285.673 406.315C288.751 406.095 292.186 405.983 295.984 405.983V397.983ZM285.138 398.333C281.482 398.561 278.053 398.79 274.849 399.019L275.419 406.999C278.596 406.772 282.002 406.545 285.638 406.317L285.138 398.333ZM274.885 399.017C271.099 399.253 266.879 399.724 262.236 400.42L263.423 408.332C267.894 407.661 271.878 407.22 275.384 407.001L274.885 399.017ZM262.362 400.403C258.423 400.867 253.473 401.558 247.524 402.473L248.74 410.38C254.64 409.473 259.488 408.797 263.297 408.349L262.362 400.403ZM247.5 402.477C241.76 403.395 235.23 404.541 227.913 405.913L229.387 413.776C236.653 412.414 243.111 411.281 248.764 410.377L247.5 402.477ZM231.927 412.139C236.8 405.177 240.682 398.72 243.535 392.777L236.323 389.315C233.707 394.765 230.07 400.84 225.373 407.551L231.927 412.139ZM243.507 392.835C246.525 386.799 248.785 381.468 250.237 376.87L242.609 374.461C241.327 378.521 239.258 383.444 236.351 389.257L243.507 392.835ZM250.235 376.878C251.889 371.679 252.983 366.858 253.475 362.435L245.524 361.551C245.104 365.331 244.147 369.625 242.611 374.452L250.235 376.878ZM253.49 362.259C253.732 358.634 253.726 352.425 253.498 343.773L245.501 343.983C245.729 352.649 245.722 358.517 245.508 361.727L253.49 362.259ZM253.499 343.878C253.499 335.186 253.385 325.132 253.157 313.72L245.158 313.88C245.386 325.254 245.499 335.253 245.499 343.878H253.499ZM253.157 313.72C252.928 302.303 252.586 290.318 252.129 277.766L244.135 278.056C244.59 290.569 244.931 302.51 245.158 313.88L253.157 313.72ZM252.129 277.766C251.673 265.203 251.101 253.433 250.415 242.457L242.431 242.956C243.112 253.854 243.68 265.554 244.135 278.056L252.129 277.766ZM250.416 242.462C249.729 231.251 248.927 221.607 248.005 213.541L240.056 214.449C240.958 222.334 241.75 231.83 242.431 242.95L250.416 242.462ZM248.016 213.654C247.338 205.747 246.634 200.137 245.839 197.22L238.121 199.325C238.692 201.421 239.356 206.293 240.045 214.337L248.016 213.654ZM245.803 197.096C244.748 193.667 242.951 190.125 240.523 186.483L233.866 190.921C235.996 194.115 237.389 196.954 238.157 199.449L245.803 197.096ZM240.601 186.606C238.616 183.38 235.837 179.773 232.333 175.802L226.334 181.095C229.666 184.871 232.127 188.1 233.788 190.799L240.601 186.606ZM232.491 175.992C229.17 171.723 224.948 167.039 219.857 161.948L214.2 167.605C219.135 172.54 223.117 176.971 226.176 180.904L232.491 175.992ZM283.8 231.712C283.558 234.135 283.439 236.661 283.439 239.288H291.439C291.439 236.902 291.547 234.643 291.761 232.508L283.8 231.712ZM283.439 239.288C283.439 244.242 283.792 250.527 284.481 258.107L292.448 257.383C291.77 249.924 291.439 243.904 291.439 239.288H283.439ZM284.765 259.268C286.497 263.473 288.66 267.086 291.315 270.006L297.234 264.625C295.332 262.532 293.622 259.764 292.163 256.222L284.765 259.268ZM291.446 270.144C294.209 272.907 297.172 275.116 300.347 276.704L303.925 269.548C301.631 268.401 299.353 266.737 297.103 264.487L291.446 270.144ZM300.46 276.758C303.731 278.268 307.052 279.297 310.415 279.814L311.631 271.907C309.069 271.513 306.465 270.719 303.812 269.494L300.46 276.758ZM310.415 279.814C313.576 280.3 316.741 280.544 319.909 280.544V272.544C317.153 272.544 314.394 272.332 311.631 271.907L310.415 279.814ZM320.043 280.542C327.41 280.296 335.039 278.58 342.909 275.48L339.977 268.037C332.807 270.862 326.081 272.336 319.776 272.546L320.043 280.542ZM343.028 275.431C353.713 270.817 361.579 264.099 366.191 255.131L359.077 251.472C355.486 258.455 349.224 264.042 339.857 268.087L343.028 275.431ZM366.191 255.131C370.549 246.657 372.882 237.869 373.127 228.8L365.13 228.584C364.919 236.378 362.922 243.996 359.077 251.472L366.191 255.131ZM373.127 228.8C373.369 219.82 371.79 211.466 368.33 203.804L361.039 207.097C363.959 213.562 365.343 220.703 365.13 228.584L373.127 228.8ZM368.374 203.903C365.243 196.438 361.143 190.755 355.752 187.633L351.743 194.556C355.01 196.448 358.202 200.335 360.996 206.997L368.374 203.903ZM355.351 187.43C350.963 185.511 345.632 184.805 339.574 185.047L339.894 193.041C345.228 192.827 349.24 193.489 352.144 194.759L355.351 187.43ZM339.552 185.048C334.076 185.297 327.455 186.648 319.775 188.976L322.095 196.632C329.454 194.402 335.366 193.247 339.915 193.04L339.552 185.048ZM319.775 188.976C311.893 191.364 302.399 195.603 291.344 201.591L295.154 208.626C305.975 202.765 314.938 198.801 322.095 196.632L319.775 188.976ZM289.395 204.038C288.241 208.195 287.308 211.92 286.604 215.208L294.426 216.884C295.089 213.791 295.979 210.225 297.103 206.179L289.395 204.038ZM286.604 215.208C285.914 218.428 285.335 221.318 284.87 223.875L292.741 225.306C293.188 222.85 293.749 220.044 294.426 216.884L286.604 215.208ZM284.86 223.933C284.393 226.737 284.039 229.331 283.8 231.712L291.761 232.508C291.978 230.332 292.307 227.914 292.752 225.248L284.86 223.933Z" fill="black" mask="url(#path-2-outside-1_1_49)"/>
</svg>
