<svg width="317" height="454" viewBox="0 0 317 454" fill="none" xmlns="http://www.w3.org/2000/svg">
<path d="M300.916 63.4829C299.462 62.4145 296.958 61.3887 293.485 60.4251C290.027 59.4655 285.657 58.5806 280.513 57.7701C270.224 56.1494 256.872 54.8323 241.577 53.8054C210.991 51.7517 172.676 50.8612 135.652 51.0174C98.6276 51.1737 62.9078 52.3766 37.5122 54.5079C24.8085 55.574 14.7129 56.8706 8.33242 58.3781C5.12353 59.1362 2.92819 59.932 1.8012 60.735C1.2355 61.1381 1.03463 61.4753 1.0043 61.7253C0.976588 61.9539 1.07431 62.2772 1.54947 62.7104C2.16467 63.2714 2.6969 64.1906 3.17236 65.3763C3.65237 66.5734 4.09405 68.093 4.50189 69.9043C5.31775 73.5277 6.00912 78.3686 6.591 84.2386C7.75503 95.9816 8.48581 111.897 8.88433 130.546C9.68145 167.846 9.14999 216.12 8.08746 263.904C7.02487 311.688 5.43103 358.988 4.10284 394.341C3.43875 412.018 2.84106 426.708 2.40942 436.979C2.19357 442.115 2.01925 446.145 1.89886 448.892C1.83868 450.266 1.79199 451.318 1.76034 452.028L1.73693 452.55L2.00158 452.535C2.54052 452.506 3.34042 452.462 4.38433 452.405C6.47223 452.292 9.53631 452.128 13.4415 451.924C21.2519 451.518 32.4266 450.956 45.8847 450.331C72.8006 449.081 108.851 447.58 145.386 446.58C181.92 445.58 218.946 445.08 247.811 445.83C262.242 446.205 274.645 446.893 283.93 447.99C288.572 448.538 292.448 449.189 295.415 449.959C296.898 450.344 298.164 450.762 299.19 451.215C300.211 451.666 301.023 452.166 301.572 452.732C301.772 452.939 301.932 453.023 302.048 453.05C302.15 453.074 302.26 453.064 302.4 452.985C302.724 452.802 303.132 452.296 303.582 451.324C304.465 449.419 305.336 446.117 306.176 441.564C307.852 432.477 309.378 418.585 310.698 401.386C313.338 366.994 315.15 319.443 315.712 270.824C316.275 222.206 315.587 172.531 313.229 133.892C312.05 114.57 310.453 98.02 308.389 85.7449C307.357 79.6059 306.21 74.5515 304.946 70.7601C304.314 68.8644 303.656 67.2962 302.975 66.0706C302.291 64.84 301.6 63.9854 300.916 63.4829Z" fill="white" stroke="black"/>
<path d="M34.6767 97.58L276.676 93.5298" stroke="black"/>
<path d="M34.6767 126.63L276.676 122.58" stroke="black"/>
<path d="M34.6767 184.63L276.676 180.58" stroke="black"/>
<path d="M34.6767 213.63L276.676 209.58" stroke="black"/>
<path d="M34.6767 155.63L276.676 151.58" stroke="black"/>
<path d="M34.6767 242.63L276.676 238.58" stroke="black"/>
<path d="M34.6767 271.68L276.676 267.63" stroke="black"/>
<path d="M34.6767 329.68L276.676 325.63" stroke="black"/>
<path d="M34.6767 300.68L276.676 296.63" stroke="black"/>
<path d="M61.9811 89.6459C62.0531 89.2139 62.1311 88.7759 62.2151 88.3319C62.3111 87.8879 62.4251 87.3959 62.5571 86.8559C62.7011 86.3159 62.8751 85.6979 63.0791 85.0019C63.2951 84.3059 63.5531 83.4959 63.8531 82.5719C63.6731 82.5839 63.4751 82.6019 63.2591 82.6259C63.0551 82.6499 62.8631 82.6679 62.6831 82.6799C62.6831 82.2959 62.8271 82.0019 63.1151 81.7979C63.4031 81.5939 63.7811 81.4439 64.2491 81.3479C64.2971 81.1799 64.3391 81.0479 64.3751 80.9519C64.4111 80.8559 64.4531 80.7359 64.5011 80.5919C64.5491 80.4479 64.6211 80.2499 64.7171 79.9979C64.8131 79.7339 64.9391 79.3619 65.0951 78.8819C65.2631 78.4019 65.4791 77.7719 65.7431 76.9919C65.7671 76.9319 65.8091 76.8119 65.8691 76.6319C65.9291 76.4519 65.9591 76.2839 65.9591 76.1279C65.9591 76.0319 65.9411 75.9659 65.9051 75.9299C65.8811 75.8939 65.8211 75.8759 65.7251 75.8759C65.4851 75.8759 65.2391 75.9839 64.9871 76.1999C64.7471 76.4159 64.5251 76.6919 64.3211 77.0279C64.1171 77.3519 63.9551 77.6939 63.8351 78.0539C63.7151 78.4019 63.6551 78.7139 63.6551 78.9899C63.6551 79.0859 63.6671 79.1939 63.6911 79.3139C63.7151 79.4339 63.7631 79.5959 63.8351 79.7999C63.3311 79.7999 62.9651 79.6919 62.7371 79.4759C62.5211 79.2479 62.4131 78.9599 62.4131 78.6119C62.4131 78.2039 62.5331 77.7959 62.7731 77.3879C63.0251 76.9799 63.3431 76.6079 63.7271 76.2719C64.1231 75.9239 64.5371 75.6479 64.9691 75.4439C65.4131 75.2279 65.8211 75.1199 66.1931 75.1199C66.5771 75.1199 66.8411 75.2219 66.9851 75.4259C67.1291 75.6299 67.2011 75.8579 67.2011 76.1099C67.2011 76.2419 67.1831 76.3739 67.1471 76.5059C67.1231 76.6379 67.0931 76.7639 67.0571 76.8839L65.7431 81.2039C65.8871 81.1919 66.0311 81.1859 66.1751 81.1859C66.3311 81.1859 66.4871 81.1859 66.6431 81.1859C67.2311 81.1859 67.7831 81.1979 68.2991 81.2219C68.8151 81.2459 69.3131 81.2819 69.7931 81.3299C70.0931 80.3219 70.3451 79.4939 70.5491 78.8459C70.7651 78.1979 70.9511 77.6639 71.1071 77.2439C71.2751 76.8119 71.4251 76.4339 71.5571 76.1099C71.6051 76.0139 71.6711 75.8879 71.7551 75.7319C71.8511 75.5639 71.9831 75.4199 72.1511 75.2999C72.3311 75.1679 72.5651 75.1019 72.8531 75.1019C72.6971 75.5219 72.5051 76.0799 72.2771 76.7759C72.0611 77.4599 71.8391 78.2099 71.6111 79.0259C71.3831 79.8299 71.1671 80.6279 70.9631 81.4199C71.1311 81.4199 71.3651 81.4319 71.6651 81.4559C71.9771 81.4679 72.2651 81.4739 72.5291 81.4739C72.1571 81.8459 71.8271 82.0799 71.5391 82.1759C71.2511 82.2599 70.9871 82.3019 70.7471 82.3019C70.6151 82.8539 70.4951 83.3819 70.3871 83.8859C70.2791 84.3899 70.1891 84.8579 70.1171 85.2899C69.9731 86.0579 69.8651 86.7299 69.7931 87.3059C69.7331 87.8699 69.7031 88.3319 69.7031 88.6919C69.7031 88.8839 69.7091 89.0519 69.7211 89.1959C69.7451 89.3519 69.7691 89.5019 69.7931 89.6459C69.1811 89.5859 68.7611 89.4359 68.5331 89.1959C68.3171 88.9679 68.2091 88.5599 68.2091 87.9719C68.2091 87.6959 68.2271 87.3899 68.2631 87.0539C68.3111 86.7179 68.3891 86.3219 68.4971 85.8659C68.5931 85.4219 68.7251 84.9119 68.8931 84.3359C69.0611 83.7599 69.2651 83.0879 69.5051 82.3199C68.7731 82.3199 68.1671 82.3259 67.6871 82.3379C67.2071 82.3499 66.7871 82.3619 66.4271 82.3739C66.0671 82.3859 65.7071 82.4099 65.3471 82.4459C65.3351 82.4939 65.3051 82.5959 65.2571 82.7519C65.2091 82.9079 65.1251 83.1839 65.0051 83.5799C64.8851 83.9759 64.7051 84.5579 64.4651 85.3259C64.2251 86.0939 63.9011 87.1259 63.4931 88.4219C63.3611 88.8659 63.1331 89.1779 62.8091 89.3579C62.4851 89.5499 62.2091 89.6459 61.9811 89.6459ZM73.2244 88.9259C72.8284 88.9259 72.4864 88.7939 72.1983 88.5299C71.8983 88.2659 71.7483 87.8699 71.7483 87.3419C71.7483 86.9219 71.8443 86.4659 72.0363 85.9739C72.2283 85.4819 72.4924 84.9959 72.8284 84.5159C73.1644 84.0359 73.5484 83.6039 73.9804 83.2199C74.4124 82.8239 74.8744 82.5059 75.3664 82.2659C75.8584 82.0259 76.3504 81.9059 76.8423 81.9059C77.3584 81.9059 77.7964 82.0379 78.1564 82.3019C78.5164 82.5659 78.6964 82.9139 78.6964 83.3459C78.6964 83.6699 78.5824 83.9039 78.3544 84.0479C78.1264 84.1919 77.8564 84.2339 77.5444 84.1739C77.5684 84.0659 77.5864 83.9579 77.5984 83.8499C77.6224 83.7419 77.6344 83.6279 77.6344 83.5079C77.6344 83.2679 77.5864 83.0519 77.4904 82.8599C77.3944 82.6679 77.1904 82.5719 76.8784 82.5719C76.5424 82.5719 76.2004 82.6859 75.8524 82.9139C75.5044 83.1419 75.1684 83.4419 74.8444 83.8139C74.5324 84.1739 74.2504 84.5759 73.9984 85.0199C73.7464 85.4519 73.5484 85.8779 73.4043 86.2979C73.2604 86.7179 73.1884 87.0959 73.1884 87.4319C73.1884 87.8159 73.3264 88.0079 73.6024 88.0079C73.8784 88.0079 74.1844 87.8759 74.5204 87.6119C74.8564 87.3359 75.1924 86.9939 75.5284 86.5859C75.8764 86.1779 76.2064 85.7639 76.5184 85.3439C76.8304 84.9119 77.1004 84.5459 77.3284 84.2459C77.3644 84.1859 77.4124 84.1559 77.4724 84.1559C77.5204 84.1679 77.6104 84.1979 77.7424 84.2459C77.8864 84.2819 78.0184 84.3419 78.1384 84.4259C78.2584 84.5099 78.3184 84.6179 78.3184 84.7499C78.3184 84.8699 78.2644 85.0259 78.1564 85.2179C78.0604 85.3979 77.9404 85.6019 77.7964 85.8299C77.6644 86.0459 77.5444 86.2679 77.4364 86.4959C77.3404 86.7119 77.2924 86.9219 77.2924 87.1259C77.2924 87.2819 77.3344 87.4319 77.4184 87.5759C77.5024 87.7079 77.6404 87.7739 77.8324 87.7739C78.1204 87.7739 78.5224 87.5639 79.0384 87.1439C79.5664 86.7119 80.1004 85.9859 80.6404 84.9659L80.9824 85.3079C80.6944 85.9559 80.3464 86.5319 79.9384 87.0359C79.5424 87.5279 79.1224 87.9119 78.6784 88.1879C78.2344 88.4759 77.7844 88.6199 77.3284 88.6199C76.8364 88.6199 76.4704 88.4639 76.2304 88.1519C75.9904 87.8399 75.8584 87.5039 75.8344 87.1439C75.8344 87.1199 75.8344 87.1019 75.8344 87.0899C75.8344 87.0779 75.8344 87.0659 75.8344 87.0539C75.3544 87.6299 74.9104 88.0859 74.5024 88.4219C74.1064 88.7579 73.6804 88.9259 73.2244 88.9259ZM79.2064 93.1199C79.1104 93.1199 79.0084 93.0899 78.9004 93.0299C78.7924 92.9819 78.7024 92.9219 78.6304 92.8499C78.5464 92.7779 78.4984 92.7179 78.4864 92.6699C78.7864 91.7939 79.0444 91.0319 79.2604 90.3839C79.4644 89.7479 79.6384 89.1419 79.7824 88.5659C79.9264 88.0019 80.0584 87.4139 80.1784 86.8019C80.2864 86.1779 80.3944 85.4699 80.5024 84.6779C80.6224 83.8739 80.7544 82.9079 80.8984 81.7799C80.9224 81.6359 80.9524 81.5339 80.9884 81.4739C81.0244 81.4019 81.1384 81.3659 81.3304 81.3659C81.7024 81.3659 81.9724 81.4679 82.1404 81.6719C82.3084 81.8639 82.3924 82.0799 82.3924 82.3199C82.3924 82.4399 82.3684 82.6499 82.3204 82.9499C82.2844 83.2499 82.2244 83.6039 82.1404 84.0119C82.3684 83.6639 82.6264 83.3339 82.9144 83.0219C83.2144 82.7099 83.5444 82.4579 83.9044 82.2659C84.2644 82.0619 84.6544 81.9599 85.0744 81.9599C85.6624 81.9599 86.1484 82.1579 86.5324 82.5539C86.9164 82.9499 87.1084 83.4719 87.1084 84.1199C87.1084 84.5879 87.0004 85.0859 86.7844 85.6139C86.5804 86.1299 86.2864 86.6219 85.9024 87.0899C85.5184 87.5459 85.0564 87.9179 84.5164 88.2059C83.9764 88.5059 83.3824 88.6559 82.7344 88.6559C82.3504 88.6559 82.0444 88.6079 81.8164 88.5119C81.5884 88.4159 81.4744 88.3079 81.4744 88.1879C81.4744 88.1039 81.5164 88.0559 81.6004 88.0439C81.6964 88.0199 81.7984 88.0079 81.9064 88.0079C82.4704 87.9959 82.9804 87.8759 83.4364 87.6479C83.9044 87.4199 84.3064 87.1259 84.6424 86.7659C84.9784 86.3939 85.2364 85.9979 85.4164 85.5779C85.5964 85.1579 85.6864 84.7439 85.6864 84.3359C85.6864 83.9759 85.6024 83.6639 85.4344 83.3999C85.2784 83.1359 85.0264 83.0039 84.6784 83.0039C84.3784 83.0039 84.0724 83.0999 83.7604 83.2919C83.4604 83.4839 83.1784 83.7299 82.9144 84.0299C82.6504 84.3179 82.4164 84.6239 82.2124 84.9479C82.0084 85.2599 81.8524 85.5359 81.7444 85.7759C81.5164 86.5679 81.3064 87.3539 81.1144 88.1339C80.9344 88.9259 80.7604 89.6579 80.5924 90.3299C80.4244 91.0019 80.2564 91.5719 80.0884 92.0399C79.9084 92.5079 79.7164 92.8259 79.5124 92.9939C79.4164 93.0779 79.3144 93.1199 79.2064 93.1199ZM86.6419 93.1199C86.5459 93.1199 86.4439 93.0899 86.3359 93.0299C86.2279 92.9819 86.1379 92.9219 86.0659 92.8499C85.9819 92.7779 85.9339 92.7179 85.9219 92.6699C86.2219 91.7939 86.4799 91.0319 86.6959 90.3839C86.8999 89.7479 87.0739 89.1419 87.2179 88.5659C87.3619 88.0019 87.4939 87.4139 87.6139 86.8019C87.7219 86.1779 87.8299 85.4699 87.9379 84.6779C88.0579 83.8739 88.1899 82.9079 88.3339 81.7799C88.3579 81.6359 88.3879 81.5339 88.4239 81.4739C88.4599 81.4019 88.5739 81.3659 88.7659 81.3659C89.1379 81.3659 89.4079 81.4679 89.5759 81.6719C89.7439 81.8639 89.8279 82.0799 89.8279 82.3199C89.8279 82.4399 89.8039 82.6499 89.7559 82.9499C89.7199 83.2499 89.6599 83.6039 89.5759 84.0119C89.8039 83.6639 90.0619 83.3339 90.3499 83.0219C90.6499 82.7099 90.9799 82.4579 91.3399 82.2659C91.6999 82.0619 92.0899 81.9599 92.5099 81.9599C93.0979 81.9599 93.5839 82.1579 93.9679 82.5539C94.3519 82.9499 94.5439 83.4719 94.5439 84.1199C94.5439 84.5879 94.4359 85.0859 94.2199 85.6139C94.0159 86.1299 93.7219 86.6219 93.3379 87.0899C92.9539 87.5459 92.4919 87.9179 91.9519 88.2059C91.4119 88.5059 90.8179 88.6559 90.1699 88.6559C89.7859 88.6559 89.4799 88.6079 89.2519 88.5119C89.0239 88.4159 88.9099 88.3079 88.9099 88.1879C88.9099 88.1039 88.9519 88.0559 89.0359 88.0439C89.1319 88.0199 89.2339 88.0079 89.3419 88.0079C89.9059 87.9959 90.4159 87.8759 90.8719 87.6479C91.3399 87.4199 91.7419 87.1259 92.0779 86.7659C92.4139 86.3939 92.6719 85.9979 92.8519 85.5779C93.0319 85.1579 93.1219 84.7439 93.1219 84.3359C93.1219 83.9759 93.0379 83.6639 92.8699 83.3999C92.7139 83.1359 92.4619 83.0039 92.1139 83.0039C91.8139 83.0039 91.5079 83.0999 91.1959 83.2919C90.8959 83.4839 90.6139 83.7299 90.3499 84.0299C90.0859 84.3179 89.8519 84.6239 89.6479 84.9479C89.4439 85.2599 89.2879 85.5359 89.1799 85.7759C88.9519 86.5679 88.7419 87.3539 88.5499 88.1339C88.3699 88.9259 88.1959 89.6579 88.0279 90.3299C87.8599 91.0019 87.6919 91.5719 87.5239 92.0399C87.3439 92.5079 87.1519 92.8259 86.9479 92.9939C86.8519 93.0779 86.7499 93.1199 86.6419 93.1199ZM95.9495 93.1199C95.6495 93.1199 95.3675 93.0239 95.1035 92.8319C94.8515 92.6519 94.7255 92.3579 94.7255 91.9499C94.7255 91.5659 94.8395 91.2179 95.0675 90.9059C95.2955 90.6059 95.5895 90.3239 95.9495 90.0599C96.3095 89.8079 96.6935 89.5739 97.1015 89.3579C97.5215 89.1539 97.9235 88.9619 98.3075 88.7819C98.4395 88.4339 98.5835 87.9959 98.7395 87.4679C98.9075 86.9279 99.0515 86.4299 99.1715 85.9739C98.7995 86.4899 98.4035 86.9459 97.9835 87.3419C97.5635 87.7379 97.0955 87.9359 96.5795 87.9359C96.3635 87.9359 96.1355 87.8939 95.8955 87.8099C95.6555 87.7139 95.4515 87.5579 95.2835 87.3419C95.1275 87.1139 95.0495 86.8139 95.0495 86.4419C95.0495 86.1299 95.1035 85.7519 95.2115 85.3079C95.3315 84.8639 95.4755 84.4319 95.6435 84.0119C95.8235 83.5799 96.0095 83.2259 96.2015 82.9499C96.3935 82.6619 96.5615 82.5179 96.7055 82.5179C96.7775 82.5179 96.8795 82.5479 97.0115 82.6079C97.1555 82.6559 97.2935 82.7279 97.4255 82.8239C97.5575 82.9079 97.6415 83.0039 97.6775 83.1119C97.5695 83.2559 97.4495 83.4659 97.3175 83.7419C97.1855 84.0059 97.0595 84.3059 96.9395 84.6419C96.8195 84.9659 96.7175 85.2839 96.6335 85.5959C96.5615 85.9079 96.5255 86.1779 96.5255 86.4059C96.5255 86.5859 96.5615 86.7419 96.6335 86.8739C96.7055 87.0059 96.8435 87.0719 97.0475 87.0719C97.3115 87.0719 97.5815 86.9639 97.8575 86.7479C98.1455 86.5319 98.4215 86.2559 98.6855 85.9199C98.9615 85.5839 99.2075 85.2419 99.4235 84.8939C99.4475 84.8099 99.4715 84.6779 99.4955 84.4979C99.5195 84.3179 99.5615 84.1319 99.6215 83.9399C99.6815 83.7359 99.7831 83.5499 99.9271 83.3819C100.083 83.2139 100.299 83.1299 100.575 83.1299C100.671 83.1299 100.761 83.1359 100.845 83.1479C100.929 83.1599 101.031 83.1779 101.151 83.2019C101.151 83.3819 101.085 83.7359 100.953 84.2639C100.833 84.7799 100.671 85.3799 100.467 86.0639C100.263 86.7479 100.035 87.4319 99.7831 88.1159C100.287 87.9119 100.809 87.5759 101.349 87.1079C101.901 86.6279 102.345 85.9499 102.681 85.0739L102.987 85.3259C102.807 85.9259 102.531 86.4479 102.159 86.8919C101.799 87.3359 101.391 87.7139 100.935 88.0259C100.479 88.3379 100.017 88.5959 99.5495 88.7999C99.2255 89.5799 98.8715 90.2999 98.4875 90.9599C98.1155 91.6199 97.7195 92.1419 97.2995 92.5259C96.8795 92.9219 96.4295 93.1199 95.9495 93.1199ZM95.7695 92.4539C95.9975 92.4539 96.3155 92.2139 96.7235 91.7339C97.1315 91.2539 97.5455 90.5339 97.9655 89.5739C97.5815 89.7659 97.1915 89.9879 96.7955 90.2399C96.4115 90.5039 96.0875 90.7799 95.8235 91.0679C95.5595 91.3559 95.4275 91.6499 95.4275 91.9499C95.4275 92.0699 95.4515 92.1839 95.4995 92.2919C95.5595 92.3999 95.6495 92.4539 95.7695 92.4539ZM109.938 89.6459C109.206 89.6459 108.654 89.5259 108.282 89.2859C107.91 89.0459 107.718 88.6499 107.706 88.0979C107.706 87.9779 107.772 87.9179 107.904 87.9179C108.012 87.9179 108.174 87.9479 108.39 88.0079C108.618 88.0559 109.044 88.0799 109.668 88.0799C110.724 88.0799 111.696 87.9719 112.584 87.7559C113.472 87.5279 114.24 87.2279 114.888 86.8559C115.548 86.4719 116.058 86.0459 116.418 85.5779C116.778 85.0979 116.958 84.5999 116.958 84.0839C116.958 83.6159 116.814 83.2439 116.526 82.9679C116.25 82.6799 115.878 82.4639 115.41 82.3199C114.954 82.1639 114.45 82.0619 113.898 82.0139C113.358 81.9659 112.824 81.9419 112.296 81.9419C112.068 81.9419 111.84 81.9479 111.612 81.9599C111.384 81.9599 111.168 81.9599 110.964 81.9599C110.7 82.8719 110.442 83.8139 110.19 84.7859C109.938 85.7579 109.674 86.7119 109.398 87.6479C109.038 87.6479 108.726 87.5519 108.462 87.3599C108.198 87.1679 108.066 86.9339 108.066 86.6579C108.066 86.5499 108.084 86.4119 108.12 86.2439C108.168 86.0639 108.234 85.8539 108.318 85.6139C108.39 85.3859 108.51 85.0079 108.678 84.4799C108.858 83.9519 109.068 83.3279 109.308 82.6079C109.548 81.8879 109.812 81.1319 110.1 80.3399C110.4 79.5359 110.706 78.7499 111.018 77.9819C111.342 77.2139 111.66 76.5239 111.972 75.9119C111.492 76.0199 111.096 76.1459 110.784 76.2899C110.472 76.4339 110.226 76.5599 110.046 76.6679C109.866 76.7759 109.728 76.8299 109.632 76.8299C109.56 76.8299 109.464 76.7879 109.344 76.7039C109.236 76.6199 109.134 76.5239 109.038 76.4159C108.954 76.3079 108.912 76.2119 108.912 76.1279C109.56 75.8639 110.232 75.6299 110.928 75.4259C111.624 75.2219 112.464 75.1199 113.448 75.1199C113.88 75.1199 114.354 75.1559 114.87 75.2279C115.386 75.2879 115.878 75.4199 116.346 75.6239C116.814 75.8159 117.198 76.1099 117.498 76.5059C117.81 76.8899 117.966 77.4059 117.966 78.0539C117.966 78.5699 117.852 79.0199 117.624 79.4039C117.408 79.7759 117.114 80.0999 116.742 80.3759C116.37 80.6399 115.962 80.8619 115.518 81.0419C115.074 81.2099 114.636 81.3479 114.204 81.4559C114.948 81.5519 115.566 81.7079 116.058 81.9239C116.562 82.1279 116.958 82.3679 117.246 82.6439C117.546 82.9199 117.756 83.2079 117.876 83.5079C118.008 83.7959 118.074 84.0779 118.074 84.3539C118.074 85.0619 117.888 85.6979 117.516 86.2619C117.144 86.8259 116.652 87.3179 116.04 87.7379C115.44 88.1579 114.774 88.5059 114.042 88.7819C113.322 89.0699 112.602 89.2859 111.882 89.4299C111.162 89.5739 110.514 89.6459 109.938 89.6459ZM111.144 81.2759C111.816 81.2519 112.476 81.1739 113.124 81.0419C113.772 80.9099 114.354 80.7179 114.87 80.4659C115.398 80.2019 115.818 79.8659 116.13 79.4579C116.442 79.0379 116.598 78.5219 116.598 77.9099C116.598 77.3339 116.442 76.8899 116.13 76.5779C115.818 76.2659 115.41 76.0499 114.906 75.9299C114.402 75.8099 113.862 75.7499 113.286 75.7499C113.274 75.7499 113.262 75.7499 113.25 75.7499C113.238 75.7499 113.226 75.7499 113.214 75.7499C112.806 76.5539 112.434 77.4299 112.098 78.3779C111.762 79.3139 111.444 80.2799 111.144 81.2759ZM120.115 88.6199C119.587 88.6199 119.191 88.4639 118.927 88.1519C118.663 87.8399 118.531 87.4619 118.531 87.0179C118.531 86.7419 118.579 86.3939 118.675 85.9739C118.771 85.5539 118.903 85.1159 119.071 84.6599C119.251 84.1919 119.455 83.7539 119.683 83.3459C119.911 82.9379 120.157 82.6079 120.421 82.3559C120.685 82.0919 120.949 81.9599 121.213 81.9599C121.357 81.9599 121.483 82.0079 121.591 82.1039C121.699 82.1879 121.753 82.3139 121.753 82.4819C121.753 82.6379 121.657 82.8719 121.465 83.1839C121.285 83.4959 121.069 83.8559 120.817 84.2639C120.577 84.6719 120.361 85.0979 120.169 85.5419C119.989 85.9739 119.899 86.3879 119.899 86.7839C119.899 87.1679 119.965 87.4259 120.097 87.5579C120.241 87.6779 120.445 87.7379 120.709 87.7379C121.117 87.7379 121.561 87.5339 122.041 87.1259C122.521 86.7179 123.019 86.0039 123.535 84.9839L123.805 85.2719C123.385 86.3279 122.851 87.1499 122.203 87.7379C121.555 88.3259 120.859 88.6199 120.115 88.6199ZM122.239 80.5019C122.011 80.5019 121.801 80.4479 121.609 80.3399C121.429 80.2199 121.339 80.0399 121.339 79.7999C121.339 79.5119 121.495 79.2659 121.807 79.0619C122.119 78.8579 122.443 78.7559 122.779 78.7559C122.995 78.7559 123.175 78.8039 123.319 78.8999C123.475 78.9959 123.553 79.1699 123.553 79.4219C123.553 79.6739 123.415 79.9199 123.139 80.1599C122.863 80.3879 122.563 80.5019 122.239 80.5019ZM126.4 88.5479C125.956 88.5479 125.596 88.4279 125.32 88.1879C125.044 87.9599 124.906 87.6479 124.906 87.2519C124.906 86.9159 124.99 86.5559 125.158 86.1719C125.326 85.7879 125.494 85.4099 125.662 85.0379C125.842 84.6659 125.932 84.3359 125.932 84.0479C125.932 83.7719 125.842 83.5439 125.662 83.3639C125.482 83.1719 125.272 83.0159 125.032 82.8959C124.768 83.5559 124.468 84.1979 124.132 84.8219C123.808 85.4339 123.544 85.9139 123.34 86.2619L123.07 85.7399C123.238 85.4279 123.46 84.9839 123.736 84.4079C124.012 83.8319 124.276 83.1899 124.528 82.4819C124.408 82.3619 124.348 82.1999 124.348 81.9959C124.348 81.6839 124.444 81.3899 124.636 81.1139C124.828 80.8379 125.014 80.6999 125.194 80.6999C125.338 80.6999 125.44 80.7839 125.5 80.9519C125.572 81.1079 125.608 81.2159 125.608 81.2759C125.608 81.3359 125.578 81.4439 125.518 81.5999C125.47 81.7559 125.434 81.8699 125.41 81.9419C125.422 82.0739 125.524 82.2059 125.716 82.3379C125.92 82.4579 126.148 82.6019 126.4 82.7699C126.652 82.9379 126.874 83.1479 127.066 83.3999C127.258 83.6519 127.354 83.9699 127.354 84.3539C127.354 84.7019 127.276 85.0559 127.12 85.4159C126.964 85.7759 126.808 86.1119 126.652 86.4239C126.496 86.7359 126.418 87.0059 126.418 87.2339C126.418 87.4019 126.46 87.5159 126.544 87.5759C126.64 87.6239 126.748 87.6479 126.868 87.6479C127.156 87.6479 127.456 87.5639 127.768 87.3959C128.08 87.2159 128.386 86.9879 128.686 86.7119C128.986 86.4359 129.25 86.1479 129.478 85.8479C129.706 85.5359 129.88 85.2539 130 85.0019L130.432 85.3259C130.204 85.8419 129.874 86.3519 129.442 86.8559C129.01 87.3479 128.53 87.7559 128.002 88.0799C127.474 88.3919 126.94 88.5479 126.4 88.5479ZM131.319 88.9079C130.755 88.9079 130.305 88.7519 129.969 88.4399C129.645 88.1279 129.483 87.6599 129.483 87.0359C129.483 86.6879 129.531 86.2739 129.627 85.7939C129.723 85.3139 129.849 84.8039 130.005 84.2639C130.173 83.7119 130.353 83.1719 130.545 82.6439C130.437 82.6079 130.335 82.5779 130.239 82.5539C130.155 82.5179 130.041 82.4699 129.897 82.4099V81.8519C130.113 81.8879 130.275 81.9239 130.383 81.9599C130.491 81.9839 130.623 82.0079 130.779 82.0319C131.115 81.1799 131.475 80.3939 131.859 79.6739C132.243 78.9539 132.615 78.3779 132.975 77.9459C133.335 77.5139 133.647 77.2979 133.911 77.2979C134.043 77.2979 134.163 77.3459 134.271 77.4419C134.379 77.5379 134.433 77.6459 134.433 77.7659C134.433 77.9099 134.361 78.1439 134.217 78.4679C134.073 78.7919 133.887 79.1579 133.659 79.5659C133.443 79.9619 133.221 80.3579 132.993 80.7539C132.777 81.1499 132.579 81.4919 132.399 81.7799C132.231 82.0679 132.129 82.2539 132.093 82.3379C132.405 82.3859 132.693 82.4279 132.957 82.4639C133.221 82.4879 133.485 82.4999 133.749 82.4999C134.097 82.4999 134.457 82.4759 134.829 82.4279C135.201 82.3799 135.615 82.3139 136.071 82.2299C136.395 81.3659 136.755 80.5199 137.151 79.6919C137.547 78.8519 137.949 78.1019 138.357 77.4419C138.777 76.7699 139.173 76.2359 139.545 75.8399C139.929 75.4319 140.265 75.2279 140.553 75.2279C140.793 75.2279 140.979 75.3659 141.111 75.6419C141.243 75.9059 141.309 76.1939 141.309 76.5059C141.309 76.9019 141.207 77.3819 141.003 77.9459C140.799 78.5099 140.517 79.0919 140.157 79.6919C139.797 80.2919 139.371 80.8559 138.879 81.3839C138.399 81.9119 137.877 82.3379 137.313 82.6619C137.157 83.0219 137.013 83.4719 136.881 84.0119C136.761 84.5399 136.665 85.0559 136.593 85.5599C136.521 86.0639 136.485 86.4659 136.485 86.7659C136.773 86.0099 137.097 85.3139 137.457 84.6779C137.817 84.0419 138.219 83.5319 138.663 83.1479C139.119 82.7639 139.611 82.5719 140.139 82.5719C140.691 82.5719 141.093 82.7579 141.345 83.1299C141.597 83.4899 141.723 83.8859 141.723 84.3179C141.723 84.6659 141.657 85.0199 141.525 85.3799C141.405 85.7279 141.279 86.0639 141.147 86.3879C141.027 86.6999 140.967 86.9819 140.967 87.2339C140.967 87.4499 141.015 87.5999 141.111 87.6839C141.219 87.7679 141.333 87.8099 141.453 87.8099C141.717 87.8099 142.023 87.6779 142.371 87.4139C142.731 87.1379 143.079 86.7779 143.415 86.3339C143.763 85.8899 144.051 85.4159 144.279 84.9119L144.621 85.2359C144.357 85.8359 144.039 86.3879 143.667 86.8919C143.295 87.3959 142.881 87.7919 142.425 88.0799C141.981 88.3799 141.507 88.5299 141.003 88.5299C140.547 88.5299 140.193 88.4099 139.941 88.1699C139.701 87.9299 139.581 87.6299 139.581 87.2699C139.581 87.0179 139.623 86.7479 139.707 86.4599C139.803 86.1599 139.893 85.8539 139.977 85.5419C140.061 85.2299 140.103 84.9419 140.103 84.6779C140.103 84.4019 140.043 84.2039 139.923 84.0839C139.815 83.9639 139.665 83.9039 139.473 83.9039C139.185 83.9039 138.921 84.0239 138.681 84.2639C138.453 84.4919 138.243 84.7919 138.051 85.1639C137.859 85.5359 137.679 85.9319 137.511 86.3519C137.343 86.7599 137.175 87.1499 137.007 87.5219C136.851 87.8939 136.683 88.1939 136.503 88.4219C136.335 88.6619 136.149 88.7819 135.945 88.7819C135.765 88.7819 135.615 88.6919 135.495 88.5119C135.387 88.3319 135.297 88.1159 135.225 87.8639C135.153 87.6119 135.105 87.3659 135.081 87.1259C135.057 86.8739 135.045 86.6819 135.045 86.5499C134.565 87.2459 134.001 87.8099 133.353 88.2419C132.717 88.6859 132.039 88.9079 131.319 88.9079ZM131.841 88.0079C132.441 88.0079 133.041 87.7499 133.641 87.2339C134.253 86.7059 134.781 85.9859 135.225 85.0739C135.297 84.7139 135.375 84.3719 135.459 84.0479C135.543 83.7239 135.651 83.3699 135.783 82.9859C135.423 83.0579 135.075 83.1119 134.739 83.1479C134.403 83.1839 134.073 83.2019 133.749 83.2019C133.425 83.2019 133.101 83.1839 132.777 83.1479C132.453 83.1119 132.123 83.0639 131.787 83.0039C131.523 83.5919 131.307 84.1859 131.139 84.7859C130.971 85.3859 130.887 85.9979 130.887 86.6219C130.887 87.1139 130.953 87.4679 131.085 87.6839C131.229 87.8999 131.481 88.0079 131.841 88.0079ZM137.673 81.5279C138.021 81.2279 138.345 80.8919 138.645 80.5199C138.945 80.1479 139.209 79.7699 139.437 79.3859C139.677 78.9899 139.875 78.6179 140.031 78.2699C140.199 77.9099 140.313 77.5979 140.373 77.3339C140.409 77.1659 140.427 77.0339 140.427 76.9379C140.331 76.9619 140.175 77.0939 139.959 77.3339C139.755 77.5739 139.515 77.9039 139.239 78.3239C138.963 78.7319 138.687 79.2119 138.411 79.7639C138.135 80.3039 137.889 80.8919 137.673 81.5279ZM145.089 88.6199C144.861 88.6199 144.627 88.5599 144.387 88.4399C144.159 88.3319 143.967 88.1579 143.811 87.9179C143.643 87.6779 143.559 87.3719 143.559 86.9999C143.559 86.6039 143.655 86.1599 143.847 85.6679C144.039 85.1759 144.297 84.6839 144.621 84.1919C144.957 83.6999 145.341 83.2499 145.773 82.8419C146.217 82.4339 146.685 82.1039 147.177 81.8519C147.669 81.5999 148.167 81.4739 148.671 81.4739C148.947 81.4739 149.163 81.5219 149.319 81.6179C149.475 81.7019 149.553 81.8459 149.553 82.0499C149.553 82.1099 149.541 82.1819 149.517 82.2659C149.493 82.3379 149.433 82.4039 149.337 82.4639C149.289 82.3919 149.205 82.3439 149.085 82.3199C148.965 82.2839 148.839 82.2659 148.707 82.2659C148.311 82.2659 147.933 82.3799 147.573 82.6079C147.213 82.8239 146.883 83.1059 146.583 83.4539C146.283 83.8019 146.019 84.1799 145.791 84.5879C145.575 84.9959 145.407 85.3919 145.287 85.7759C145.167 86.1479 145.107 86.4719 145.107 86.7479C145.107 86.9759 145.155 87.1619 145.251 87.3059C145.347 87.4379 145.491 87.5039 145.683 87.5039C146.007 87.5039 146.391 87.3179 146.835 86.9459C147.291 86.5619 147.753 86.0159 148.221 85.3079C148.701 84.5879 149.133 83.7299 149.517 82.7339C149.781 82.0499 150.057 81.3539 150.345 80.6459C150.633 79.9259 150.921 79.2359 151.209 78.5759C151.497 77.9159 151.779 77.3279 152.055 76.8119C152.343 76.2959 152.613 75.8879 152.865 75.5879C153.129 75.2759 153.369 75.1199 153.585 75.1199C153.717 75.1199 153.831 75.1739 153.927 75.2819C154.035 75.3779 154.089 75.5039 154.089 75.6599C154.089 75.8639 153.987 76.1939 153.783 76.6499C153.591 77.0939 153.339 77.6279 153.027 78.2519C152.727 78.8759 152.397 79.5539 152.037 80.2859C151.689 81.0059 151.359 81.7499 151.047 82.5179C150.747 83.2739 150.495 84.0239 150.291 84.7679C150.099 85.4999 150.003 86.1899 150.003 86.8379C150.003 87.1259 150.027 87.3239 150.075 87.4319C150.135 87.5279 150.231 87.5759 150.363 87.5759C150.627 87.5759 150.921 87.4739 151.245 87.2699C151.569 87.0659 151.899 86.7659 152.235 86.3699C152.571 85.9619 152.877 85.4759 153.153 84.9119L153.495 85.1999C153.231 85.8599 152.895 86.4419 152.487 86.9459C152.079 87.4499 151.641 87.8399 151.173 88.1159C150.705 88.4039 150.243 88.5479 149.787 88.5479C149.295 88.5479 148.953 88.3919 148.761 88.0799C148.569 87.7679 148.473 87.4019 148.473 86.9819C148.473 86.7899 148.485 86.5979 148.509 86.4059C148.545 86.2019 148.581 86.0039 148.617 85.8119C148.245 86.3519 147.849 86.8379 147.429 87.2699C147.021 87.6899 146.619 88.0199 146.223 88.2599C145.827 88.4999 145.449 88.6199 145.089 88.6199ZM153.697 88.9259C153.301 88.9259 152.959 88.7939 152.671 88.5299C152.371 88.2659 152.221 87.8699 152.221 87.3419C152.221 86.9219 152.317 86.4659 152.509 85.9739C152.701 85.4819 152.965 84.9959 153.301 84.5159C153.637 84.0359 154.021 83.6039 154.453 83.2199C154.885 82.8239 155.347 82.5059 155.839 82.2659C156.331 82.0259 156.823 81.9059 157.315 81.9059C157.831 81.9059 158.269 82.0379 158.629 82.3019C158.989 82.5659 159.169 82.9139 159.169 83.3459C159.169 83.6699 159.055 83.9039 158.827 84.0479C158.599 84.1919 158.329 84.2339 158.017 84.1739C158.041 84.0659 158.059 83.9579 158.071 83.8499C158.095 83.7419 158.107 83.6279 158.107 83.5079C158.107 83.2679 158.059 83.0519 157.963 82.8599C157.867 82.6679 157.663 82.5719 157.351 82.5719C157.015 82.5719 156.673 82.6859 156.325 82.9139C155.977 83.1419 155.641 83.4419 155.317 83.8139C155.005 84.1739 154.723 84.5759 154.471 85.0199C154.219 85.4519 154.021 85.8779 153.877 86.2979C153.733 86.7179 153.661 87.0959 153.661 87.4319C153.661 87.8159 153.799 88.0079 154.075 88.0079C154.351 88.0079 154.657 87.8759 154.993 87.6119C155.329 87.3359 155.665 86.9939 156.001 86.5859C156.349 86.1779 156.679 85.7639 156.991 85.3439C157.303 84.9119 157.573 84.5459 157.801 84.2459C157.837 84.1859 157.885 84.1559 157.945 84.1559C157.993 84.1679 158.083 84.1979 158.215 84.2459C158.359 84.2819 158.491 84.3419 158.611 84.4259C158.731 84.5099 158.791 84.6179 158.791 84.7499C158.791 84.8699 158.737 85.0259 158.629 85.2179C158.533 85.3979 158.413 85.6019 158.269 85.8299C158.137 86.0459 158.017 86.2679 157.909 86.4959C157.813 86.7119 157.765 86.9219 157.765 87.1259C157.765 87.2819 157.807 87.4319 157.891 87.5759C157.975 87.7079 158.113 87.7739 158.305 87.7739C158.593 87.7739 158.995 87.5639 159.511 87.1439C160.039 86.7119 160.573 85.9859 161.113 84.9659L161.455 85.3079C161.167 85.9559 160.819 86.5319 160.411 87.0359C160.015 87.5279 159.595 87.9119 159.151 88.1879C158.707 88.4759 158.257 88.6199 157.801 88.6199C157.309 88.6199 156.943 88.4639 156.703 88.1519C156.463 87.8399 156.331 87.5039 156.307 87.1439C156.307 87.1199 156.307 87.1019 156.307 87.0899C156.307 87.0779 156.307 87.0659 156.307 87.0539C155.827 87.6299 155.383 88.0859 154.975 88.4219C154.579 88.7579 154.153 88.9259 153.697 88.9259ZM161.551 93.1199C161.251 93.1199 160.969 93.0239 160.705 92.8319C160.453 92.6519 160.327 92.3579 160.327 91.9499C160.327 91.5659 160.441 91.2179 160.669 90.9059C160.897 90.6059 161.191 90.3239 161.551 90.0599C161.911 89.8079 162.295 89.5739 162.703 89.3579C163.123 89.1539 163.525 88.9619 163.909 88.7819C164.041 88.4339 164.185 87.9959 164.341 87.4679C164.509 86.9279 164.653 86.4299 164.773 85.9739C164.401 86.4899 164.005 86.9459 163.585 87.3419C163.165 87.7379 162.697 87.9359 162.181 87.9359C161.965 87.9359 161.737 87.8939 161.497 87.8099C161.257 87.7139 161.053 87.5579 160.885 87.3419C160.729 87.1139 160.651 86.8139 160.651 86.4419C160.651 86.1299 160.705 85.7519 160.813 85.3079C160.933 84.8639 161.077 84.4319 161.245 84.0119C161.425 83.5799 161.611 83.2259 161.803 82.9499C161.995 82.6619 162.163 82.5179 162.307 82.5179C162.379 82.5179 162.481 82.5479 162.613 82.6079C162.757 82.6559 162.895 82.7279 163.027 82.8239C163.159 82.9079 163.243 83.0039 163.279 83.1119C163.171 83.2559 163.051 83.4659 162.919 83.7419C162.787 84.0059 162.661 84.3059 162.541 84.6419C162.421 84.9659 162.319 85.2839 162.235 85.5959C162.163 85.9079 162.127 86.1779 162.127 86.4059C162.127 86.5859 162.163 86.7419 162.235 86.8739C162.307 87.0059 162.445 87.0719 162.649 87.0719C162.913 87.0719 163.183 86.9639 163.459 86.7479C163.747 86.5319 164.023 86.2559 164.287 85.9199C164.563 85.5839 164.809 85.2419 165.025 84.8939C165.049 84.8099 165.073 84.6779 165.097 84.4979C165.121 84.3179 165.163 84.1319 165.223 83.9399C165.283 83.7359 165.385 83.5499 165.529 83.3819C165.685 83.2139 165.901 83.1299 166.177 83.1299C166.273 83.1299 166.363 83.1359 166.447 83.1479C166.531 83.1599 166.633 83.1779 166.753 83.2019C166.753 83.3819 166.687 83.7359 166.555 84.2639C166.435 84.7799 166.273 85.3799 166.069 86.0639C165.865 86.7479 165.637 87.4319 165.385 88.1159C165.889 87.9119 166.411 87.5759 166.951 87.1079C167.503 86.6279 167.947 85.9499 168.283 85.0739L168.589 85.3259C168.409 85.9259 168.133 86.4479 167.761 86.8919C167.401 87.3359 166.993 87.7139 166.537 88.0259C166.081 88.3379 165.619 88.5959 165.151 88.7999C164.827 89.5799 164.473 90.2999 164.089 90.9599C163.717 91.6199 163.321 92.1419 162.901 92.5259C162.481 92.9219 162.031 93.1199 161.551 93.1199ZM161.371 92.4539C161.599 92.4539 161.917 92.2139 162.325 91.7339C162.733 91.2539 163.147 90.5339 163.567 89.5739C163.183 89.7659 162.793 89.9879 162.397 90.2399C162.013 90.5039 161.689 90.7799 161.425 91.0679C161.161 91.3559 161.029 91.6499 161.029 91.9499C161.029 92.0699 161.053 92.1839 161.101 92.2919C161.161 92.3999 161.251 92.4539 161.371 92.4539ZM172.48 89.6459C172.54 89.4659 172.714 89.0519 173.002 88.4039C173.302 87.7679 173.698 86.9159 174.19 85.8479C174.694 84.7679 175.288 83.4899 175.972 82.0139C176.656 80.5379 177.418 78.8759 178.258 77.0279C178.306 76.9319 178.342 76.8299 178.366 76.7219C178.402 76.6139 178.42 76.5179 178.42 76.4339C178.42 76.3139 178.384 76.2179 178.312 76.1459C178.24 76.0739 178.102 76.0379 177.898 76.0379C177.394 76.0379 176.98 76.1939 176.656 76.5059C176.344 76.8059 176.11 77.1779 175.954 77.6219C175.81 78.0659 175.738 78.5039 175.738 78.9359C175.738 79.0439 175.744 79.1699 175.756 79.3139C175.768 79.4579 175.786 79.6199 175.81 79.7999C175.522 79.7999 175.282 79.7159 175.09 79.5479C174.91 79.3679 174.772 79.1519 174.676 78.8999C174.58 78.6359 174.532 78.3899 174.532 78.1619C174.532 77.7779 174.64 77.4059 174.856 77.0459C175.084 76.6859 175.378 76.3619 175.738 76.0739C176.098 75.7739 176.494 75.5399 176.926 75.3719C177.37 75.2039 177.808 75.1199 178.24 75.1199C178.684 75.1199 179.062 75.2459 179.374 75.4979C179.686 75.7379 179.926 76.1819 180.094 76.8299C180.262 77.4659 180.346 78.3839 180.346 79.5839C180.346 80.3639 180.316 81.1559 180.256 81.9599C180.208 82.7519 180.154 83.4959 180.094 84.1919C180.034 84.8879 180.004 85.4819 180.004 85.9739C180.244 85.2659 180.538 84.5159 180.886 83.7239C181.246 82.9199 181.63 82.1279 182.038 81.3479C182.446 80.5559 182.848 79.8119 183.244 79.1159C183.64 78.4199 183.994 77.8139 184.306 77.2979C184.63 76.7699 184.876 76.3799 185.044 76.1279C185.212 75.8639 185.362 75.6659 185.494 75.5339C185.626 75.4019 185.806 75.3359 186.034 75.3359C186.202 75.3359 186.466 75.4019 186.826 75.5339C186.718 75.7619 186.592 76.1279 186.448 76.6319C186.304 77.1239 186.148 77.6999 185.98 78.3599C185.8 79.0799 185.62 79.8719 185.44 80.7359C185.26 81.5879 185.098 82.4519 184.954 83.3279C184.81 84.2039 184.69 85.0379 184.594 85.8299C184.51 86.6099 184.468 87.2999 184.468 87.8999C184.468 88.2119 184.48 88.4579 184.504 88.6379C184.54 88.8179 184.582 88.9739 184.63 89.1059C184.69 89.2499 184.756 89.4299 184.828 89.6459C184.312 89.6459 183.916 89.5679 183.64 89.4119C183.376 89.2559 183.196 89.0039 183.1 88.6559C183.016 88.3199 182.974 87.8699 182.974 87.3059C182.974 85.9739 183.124 84.5759 183.424 83.1119C183.736 81.6359 184.096 80.1179 184.504 78.5579C184.168 79.0379 183.82 79.6079 183.46 80.2679C183.1 80.9279 182.746 81.6239 182.398 82.3559C182.05 83.0879 181.72 83.8139 181.408 84.5339C181.096 85.2419 180.82 85.9019 180.58 86.5139C180.34 87.1139 180.154 87.6179 180.022 88.0259C179.914 88.0619 179.836 88.0859 179.788 88.0979C179.752 88.1099 179.704 88.1159 179.644 88.1159C179.224 88.1159 178.954 87.8639 178.834 87.3599C178.726 86.8439 178.672 86.1419 178.672 85.2539C178.672 84.7859 178.678 84.2879 178.69 83.7599C178.702 83.2199 178.72 82.6739 178.744 82.1219C178.768 81.5579 178.786 80.9999 178.798 80.4479C178.81 79.8959 178.816 79.3679 178.816 78.8639C178.816 78.6839 178.81 78.5039 178.798 78.3239C178.798 78.1439 178.798 77.9699 178.798 77.8019C177.886 79.9259 177.112 81.7439 176.476 83.2559C175.852 84.7559 175.318 85.9799 174.874 86.9279C174.43 87.8639 174.022 88.5479 173.65 88.9799C173.278 89.4239 172.888 89.6459 172.48 89.6459ZM188.738 88.8719C187.97 88.8719 187.376 88.6619 186.956 88.2419C186.548 87.8339 186.344 87.3179 186.344 86.6939C186.344 86.1659 186.476 85.6079 186.74 85.0199C187.016 84.4199 187.382 83.8619 187.838 83.3459C188.294 82.8179 188.798 82.3919 189.35 82.0679C189.902 81.7439 190.454 81.5819 191.006 81.5819C191.318 81.5819 191.612 81.6659 191.888 81.8339C192.176 81.9899 192.32 82.3079 192.32 82.7879C192.32 83.2439 192.188 83.6699 191.924 84.0659C191.66 84.4619 191.306 84.8159 190.862 85.1279C190.418 85.4399 189.926 85.6979 189.386 85.9019C188.858 86.0939 188.324 86.2199 187.784 86.2799C187.772 86.3279 187.76 86.3819 187.748 86.4419C187.748 86.4899 187.748 86.5739 187.748 86.6939C187.748 86.7539 187.754 86.8619 187.766 87.0179C187.79 87.1619 187.844 87.3179 187.928 87.4859C188.012 87.6539 188.15 87.7979 188.342 87.9179C188.534 88.0379 188.798 88.0979 189.134 88.0979C189.638 88.0979 190.142 87.9599 190.646 87.6839C191.162 87.3959 191.642 87.0179 192.086 86.5499C192.542 86.0819 192.92 85.5599 193.22 84.9839L193.58 85.2719C193.256 85.9919 192.836 86.6219 192.32 87.1619C191.816 87.7019 191.252 88.1219 190.628 88.4219C190.016 88.7219 189.386 88.8719 188.738 88.8719ZM187.982 85.6139C188.294 85.5779 188.642 85.4699 189.026 85.2899C189.41 85.1099 189.776 84.8819 190.124 84.6059C190.484 84.3299 190.778 84.0299 191.006 83.7059C191.234 83.3699 191.348 83.0339 191.348 82.6979C191.348 82.5659 191.324 82.4759 191.276 82.4279C191.228 82.3799 191.15 82.3559 191.042 82.3559C190.766 82.3559 190.478 82.4579 190.178 82.6619C189.878 82.8539 189.584 83.1119 189.296 83.4359C189.008 83.7479 188.75 84.0959 188.522 84.4799C188.294 84.8639 188.114 85.2419 187.982 85.6139ZM196.115 88.5479C195.671 88.5479 195.311 88.4279 195.035 88.1879C194.759 87.9599 194.621 87.6479 194.621 87.2519C194.621 86.9159 194.705 86.5559 194.873 86.1719C195.041 85.7879 195.209 85.4099 195.377 85.0379C195.557 84.6659 195.647 84.3359 195.647 84.0479C195.647 83.7719 195.557 83.5439 195.377 83.3639C195.197 83.1719 194.987 83.0159 194.747 82.8959C194.483 83.5559 194.183 84.1979 193.847 84.8219C193.523 85.4339 193.259 85.9139 193.055 86.2619L192.785 85.7399C192.953 85.4279 193.175 84.9839 193.451 84.4079C193.727 83.8319 193.991 83.1899 194.243 82.4819C194.123 82.3619 194.063 82.1999 194.063 81.9959C194.063 81.6839 194.159 81.3899 194.351 81.1139C194.543 80.8379 194.729 80.6999 194.909 80.6999C195.053 80.6999 195.155 80.7839 195.215 80.9519C195.287 81.1079 195.323 81.2159 195.323 81.2759C195.323 81.3359 195.293 81.4439 195.233 81.5999C195.185 81.7559 195.149 81.8699 195.125 81.9419C195.137 82.0739 195.239 82.2059 195.431 82.3379C195.635 82.4579 195.863 82.6019 196.115 82.7699C196.367 82.9379 196.589 83.1479 196.781 83.3999C196.973 83.6519 197.069 83.9699 197.069 84.3539C197.069 84.7019 196.991 85.0559 196.835 85.4159C196.679 85.7759 196.523 86.1119 196.367 86.4239C196.211 86.7359 196.133 87.0059 196.133 87.2339C196.133 87.4019 196.175 87.5159 196.259 87.5759C196.355 87.6239 196.463 87.6479 196.583 87.6479C196.871 87.6479 197.171 87.5639 197.483 87.3959C197.795 87.2159 198.101 86.9879 198.401 86.7119C198.701 86.4359 198.965 86.1479 199.193 85.8479C199.421 85.5359 199.595 85.2539 199.715 85.0019L200.147 85.3259C199.919 85.8419 199.589 86.3519 199.157 86.8559C198.725 87.3479 198.245 87.7559 197.717 88.0799C197.189 88.3919 196.655 88.5479 196.115 88.5479ZM200.764 88.6199C200.236 88.6199 199.84 88.4639 199.576 88.1519C199.312 87.8399 199.18 87.4619 199.18 87.0179C199.18 86.7419 199.228 86.3939 199.324 85.9739C199.42 85.5539 199.552 85.1159 199.72 84.6599C199.9 84.1919 200.104 83.7539 200.332 83.3459C200.56 82.9379 200.806 82.6079 201.07 82.3559C201.334 82.0919 201.598 81.9599 201.862 81.9599C202.006 81.9599 202.132 82.0079 202.24 82.1039C202.348 82.1879 202.402 82.3139 202.402 82.4819C202.402 82.6379 202.306 82.8719 202.114 83.1839C201.934 83.4959 201.718 83.8559 201.466 84.2639C201.226 84.6719 201.01 85.0979 200.818 85.5419C200.638 85.9739 200.548 86.3879 200.548 86.7839C200.548 87.1679 200.614 87.4259 200.746 87.5579C200.89 87.6779 201.094 87.7379 201.358 87.7379C201.766 87.7379 202.21 87.5339 202.69 87.1259C203.17 86.7179 203.668 86.0039 204.184 84.9839L204.454 85.2719C204.034 86.3279 203.5 87.1499 202.852 87.7379C202.204 88.3259 201.508 88.6199 200.764 88.6199ZM202.888 80.5019C202.66 80.5019 202.45 80.4479 202.258 80.3399C202.078 80.2199 201.988 80.0399 201.988 79.7999C201.988 79.5119 202.144 79.2659 202.456 79.0619C202.768 78.8579 203.092 78.7559 203.428 78.7559C203.644 78.7559 203.824 78.8039 203.968 78.8999C204.124 78.9959 204.202 79.1699 204.202 79.4219C204.202 79.6739 204.064 79.9199 203.788 80.1599C203.512 80.3879 203.212 80.5019 202.888 80.5019ZM210.5 89.6459C210.14 89.6459 209.798 89.5499 209.474 89.3579C209.162 89.1659 209.006 88.9199 209.006 88.6199C209.006 88.4639 209.03 88.2959 209.078 88.1159C209.138 87.9359 209.192 87.7679 209.24 87.6119C209.612 86.4719 209.96 85.4099 210.284 84.4259C210.608 83.4299 210.932 82.4759 211.256 81.5639C211.592 80.6399 211.94 79.7159 212.3 78.7919C212.672 77.8679 213.086 76.9019 213.542 75.8939C213.086 75.9899 212.696 76.1159 212.372 76.2719C212.048 76.4159 211.784 76.5479 211.58 76.6679C211.376 76.7759 211.226 76.8299 211.13 76.8299C211.07 76.8299 210.98 76.7879 210.86 76.7039C210.752 76.6199 210.656 76.5239 210.572 76.4159C210.488 76.3079 210.446 76.2119 210.446 76.1279C210.782 75.9839 211.172 75.8339 211.616 75.6779C212.072 75.5219 212.564 75.3899 213.092 75.2819C213.62 75.1739 214.148 75.1199 214.676 75.1199C215.24 75.1199 215.816 75.1979 216.404 75.3539C216.992 75.4979 217.532 75.7199 218.024 76.0199C218.528 76.3079 218.93 76.6739 219.23 77.1179C219.542 77.5499 219.698 78.0599 219.698 78.6479C219.698 79.2839 219.554 79.8299 219.266 80.2859C218.978 80.7419 218.594 81.1259 218.114 81.4379C217.646 81.7499 217.136 82.0019 216.584 82.1939C216.032 82.3859 215.48 82.5299 214.928 82.6259C214.388 82.7219 213.902 82.7879 213.47 82.8239C213.038 82.8599 212.714 82.8779 212.498 82.8779H212.39C212.054 84.0659 211.724 85.2539 211.4 86.4419C211.076 87.6179 210.776 88.6859 210.5 89.6459ZM212.552 82.3199C213.224 82.2719 213.896 82.1579 214.568 81.9779C215.24 81.7979 215.846 81.5519 216.386 81.2399C216.938 80.9159 217.376 80.5139 217.7 80.0339C218.036 79.5539 218.204 78.9959 218.204 78.3599C218.204 77.7599 218.042 77.2739 217.718 76.9019C217.406 76.5299 216.998 76.2479 216.494 76.0559C216.002 75.8639 215.48 75.7619 214.928 75.7499C214.496 76.5899 214.082 77.5859 213.686 78.7379C213.29 79.8779 212.912 81.0719 212.552 82.3199ZM218.261 88.9259C217.865 88.9259 217.523 88.7939 217.235 88.5299C216.935 88.2659 216.785 87.8699 216.785 87.3419C216.785 86.9219 216.881 86.4659 217.073 85.9739C217.265 85.4819 217.529 84.9959 217.865 84.5159C218.201 84.0359 218.585 83.6039 219.017 83.2199C219.449 82.8239 219.911 82.5059 220.403 82.2659C220.895 82.0259 221.387 81.9059 221.879 81.9059C222.395 81.9059 222.833 82.0379 223.193 82.3019C223.553 82.5659 223.733 82.9139 223.733 83.3459C223.733 83.6699 223.619 83.9039 223.391 84.0479C223.163 84.1919 222.893 84.2339 222.581 84.1739C222.605 84.0659 222.623 83.9579 222.635 83.8499C222.659 83.7419 222.671 83.6279 222.671 83.5079C222.671 83.2679 222.623 83.0519 222.527 82.8599C222.431 82.6679 222.227 82.5719 221.915 82.5719C221.579 82.5719 221.237 82.6859 220.889 82.9139C220.541 83.1419 220.205 83.4419 219.881 83.8139C219.569 84.1739 219.287 84.5759 219.035 85.0199C218.783 85.4519 218.585 85.8779 218.441 86.2979C218.297 86.7179 218.225 87.0959 218.225 87.4319C218.225 87.8159 218.363 88.0079 218.639 88.0079C218.915 88.0079 219.221 87.8759 219.557 87.6119C219.893 87.3359 220.229 86.9939 220.565 86.5859C220.913 86.1779 221.243 85.7639 221.555 85.3439C221.867 84.9119 222.137 84.5459 222.365 84.2459C222.401 84.1859 222.449 84.1559 222.509 84.1559C222.557 84.1679 222.647 84.1979 222.779 84.2459C222.923 84.2819 223.055 84.3419 223.175 84.4259C223.295 84.5099 223.355 84.6179 223.355 84.7499C223.355 84.8699 223.301 85.0259 223.193 85.2179C223.097 85.3979 222.977 85.6019 222.833 85.8299C222.701 86.0459 222.581 86.2679 222.473 86.4959C222.377 86.7119 222.329 86.9219 222.329 87.1259C222.329 87.2819 222.371 87.4319 222.455 87.5759C222.539 87.7079 222.677 87.7739 222.869 87.7739C223.157 87.7739 223.559 87.5639 224.075 87.1439C224.603 86.7119 225.137 85.9859 225.677 84.9659L226.019 85.3079C225.731 85.9559 225.383 86.5319 224.975 87.0359C224.579 87.5279 224.159 87.9119 223.715 88.1879C223.271 88.4759 222.821 88.6199 222.365 88.6199C221.873 88.6199 221.507 88.4639 221.267 88.1519C221.027 87.8399 220.895 87.5039 220.871 87.1439C220.871 87.1199 220.871 87.1019 220.871 87.0899C220.871 87.0779 220.871 87.0659 220.871 87.0539C220.391 87.6299 219.947 88.0859 219.539 88.4219C219.143 88.7579 218.717 88.9259 218.261 88.9259ZM226.151 93.1199C225.851 93.1199 225.569 93.0299 225.305 92.8499C225.053 92.6699 224.927 92.3759 224.927 91.9679C224.927 91.5839 225.035 91.2359 225.251 90.9239C225.479 90.6239 225.773 90.3419 226.133 90.0779C226.505 89.8259 226.901 89.5919 227.321 89.3759C227.741 89.1599 228.149 88.9559 228.545 88.7639C228.677 88.4399 228.803 88.0919 228.923 87.7199C229.043 87.3479 229.157 86.9459 229.265 86.5139C228.845 87.0419 228.401 87.4799 227.933 87.8279C227.477 88.1759 227.009 88.3499 226.529 88.3499C226.049 88.3499 225.665 88.1819 225.377 87.8459C225.101 87.5099 224.963 87.0659 224.963 86.5139C224.963 85.8779 225.119 85.2839 225.431 84.7319C225.755 84.1679 226.169 83.6699 226.673 83.2379C227.177 82.7939 227.717 82.4519 228.293 82.2119C228.869 81.9599 229.421 81.8339 229.949 81.8339C230.333 81.8339 230.621 81.9059 230.813 82.0499C231.005 82.1819 231.101 82.3379 231.101 82.5179C231.101 82.6619 231.059 82.7759 230.975 82.8599C230.891 82.9439 230.837 82.9919 230.813 83.0039C230.693 82.8719 230.567 82.7879 230.435 82.7519C230.315 82.7039 230.171 82.6799 230.003 82.6799C229.535 82.6799 229.085 82.8119 228.653 83.0759C228.221 83.3399 227.837 83.6819 227.501 84.1019C227.177 84.5099 226.919 84.9359 226.727 85.3799C226.535 85.8239 226.439 86.2259 226.439 86.5859C226.439 86.8259 226.493 87.0119 226.601 87.1439C226.709 87.2639 226.841 87.3239 226.997 87.3239C227.333 87.3239 227.741 87.1079 228.221 86.6759C228.701 86.2319 229.163 85.6979 229.607 85.0739C229.631 84.9779 229.649 84.8939 229.661 84.8219C229.685 84.7379 229.703 84.6599 229.715 84.5879C229.835 84.1079 229.979 83.7539 230.147 83.5259C230.315 83.2979 230.549 83.1839 230.849 83.1839C230.909 83.1839 230.981 83.1899 231.065 83.2019C231.161 83.2139 231.263 83.2319 231.371 83.2559C231.371 83.4719 231.311 83.8259 231.191 84.3179C231.071 84.8099 230.909 85.3859 230.705 86.0459C230.501 86.6939 230.273 87.3599 230.021 88.0439C230.393 87.8879 230.771 87.6719 231.155 87.3959C231.539 87.1079 231.893 86.7659 232.217 86.3699C232.541 85.9619 232.787 85.5119 232.955 85.0199L233.279 85.3439C233.087 85.8959 232.787 86.3999 232.379 86.8559C231.983 87.3119 231.551 87.7079 231.083 88.0439C230.615 88.3679 230.183 88.6199 229.787 88.7999C229.463 89.5919 229.109 90.3119 228.725 90.9599C228.353 91.6199 227.951 92.1419 227.519 92.5259C227.099 92.9219 226.643 93.1199 226.151 93.1199ZM226.079 92.2919C226.295 92.2919 226.589 92.0879 226.961 91.6799C227.345 91.2719 227.759 90.5819 228.203 89.6099C227.759 89.8259 227.351 90.0479 226.979 90.2759C226.607 90.5039 226.307 90.7439 226.079 90.9959C225.851 91.2479 225.737 91.5119 225.737 91.7879C225.737 91.9439 225.767 92.0639 225.827 92.1479C225.899 92.2439 225.983 92.2919 226.079 92.2919ZM234.059 88.6199C233.495 88.6199 233.099 88.4339 232.871 88.0619C232.655 87.6779 232.547 87.2279 232.547 86.7119C232.547 86.1239 232.655 85.4339 232.871 84.6419C233.087 83.8499 233.369 83.0219 233.717 82.1579C234.077 81.2819 234.467 80.4299 234.887 79.6019C235.319 78.7619 235.751 78.0059 236.183 77.3339C236.615 76.6619 237.011 76.1279 237.371 75.7319C237.743 75.3239 238.043 75.1199 238.271 75.1199C238.427 75.1199 238.559 75.2039 238.667 75.3719C238.775 75.5279 238.859 75.7199 238.919 75.9479C238.991 76.1639 239.027 76.3679 239.027 76.5599C239.027 76.8839 238.943 77.3099 238.775 77.8379C238.619 78.3539 238.391 78.9239 238.091 79.5479C237.803 80.1719 237.455 80.8139 237.047 81.4739C236.651 82.1219 236.207 82.7399 235.715 83.3279C235.235 83.9159 234.719 84.4259 234.167 84.8579C234.119 85.1579 234.071 85.4579 234.023 85.7579C233.987 86.0459 233.969 86.3099 233.969 86.5499C233.969 86.9819 234.041 87.2999 234.185 87.5039C234.329 87.6959 234.515 87.7919 234.743 87.7919C235.043 87.7919 235.349 87.6539 235.661 87.3779C235.985 87.0899 236.291 86.7299 236.579 86.2979C236.879 85.8539 237.137 85.3979 237.353 84.9299L237.785 85.1639C237.269 86.2319 236.693 87.0779 236.057 87.7019C235.421 88.3139 234.755 88.6199 234.059 88.6199ZM234.491 83.7419C234.899 83.2979 235.283 82.8179 235.643 82.3019C236.015 81.7739 236.351 81.2399 236.651 80.6999C236.963 80.1599 237.233 79.6379 237.461 79.1339C237.689 78.6299 237.863 78.1799 237.983 77.7839C238.115 77.3759 238.187 77.0519 238.199 76.8119C238.199 76.7999 238.199 76.7939 238.199 76.7939C238.199 76.7819 238.199 76.7699 238.199 76.7579C238.103 76.7579 237.947 76.8959 237.731 77.1719C237.527 77.4359 237.281 77.8019 236.993 78.2699C236.705 78.7379 236.405 79.2719 236.093 79.8719C235.793 80.4719 235.499 81.1079 235.211 81.7799C234.935 82.4399 234.695 83.0939 234.491 83.7419ZM238.363 88.6199C237.835 88.6199 237.439 88.4639 237.175 88.1519C236.911 87.8399 236.779 87.4619 236.779 87.0179C236.779 86.7419 236.827 86.3939 236.923 85.9739C237.019 85.5539 237.151 85.1159 237.319 84.6599C237.499 84.1919 237.703 83.7539 237.931 83.3459C238.159 82.9379 238.405 82.6079 238.669 82.3559C238.933 82.0919 239.197 81.9599 239.461 81.9599C239.605 81.9599 239.731 82.0079 239.839 82.1039C239.947 82.1879 240.001 82.3139 240.001 82.4819C240.001 82.6379 239.905 82.8719 239.713 83.1839C239.533 83.4959 239.317 83.8559 239.065 84.2639C238.825 84.6719 238.609 85.0979 238.417 85.5419C238.237 85.9739 238.147 86.3879 238.147 86.7839C238.147 87.1679 238.213 87.4259 238.345 87.5579C238.489 87.6779 238.693 87.7379 238.957 87.7379C239.365 87.7379 239.809 87.5339 240.289 87.1259C240.769 86.7179 241.267 86.0039 241.783 84.9839L242.053 85.2719C241.633 86.3279 241.099 87.1499 240.451 87.7379C239.803 88.3259 239.107 88.6199 238.363 88.6199ZM240.487 80.5019C240.259 80.5019 240.049 80.4479 239.857 80.3399C239.677 80.2199 239.587 80.0399 239.587 79.7999C239.587 79.5119 239.743 79.2659 240.055 79.0619C240.367 78.8579 240.691 78.7559 241.027 78.7559C241.243 78.7559 241.423 78.8039 241.567 78.8999C241.723 78.9959 241.801 79.1699 241.801 79.4219C241.801 79.6739 241.663 79.9199 241.387 80.1599C241.111 80.3879 240.811 80.5019 240.487 80.5019Z" fill="black"/>
<path d="M283.32 17.7042L300.212 6.28437L283.257 102.442L271.289 85.9331L270.996 85.5281L270.591 85.8219L254.707 97.3497L271.642 1.30468L282.625 17.5698L282.905 17.9844L283.32 17.7042Z" fill="#D9D9D9" stroke="black"/>
</svg>
