<svg width="317" height="404" viewBox="0 0 317 404" fill="none" xmlns="http://www.w3.org/2000/svg">
<path d="M301.231 13.403C299.777 12.3346 297.273 11.3088 293.8 10.3452C290.342 9.38557 285.972 8.50065 280.828 7.69021C270.539 6.0695 257.187 4.75235 241.892 3.72546C211.306 1.67181 172.991 0.781295 135.967 0.937512C98.9425 1.09373 63.2227 2.29669 37.8271 4.42795C25.1234 5.49408 15.0278 6.79063 8.64735 8.29814C5.43846 9.05631 3.24312 9.85211 2.11613 10.6551C1.55043 11.0582 1.34956 11.3954 1.31923 11.6454C1.29152 11.874 1.38924 12.1973 1.8644 12.6305C2.4796 13.1915 3.01183 14.1107 3.48729 15.2964C3.9673 16.4935 4.40898 18.0131 4.81682 19.8244C5.63268 23.4478 6.32405 28.2887 6.90593 34.1587C8.06996 45.9017 8.80074 61.8173 9.19926 80.4659C9.99638 117.766 9.46492 166.04 8.40239 213.824C7.3398 261.608 5.74596 308.908 4.41777 344.261C3.75368 361.938 3.15599 376.628 2.72435 386.899C2.5085 392.035 2.33418 396.065 2.21379 398.812C2.15361 400.186 2.10692 401.238 2.07527 401.948L2.05186 402.47L2.31651 402.455C2.85545 402.426 3.65535 402.382 4.69926 402.325C6.78716 402.212 9.85124 402.048 13.7564 401.844C21.5668 401.438 32.7415 400.876 46.1996 400.251C73.1155 399.001 109.166 397.5 145.701 396.5C182.235 395.5 219.261 395 248.126 395.75C262.557 396.125 274.96 396.813 284.245 397.91C288.887 398.458 292.763 399.109 295.73 399.879C297.213 400.264 298.479 400.682 299.505 401.135C300.526 401.586 301.338 402.086 301.887 402.652C302.087 402.859 302.247 402.943 302.363 402.97C302.465 402.994 302.575 402.984 302.715 402.905C303.039 402.722 303.447 402.216 303.897 401.244C304.78 399.339 305.651 396.037 306.491 391.484C308.167 382.397 309.693 368.505 311.013 351.306C313.653 316.914 315.465 269.363 316.027 220.744C316.59 172.126 315.902 122.451 313.544 83.8117C312.365 64.4901 310.768 47.9401 308.704 35.665C307.672 29.526 306.525 24.4716 305.261 20.6802C304.629 18.7845 303.971 17.2163 303.29 15.9907C302.606 14.7601 301.915 13.9055 301.231 13.403Z" fill="white" stroke="black"/>
<line x1="34.9916" y1="47.5001" x2="276.991" y2="43.4499" stroke="black"/>
<line x1="34.9916" y1="76.5503" x2="276.991" y2="72.5001" stroke="black"/>
<line x1="34.9916" y1="134.55" x2="276.991" y2="130.5" stroke="black"/>
<line x1="34.9916" y1="163.55" x2="276.991" y2="159.5" stroke="black"/>
<line x1="34.9916" y1="105.55" x2="276.991" y2="101.5" stroke="black"/>
<line x1="34.9916" y1="192.55" x2="276.991" y2="188.5" stroke="black"/>
<line x1="34.9916" y1="221.6" x2="276.991" y2="217.55" stroke="black"/>
<line x1="34.9916" y1="279.6" x2="276.991" y2="275.55" stroke="black"/>
<path d="M34.9612 306.49C34.9612 306.49 281.565 303.188 276.994 306.659" stroke="black"/>
<line x1="34.9916" y1="250.6" x2="276.991" y2="246.55" stroke="black"/>
<path d="M37.0008 361.89C37.0008 361.89 285.743 359.515 278.994 366.283" stroke="black"/>
<path d="M34.9537 335.44C34.9537 335.44 281.591 330.189 276.987 335.609" stroke="black"/>
<path d="M62.296 39.566C62.368 39.134 62.446 38.696 62.53 38.252C62.626 37.808 62.74 37.316 62.872 36.776C63.016 36.236 63.19 35.618 63.394 34.922C63.61 34.226 63.868 33.416 64.168 32.492C63.988 32.504 63.79 32.522 63.574 32.546C63.37 32.57 63.178 32.588 62.998 32.6C62.998 32.216 63.142 31.922 63.43 31.718C63.718 31.514 64.096 31.364 64.564 31.268C64.612 31.1 64.654 30.968 64.69 30.872C64.726 30.776 64.768 30.656 64.816 30.512C64.864 30.368 64.936 30.17 65.032 29.918C65.128 29.654 65.254 29.282 65.41 28.802C65.578 28.322 65.794 27.692 66.058 26.912C66.082 26.852 66.124 26.732 66.184 26.552C66.244 26.372 66.274 26.204 66.274 26.048C66.274 25.952 66.256 25.886 66.22 25.85C66.196 25.814 66.136 25.796 66.04 25.796C65.8 25.796 65.554 25.904 65.302 26.12C65.062 26.336 64.84 26.612 64.636 26.948C64.432 27.272 64.27 27.614 64.15 27.974C64.03 28.322 63.97 28.634 63.97 28.91C63.97 29.006 63.982 29.114 64.006 29.234C64.03 29.354 64.078 29.516 64.15 29.72C63.646 29.72 63.28 29.612 63.052 29.396C62.836 29.168 62.728 28.88 62.728 28.532C62.728 28.124 62.848 27.716 63.088 27.308C63.34 26.9 63.658 26.528 64.042 26.192C64.438 25.844 64.852 25.568 65.284 25.364C65.728 25.148 66.136 25.04 66.508 25.04C66.892 25.04 67.156 25.142 67.3 25.346C67.444 25.55 67.516 25.778 67.516 26.03C67.516 26.162 67.498 26.294 67.462 26.426C67.438 26.558 67.408 26.684 67.372 26.804L66.058 31.124C66.202 31.112 66.346 31.106 66.49 31.106C66.646 31.106 66.802 31.106 66.958 31.106C67.546 31.106 68.098 31.118 68.614 31.142C69.13 31.166 69.628 31.202 70.108 31.25C70.408 30.242 70.66 29.414 70.864 28.766C71.08 28.118 71.266 27.584 71.422 27.164C71.59 26.732 71.74 26.354 71.872 26.03C71.92 25.934 71.986 25.808 72.07 25.652C72.166 25.484 72.298 25.34 72.466 25.22C72.646 25.088 72.88 25.022 73.168 25.022C73.012 25.442 72.82 26 72.592 26.696C72.376 27.38 72.154 28.13 71.926 28.946C71.698 29.75 71.482 30.548 71.278 31.34C71.446 31.34 71.68 31.352 71.98 31.376C72.292 31.388 72.58 31.394 72.844 31.394C72.472 31.766 72.142 32 71.854 32.096C71.566 32.18 71.302 32.222 71.062 32.222C70.93 32.774 70.81 33.302 70.702 33.806C70.594 34.31 70.504 34.778 70.432 35.21C70.288 35.978 70.18 36.65 70.108 37.226C70.048 37.79 70.018 38.252 70.018 38.612C70.018 38.804 70.024 38.972 70.036 39.116C70.06 39.272 70.084 39.422 70.108 39.566C69.496 39.506 69.076 39.356 68.848 39.116C68.632 38.888 68.524 38.48 68.524 37.892C68.524 37.616 68.542 37.31 68.578 36.974C68.626 36.638 68.704 36.242 68.812 35.786C68.908 35.342 69.04 34.832 69.208 34.256C69.376 33.68 69.58 33.008 69.82 32.24C69.088 32.24 68.482 32.246 68.002 32.258C67.522 32.27 67.102 32.282 66.742 32.294C66.382 32.306 66.022 32.33 65.662 32.366C65.65 32.414 65.62 32.516 65.572 32.672C65.524 32.828 65.44 33.104 65.32 33.5C65.2 33.896 65.02 34.478 64.78 35.246C64.54 36.014 64.216 37.046 63.808 38.342C63.676 38.786 63.448 39.098 63.124 39.278C62.8 39.47 62.524 39.566 62.296 39.566ZM73.5393 38.846C73.1433 38.846 72.8013 38.714 72.5132 38.45C72.2132 38.186 72.0632 37.79 72.0632 37.262C72.0632 36.842 72.1592 36.386 72.3512 35.894C72.5432 35.402 72.8073 34.916 73.1433 34.436C73.4793 33.956 73.8633 33.524 74.2953 33.14C74.7273 32.744 75.1893 32.426 75.6813 32.186C76.1733 31.946 76.6653 31.826 77.1572 31.826C77.6733 31.826 78.1113 31.958 78.4713 32.222C78.8313 32.486 79.0113 32.834 79.0113 33.266C79.0113 33.59 78.8973 33.824 78.6693 33.968C78.4413 34.112 78.1713 34.154 77.8593 34.094C77.8833 33.986 77.9013 33.878 77.9133 33.77C77.9373 33.662 77.9493 33.548 77.9493 33.428C77.9493 33.188 77.9013 32.972 77.8053 32.78C77.7093 32.588 77.5053 32.492 77.1933 32.492C76.8573 32.492 76.5153 32.606 76.1673 32.834C75.8193 33.062 75.4833 33.362 75.1593 33.734C74.8473 34.094 74.5653 34.496 74.3133 34.94C74.0613 35.372 73.8633 35.798 73.7192 36.218C73.5753 36.638 73.5033 37.016 73.5033 37.352C73.5033 37.736 73.6413 37.928 73.9173 37.928C74.1933 37.928 74.4993 37.796 74.8353 37.532C75.1713 37.256 75.5073 36.914 75.8433 36.506C76.1913 36.098 76.5213 35.684 76.8333 35.264C77.1453 34.832 77.4153 34.466 77.6433 34.166C77.6793 34.106 77.7273 34.076 77.7873 34.076C77.8353 34.088 77.9253 34.118 78.0573 34.166C78.2013 34.202 78.3333 34.262 78.4533 34.346C78.5733 34.43 78.6333 34.538 78.6333 34.67C78.6333 34.79 78.5793 34.946 78.4713 35.138C78.3753 35.318 78.2553 35.522 78.1113 35.75C77.9793 35.966 77.8593 36.188 77.7513 36.416C77.6553 36.632 77.6073 36.842 77.6073 37.046C77.6073 37.202 77.6493 37.352 77.7333 37.496C77.8173 37.628 77.9553 37.694 78.1473 37.694C78.4353 37.694 78.8373 37.484 79.3533 37.064C79.8813 36.632 80.4153 35.906 80.9553 34.886L81.2973 35.228C81.0093 35.876 80.6613 36.452 80.2533 36.956C79.8573 37.448 79.4373 37.832 78.9933 38.108C78.5493 38.396 78.0993 38.54 77.6433 38.54C77.1513 38.54 76.7853 38.384 76.5453 38.072C76.3053 37.76 76.1733 37.424 76.1493 37.064C76.1493 37.04 76.1493 37.022 76.1493 37.01C76.1493 36.998 76.1493 36.986 76.1493 36.974C75.6693 37.55 75.2253 38.006 74.8173 38.342C74.4213 38.678 73.9953 38.846 73.5393 38.846ZM79.5213 43.04C79.4253 43.04 79.3233 43.01 79.2153 42.95C79.1073 42.902 79.0173 42.842 78.9453 42.77C78.8613 42.698 78.8133 42.638 78.8013 42.59C79.1013 41.714 79.3593 40.952 79.5753 40.304C79.7793 39.668 79.9533 39.062 80.0973 38.486C80.2413 37.922 80.3733 37.334 80.4933 36.722C80.6013 36.098 80.7093 35.39 80.8173 34.598C80.9373 33.794 81.0693 32.828 81.2133 31.7C81.2373 31.556 81.2673 31.454 81.3033 31.394C81.3393 31.322 81.4533 31.286 81.6453 31.286C82.0173 31.286 82.2873 31.388 82.4553 31.592C82.6233 31.784 82.7073 32 82.7073 32.24C82.7073 32.36 82.6833 32.57 82.6353 32.87C82.5993 33.17 82.5393 33.524 82.4553 33.932C82.6833 33.584 82.9413 33.254 83.2293 32.942C83.5293 32.63 83.8593 32.378 84.2193 32.186C84.5793 31.982 84.9693 31.88 85.3893 31.88C85.9773 31.88 86.4633 32.078 86.8473 32.474C87.2313 32.87 87.4233 33.392 87.4233 34.04C87.4233 34.508 87.3153 35.006 87.0993 35.534C86.8953 36.05 86.6013 36.542 86.2173 37.01C85.8333 37.466 85.3713 37.838 84.8313 38.126C84.2913 38.426 83.6973 38.576 83.0493 38.576C82.6653 38.576 82.3593 38.528 82.1313 38.432C81.9033 38.336 81.7893 38.228 81.7893 38.108C81.7893 38.024 81.8313 37.976 81.9153 37.964C82.0113 37.94 82.1133 37.928 82.2213 37.928C82.7853 37.916 83.2953 37.796 83.7513 37.568C84.2193 37.34 84.6213 37.046 84.9573 36.686C85.2933 36.314 85.5513 35.918 85.7313 35.498C85.9113 35.078 86.0013 34.664 86.0013 34.256C86.0013 33.896 85.9173 33.584 85.7493 33.32C85.5933 33.056 85.3413 32.924 84.9933 32.924C84.6933 32.924 84.3873 33.02 84.0753 33.212C83.7753 33.404 83.4933 33.65 83.2293 33.95C82.9653 34.238 82.7313 34.544 82.5273 34.868C82.3233 35.18 82.1673 35.456 82.0593 35.696C81.8313 36.488 81.6213 37.274 81.4293 38.054C81.2493 38.846 81.0753 39.578 80.9073 40.25C80.7393 40.922 80.5713 41.492 80.4033 41.96C80.2233 42.428 80.0313 42.746 79.8273 42.914C79.7313 42.998 79.6293 43.04 79.5213 43.04ZM86.9568 43.04C86.8608 43.04 86.7588 43.01 86.6508 42.95C86.5428 42.902 86.4528 42.842 86.3808 42.77C86.2968 42.698 86.2488 42.638 86.2368 42.59C86.5368 41.714 86.7948 40.952 87.0108 40.304C87.2148 39.668 87.3888 39.062 87.5328 38.486C87.6768 37.922 87.8088 37.334 87.9288 36.722C88.0368 36.098 88.1448 35.39 88.2528 34.598C88.3728 33.794 88.5048 32.828 88.6488 31.7C88.6728 31.556 88.7028 31.454 88.7388 31.394C88.7748 31.322 88.8888 31.286 89.0808 31.286C89.4528 31.286 89.7228 31.388 89.8908 31.592C90.0588 31.784 90.1428 32 90.1428 32.24C90.1428 32.36 90.1188 32.57 90.0708 32.87C90.0348 33.17 89.9748 33.524 89.8908 33.932C90.1188 33.584 90.3768 33.254 90.6648 32.942C90.9648 32.63 91.2948 32.378 91.6548 32.186C92.0148 31.982 92.4048 31.88 92.8248 31.88C93.4128 31.88 93.8988 32.078 94.2828 32.474C94.6668 32.87 94.8588 33.392 94.8588 34.04C94.8588 34.508 94.7508 35.006 94.5348 35.534C94.3308 36.05 94.0368 36.542 93.6528 37.01C93.2688 37.466 92.8068 37.838 92.2668 38.126C91.7268 38.426 91.1328 38.576 90.4848 38.576C90.1008 38.576 89.7948 38.528 89.5668 38.432C89.3388 38.336 89.2248 38.228 89.2248 38.108C89.2248 38.024 89.2668 37.976 89.3508 37.964C89.4468 37.94 89.5488 37.928 89.6568 37.928C90.2208 37.916 90.7308 37.796 91.1868 37.568C91.6548 37.34 92.0568 37.046 92.3928 36.686C92.7288 36.314 92.9868 35.918 93.1668 35.498C93.3468 35.078 93.4368 34.664 93.4368 34.256C93.4368 33.896 93.3528 33.584 93.1848 33.32C93.0288 33.056 92.7768 32.924 92.4288 32.924C92.1288 32.924 91.8228 33.02 91.5108 33.212C91.2108 33.404 90.9288 33.65 90.6648 33.95C90.4008 34.238 90.1668 34.544 89.9628 34.868C89.7588 35.18 89.6028 35.456 89.4948 35.696C89.2668 36.488 89.0568 37.274 88.8648 38.054C88.6848 38.846 88.5108 39.578 88.3428 40.25C88.1748 40.922 88.0068 41.492 87.8388 41.96C87.6588 42.428 87.4668 42.746 87.2628 42.914C87.1668 42.998 87.0648 43.04 86.9568 43.04ZM96.2644 43.04C95.9644 43.04 95.6824 42.944 95.4184 42.752C95.1664 42.572 95.0404 42.278 95.0404 41.87C95.0404 41.486 95.1544 41.138 95.3824 40.826C95.6104 40.526 95.9044 40.244 96.2644 39.98C96.6244 39.728 97.0084 39.494 97.4164 39.278C97.8364 39.074 98.2384 38.882 98.6224 38.702C98.7544 38.354 98.8984 37.916 99.0544 37.388C99.2224 36.848 99.3664 36.35 99.4864 35.894C99.1144 36.41 98.7184 36.866 98.2984 37.262C97.8784 37.658 97.4104 37.856 96.8944 37.856C96.6784 37.856 96.4504 37.814 96.2104 37.73C95.9704 37.634 95.7664 37.478 95.5984 37.262C95.4424 37.034 95.3644 36.734 95.3644 36.362C95.3644 36.05 95.4184 35.672 95.5264 35.228C95.6464 34.784 95.7904 34.352 95.9584 33.932C96.1384 33.5 96.3244 33.146 96.5164 32.87C96.7084 32.582 96.8764 32.438 97.0204 32.438C97.0924 32.438 97.1944 32.468 97.3264 32.528C97.4704 32.576 97.6084 32.648 97.7404 32.744C97.8724 32.828 97.9564 32.924 97.9924 33.032C97.8844 33.176 97.7644 33.386 97.6324 33.662C97.5004 33.926 97.3744 34.226 97.2544 34.562C97.1344 34.886 97.0324 35.204 96.9484 35.516C96.8764 35.828 96.8404 36.098 96.8404 36.326C96.8404 36.506 96.8764 36.662 96.9484 36.794C97.0204 36.926 97.1584 36.992 97.3624 36.992C97.6264 36.992 97.8964 36.884 98.1724 36.668C98.4604 36.452 98.7364 36.176 99.0004 35.84C99.2764 35.504 99.5224 35.162 99.7384 34.814C99.7624 34.73 99.7864 34.598 99.8104 34.418C99.8344 34.238 99.8764 34.052 99.9364 33.86C99.9964 33.656 100.098 33.47 100.242 33.302C100.398 33.134 100.614 33.05 100.89 33.05C100.986 33.05 101.076 33.056 101.16 33.068C101.244 33.08 101.346 33.098 101.466 33.122C101.466 33.302 101.4 33.656 101.268 34.184C101.148 34.7 100.986 35.3 100.782 35.984C100.578 36.668 100.35 37.352 100.098 38.036C100.602 37.832 101.124 37.496 101.664 37.028C102.216 36.548 102.66 35.87 102.996 34.994L103.302 35.246C103.122 35.846 102.846 36.368 102.474 36.812C102.114 37.256 101.706 37.634 101.25 37.946C100.794 38.258 100.332 38.516 99.8644 38.72C99.5404 39.5 99.1864 40.22 98.8024 40.88C98.4304 41.54 98.0344 42.062 97.6144 42.446C97.1944 42.842 96.7444 43.04 96.2644 43.04ZM96.0844 42.374C96.3124 42.374 96.6304 42.134 97.0384 41.654C97.4464 41.174 97.8604 40.454 98.2804 39.494C97.8964 39.686 97.5064 39.908 97.1104 40.16C96.7264 40.424 96.4024 40.7 96.1384 40.988C95.8744 41.276 95.7424 41.57 95.7424 41.87C95.7424 41.99 95.7664 42.104 95.8144 42.212C95.8744 42.32 95.9644 42.374 96.0844 42.374ZM110.253 39.566C109.521 39.566 108.969 39.446 108.597 39.206C108.225 38.966 108.033 38.57 108.021 38.018C108.021 37.898 108.087 37.838 108.219 37.838C108.327 37.838 108.489 37.868 108.705 37.928C108.933 37.976 109.359 38 109.983 38C111.039 38 112.011 37.892 112.899 37.676C113.787 37.448 114.555 37.148 115.203 36.776C115.863 36.392 116.373 35.966 116.733 35.498C117.093 35.018 117.273 34.52 117.273 34.004C117.273 33.536 117.129 33.164 116.841 32.888C116.565 32.6 116.193 32.384 115.725 32.24C115.269 32.084 114.765 31.982 114.213 31.934C113.673 31.886 113.139 31.862 112.611 31.862C112.383 31.862 112.155 31.868 111.927 31.88C111.699 31.88 111.483 31.88 111.279 31.88C111.015 32.792 110.757 33.734 110.505 34.706C110.253 35.678 109.989 36.632 109.713 37.568C109.353 37.568 109.041 37.472 108.777 37.28C108.513 37.088 108.381 36.854 108.381 36.578C108.381 36.47 108.399 36.332 108.435 36.164C108.483 35.984 108.549 35.774 108.633 35.534C108.705 35.306 108.825 34.928 108.993 34.4C109.173 33.872 109.383 33.248 109.623 32.528C109.863 31.808 110.127 31.052 110.415 30.26C110.715 29.456 111.021 28.67 111.333 27.902C111.657 27.134 111.975 26.444 112.287 25.832C111.807 25.94 111.411 26.066 111.099 26.21C110.787 26.354 110.541 26.48 110.361 26.588C110.181 26.696 110.043 26.75 109.947 26.75C109.875 26.75 109.779 26.708 109.659 26.624C109.551 26.54 109.449 26.444 109.353 26.336C109.269 26.228 109.227 26.132 109.227 26.048C109.875 25.784 110.547 25.55 111.243 25.346C111.939 25.142 112.779 25.04 113.763 25.04C114.195 25.04 114.669 25.076 115.185 25.148C115.701 25.208 116.193 25.34 116.661 25.544C117.129 25.736 117.513 26.03 117.813 26.426C118.125 26.81 118.281 27.326 118.281 27.974C118.281 28.49 118.167 28.94 117.939 29.324C117.723 29.696 117.429 30.02 117.057 30.296C116.685 30.56 116.277 30.782 115.833 30.962C115.389 31.13 114.951 31.268 114.519 31.376C115.263 31.472 115.881 31.628 116.373 31.844C116.877 32.048 117.273 32.288 117.561 32.564C117.861 32.84 118.071 33.128 118.191 33.428C118.323 33.716 118.389 33.998 118.389 34.274C118.389 34.982 118.203 35.618 117.831 36.182C117.459 36.746 116.967 37.238 116.355 37.658C115.755 38.078 115.089 38.426 114.357 38.702C113.637 38.99 112.917 39.206 112.197 39.35C111.477 39.494 110.829 39.566 110.253 39.566ZM111.459 31.196C112.131 31.172 112.791 31.094 113.439 30.962C114.087 30.83 114.669 30.638 115.185 30.386C115.713 30.122 116.133 29.786 116.445 29.378C116.757 28.958 116.913 28.442 116.913 27.83C116.913 27.254 116.757 26.81 116.445 26.498C116.133 26.186 115.725 25.97 115.221 25.85C114.717 25.73 114.177 25.67 113.601 25.67C113.589 25.67 113.577 25.67 113.565 25.67C113.553 25.67 113.541 25.67 113.529 25.67C113.121 26.474 112.749 27.35 112.413 28.298C112.077 29.234 111.759 30.2 111.459 31.196ZM120.43 38.54C119.902 38.54 119.506 38.384 119.242 38.072C118.978 37.76 118.846 37.382 118.846 36.938C118.846 36.662 118.894 36.314 118.99 35.894C119.086 35.474 119.218 35.036 119.386 34.58C119.566 34.112 119.77 33.674 119.998 33.266C120.226 32.858 120.472 32.528 120.736 32.276C121 32.012 121.264 31.88 121.528 31.88C121.672 31.88 121.798 31.928 121.906 32.024C122.014 32.108 122.068 32.234 122.068 32.402C122.068 32.558 121.972 32.792 121.78 33.104C121.6 33.416 121.384 33.776 121.132 34.184C120.892 34.592 120.676 35.018 120.484 35.462C120.304 35.894 120.214 36.308 120.214 36.704C120.214 37.088 120.28 37.346 120.412 37.478C120.556 37.598 120.76 37.658 121.024 37.658C121.432 37.658 121.876 37.454 122.356 37.046C122.836 36.638 123.334 35.924 123.85 34.904L124.12 35.192C123.7 36.248 123.166 37.07 122.518 37.658C121.87 38.246 121.174 38.54 120.43 38.54ZM122.554 30.422C122.326 30.422 122.116 30.368 121.924 30.26C121.744 30.14 121.654 29.96 121.654 29.72C121.654 29.432 121.81 29.186 122.122 28.982C122.434 28.778 122.758 28.676 123.094 28.676C123.31 28.676 123.49 28.724 123.634 28.82C123.79 28.916 123.868 29.09 123.868 29.342C123.868 29.594 123.73 29.84 123.454 30.08C123.178 30.308 122.878 30.422 122.554 30.422ZM126.715 38.468C126.271 38.468 125.911 38.348 125.635 38.108C125.359 37.88 125.221 37.568 125.221 37.172C125.221 36.836 125.305 36.476 125.473 36.092C125.641 35.708 125.809 35.33 125.977 34.958C126.157 34.586 126.247 34.256 126.247 33.968C126.247 33.692 126.157 33.464 125.977 33.284C125.797 33.092 125.587 32.936 125.347 32.816C125.083 33.476 124.783 34.118 124.447 34.742C124.123 35.354 123.859 35.834 123.655 36.182L123.385 35.66C123.553 35.348 123.775 34.904 124.051 34.328C124.327 33.752 124.591 33.11 124.843 32.402C124.723 32.282 124.663 32.12 124.663 31.916C124.663 31.604 124.759 31.31 124.951 31.034C125.143 30.758 125.329 30.62 125.509 30.62C125.653 30.62 125.755 30.704 125.815 30.872C125.887 31.028 125.923 31.136 125.923 31.196C125.923 31.256 125.893 31.364 125.833 31.52C125.785 31.676 125.749 31.79 125.725 31.862C125.737 31.994 125.839 32.126 126.031 32.258C126.235 32.378 126.463 32.522 126.715 32.69C126.967 32.858 127.189 33.068 127.381 33.32C127.573 33.572 127.669 33.89 127.669 34.274C127.669 34.622 127.591 34.976 127.435 35.336C127.279 35.696 127.123 36.032 126.967 36.344C126.811 36.656 126.733 36.926 126.733 37.154C126.733 37.322 126.775 37.436 126.859 37.496C126.955 37.544 127.063 37.568 127.183 37.568C127.471 37.568 127.771 37.484 128.083 37.316C128.395 37.136 128.701 36.908 129.001 36.632C129.301 36.356 129.565 36.068 129.793 35.768C130.021 35.456 130.195 35.174 130.315 34.922L130.747 35.246C130.519 35.762 130.189 36.272 129.757 36.776C129.325 37.268 128.845 37.676 128.317 38C127.789 38.312 127.255 38.468 126.715 38.468ZM131.634 38.828C131.07 38.828 130.62 38.672 130.284 38.36C129.96 38.048 129.798 37.58 129.798 36.956C129.798 36.608 129.846 36.194 129.942 35.714C130.038 35.234 130.164 34.724 130.32 34.184C130.488 33.632 130.668 33.092 130.86 32.564C130.752 32.528 130.65 32.498 130.554 32.474C130.47 32.438 130.356 32.39 130.212 32.33V31.772C130.428 31.808 130.59 31.844 130.698 31.88C130.806 31.904 130.938 31.928 131.094 31.952C131.43 31.1 131.79 30.314 132.174 29.594C132.558 28.874 132.93 28.298 133.29 27.866C133.65 27.434 133.962 27.218 134.226 27.218C134.358 27.218 134.478 27.266 134.586 27.362C134.694 27.458 134.748 27.566 134.748 27.686C134.748 27.83 134.676 28.064 134.532 28.388C134.388 28.712 134.202 29.078 133.974 29.486C133.758 29.882 133.536 30.278 133.308 30.674C133.092 31.07 132.894 31.412 132.714 31.7C132.546 31.988 132.444 32.174 132.408 32.258C132.72 32.306 133.008 32.348 133.272 32.384C133.536 32.408 133.8 32.42 134.064 32.42C134.412 32.42 134.772 32.396 135.144 32.348C135.516 32.3 135.93 32.234 136.386 32.15C136.71 31.286 137.07 30.44 137.466 29.612C137.862 28.772 138.264 28.022 138.672 27.362C139.092 26.69 139.488 26.156 139.86 25.76C140.244 25.352 140.58 25.148 140.868 25.148C141.108 25.148 141.294 25.286 141.426 25.562C141.558 25.826 141.624 26.114 141.624 26.426C141.624 26.822 141.522 27.302 141.318 27.866C141.114 28.43 140.832 29.012 140.472 29.612C140.112 30.212 139.686 30.776 139.194 31.304C138.714 31.832 138.192 32.258 137.628 32.582C137.472 32.942 137.328 33.392 137.196 33.932C137.076 34.46 136.98 34.976 136.908 35.48C136.836 35.984 136.8 36.386 136.8 36.686C137.088 35.93 137.412 35.234 137.772 34.598C138.132 33.962 138.534 33.452 138.978 33.068C139.434 32.684 139.926 32.492 140.454 32.492C141.006 32.492 141.408 32.678 141.66 33.05C141.912 33.41 142.038 33.806 142.038 34.238C142.038 34.586 141.972 34.94 141.84 35.3C141.72 35.648 141.594 35.984 141.462 36.308C141.342 36.62 141.282 36.902 141.282 37.154C141.282 37.37 141.33 37.52 141.426 37.604C141.534 37.688 141.648 37.73 141.768 37.73C142.032 37.73 142.338 37.598 142.686 37.334C143.046 37.058 143.394 36.698 143.73 36.254C144.078 35.81 144.366 35.336 144.594 34.832L144.936 35.156C144.672 35.756 144.354 36.308 143.982 36.812C143.61 37.316 143.196 37.712 142.74 38C142.296 38.3 141.822 38.45 141.318 38.45C140.862 38.45 140.508 38.33 140.256 38.09C140.016 37.85 139.896 37.55 139.896 37.19C139.896 36.938 139.938 36.668 140.022 36.38C140.118 36.08 140.208 35.774 140.292 35.462C140.376 35.15 140.418 34.862 140.418 34.598C140.418 34.322 140.358 34.124 140.238 34.004C140.13 33.884 139.98 33.824 139.788 33.824C139.5 33.824 139.236 33.944 138.996 34.184C138.768 34.412 138.558 34.712 138.366 35.084C138.174 35.456 137.994 35.852 137.826 36.272C137.658 36.68 137.49 37.07 137.322 37.442C137.166 37.814 136.998 38.114 136.818 38.342C136.65 38.582 136.464 38.702 136.26 38.702C136.08 38.702 135.93 38.612 135.81 38.432C135.702 38.252 135.612 38.036 135.54 37.784C135.468 37.532 135.42 37.286 135.396 37.046C135.372 36.794 135.36 36.602 135.36 36.47C134.88 37.166 134.316 37.73 133.668 38.162C133.032 38.606 132.354 38.828 131.634 38.828ZM132.156 37.928C132.756 37.928 133.356 37.67 133.956 37.154C134.568 36.626 135.096 35.906 135.54 34.994C135.612 34.634 135.69 34.292 135.774 33.968C135.858 33.644 135.966 33.29 136.098 32.906C135.738 32.978 135.39 33.032 135.054 33.068C134.718 33.104 134.388 33.122 134.064 33.122C133.74 33.122 133.416 33.104 133.092 33.068C132.768 33.032 132.438 32.984 132.102 32.924C131.838 33.512 131.622 34.106 131.454 34.706C131.286 35.306 131.202 35.918 131.202 36.542C131.202 37.034 131.268 37.388 131.4 37.604C131.544 37.82 131.796 37.928 132.156 37.928ZM137.988 31.448C138.336 31.148 138.66 30.812 138.96 30.44C139.26 30.068 139.524 29.69 139.752 29.306C139.992 28.91 140.19 28.538 140.346 28.19C140.514 27.83 140.628 27.518 140.688 27.254C140.724 27.086 140.742 26.954 140.742 26.858C140.646 26.882 140.49 27.014 140.274 27.254C140.07 27.494 139.83 27.824 139.554 28.244C139.278 28.652 139.002 29.132 138.726 29.684C138.45 30.224 138.204 30.812 137.988 31.448ZM145.404 38.54C145.176 38.54 144.942 38.48 144.702 38.36C144.474 38.252 144.282 38.078 144.126 37.838C143.958 37.598 143.874 37.292 143.874 36.92C143.874 36.524 143.97 36.08 144.162 35.588C144.354 35.096 144.612 34.604 144.936 34.112C145.272 33.62 145.656 33.17 146.088 32.762C146.532 32.354 147 32.024 147.492 31.772C147.984 31.52 148.482 31.394 148.986 31.394C149.262 31.394 149.478 31.442 149.634 31.538C149.79 31.622 149.868 31.766 149.868 31.97C149.868 32.03 149.856 32.102 149.832 32.186C149.808 32.258 149.748 32.324 149.652 32.384C149.604 32.312 149.52 32.264 149.4 32.24C149.28 32.204 149.154 32.186 149.022 32.186C148.626 32.186 148.248 32.3 147.888 32.528C147.528 32.744 147.198 33.026 146.898 33.374C146.598 33.722 146.334 34.1 146.106 34.508C145.89 34.916 145.722 35.312 145.602 35.696C145.482 36.068 145.422 36.392 145.422 36.668C145.422 36.896 145.47 37.082 145.566 37.226C145.662 37.358 145.806 37.424 145.998 37.424C146.322 37.424 146.706 37.238 147.15 36.866C147.606 36.482 148.068 35.936 148.536 35.228C149.016 34.508 149.448 33.65 149.832 32.654C150.096 31.97 150.372 31.274 150.66 30.566C150.948 29.846 151.236 29.156 151.524 28.496C151.812 27.836 152.094 27.248 152.37 26.732C152.658 26.216 152.928 25.808 153.18 25.508C153.444 25.196 153.684 25.04 153.9 25.04C154.032 25.04 154.146 25.094 154.242 25.202C154.35 25.298 154.404 25.424 154.404 25.58C154.404 25.784 154.302 26.114 154.098 26.57C153.906 27.014 153.654 27.548 153.342 28.172C153.042 28.796 152.712 29.474 152.352 30.206C152.004 30.926 151.674 31.67 151.362 32.438C151.062 33.194 150.81 33.944 150.606 34.688C150.414 35.42 150.318 36.11 150.318 36.758C150.318 37.046 150.342 37.244 150.39 37.352C150.45 37.448 150.546 37.496 150.678 37.496C150.942 37.496 151.236 37.394 151.56 37.19C151.884 36.986 152.214 36.686 152.55 36.29C152.886 35.882 153.192 35.396 153.468 34.832L153.81 35.12C153.546 35.78 153.21 36.362 152.802 36.866C152.394 37.37 151.956 37.76 151.488 38.036C151.02 38.324 150.558 38.468 150.102 38.468C149.61 38.468 149.268 38.312 149.076 38C148.884 37.688 148.788 37.322 148.788 36.902C148.788 36.71 148.8 36.518 148.824 36.326C148.86 36.122 148.896 35.924 148.932 35.732C148.56 36.272 148.164 36.758 147.744 37.19C147.336 37.61 146.934 37.94 146.538 38.18C146.142 38.42 145.764 38.54 145.404 38.54ZM154.012 38.846C153.616 38.846 153.274 38.714 152.986 38.45C152.686 38.186 152.536 37.79 152.536 37.262C152.536 36.842 152.632 36.386 152.824 35.894C153.016 35.402 153.28 34.916 153.616 34.436C153.952 33.956 154.336 33.524 154.768 33.14C155.2 32.744 155.662 32.426 156.154 32.186C156.646 31.946 157.138 31.826 157.63 31.826C158.146 31.826 158.584 31.958 158.944 32.222C159.304 32.486 159.484 32.834 159.484 33.266C159.484 33.59 159.37 33.824 159.142 33.968C158.914 34.112 158.644 34.154 158.332 34.094C158.356 33.986 158.374 33.878 158.386 33.77C158.41 33.662 158.422 33.548 158.422 33.428C158.422 33.188 158.374 32.972 158.278 32.78C158.182 32.588 157.978 32.492 157.666 32.492C157.33 32.492 156.988 32.606 156.64 32.834C156.292 33.062 155.956 33.362 155.632 33.734C155.32 34.094 155.038 34.496 154.786 34.94C154.534 35.372 154.336 35.798 154.192 36.218C154.048 36.638 153.976 37.016 153.976 37.352C153.976 37.736 154.114 37.928 154.39 37.928C154.666 37.928 154.972 37.796 155.308 37.532C155.644 37.256 155.98 36.914 156.316 36.506C156.664 36.098 156.994 35.684 157.306 35.264C157.618 34.832 157.888 34.466 158.116 34.166C158.152 34.106 158.2 34.076 158.26 34.076C158.308 34.088 158.398 34.118 158.53 34.166C158.674 34.202 158.806 34.262 158.926 34.346C159.046 34.43 159.106 34.538 159.106 34.67C159.106 34.79 159.052 34.946 158.944 35.138C158.848 35.318 158.728 35.522 158.584 35.75C158.452 35.966 158.332 36.188 158.224 36.416C158.128 36.632 158.08 36.842 158.08 37.046C158.08 37.202 158.122 37.352 158.206 37.496C158.29 37.628 158.428 37.694 158.62 37.694C158.908 37.694 159.31 37.484 159.826 37.064C160.354 36.632 160.888 35.906 161.428 34.886L161.77 35.228C161.482 35.876 161.134 36.452 160.726 36.956C160.33 37.448 159.91 37.832 159.466 38.108C159.022 38.396 158.572 38.54 158.116 38.54C157.624 38.54 157.258 38.384 157.018 38.072C156.778 37.76 156.646 37.424 156.622 37.064C156.622 37.04 156.622 37.022 156.622 37.01C156.622 36.998 156.622 36.986 156.622 36.974C156.142 37.55 155.698 38.006 155.29 38.342C154.894 38.678 154.468 38.846 154.012 38.846ZM161.866 43.04C161.566 43.04 161.284 42.944 161.02 42.752C160.768 42.572 160.642 42.278 160.642 41.87C160.642 41.486 160.756 41.138 160.984 40.826C161.212 40.526 161.506 40.244 161.866 39.98C162.226 39.728 162.61 39.494 163.018 39.278C163.438 39.074 163.84 38.882 164.224 38.702C164.356 38.354 164.5 37.916 164.656 37.388C164.824 36.848 164.968 36.35 165.088 35.894C164.716 36.41 164.32 36.866 163.9 37.262C163.48 37.658 163.012 37.856 162.496 37.856C162.28 37.856 162.052 37.814 161.812 37.73C161.572 37.634 161.368 37.478 161.2 37.262C161.044 37.034 160.966 36.734 160.966 36.362C160.966 36.05 161.02 35.672 161.128 35.228C161.248 34.784 161.392 34.352 161.56 33.932C161.74 33.5 161.926 33.146 162.118 32.87C162.31 32.582 162.478 32.438 162.622 32.438C162.694 32.438 162.796 32.468 162.928 32.528C163.072 32.576 163.21 32.648 163.342 32.744C163.474 32.828 163.558 32.924 163.594 33.032C163.486 33.176 163.366 33.386 163.234 33.662C163.102 33.926 162.976 34.226 162.856 34.562C162.736 34.886 162.634 35.204 162.55 35.516C162.478 35.828 162.442 36.098 162.442 36.326C162.442 36.506 162.478 36.662 162.55 36.794C162.622 36.926 162.76 36.992 162.964 36.992C163.228 36.992 163.498 36.884 163.774 36.668C164.062 36.452 164.338 36.176 164.602 35.84C164.878 35.504 165.124 35.162 165.34 34.814C165.364 34.73 165.388 34.598 165.412 34.418C165.436 34.238 165.478 34.052 165.538 33.86C165.598 33.656 165.7 33.47 165.844 33.302C166 33.134 166.216 33.05 166.492 33.05C166.588 33.05 166.678 33.056 166.762 33.068C166.846 33.08 166.948 33.098 167.068 33.122C167.068 33.302 167.002 33.656 166.87 34.184C166.75 34.7 166.588 35.3 166.384 35.984C166.18 36.668 165.952 37.352 165.7 38.036C166.204 37.832 166.726 37.496 167.266 37.028C167.818 36.548 168.262 35.87 168.598 34.994L168.904 35.246C168.724 35.846 168.448 36.368 168.076 36.812C167.716 37.256 167.308 37.634 166.852 37.946C166.396 38.258 165.934 38.516 165.466 38.72C165.142 39.5 164.788 40.22 164.404 40.88C164.032 41.54 163.636 42.062 163.216 42.446C162.796 42.842 162.346 43.04 161.866 43.04ZM161.686 42.374C161.914 42.374 162.232 42.134 162.64 41.654C163.048 41.174 163.462 40.454 163.882 39.494C163.498 39.686 163.108 39.908 162.712 40.16C162.328 40.424 162.004 40.7 161.74 40.988C161.476 41.276 161.344 41.57 161.344 41.87C161.344 41.99 161.368 42.104 161.416 42.212C161.476 42.32 161.566 42.374 161.686 42.374ZM172.795 39.566C172.855 39.386 173.029 38.972 173.317 38.324C173.617 37.688 174.013 36.836 174.505 35.768C175.009 34.688 175.603 33.41 176.287 31.934C176.971 30.458 177.733 28.796 178.573 26.948C178.621 26.852 178.657 26.75 178.681 26.642C178.717 26.534 178.735 26.438 178.735 26.354C178.735 26.234 178.699 26.138 178.627 26.066C178.555 25.994 178.417 25.958 178.213 25.958C177.709 25.958 177.295 26.114 176.971 26.426C176.659 26.726 176.425 27.098 176.269 27.542C176.125 27.986 176.053 28.424 176.053 28.856C176.053 28.964 176.059 29.09 176.071 29.234C176.083 29.378 176.101 29.54 176.125 29.72C175.837 29.72 175.597 29.636 175.405 29.468C175.225 29.288 175.087 29.072 174.991 28.82C174.895 28.556 174.847 28.31 174.847 28.082C174.847 27.698 174.955 27.326 175.171 26.966C175.399 26.606 175.693 26.282 176.053 25.994C176.413 25.694 176.809 25.46 177.241 25.292C177.685 25.124 178.123 25.04 178.555 25.04C178.999 25.04 179.377 25.166 179.689 25.418C180.001 25.658 180.241 26.102 180.409 26.75C180.577 27.386 180.661 28.304 180.661 29.504C180.661 30.284 180.631 31.076 180.571 31.88C180.523 32.672 180.469 33.416 180.409 34.112C180.349 34.808 180.319 35.402 180.319 35.894C180.559 35.186 180.853 34.436 181.201 33.644C181.561 32.84 181.945 32.048 182.353 31.268C182.761 30.476 183.163 29.732 183.559 29.036C183.955 28.34 184.309 27.734 184.621 27.218C184.945 26.69 185.191 26.3 185.359 26.048C185.527 25.784 185.677 25.586 185.809 25.454C185.941 25.322 186.121 25.256 186.349 25.256C186.517 25.256 186.781 25.322 187.141 25.454C187.033 25.682 186.907 26.048 186.763 26.552C186.619 27.044 186.463 27.62 186.295 28.28C186.115 29 185.935 29.792 185.755 30.656C185.575 31.508 185.413 32.372 185.269 33.248C185.125 34.124 185.005 34.958 184.909 35.75C184.825 36.53 184.783 37.22 184.783 37.82C184.783 38.132 184.795 38.378 184.819 38.558C184.855 38.738 184.897 38.894 184.945 39.026C185.005 39.17 185.071 39.35 185.143 39.566C184.627 39.566 184.231 39.488 183.955 39.332C183.691 39.176 183.511 38.924 183.415 38.576C183.331 38.24 183.289 37.79 183.289 37.226C183.289 35.894 183.439 34.496 183.739 33.032C184.051 31.556 184.411 30.038 184.819 28.478C184.483 28.958 184.135 29.528 183.775 30.188C183.415 30.848 183.061 31.544 182.713 32.276C182.365 33.008 182.035 33.734 181.723 34.454C181.411 35.162 181.135 35.822 180.895 36.434C180.655 37.034 180.469 37.538 180.337 37.946C180.229 37.982 180.151 38.006 180.103 38.018C180.067 38.03 180.019 38.036 179.959 38.036C179.539 38.036 179.269 37.784 179.149 37.28C179.041 36.764 178.987 36.062 178.987 35.174C178.987 34.706 178.993 34.208 179.005 33.68C179.017 33.14 179.035 32.594 179.059 32.042C179.083 31.478 179.101 30.92 179.113 30.368C179.125 29.816 179.131 29.288 179.131 28.784C179.131 28.604 179.125 28.424 179.113 28.244C179.113 28.064 179.113 27.89 179.113 27.722C178.201 29.846 177.427 31.664 176.791 33.176C176.167 34.676 175.633 35.9 175.189 36.848C174.745 37.784 174.337 38.468 173.965 38.9C173.593 39.344 173.203 39.566 172.795 39.566ZM189.053 38.792C188.285 38.792 187.691 38.582 187.271 38.162C186.863 37.754 186.659 37.238 186.659 36.614C186.659 36.086 186.791 35.528 187.055 34.94C187.331 34.34 187.697 33.782 188.153 33.266C188.609 32.738 189.113 32.312 189.665 31.988C190.217 31.664 190.769 31.502 191.321 31.502C191.633 31.502 191.927 31.586 192.203 31.754C192.491 31.91 192.635 32.228 192.635 32.708C192.635 33.164 192.503 33.59 192.239 33.986C191.975 34.382 191.621 34.736 191.177 35.048C190.733 35.36 190.241 35.618 189.701 35.822C189.173 36.014 188.639 36.14 188.099 36.2C188.087 36.248 188.075 36.302 188.063 36.362C188.063 36.41 188.063 36.494 188.063 36.614C188.063 36.674 188.069 36.782 188.081 36.938C188.105 37.082 188.159 37.238 188.243 37.406C188.327 37.574 188.465 37.718 188.657 37.838C188.849 37.958 189.113 38.018 189.449 38.018C189.953 38.018 190.457 37.88 190.961 37.604C191.477 37.316 191.957 36.938 192.401 36.47C192.857 36.002 193.235 35.48 193.535 34.904L193.895 35.192C193.571 35.912 193.151 36.542 192.635 37.082C192.131 37.622 191.567 38.042 190.943 38.342C190.331 38.642 189.701 38.792 189.053 38.792ZM188.297 35.534C188.609 35.498 188.957 35.39 189.341 35.21C189.725 35.03 190.091 34.802 190.439 34.526C190.799 34.25 191.093 33.95 191.321 33.626C191.549 33.29 191.663 32.954 191.663 32.618C191.663 32.486 191.639 32.396 191.591 32.348C191.543 32.3 191.465 32.276 191.357 32.276C191.081 32.276 190.793 32.378 190.493 32.582C190.193 32.774 189.899 33.032 189.611 33.356C189.323 33.668 189.065 34.016 188.837 34.4C188.609 34.784 188.429 35.162 188.297 35.534ZM196.43 38.468C195.986 38.468 195.626 38.348 195.35 38.108C195.074 37.88 194.936 37.568 194.936 37.172C194.936 36.836 195.02 36.476 195.188 36.092C195.356 35.708 195.524 35.33 195.692 34.958C195.872 34.586 195.962 34.256 195.962 33.968C195.962 33.692 195.872 33.464 195.692 33.284C195.512 33.092 195.302 32.936 195.062 32.816C194.798 33.476 194.498 34.118 194.162 34.742C193.838 35.354 193.574 35.834 193.37 36.182L193.1 35.66C193.268 35.348 193.49 34.904 193.766 34.328C194.042 33.752 194.306 33.11 194.558 32.402C194.438 32.282 194.378 32.12 194.378 31.916C194.378 31.604 194.474 31.31 194.666 31.034C194.858 30.758 195.044 30.62 195.224 30.62C195.368 30.62 195.47 30.704 195.53 30.872C195.602 31.028 195.638 31.136 195.638 31.196C195.638 31.256 195.608 31.364 195.548 31.52C195.5 31.676 195.464 31.79 195.44 31.862C195.452 31.994 195.554 32.126 195.746 32.258C195.95 32.378 196.178 32.522 196.43 32.69C196.682 32.858 196.904 33.068 197.096 33.32C197.288 33.572 197.384 33.89 197.384 34.274C197.384 34.622 197.306 34.976 197.15 35.336C196.994 35.696 196.838 36.032 196.682 36.344C196.526 36.656 196.448 36.926 196.448 37.154C196.448 37.322 196.49 37.436 196.574 37.496C196.67 37.544 196.778 37.568 196.898 37.568C197.186 37.568 197.486 37.484 197.798 37.316C198.11 37.136 198.416 36.908 198.716 36.632C199.016 36.356 199.28 36.068 199.508 35.768C199.736 35.456 199.91 35.174 200.03 34.922L200.462 35.246C200.234 35.762 199.904 36.272 199.472 36.776C199.04 37.268 198.56 37.676 198.032 38C197.504 38.312 196.97 38.468 196.43 38.468ZM201.079 38.54C200.551 38.54 200.155 38.384 199.891 38.072C199.627 37.76 199.495 37.382 199.495 36.938C199.495 36.662 199.543 36.314 199.639 35.894C199.735 35.474 199.867 35.036 200.035 34.58C200.215 34.112 200.419 33.674 200.647 33.266C200.875 32.858 201.121 32.528 201.385 32.276C201.649 32.012 201.913 31.88 202.177 31.88C202.321 31.88 202.447 31.928 202.555 32.024C202.663 32.108 202.717 32.234 202.717 32.402C202.717 32.558 202.621 32.792 202.429 33.104C202.249 33.416 202.033 33.776 201.781 34.184C201.541 34.592 201.325 35.018 201.133 35.462C200.953 35.894 200.863 36.308 200.863 36.704C200.863 37.088 200.929 37.346 201.061 37.478C201.205 37.598 201.409 37.658 201.673 37.658C202.081 37.658 202.525 37.454 203.005 37.046C203.485 36.638 203.983 35.924 204.499 34.904L204.769 35.192C204.349 36.248 203.815 37.07 203.167 37.658C202.519 38.246 201.823 38.54 201.079 38.54ZM203.203 30.422C202.975 30.422 202.765 30.368 202.573 30.26C202.393 30.14 202.303 29.96 202.303 29.72C202.303 29.432 202.459 29.186 202.771 28.982C203.083 28.778 203.407 28.676 203.743 28.676C203.959 28.676 204.139 28.724 204.283 28.82C204.439 28.916 204.517 29.09 204.517 29.342C204.517 29.594 204.379 29.84 204.103 30.08C203.827 30.308 203.527 30.422 203.203 30.422ZM210.815 39.566C210.455 39.566 210.113 39.47 209.789 39.278C209.477 39.086 209.321 38.84 209.321 38.54C209.321 38.384 209.345 38.216 209.393 38.036C209.453 37.856 209.507 37.688 209.555 37.532C209.927 36.392 210.275 35.33 210.599 34.346C210.923 33.35 211.247 32.396 211.571 31.484C211.907 30.56 212.255 29.636 212.615 28.712C212.987 27.788 213.401 26.822 213.857 25.814C213.401 25.91 213.011 26.036 212.687 26.192C212.363 26.336 212.099 26.468 211.895 26.588C211.691 26.696 211.541 26.75 211.445 26.75C211.385 26.75 211.295 26.708 211.175 26.624C211.067 26.54 210.971 26.444 210.887 26.336C210.803 26.228 210.761 26.132 210.761 26.048C211.097 25.904 211.487 25.754 211.931 25.598C212.387 25.442 212.879 25.31 213.407 25.202C213.935 25.094 214.463 25.04 214.991 25.04C215.555 25.04 216.131 25.118 216.719 25.274C217.307 25.418 217.847 25.64 218.339 25.94C218.843 26.228 219.245 26.594 219.545 27.038C219.857 27.47 220.013 27.98 220.013 28.568C220.013 29.204 219.869 29.75 219.581 30.206C219.293 30.662 218.909 31.046 218.429 31.358C217.961 31.67 217.451 31.922 216.899 32.114C216.347 32.306 215.795 32.45 215.243 32.546C214.703 32.642 214.217 32.708 213.785 32.744C213.353 32.78 213.029 32.798 212.813 32.798H212.705C212.369 33.986 212.039 35.174 211.715 36.362C211.391 37.538 211.091 38.606 210.815 39.566ZM212.867 32.24C213.539 32.192 214.211 32.078 214.883 31.898C215.555 31.718 216.161 31.472 216.701 31.16C217.253 30.836 217.691 30.434 218.015 29.954C218.351 29.474 218.519 28.916 218.519 28.28C218.519 27.68 218.357 27.194 218.033 26.822C217.721 26.45 217.313 26.168 216.809 25.976C216.317 25.784 215.795 25.682 215.243 25.67C214.811 26.51 214.397 27.506 214.001 28.658C213.605 29.798 213.227 30.992 212.867 32.24ZM218.576 38.846C218.18 38.846 217.838 38.714 217.55 38.45C217.25 38.186 217.1 37.79 217.1 37.262C217.1 36.842 217.196 36.386 217.388 35.894C217.58 35.402 217.844 34.916 218.18 34.436C218.516 33.956 218.9 33.524 219.332 33.14C219.764 32.744 220.226 32.426 220.718 32.186C221.21 31.946 221.702 31.826 222.194 31.826C222.71 31.826 223.148 31.958 223.508 32.222C223.868 32.486 224.048 32.834 224.048 33.266C224.048 33.59 223.934 33.824 223.706 33.968C223.478 34.112 223.208 34.154 222.896 34.094C222.92 33.986 222.938 33.878 222.95 33.77C222.974 33.662 222.986 33.548 222.986 33.428C222.986 33.188 222.938 32.972 222.842 32.78C222.746 32.588 222.542 32.492 222.23 32.492C221.894 32.492 221.552 32.606 221.204 32.834C220.856 33.062 220.52 33.362 220.196 33.734C219.884 34.094 219.602 34.496 219.35 34.94C219.098 35.372 218.9 35.798 218.756 36.218C218.612 36.638 218.54 37.016 218.54 37.352C218.54 37.736 218.678 37.928 218.954 37.928C219.23 37.928 219.536 37.796 219.872 37.532C220.208 37.256 220.544 36.914 220.88 36.506C221.228 36.098 221.558 35.684 221.87 35.264C222.182 34.832 222.452 34.466 222.68 34.166C222.716 34.106 222.764 34.076 222.824 34.076C222.872 34.088 222.962 34.118 223.094 34.166C223.238 34.202 223.37 34.262 223.49 34.346C223.61 34.43 223.67 34.538 223.67 34.67C223.67 34.79 223.616 34.946 223.508 35.138C223.412 35.318 223.292 35.522 223.148 35.75C223.016 35.966 222.896 36.188 222.788 36.416C222.692 36.632 222.644 36.842 222.644 37.046C222.644 37.202 222.686 37.352 222.77 37.496C222.854 37.628 222.992 37.694 223.184 37.694C223.472 37.694 223.874 37.484 224.39 37.064C224.918 36.632 225.452 35.906 225.992 34.886L226.334 35.228C226.046 35.876 225.698 36.452 225.29 36.956C224.894 37.448 224.474 37.832 224.03 38.108C223.586 38.396 223.136 38.54 222.68 38.54C222.188 38.54 221.822 38.384 221.582 38.072C221.342 37.76 221.21 37.424 221.186 37.064C221.186 37.04 221.186 37.022 221.186 37.01C221.186 36.998 221.186 36.986 221.186 36.974C220.706 37.55 220.262 38.006 219.854 38.342C219.458 38.678 219.032 38.846 218.576 38.846ZM226.466 43.04C226.166 43.04 225.884 42.95 225.62 42.77C225.368 42.59 225.242 42.296 225.242 41.888C225.242 41.504 225.35 41.156 225.566 40.844C225.794 40.544 226.088 40.262 226.448 39.998C226.82 39.746 227.216 39.512 227.636 39.296C228.056 39.08 228.464 38.876 228.86 38.684C228.992 38.36 229.118 38.012 229.238 37.64C229.358 37.268 229.472 36.866 229.58 36.434C229.16 36.962 228.716 37.4 228.248 37.748C227.792 38.096 227.324 38.27 226.844 38.27C226.364 38.27 225.98 38.102 225.692 37.766C225.416 37.43 225.278 36.986 225.278 36.434C225.278 35.798 225.434 35.204 225.746 34.652C226.07 34.088 226.484 33.59 226.988 33.158C227.492 32.714 228.032 32.372 228.608 32.132C229.184 31.88 229.736 31.754 230.264 31.754C230.648 31.754 230.936 31.826 231.128 31.97C231.32 32.102 231.416 32.258 231.416 32.438C231.416 32.582 231.374 32.696 231.29 32.78C231.206 32.864 231.152 32.912 231.128 32.924C231.008 32.792 230.882 32.708 230.75 32.672C230.63 32.624 230.486 32.6 230.318 32.6C229.85 32.6 229.4 32.732 228.968 32.996C228.536 33.26 228.152 33.602 227.816 34.022C227.492 34.43 227.234 34.856 227.042 35.3C226.85 35.744 226.754 36.146 226.754 36.506C226.754 36.746 226.808 36.932 226.916 37.064C227.024 37.184 227.156 37.244 227.312 37.244C227.648 37.244 228.056 37.028 228.536 36.596C229.016 36.152 229.478 35.618 229.922 34.994C229.946 34.898 229.964 34.814 229.976 34.742C230 34.658 230.018 34.58 230.03 34.508C230.15 34.028 230.294 33.674 230.462 33.446C230.63 33.218 230.864 33.104 231.164 33.104C231.224 33.104 231.296 33.11 231.38 33.122C231.476 33.134 231.578 33.152 231.686 33.176C231.686 33.392 231.626 33.746 231.506 34.238C231.386 34.73 231.224 35.306 231.02 35.966C230.816 36.614 230.588 37.28 230.336 37.964C230.708 37.808 231.086 37.592 231.47 37.316C231.854 37.028 232.208 36.686 232.532 36.29C232.856 35.882 233.102 35.432 233.27 34.94L233.594 35.264C233.402 35.816 233.102 36.32 232.694 36.776C232.298 37.232 231.866 37.628 231.398 37.964C230.93 38.288 230.498 38.54 230.102 38.72C229.778 39.512 229.424 40.232 229.04 40.88C228.668 41.54 228.266 42.062 227.834 42.446C227.414 42.842 226.958 43.04 226.466 43.04ZM226.394 42.212C226.61 42.212 226.904 42.008 227.276 41.6C227.66 41.192 228.074 40.502 228.518 39.53C228.074 39.746 227.666 39.968 227.294 40.196C226.922 40.424 226.622 40.664 226.394 40.916C226.166 41.168 226.052 41.432 226.052 41.708C226.052 41.864 226.082 41.984 226.142 42.068C226.214 42.164 226.298 42.212 226.394 42.212ZM234.374 38.54C233.81 38.54 233.414 38.354 233.186 37.982C232.97 37.598 232.862 37.148 232.862 36.632C232.862 36.044 232.97 35.354 233.186 34.562C233.402 33.77 233.684 32.942 234.032 32.078C234.392 31.202 234.782 30.35 235.202 29.522C235.634 28.682 236.066 27.926 236.498 27.254C236.93 26.582 237.326 26.048 237.686 25.652C238.058 25.244 238.358 25.04 238.586 25.04C238.742 25.04 238.874 25.124 238.982 25.292C239.09 25.448 239.174 25.64 239.234 25.868C239.306 26.084 239.342 26.288 239.342 26.48C239.342 26.804 239.258 27.23 239.09 27.758C238.934 28.274 238.706 28.844 238.406 29.468C238.118 30.092 237.77 30.734 237.362 31.394C236.966 32.042 236.522 32.66 236.03 33.248C235.55 33.836 235.034 34.346 234.482 34.778C234.434 35.078 234.386 35.378 234.338 35.678C234.302 35.966 234.284 36.23 234.284 36.47C234.284 36.902 234.356 37.22 234.5 37.424C234.644 37.616 234.83 37.712 235.058 37.712C235.358 37.712 235.664 37.574 235.976 37.298C236.3 37.01 236.606 36.65 236.894 36.218C237.194 35.774 237.452 35.318 237.668 34.85L238.1 35.084C237.584 36.152 237.008 36.998 236.372 37.622C235.736 38.234 235.07 38.54 234.374 38.54ZM234.806 33.662C235.214 33.218 235.598 32.738 235.958 32.222C236.33 31.694 236.666 31.16 236.966 30.62C237.278 30.08 237.548 29.558 237.776 29.054C238.004 28.55 238.178 28.1 238.298 27.704C238.43 27.296 238.502 26.972 238.514 26.732C238.514 26.72 238.514 26.714 238.514 26.714C238.514 26.702 238.514 26.69 238.514 26.678C238.418 26.678 238.262 26.816 238.046 27.092C237.842 27.356 237.596 27.722 237.308 28.19C237.02 28.658 236.72 29.192 236.408 29.792C236.108 30.392 235.814 31.028 235.526 31.7C235.25 32.36 235.01 33.014 234.806 33.662ZM238.678 38.54C238.15 38.54 237.754 38.384 237.49 38.072C237.226 37.76 237.094 37.382 237.094 36.938C237.094 36.662 237.142 36.314 237.238 35.894C237.334 35.474 237.466 35.036 237.634 34.58C237.814 34.112 238.018 33.674 238.246 33.266C238.474 32.858 238.72 32.528 238.984 32.276C239.248 32.012 239.512 31.88 239.776 31.88C239.92 31.88 240.046 31.928 240.154 32.024C240.262 32.108 240.316 32.234 240.316 32.402C240.316 32.558 240.22 32.792 240.028 33.104C239.848 33.416 239.632 33.776 239.38 34.184C239.14 34.592 238.924 35.018 238.732 35.462C238.552 35.894 238.462 36.308 238.462 36.704C238.462 37.088 238.528 37.346 238.66 37.478C238.804 37.598 239.008 37.658 239.272 37.658C239.68 37.658 240.124 37.454 240.604 37.046C241.084 36.638 241.582 35.924 242.098 34.904L242.368 35.192C241.948 36.248 241.414 37.07 240.766 37.658C240.118 38.246 239.422 38.54 238.678 38.54ZM240.802 30.422C240.574 30.422 240.364 30.368 240.172 30.26C239.992 30.14 239.902 29.96 239.902 29.72C239.902 29.432 240.058 29.186 240.37 28.982C240.682 28.778 241.006 28.676 241.342 28.676C241.558 28.676 241.738 28.724 241.882 28.82C242.038 28.916 242.116 29.09 242.116 29.342C242.116 29.594 241.978 29.84 241.702 30.08C241.426 30.308 241.126 30.422 240.802 30.422Z" fill="black"/>
</svg>
