<svg width="317" height="447" viewBox="0 0 317 447" fill="none" xmlns="http://www.w3.org/2000/svg">
<path d="M300.916 56.4829C299.462 55.4145 296.958 54.3887 293.485 53.4251C290.027 52.4655 285.657 51.5806 280.513 50.7701C270.224 49.1494 256.872 47.8323 241.577 46.8054C210.991 44.7517 172.676 43.8612 135.652 44.0174C98.6276 44.1737 62.9078 45.3766 37.5122 47.5079C24.8085 48.574 14.7129 49.8706 8.33242 51.3781C5.12353 52.1362 2.92819 52.932 1.8012 53.735C1.2355 54.1381 1.03463 54.4753 1.0043 54.7253C0.976588 54.9539 1.07431 55.2772 1.54947 55.7104C2.16467 56.2714 2.6969 57.1906 3.17236 58.3763C3.65237 59.5734 4.09405 61.093 4.50189 62.9043C5.31775 66.5277 6.00912 71.3686 6.591 77.2386C7.75503 88.9816 8.48581 104.897 8.88433 123.546C9.68145 160.846 9.14999 209.12 8.08746 256.904C7.02487 304.688 5.43103 351.988 4.10284 387.341C3.43875 405.018 2.84106 419.708 2.40942 429.979C2.19357 435.115 2.01925 439.145 1.89886 441.892C1.83868 443.266 1.79199 444.318 1.76034 445.028L1.73693 445.55L2.00158 445.535C2.54052 445.506 3.34042 445.462 4.38433 445.405C6.47223 445.292 9.53631 445.128 13.4415 444.924C21.2519 444.518 32.4266 443.956 45.8847 443.331C72.8006 442.081 108.851 440.58 145.386 439.58C181.92 438.58 218.946 438.08 247.811 438.83C262.242 439.205 274.645 439.893 283.93 440.99C288.572 441.538 292.448 442.189 295.415 442.959C296.898 443.344 298.164 443.762 299.19 444.215C300.211 444.666 301.023 445.166 301.572 445.732C301.772 445.939 301.932 446.023 302.048 446.05C302.15 446.074 302.26 446.064 302.4 445.985C302.724 445.802 303.132 445.296 303.582 444.324C304.465 442.419 305.336 439.117 306.176 434.564C307.852 425.477 309.378 411.585 310.698 394.386C313.338 359.994 315.15 312.443 315.712 263.824C316.275 215.206 315.587 165.531 313.229 126.892C312.05 107.57 310.453 91.02 308.389 78.7449C307.357 72.6059 306.21 67.5515 304.946 63.7601C304.314 61.8644 303.656 60.2962 302.975 59.0706C302.291 57.84 301.6 56.9854 300.916 56.4829Z" fill="white" stroke="black"/>
<path d="M34.6767 90.58L276.676 86.5298" stroke="black"/>
<path d="M34.6767 119.63L276.676 115.58" stroke="black"/>
<path d="M34.6767 177.63L276.676 173.58" stroke="black"/>
<path d="M34.6767 206.63L276.676 202.58" stroke="black"/>
<path d="M34.6767 148.63L276.676 144.58" stroke="black"/>
<path d="M34.6767 235.63L276.676 231.58" stroke="black"/>
<path d="M34.6767 264.68L276.676 260.63" stroke="black"/>
<path d="M34.6767 293.68L276.676 289.63" stroke="black"/>
<path d="M61.9811 82.6459C62.0531 82.2139 62.1311 81.7759 62.2151 81.3319C62.3111 80.8879 62.4251 80.3959 62.5571 79.8559C62.7011 79.3159 62.8751 78.6979 63.0791 78.0019C63.2951 77.3059 63.5531 76.4959 63.8531 75.5719C63.6731 75.5839 63.4751 75.6019 63.2591 75.6259C63.0551 75.6499 62.8631 75.6679 62.6831 75.6799C62.6831 75.2959 62.8271 75.0019 63.1151 74.7979C63.4031 74.5939 63.7811 74.4439 64.2491 74.3479C64.2971 74.1799 64.3391 74.0479 64.3751 73.9519C64.4111 73.8559 64.4531 73.7359 64.5011 73.5919C64.5491 73.4479 64.6211 73.2499 64.7171 72.9979C64.8131 72.7339 64.9391 72.3619 65.0951 71.8819C65.2631 71.4019 65.4791 70.7719 65.7431 69.9919C65.7671 69.9319 65.8091 69.8119 65.8691 69.6319C65.9291 69.4519 65.9591 69.2839 65.9591 69.1279C65.9591 69.0319 65.9411 68.9659 65.9051 68.9299C65.8811 68.8939 65.8211 68.8759 65.7251 68.8759C65.4851 68.8759 65.2391 68.9839 64.9871 69.1999C64.7471 69.4159 64.5251 69.6919 64.3211 70.0279C64.1171 70.3519 63.9551 70.6939 63.8351 71.0539C63.7151 71.4019 63.6551 71.7139 63.6551 71.9899C63.6551 72.0859 63.6671 72.1939 63.6911 72.3139C63.7151 72.4339 63.7631 72.5959 63.8351 72.7999C63.3311 72.7999 62.9651 72.6919 62.7371 72.4759C62.5211 72.2479 62.4131 71.9599 62.4131 71.6119C62.4131 71.2039 62.5331 70.7959 62.7731 70.3879C63.0251 69.9799 63.3431 69.6079 63.7271 69.2719C64.1231 68.9239 64.5371 68.6479 64.9691 68.4439C65.4131 68.2279 65.8211 68.1199 66.1931 68.1199C66.5771 68.1199 66.8411 68.2219 66.9851 68.4259C67.1291 68.6299 67.2011 68.8579 67.2011 69.1099C67.2011 69.2419 67.1831 69.3739 67.1471 69.5059C67.1231 69.6379 67.0931 69.7639 67.0571 69.8839L65.7431 74.2039C65.8871 74.1919 66.0311 74.1859 66.1751 74.1859C66.3311 74.1859 66.4871 74.1859 66.6431 74.1859C67.2311 74.1859 67.7831 74.1979 68.2991 74.2219C68.8151 74.2459 69.3131 74.2819 69.7931 74.3299C70.0931 73.3219 70.3451 72.4939 70.5491 71.8459C70.7651 71.1979 70.9511 70.6639 71.1071 70.2439C71.2751 69.8119 71.4251 69.4339 71.5571 69.1099C71.6051 69.0139 71.6711 68.8879 71.7551 68.7319C71.8511 68.5639 71.9831 68.4199 72.1511 68.2999C72.3311 68.1679 72.5651 68.1019 72.8531 68.1019C72.6971 68.5219 72.5051 69.0799 72.2771 69.7759C72.0611 70.4599 71.8391 71.2099 71.6111 72.0259C71.3831 72.8299 71.1671 73.6279 70.9631 74.4199C71.1311 74.4199 71.3651 74.4319 71.6651 74.4559C71.9771 74.4679 72.2651 74.4739 72.5291 74.4739C72.1571 74.8459 71.8271 75.0799 71.5391 75.1759C71.2511 75.2599 70.9871 75.3019 70.7471 75.3019C70.6151 75.8539 70.4951 76.3819 70.3871 76.8859C70.2791 77.3899 70.1891 77.8579 70.1171 78.2899C69.9731 79.0579 69.8651 79.7299 69.7931 80.3059C69.7331 80.8699 69.7031 81.3319 69.7031 81.6919C69.7031 81.8839 69.7091 82.0519 69.7211 82.1959C69.7451 82.3519 69.7691 82.5019 69.7931 82.6459C69.1811 82.5859 68.7611 82.4359 68.5331 82.1959C68.3171 81.9679 68.2091 81.5599 68.2091 80.9719C68.2091 80.6959 68.2271 80.3899 68.2631 80.0539C68.3111 79.7179 68.3891 79.3219 68.4971 78.8659C68.5931 78.4219 68.7251 77.9119 68.8931 77.3359C69.0611 76.7599 69.2651 76.0879 69.5051 75.3199C68.7731 75.3199 68.1671 75.3259 67.6871 75.3379C67.2071 75.3499 66.7871 75.3619 66.4271 75.3739C66.0671 75.3859 65.7071 75.4099 65.3471 75.4459C65.3351 75.4939 65.3051 75.5959 65.2571 75.7519C65.2091 75.9079 65.1251 76.1839 65.0051 76.5799C64.8851 76.9759 64.7051 77.5579 64.4651 78.3259C64.2251 79.0939 63.9011 80.1259 63.4931 81.4219C63.3611 81.8659 63.1331 82.1779 62.8091 82.3579C62.4851 82.5499 62.2091 82.6459 61.9811 82.6459ZM73.2244 81.9259C72.8284 81.9259 72.4864 81.7939 72.1983 81.5299C71.8983 81.2659 71.7483 80.8699 71.7483 80.3419C71.7483 79.9219 71.8443 79.4659 72.0363 78.9739C72.2283 78.4819 72.4924 77.9959 72.8284 77.5159C73.1644 77.0359 73.5484 76.6039 73.9804 76.2199C74.4124 75.8239 74.8744 75.5059 75.3664 75.2659C75.8584 75.0259 76.3504 74.9059 76.8423 74.9059C77.3584 74.9059 77.7964 75.0379 78.1564 75.3019C78.5164 75.5659 78.6964 75.9139 78.6964 76.3459C78.6964 76.6699 78.5824 76.9039 78.3544 77.0479C78.1264 77.1919 77.8564 77.2339 77.5444 77.1739C77.5684 77.0659 77.5864 76.9579 77.5984 76.8499C77.6224 76.7419 77.6344 76.6279 77.6344 76.5079C77.6344 76.2679 77.5864 76.0519 77.4904 75.8599C77.3944 75.6679 77.1904 75.5719 76.8784 75.5719C76.5424 75.5719 76.2004 75.6859 75.8524 75.9139C75.5044 76.1419 75.1684 76.4419 74.8444 76.8139C74.5324 77.1739 74.2504 77.5759 73.9984 78.0199C73.7464 78.4519 73.5484 78.8779 73.4043 79.2979C73.2604 79.7179 73.1884 80.0959 73.1884 80.4319C73.1884 80.8159 73.3264 81.0079 73.6024 81.0079C73.8784 81.0079 74.1844 80.8759 74.5204 80.6119C74.8564 80.3359 75.1924 79.9939 75.5284 79.5859C75.8764 79.1779 76.2064 78.7639 76.5184 78.3439C76.8304 77.9119 77.1004 77.5459 77.3284 77.2459C77.3644 77.1859 77.4124 77.1559 77.4724 77.1559C77.5204 77.1679 77.6104 77.1979 77.7424 77.2459C77.8864 77.2819 78.0184 77.3419 78.1384 77.4259C78.2584 77.5099 78.3184 77.6179 78.3184 77.7499C78.3184 77.8699 78.2644 78.0259 78.1564 78.2179C78.0604 78.3979 77.9404 78.6019 77.7964 78.8299C77.6644 79.0459 77.5444 79.2679 77.4364 79.4959C77.3404 79.7119 77.2924 79.9219 77.2924 80.1259C77.2924 80.2819 77.3344 80.4319 77.4184 80.5759C77.5024 80.7079 77.6404 80.7739 77.8324 80.7739C78.1204 80.7739 78.5224 80.5639 79.0384 80.1439C79.5664 79.7119 80.1004 78.9859 80.6404 77.9659L80.9824 78.3079C80.6944 78.9559 80.3464 79.5319 79.9384 80.0359C79.5424 80.5279 79.1224 80.9119 78.6784 81.1879C78.2344 81.4759 77.7844 81.6199 77.3284 81.6199C76.8364 81.6199 76.4704 81.4639 76.2304 81.1519C75.9904 80.8399 75.8584 80.5039 75.8344 80.1439C75.8344 80.1199 75.8344 80.1019 75.8344 80.0899C75.8344 80.0779 75.8344 80.0659 75.8344 80.0539C75.3544 80.6299 74.9104 81.0859 74.5024 81.4219C74.1064 81.7579 73.6804 81.9259 73.2244 81.9259ZM79.2064 86.1199C79.1104 86.1199 79.0084 86.0899 78.9004 86.0299C78.7924 85.9819 78.7024 85.9219 78.6304 85.8499C78.5464 85.7779 78.4984 85.7179 78.4864 85.6699C78.7864 84.7939 79.0444 84.0319 79.2604 83.3839C79.4644 82.7479 79.6384 82.1419 79.7824 81.5659C79.9264 81.0019 80.0584 80.4139 80.1784 79.8019C80.2864 79.1779 80.3944 78.4699 80.5024 77.6779C80.6224 76.8739 80.7544 75.9079 80.8984 74.7799C80.9224 74.6359 80.9524 74.5339 80.9884 74.4739C81.0244 74.4019 81.1384 74.3659 81.3304 74.3659C81.7024 74.3659 81.9724 74.4679 82.1404 74.6719C82.3084 74.8639 82.3924 75.0799 82.3924 75.3199C82.3924 75.4399 82.3684 75.6499 82.3204 75.9499C82.2844 76.2499 82.2244 76.6039 82.1404 77.0119C82.3684 76.6639 82.6264 76.3339 82.9144 76.0219C83.2144 75.7099 83.5444 75.4579 83.9044 75.2659C84.2644 75.0619 84.6544 74.9599 85.0744 74.9599C85.6624 74.9599 86.1484 75.1579 86.5324 75.5539C86.9164 75.9499 87.1084 76.4719 87.1084 77.1199C87.1084 77.5879 87.0004 78.0859 86.7844 78.6139C86.5804 79.1299 86.2864 79.6219 85.9024 80.0899C85.5184 80.5459 85.0564 80.9179 84.5164 81.2059C83.9764 81.5059 83.3824 81.6559 82.7344 81.6559C82.3504 81.6559 82.0444 81.6079 81.8164 81.5119C81.5884 81.4159 81.4744 81.3079 81.4744 81.1879C81.4744 81.1039 81.5164 81.0559 81.6004 81.0439C81.6964 81.0199 81.7984 81.0079 81.9064 81.0079C82.4704 80.9959 82.9804 80.8759 83.4364 80.6479C83.9044 80.4199 84.3064 80.1259 84.6424 79.7659C84.9784 79.3939 85.2364 78.9979 85.4164 78.5779C85.5964 78.1579 85.6864 77.7439 85.6864 77.3359C85.6864 76.9759 85.6024 76.6639 85.4344 76.3999C85.2784 76.1359 85.0264 76.0039 84.6784 76.0039C84.3784 76.0039 84.0724 76.0999 83.7604 76.2919C83.4604 76.4839 83.1784 76.7299 82.9144 77.0299C82.6504 77.3179 82.4164 77.6239 82.2124 77.9479C82.0084 78.2599 81.8524 78.5359 81.7444 78.7759C81.5164 79.5679 81.3064 80.3539 81.1144 81.1339C80.9344 81.9259 80.7604 82.6579 80.5924 83.3299C80.4244 84.0019 80.2564 84.5719 80.0884 85.0399C79.9084 85.5079 79.7164 85.8259 79.5124 85.9939C79.4164 86.0779 79.3144 86.1199 79.2064 86.1199ZM86.6419 86.1199C86.5459 86.1199 86.4439 86.0899 86.3359 86.0299C86.2279 85.9819 86.1379 85.9219 86.0659 85.8499C85.9819 85.7779 85.9339 85.7179 85.9219 85.6699C86.2219 84.7939 86.4799 84.0319 86.6959 83.3839C86.8999 82.7479 87.0739 82.1419 87.2179 81.5659C87.3619 81.0019 87.4939 80.4139 87.6139 79.8019C87.7219 79.1779 87.8299 78.4699 87.9379 77.6779C88.0579 76.8739 88.1899 75.9079 88.3339 74.7799C88.3579 74.6359 88.3879 74.5339 88.4239 74.4739C88.4599 74.4019 88.5739 74.3659 88.7659 74.3659C89.1379 74.3659 89.4079 74.4679 89.5759 74.6719C89.7439 74.8639 89.8279 75.0799 89.8279 75.3199C89.8279 75.4399 89.8039 75.6499 89.7559 75.9499C89.7199 76.2499 89.6599 76.6039 89.5759 77.0119C89.8039 76.6639 90.0619 76.3339 90.3499 76.0219C90.6499 75.7099 90.9799 75.4579 91.3399 75.2659C91.6999 75.0619 92.0899 74.9599 92.5099 74.9599C93.0979 74.9599 93.5839 75.1579 93.9679 75.5539C94.3519 75.9499 94.5439 76.4719 94.5439 77.1199C94.5439 77.5879 94.4359 78.0859 94.2199 78.6139C94.0159 79.1299 93.7219 79.6219 93.3379 80.0899C92.9539 80.5459 92.4919 80.9179 91.9519 81.2059C91.4119 81.5059 90.8179 81.6559 90.1699 81.6559C89.7859 81.6559 89.4799 81.6079 89.2519 81.5119C89.0239 81.4159 88.9099 81.3079 88.9099 81.1879C88.9099 81.1039 88.9519 81.0559 89.0359 81.0439C89.1319 81.0199 89.2339 81.0079 89.3419 81.0079C89.9059 80.9959 90.4159 80.8759 90.8719 80.6479C91.3399 80.4199 91.7419 80.1259 92.0779 79.7659C92.4139 79.3939 92.6719 78.9979 92.8519 78.5779C93.0319 78.1579 93.1219 77.7439 93.1219 77.3359C93.1219 76.9759 93.0379 76.6639 92.8699 76.3999C92.7139 76.1359 92.4619 76.0039 92.1139 76.0039C91.8139 76.0039 91.5079 76.0999 91.1959 76.2919C90.8959 76.4839 90.6139 76.7299 90.3499 77.0299C90.0859 77.3179 89.8519 77.6239 89.6479 77.9479C89.4439 78.2599 89.2879 78.5359 89.1799 78.7759C88.9519 79.5679 88.7419 80.3539 88.5499 81.1339C88.3699 81.9259 88.1959 82.6579 88.0279 83.3299C87.8599 84.0019 87.6919 84.5719 87.5239 85.0399C87.3439 85.5079 87.1519 85.8259 86.9479 85.9939C86.8519 86.0779 86.7499 86.1199 86.6419 86.1199ZM95.9495 86.1199C95.6495 86.1199 95.3675 86.0239 95.1035 85.8319C94.8515 85.6519 94.7255 85.3579 94.7255 84.9499C94.7255 84.5659 94.8395 84.2179 95.0675 83.9059C95.2955 83.6059 95.5895 83.3239 95.9495 83.0599C96.3095 82.8079 96.6935 82.5739 97.1015 82.3579C97.5215 82.1539 97.9235 81.9619 98.3075 81.7819C98.4395 81.4339 98.5835 80.9959 98.7395 80.4679C98.9075 79.9279 99.0515 79.4299 99.1715 78.9739C98.7995 79.4899 98.4035 79.9459 97.9835 80.3419C97.5635 80.7379 97.0955 80.9359 96.5795 80.9359C96.3635 80.9359 96.1355 80.8939 95.8955 80.8099C95.6555 80.7139 95.4515 80.5579 95.2835 80.3419C95.1275 80.1139 95.0495 79.8139 95.0495 79.4419C95.0495 79.1299 95.1035 78.7519 95.2115 78.3079C95.3315 77.8639 95.4755 77.4319 95.6435 77.0119C95.8235 76.5799 96.0095 76.2259 96.2015 75.9499C96.3935 75.6619 96.5615 75.5179 96.7055 75.5179C96.7775 75.5179 96.8795 75.5479 97.0115 75.6079C97.1555 75.6559 97.2935 75.7279 97.4255 75.8239C97.5575 75.9079 97.6415 76.0039 97.6775 76.1119C97.5695 76.2559 97.4495 76.4659 97.3175 76.7419C97.1855 77.0059 97.0595 77.3059 96.9395 77.6419C96.8195 77.9659 96.7175 78.2839 96.6335 78.5959C96.5615 78.9079 96.5255 79.1779 96.5255 79.4059C96.5255 79.5859 96.5615 79.7419 96.6335 79.8739C96.7055 80.0059 96.8435 80.0719 97.0475 80.0719C97.3115 80.0719 97.5815 79.9639 97.8575 79.7479C98.1455 79.5319 98.4215 79.2559 98.6855 78.9199C98.9615 78.5839 99.2075 78.2419 99.4235 77.8939C99.4475 77.8099 99.4715 77.6779 99.4955 77.4979C99.5195 77.3179 99.5615 77.1319 99.6215 76.9399C99.6815 76.7359 99.7831 76.5499 99.9271 76.3819C100.083 76.2139 100.299 76.1299 100.575 76.1299C100.671 76.1299 100.761 76.1359 100.845 76.1479C100.929 76.1599 101.031 76.1779 101.151 76.2019C101.151 76.3819 101.085 76.7359 100.953 77.2639C100.833 77.7799 100.671 78.3799 100.467 79.0639C100.263 79.7479 100.035 80.4319 99.7831 81.1159C100.287 80.9119 100.809 80.5759 101.349 80.1079C101.901 79.6279 102.345 78.9499 102.681 78.0739L102.987 78.3259C102.807 78.9259 102.531 79.4479 102.159 79.8919C101.799 80.3359 101.391 80.7139 100.935 81.0259C100.479 81.3379 100.017 81.5959 99.5495 81.7999C99.2255 82.5799 98.8715 83.2999 98.4875 83.9599C98.1155 84.6199 97.7195 85.1419 97.2995 85.5259C96.8795 85.9219 96.4295 86.1199 95.9495 86.1199ZM95.7695 85.4539C95.9975 85.4539 96.3155 85.2139 96.7235 84.7339C97.1315 84.2539 97.5455 83.5339 97.9655 82.5739C97.5815 82.7659 97.1915 82.9879 96.7955 83.2399C96.4115 83.5039 96.0875 83.7799 95.8235 84.0679C95.5595 84.3559 95.4275 84.6499 95.4275 84.9499C95.4275 85.0699 95.4515 85.1839 95.4995 85.2919C95.5595 85.3999 95.6495 85.4539 95.7695 85.4539ZM109.938 82.6459C109.206 82.6459 108.654 82.5259 108.282 82.2859C107.91 82.0459 107.718 81.6499 107.706 81.0979C107.706 80.9779 107.772 80.9179 107.904 80.9179C108.012 80.9179 108.174 80.9479 108.39 81.0079C108.618 81.0559 109.044 81.0799 109.668 81.0799C110.724 81.0799 111.696 80.9719 112.584 80.7559C113.472 80.5279 114.24 80.2279 114.888 79.8559C115.548 79.4719 116.058 79.0459 116.418 78.5779C116.778 78.0979 116.958 77.5999 116.958 77.0839C116.958 76.6159 116.814 76.2439 116.526 75.9679C116.25 75.6799 115.878 75.4639 115.41 75.3199C114.954 75.1639 114.45 75.0619 113.898 75.0139C113.358 74.9659 112.824 74.9419 112.296 74.9419C112.068 74.9419 111.84 74.9479 111.612 74.9599C111.384 74.9599 111.168 74.9599 110.964 74.9599C110.7 75.8719 110.442 76.8139 110.19 77.7859C109.938 78.7579 109.674 79.7119 109.398 80.6479C109.038 80.6479 108.726 80.5519 108.462 80.3599C108.198 80.1679 108.066 79.9339 108.066 79.6579C108.066 79.5499 108.084 79.4119 108.12 79.2439C108.168 79.0639 108.234 78.8539 108.318 78.6139C108.39 78.3859 108.51 78.0079 108.678 77.4799C108.858 76.9519 109.068 76.3279 109.308 75.6079C109.548 74.8879 109.812 74.1319 110.1 73.3399C110.4 72.5359 110.706 71.7499 111.018 70.9819C111.342 70.2139 111.66 69.5239 111.972 68.9119C111.492 69.0199 111.096 69.1459 110.784 69.2899C110.472 69.4339 110.226 69.5599 110.046 69.6679C109.866 69.7759 109.728 69.8299 109.632 69.8299C109.56 69.8299 109.464 69.7879 109.344 69.7039C109.236 69.6199 109.134 69.5239 109.038 69.4159C108.954 69.3079 108.912 69.2119 108.912 69.1279C109.56 68.8639 110.232 68.6299 110.928 68.4259C111.624 68.2219 112.464 68.1199 113.448 68.1199C113.88 68.1199 114.354 68.1559 114.87 68.2279C115.386 68.2879 115.878 68.4199 116.346 68.6239C116.814 68.8159 117.198 69.1099 117.498 69.5059C117.81 69.8899 117.966 70.4059 117.966 71.0539C117.966 71.5699 117.852 72.0199 117.624 72.4039C117.408 72.7759 117.114 73.0999 116.742 73.3759C116.37 73.6399 115.962 73.8619 115.518 74.0419C115.074 74.2099 114.636 74.3479 114.204 74.4559C114.948 74.5519 115.566 74.7079 116.058 74.9239C116.562 75.1279 116.958 75.3679 117.246 75.6439C117.546 75.9199 117.756 76.2079 117.876 76.5079C118.008 76.7959 118.074 77.0779 118.074 77.3539C118.074 78.0619 117.888 78.6979 117.516 79.2619C117.144 79.8259 116.652 80.3179 116.04 80.7379C115.44 81.1579 114.774 81.5059 114.042 81.7819C113.322 82.0699 112.602 82.2859 111.882 82.4299C111.162 82.5739 110.514 82.6459 109.938 82.6459ZM111.144 74.2759C111.816 74.2519 112.476 74.1739 113.124 74.0419C113.772 73.9099 114.354 73.7179 114.87 73.4659C115.398 73.2019 115.818 72.8659 116.13 72.4579C116.442 72.0379 116.598 71.5219 116.598 70.9099C116.598 70.3339 116.442 69.8899 116.13 69.5779C115.818 69.2659 115.41 69.0499 114.906 68.9299C114.402 68.8099 113.862 68.7499 113.286 68.7499C113.274 68.7499 113.262 68.7499 113.25 68.7499C113.238 68.7499 113.226 68.7499 113.214 68.7499C112.806 69.5539 112.434 70.4299 112.098 71.3779C111.762 72.3139 111.444 73.2799 111.144 74.2759ZM120.115 81.6199C119.587 81.6199 119.191 81.4639 118.927 81.1519C118.663 80.8399 118.531 80.4619 118.531 80.0179C118.531 79.7419 118.579 79.3939 118.675 78.9739C118.771 78.5539 118.903 78.1159 119.071 77.6599C119.251 77.1919 119.455 76.7539 119.683 76.3459C119.911 75.9379 120.157 75.6079 120.421 75.3559C120.685 75.0919 120.949 74.9599 121.213 74.9599C121.357 74.9599 121.483 75.0079 121.591 75.1039C121.699 75.1879 121.753 75.3139 121.753 75.4819C121.753 75.6379 121.657 75.8719 121.465 76.1839C121.285 76.4959 121.069 76.8559 120.817 77.2639C120.577 77.6719 120.361 78.0979 120.169 78.5419C119.989 78.9739 119.899 79.3879 119.899 79.7839C119.899 80.1679 119.965 80.4259 120.097 80.5579C120.241 80.6779 120.445 80.7379 120.709 80.7379C121.117 80.7379 121.561 80.5339 122.041 80.1259C122.521 79.7179 123.019 79.0039 123.535 77.9839L123.805 78.2719C123.385 79.3279 122.851 80.1499 122.203 80.7379C121.555 81.3259 120.859 81.6199 120.115 81.6199ZM122.239 73.5019C122.011 73.5019 121.801 73.4479 121.609 73.3399C121.429 73.2199 121.339 73.0399 121.339 72.7999C121.339 72.5119 121.495 72.2659 121.807 72.0619C122.119 71.8579 122.443 71.7559 122.779 71.7559C122.995 71.7559 123.175 71.8039 123.319 71.8999C123.475 71.9959 123.553 72.1699 123.553 72.4219C123.553 72.6739 123.415 72.9199 123.139 73.1599C122.863 73.3879 122.563 73.5019 122.239 73.5019ZM126.4 81.5479C125.956 81.5479 125.596 81.4279 125.32 81.1879C125.044 80.9599 124.906 80.6479 124.906 80.2519C124.906 79.9159 124.99 79.5559 125.158 79.1719C125.326 78.7879 125.494 78.4099 125.662 78.0379C125.842 77.6659 125.932 77.3359 125.932 77.0479C125.932 76.7719 125.842 76.5439 125.662 76.3639C125.482 76.1719 125.272 76.0159 125.032 75.8959C124.768 76.5559 124.468 77.1979 124.132 77.8219C123.808 78.4339 123.544 78.9139 123.34 79.2619L123.07 78.7399C123.238 78.4279 123.46 77.9839 123.736 77.4079C124.012 76.8319 124.276 76.1899 124.528 75.4819C124.408 75.3619 124.348 75.1999 124.348 74.9959C124.348 74.6839 124.444 74.3899 124.636 74.1139C124.828 73.8379 125.014 73.6999 125.194 73.6999C125.338 73.6999 125.44 73.7839 125.5 73.9519C125.572 74.1079 125.608 74.2159 125.608 74.2759C125.608 74.3359 125.578 74.4439 125.518 74.5999C125.47 74.7559 125.434 74.8699 125.41 74.9419C125.422 75.0739 125.524 75.2059 125.716 75.3379C125.92 75.4579 126.148 75.6019 126.4 75.7699C126.652 75.9379 126.874 76.1479 127.066 76.3999C127.258 76.6519 127.354 76.9699 127.354 77.3539C127.354 77.7019 127.276 78.0559 127.12 78.4159C126.964 78.7759 126.808 79.1119 126.652 79.4239C126.496 79.7359 126.418 80.0059 126.418 80.2339C126.418 80.4019 126.46 80.5159 126.544 80.5759C126.64 80.6239 126.748 80.6479 126.868 80.6479C127.156 80.6479 127.456 80.5639 127.768 80.3959C128.08 80.2159 128.386 79.9879 128.686 79.7119C128.986 79.4359 129.25 79.1479 129.478 78.8479C129.706 78.5359 129.88 78.2539 130 78.0019L130.432 78.3259C130.204 78.8419 129.874 79.3519 129.442 79.8559C129.01 80.3479 128.53 80.7559 128.002 81.0799C127.474 81.3919 126.94 81.5479 126.4 81.5479ZM131.319 81.9079C130.755 81.9079 130.305 81.7519 129.969 81.4399C129.645 81.1279 129.483 80.6599 129.483 80.0359C129.483 79.6879 129.531 79.2739 129.627 78.7939C129.723 78.3139 129.849 77.8039 130.005 77.2639C130.173 76.7119 130.353 76.1719 130.545 75.6439C130.437 75.6079 130.335 75.5779 130.239 75.5539C130.155 75.5179 130.041 75.4699 129.897 75.4099V74.8519C130.113 74.8879 130.275 74.9239 130.383 74.9599C130.491 74.9839 130.623 75.0079 130.779 75.0319C131.115 74.1799 131.475 73.3939 131.859 72.6739C132.243 71.9539 132.615 71.3779 132.975 70.9459C133.335 70.5139 133.647 70.2979 133.911 70.2979C134.043 70.2979 134.163 70.3459 134.271 70.4419C134.379 70.5379 134.433 70.6459 134.433 70.7659C134.433 70.9099 134.361 71.1439 134.217 71.4679C134.073 71.7919 133.887 72.1579 133.659 72.5659C133.443 72.9619 133.221 73.3579 132.993 73.7539C132.777 74.1499 132.579 74.4919 132.399 74.7799C132.231 75.0679 132.129 75.2539 132.093 75.3379C132.405 75.3859 132.693 75.4279 132.957 75.4639C133.221 75.4879 133.485 75.4999 133.749 75.4999C134.097 75.4999 134.457 75.4759 134.829 75.4279C135.201 75.3799 135.615 75.3139 136.071 75.2299C136.395 74.3659 136.755 73.5199 137.151 72.6919C137.547 71.8519 137.949 71.1019 138.357 70.4419C138.777 69.7699 139.173 69.2359 139.545 68.8399C139.929 68.4319 140.265 68.2279 140.553 68.2279C140.793 68.2279 140.979 68.3659 141.111 68.6419C141.243 68.9059 141.309 69.1939 141.309 69.5059C141.309 69.9019 141.207 70.3819 141.003 70.9459C140.799 71.5099 140.517 72.0919 140.157 72.6919C139.797 73.2919 139.371 73.8559 138.879 74.3839C138.399 74.9119 137.877 75.3379 137.313 75.6619C137.157 76.0219 137.013 76.4719 136.881 77.0119C136.761 77.5399 136.665 78.0559 136.593 78.5599C136.521 79.0639 136.485 79.4659 136.485 79.7659C136.773 79.0099 137.097 78.3139 137.457 77.6779C137.817 77.0419 138.219 76.5319 138.663 76.1479C139.119 75.7639 139.611 75.5719 140.139 75.5719C140.691 75.5719 141.093 75.7579 141.345 76.1299C141.597 76.4899 141.723 76.8859 141.723 77.3179C141.723 77.6659 141.657 78.0199 141.525 78.3799C141.405 78.7279 141.279 79.0639 141.147 79.3879C141.027 79.6999 140.967 79.9819 140.967 80.2339C140.967 80.4499 141.015 80.5999 141.111 80.6839C141.219 80.7679 141.333 80.8099 141.453 80.8099C141.717 80.8099 142.023 80.6779 142.371 80.4139C142.731 80.1379 143.079 79.7779 143.415 79.3339C143.763 78.8899 144.051 78.4159 144.279 77.9119L144.621 78.2359C144.357 78.8359 144.039 79.3879 143.667 79.8919C143.295 80.3959 142.881 80.7919 142.425 81.0799C141.981 81.3799 141.507 81.5299 141.003 81.5299C140.547 81.5299 140.193 81.4099 139.941 81.1699C139.701 80.9299 139.581 80.6299 139.581 80.2699C139.581 80.0179 139.623 79.7479 139.707 79.4599C139.803 79.1599 139.893 78.8539 139.977 78.5419C140.061 78.2299 140.103 77.9419 140.103 77.6779C140.103 77.4019 140.043 77.2039 139.923 77.0839C139.815 76.9639 139.665 76.9039 139.473 76.9039C139.185 76.9039 138.921 77.0239 138.681 77.2639C138.453 77.4919 138.243 77.7919 138.051 78.1639C137.859 78.5359 137.679 78.9319 137.511 79.3519C137.343 79.7599 137.175 80.1499 137.007 80.5219C136.851 80.8939 136.683 81.1939 136.503 81.4219C136.335 81.6619 136.149 81.7819 135.945 81.7819C135.765 81.7819 135.615 81.6919 135.495 81.5119C135.387 81.3319 135.297 81.1159 135.225 80.8639C135.153 80.6119 135.105 80.3659 135.081 80.1259C135.057 79.8739 135.045 79.6819 135.045 79.5499C134.565 80.2459 134.001 80.8099 133.353 81.2419C132.717 81.6859 132.039 81.9079 131.319 81.9079ZM131.841 81.0079C132.441 81.0079 133.041 80.7499 133.641 80.2339C134.253 79.7059 134.781 78.9859 135.225 78.0739C135.297 77.7139 135.375 77.3719 135.459 77.0479C135.543 76.7239 135.651 76.3699 135.783 75.9859C135.423 76.0579 135.075 76.1119 134.739 76.1479C134.403 76.1839 134.073 76.2019 133.749 76.2019C133.425 76.2019 133.101 76.1839 132.777 76.1479C132.453 76.1119 132.123 76.0639 131.787 76.0039C131.523 76.5919 131.307 77.1859 131.139 77.7859C130.971 78.3859 130.887 78.9979 130.887 79.6219C130.887 80.1139 130.953 80.4679 131.085 80.6839C131.229 80.8999 131.481 81.0079 131.841 81.0079ZM137.673 74.5279C138.021 74.2279 138.345 73.8919 138.645 73.5199C138.945 73.1479 139.209 72.7699 139.437 72.3859C139.677 71.9899 139.875 71.6179 140.031 71.2699C140.199 70.9099 140.313 70.5979 140.373 70.3339C140.409 70.1659 140.427 70.0339 140.427 69.9379C140.331 69.9619 140.175 70.0939 139.959 70.3339C139.755 70.5739 139.515 70.9039 139.239 71.3239C138.963 71.7319 138.687 72.2119 138.411 72.7639C138.135 73.3039 137.889 73.8919 137.673 74.5279ZM145.089 81.6199C144.861 81.6199 144.627 81.5599 144.387 81.4399C144.159 81.3319 143.967 81.1579 143.811 80.9179C143.643 80.6779 143.559 80.3719 143.559 79.9999C143.559 79.6039 143.655 79.1599 143.847 78.6679C144.039 78.1759 144.297 77.6839 144.621 77.1919C144.957 76.6999 145.341 76.2499 145.773 75.8419C146.217 75.4339 146.685 75.1039 147.177 74.8519C147.669 74.5999 148.167 74.4739 148.671 74.4739C148.947 74.4739 149.163 74.5219 149.319 74.6179C149.475 74.7019 149.553 74.8459 149.553 75.0499C149.553 75.1099 149.541 75.1819 149.517 75.2659C149.493 75.3379 149.433 75.4039 149.337 75.4639C149.289 75.3919 149.205 75.3439 149.085 75.3199C148.965 75.2839 148.839 75.2659 148.707 75.2659C148.311 75.2659 147.933 75.3799 147.573 75.6079C147.213 75.8239 146.883 76.1059 146.583 76.4539C146.283 76.8019 146.019 77.1799 145.791 77.5879C145.575 77.9959 145.407 78.3919 145.287 78.7759C145.167 79.1479 145.107 79.4719 145.107 79.7479C145.107 79.9759 145.155 80.1619 145.251 80.3059C145.347 80.4379 145.491 80.5039 145.683 80.5039C146.007 80.5039 146.391 80.3179 146.835 79.9459C147.291 79.5619 147.753 79.0159 148.221 78.3079C148.701 77.5879 149.133 76.7299 149.517 75.7339C149.781 75.0499 150.057 74.3539 150.345 73.6459C150.633 72.9259 150.921 72.2359 151.209 71.5759C151.497 70.9159 151.779 70.3279 152.055 69.8119C152.343 69.2959 152.613 68.8879 152.865 68.5879C153.129 68.2759 153.369 68.1199 153.585 68.1199C153.717 68.1199 153.831 68.1739 153.927 68.2819C154.035 68.3779 154.089 68.5039 154.089 68.6599C154.089 68.8639 153.987 69.1939 153.783 69.6499C153.591 70.0939 153.339 70.6279 153.027 71.2519C152.727 71.8759 152.397 72.5539 152.037 73.2859C151.689 74.0059 151.359 74.7499 151.047 75.5179C150.747 76.2739 150.495 77.0239 150.291 77.7679C150.099 78.4999 150.003 79.1899 150.003 79.8379C150.003 80.1259 150.027 80.3239 150.075 80.4319C150.135 80.5279 150.231 80.5759 150.363 80.5759C150.627 80.5759 150.921 80.4739 151.245 80.2699C151.569 80.0659 151.899 79.7659 152.235 79.3699C152.571 78.9619 152.877 78.4759 153.153 77.9119L153.495 78.1999C153.231 78.8599 152.895 79.4419 152.487 79.9459C152.079 80.4499 151.641 80.8399 151.173 81.1159C150.705 81.4039 150.243 81.5479 149.787 81.5479C149.295 81.5479 148.953 81.3919 148.761 81.0799C148.569 80.7679 148.473 80.4019 148.473 79.9819C148.473 79.7899 148.485 79.5979 148.509 79.4059C148.545 79.2019 148.581 79.0039 148.617 78.8119C148.245 79.3519 147.849 79.8379 147.429 80.2699C147.021 80.6899 146.619 81.0199 146.223 81.2599C145.827 81.4999 145.449 81.6199 145.089 81.6199ZM153.697 81.9259C153.301 81.9259 152.959 81.7939 152.671 81.5299C152.371 81.2659 152.221 80.8699 152.221 80.3419C152.221 79.9219 152.317 79.4659 152.509 78.9739C152.701 78.4819 152.965 77.9959 153.301 77.5159C153.637 77.0359 154.021 76.6039 154.453 76.2199C154.885 75.8239 155.347 75.5059 155.839 75.2659C156.331 75.0259 156.823 74.9059 157.315 74.9059C157.831 74.9059 158.269 75.0379 158.629 75.3019C158.989 75.5659 159.169 75.9139 159.169 76.3459C159.169 76.6699 159.055 76.9039 158.827 77.0479C158.599 77.1919 158.329 77.2339 158.017 77.1739C158.041 77.0659 158.059 76.9579 158.071 76.8499C158.095 76.7419 158.107 76.6279 158.107 76.5079C158.107 76.2679 158.059 76.0519 157.963 75.8599C157.867 75.6679 157.663 75.5719 157.351 75.5719C157.015 75.5719 156.673 75.6859 156.325 75.9139C155.977 76.1419 155.641 76.4419 155.317 76.8139C155.005 77.1739 154.723 77.5759 154.471 78.0199C154.219 78.4519 154.021 78.8779 153.877 79.2979C153.733 79.7179 153.661 80.0959 153.661 80.4319C153.661 80.8159 153.799 81.0079 154.075 81.0079C154.351 81.0079 154.657 80.8759 154.993 80.6119C155.329 80.3359 155.665 79.9939 156.001 79.5859C156.349 79.1779 156.679 78.7639 156.991 78.3439C157.303 77.9119 157.573 77.5459 157.801 77.2459C157.837 77.1859 157.885 77.1559 157.945 77.1559C157.993 77.1679 158.083 77.1979 158.215 77.2459C158.359 77.2819 158.491 77.3419 158.611 77.4259C158.731 77.5099 158.791 77.6179 158.791 77.7499C158.791 77.8699 158.737 78.0259 158.629 78.2179C158.533 78.3979 158.413 78.6019 158.269 78.8299C158.137 79.0459 158.017 79.2679 157.909 79.4959C157.813 79.7119 157.765 79.9219 157.765 80.1259C157.765 80.2819 157.807 80.4319 157.891 80.5759C157.975 80.7079 158.113 80.7739 158.305 80.7739C158.593 80.7739 158.995 80.5639 159.511 80.1439C160.039 79.7119 160.573 78.9859 161.113 77.9659L161.455 78.3079C161.167 78.9559 160.819 79.5319 160.411 80.0359C160.015 80.5279 159.595 80.9119 159.151 81.1879C158.707 81.4759 158.257 81.6199 157.801 81.6199C157.309 81.6199 156.943 81.4639 156.703 81.1519C156.463 80.8399 156.331 80.5039 156.307 80.1439C156.307 80.1199 156.307 80.1019 156.307 80.0899C156.307 80.0779 156.307 80.0659 156.307 80.0539C155.827 80.6299 155.383 81.0859 154.975 81.4219C154.579 81.7579 154.153 81.9259 153.697 81.9259ZM161.551 86.1199C161.251 86.1199 160.969 86.0239 160.705 85.8319C160.453 85.6519 160.327 85.3579 160.327 84.9499C160.327 84.5659 160.441 84.2179 160.669 83.9059C160.897 83.6059 161.191 83.3239 161.551 83.0599C161.911 82.8079 162.295 82.5739 162.703 82.3579C163.123 82.1539 163.525 81.9619 163.909 81.7819C164.041 81.4339 164.185 80.9959 164.341 80.4679C164.509 79.9279 164.653 79.4299 164.773 78.9739C164.401 79.4899 164.005 79.9459 163.585 80.3419C163.165 80.7379 162.697 80.9359 162.181 80.9359C161.965 80.9359 161.737 80.8939 161.497 80.8099C161.257 80.7139 161.053 80.5579 160.885 80.3419C160.729 80.1139 160.651 79.8139 160.651 79.4419C160.651 79.1299 160.705 78.7519 160.813 78.3079C160.933 77.8639 161.077 77.4319 161.245 77.0119C161.425 76.5799 161.611 76.2259 161.803 75.9499C161.995 75.6619 162.163 75.5179 162.307 75.5179C162.379 75.5179 162.481 75.5479 162.613 75.6079C162.757 75.6559 162.895 75.7279 163.027 75.8239C163.159 75.9079 163.243 76.0039 163.279 76.1119C163.171 76.2559 163.051 76.4659 162.919 76.7419C162.787 77.0059 162.661 77.3059 162.541 77.6419C162.421 77.9659 162.319 78.2839 162.235 78.5959C162.163 78.9079 162.127 79.1779 162.127 79.4059C162.127 79.5859 162.163 79.7419 162.235 79.8739C162.307 80.0059 162.445 80.0719 162.649 80.0719C162.913 80.0719 163.183 79.9639 163.459 79.7479C163.747 79.5319 164.023 79.2559 164.287 78.9199C164.563 78.5839 164.809 78.2419 165.025 77.8939C165.049 77.8099 165.073 77.6779 165.097 77.4979C165.121 77.3179 165.163 77.1319 165.223 76.9399C165.283 76.7359 165.385 76.5499 165.529 76.3819C165.685 76.2139 165.901 76.1299 166.177 76.1299C166.273 76.1299 166.363 76.1359 166.447 76.1479C166.531 76.1599 166.633 76.1779 166.753 76.2019C166.753 76.3819 166.687 76.7359 166.555 77.2639C166.435 77.7799 166.273 78.3799 166.069 79.0639C165.865 79.7479 165.637 80.4319 165.385 81.1159C165.889 80.9119 166.411 80.5759 166.951 80.1079C167.503 79.6279 167.947 78.9499 168.283 78.0739L168.589 78.3259C168.409 78.9259 168.133 79.4479 167.761 79.8919C167.401 80.3359 166.993 80.7139 166.537 81.0259C166.081 81.3379 165.619 81.5959 165.151 81.7999C164.827 82.5799 164.473 83.2999 164.089 83.9599C163.717 84.6199 163.321 85.1419 162.901 85.5259C162.481 85.9219 162.031 86.1199 161.551 86.1199ZM161.371 85.4539C161.599 85.4539 161.917 85.2139 162.325 84.7339C162.733 84.2539 163.147 83.5339 163.567 82.5739C163.183 82.7659 162.793 82.9879 162.397 83.2399C162.013 83.5039 161.689 83.7799 161.425 84.0679C161.161 84.3559 161.029 84.6499 161.029 84.9499C161.029 85.0699 161.053 85.1839 161.101 85.2919C161.161 85.3999 161.251 85.4539 161.371 85.4539ZM172.48 82.6459C172.54 82.4659 172.714 82.0519 173.002 81.4039C173.302 80.7679 173.698 79.9159 174.19 78.8479C174.694 77.7679 175.288 76.4899 175.972 75.0139C176.656 73.5379 177.418 71.8759 178.258 70.0279C178.306 69.9319 178.342 69.8299 178.366 69.7219C178.402 69.6139 178.42 69.5179 178.42 69.4339C178.42 69.3139 178.384 69.2179 178.312 69.1459C178.24 69.0739 178.102 69.0379 177.898 69.0379C177.394 69.0379 176.98 69.1939 176.656 69.5059C176.344 69.8059 176.11 70.1779 175.954 70.6219C175.81 71.0659 175.738 71.5039 175.738 71.9359C175.738 72.0439 175.744 72.1699 175.756 72.3139C175.768 72.4579 175.786 72.6199 175.81 72.7999C175.522 72.7999 175.282 72.7159 175.09 72.5479C174.91 72.3679 174.772 72.1519 174.676 71.8999C174.58 71.6359 174.532 71.3899 174.532 71.1619C174.532 70.7779 174.64 70.4059 174.856 70.0459C175.084 69.6859 175.378 69.3619 175.738 69.0739C176.098 68.7739 176.494 68.5399 176.926 68.3719C177.37 68.2039 177.808 68.1199 178.24 68.1199C178.684 68.1199 179.062 68.2459 179.374 68.4979C179.686 68.7379 179.926 69.1819 180.094 69.8299C180.262 70.4659 180.346 71.3839 180.346 72.5839C180.346 73.3639 180.316 74.1559 180.256 74.9599C180.208 75.7519 180.154 76.4959 180.094 77.1919C180.034 77.8879 180.004 78.4819 180.004 78.9739C180.244 78.2659 180.538 77.5159 180.886 76.7239C181.246 75.9199 181.63 75.1279 182.038 74.3479C182.446 73.5559 182.848 72.8119 183.244 72.1159C183.64 71.4199 183.994 70.8139 184.306 70.2979C184.63 69.7699 184.876 69.3799 185.044 69.1279C185.212 68.8639 185.362 68.6659 185.494 68.5339C185.626 68.4019 185.806 68.3359 186.034 68.3359C186.202 68.3359 186.466 68.4019 186.826 68.5339C186.718 68.7619 186.592 69.1279 186.448 69.6319C186.304 70.1239 186.148 70.6999 185.98 71.3599C185.8 72.0799 185.62 72.8719 185.44 73.7359C185.26 74.5879 185.098 75.4519 184.954 76.3279C184.81 77.2039 184.69 78.0379 184.594 78.8299C184.51 79.6099 184.468 80.2999 184.468 80.8999C184.468 81.2119 184.48 81.4579 184.504 81.6379C184.54 81.8179 184.582 81.9739 184.63 82.1059C184.69 82.2499 184.756 82.4299 184.828 82.6459C184.312 82.6459 183.916 82.5679 183.64 82.4119C183.376 82.2559 183.196 82.0039 183.1 81.6559C183.016 81.3199 182.974 80.8699 182.974 80.3059C182.974 78.9739 183.124 77.5759 183.424 76.1119C183.736 74.6359 184.096 73.1179 184.504 71.5579C184.168 72.0379 183.82 72.6079 183.46 73.2679C183.1 73.9279 182.746 74.6239 182.398 75.3559C182.05 76.0879 181.72 76.8139 181.408 77.5339C181.096 78.2419 180.82 78.9019 180.58 79.5139C180.34 80.1139 180.154 80.6179 180.022 81.0259C179.914 81.0619 179.836 81.0859 179.788 81.0979C179.752 81.1099 179.704 81.1159 179.644 81.1159C179.224 81.1159 178.954 80.8639 178.834 80.3599C178.726 79.8439 178.672 79.1419 178.672 78.2539C178.672 77.7859 178.678 77.2879 178.69 76.7599C178.702 76.2199 178.72 75.6739 178.744 75.1219C178.768 74.5579 178.786 73.9999 178.798 73.4479C178.81 72.8959 178.816 72.3679 178.816 71.8639C178.816 71.6839 178.81 71.5039 178.798 71.3239C178.798 71.1439 178.798 70.9699 178.798 70.8019C177.886 72.9259 177.112 74.7439 176.476 76.2559C175.852 77.7559 175.318 78.9799 174.874 79.9279C174.43 80.8639 174.022 81.5479 173.65 81.9799C173.278 82.4239 172.888 82.6459 172.48 82.6459ZM188.738 81.8719C187.97 81.8719 187.376 81.6619 186.956 81.2419C186.548 80.8339 186.344 80.3179 186.344 79.6939C186.344 79.1659 186.476 78.6079 186.74 78.0199C187.016 77.4199 187.382 76.8619 187.838 76.3459C188.294 75.8179 188.798 75.3919 189.35 75.0679C189.902 74.7439 190.454 74.5819 191.006 74.5819C191.318 74.5819 191.612 74.6659 191.888 74.8339C192.176 74.9899 192.32 75.3079 192.32 75.7879C192.32 76.2439 192.188 76.6699 191.924 77.0659C191.66 77.4619 191.306 77.8159 190.862 78.1279C190.418 78.4399 189.926 78.6979 189.386 78.9019C188.858 79.0939 188.324 79.2199 187.784 79.2799C187.772 79.3279 187.76 79.3819 187.748 79.4419C187.748 79.4899 187.748 79.5739 187.748 79.6939C187.748 79.7539 187.754 79.8619 187.766 80.0179C187.79 80.1619 187.844 80.3179 187.928 80.4859C188.012 80.6539 188.15 80.7979 188.342 80.9179C188.534 81.0379 188.798 81.0979 189.134 81.0979C189.638 81.0979 190.142 80.9599 190.646 80.6839C191.162 80.3959 191.642 80.0179 192.086 79.5499C192.542 79.0819 192.92 78.5599 193.22 77.9839L193.58 78.2719C193.256 78.9919 192.836 79.6219 192.32 80.1619C191.816 80.7019 191.252 81.1219 190.628 81.4219C190.016 81.7219 189.386 81.8719 188.738 81.8719ZM187.982 78.6139C188.294 78.5779 188.642 78.4699 189.026 78.2899C189.41 78.1099 189.776 77.8819 190.124 77.6059C190.484 77.3299 190.778 77.0299 191.006 76.7059C191.234 76.3699 191.348 76.0339 191.348 75.6979C191.348 75.5659 191.324 75.4759 191.276 75.4279C191.228 75.3799 191.15 75.3559 191.042 75.3559C190.766 75.3559 190.478 75.4579 190.178 75.6619C189.878 75.8539 189.584 76.1119 189.296 76.4359C189.008 76.7479 188.75 77.0959 188.522 77.4799C188.294 77.8639 188.114 78.2419 187.982 78.6139ZM196.115 81.5479C195.671 81.5479 195.311 81.4279 195.035 81.1879C194.759 80.9599 194.621 80.6479 194.621 80.2519C194.621 79.9159 194.705 79.5559 194.873 79.1719C195.041 78.7879 195.209 78.4099 195.377 78.0379C195.557 77.6659 195.647 77.3359 195.647 77.0479C195.647 76.7719 195.557 76.5439 195.377 76.3639C195.197 76.1719 194.987 76.0159 194.747 75.8959C194.483 76.5559 194.183 77.1979 193.847 77.8219C193.523 78.4339 193.259 78.9139 193.055 79.2619L192.785 78.7399C192.953 78.4279 193.175 77.9839 193.451 77.4079C193.727 76.8319 193.991 76.1899 194.243 75.4819C194.123 75.3619 194.063 75.1999 194.063 74.9959C194.063 74.6839 194.159 74.3899 194.351 74.1139C194.543 73.8379 194.729 73.6999 194.909 73.6999C195.053 73.6999 195.155 73.7839 195.215 73.9519C195.287 74.1079 195.323 74.2159 195.323 74.2759C195.323 74.3359 195.293 74.4439 195.233 74.5999C195.185 74.7559 195.149 74.8699 195.125 74.9419C195.137 75.0739 195.239 75.2059 195.431 75.3379C195.635 75.4579 195.863 75.6019 196.115 75.7699C196.367 75.9379 196.589 76.1479 196.781 76.3999C196.973 76.6519 197.069 76.9699 197.069 77.3539C197.069 77.7019 196.991 78.0559 196.835 78.4159C196.679 78.7759 196.523 79.1119 196.367 79.4239C196.211 79.7359 196.133 80.0059 196.133 80.2339C196.133 80.4019 196.175 80.5159 196.259 80.5759C196.355 80.6239 196.463 80.6479 196.583 80.6479C196.871 80.6479 197.171 80.5639 197.483 80.3959C197.795 80.2159 198.101 79.9879 198.401 79.7119C198.701 79.4359 198.965 79.1479 199.193 78.8479C199.421 78.5359 199.595 78.2539 199.715 78.0019L200.147 78.3259C199.919 78.8419 199.589 79.3519 199.157 79.8559C198.725 80.3479 198.245 80.7559 197.717 81.0799C197.189 81.3919 196.655 81.5479 196.115 81.5479ZM200.764 81.6199C200.236 81.6199 199.84 81.4639 199.576 81.1519C199.312 80.8399 199.18 80.4619 199.18 80.0179C199.18 79.7419 199.228 79.3939 199.324 78.9739C199.42 78.5539 199.552 78.1159 199.72 77.6599C199.9 77.1919 200.104 76.7539 200.332 76.3459C200.56 75.9379 200.806 75.6079 201.07 75.3559C201.334 75.0919 201.598 74.9599 201.862 74.9599C202.006 74.9599 202.132 75.0079 202.24 75.1039C202.348 75.1879 202.402 75.3139 202.402 75.4819C202.402 75.6379 202.306 75.8719 202.114 76.1839C201.934 76.4959 201.718 76.8559 201.466 77.2639C201.226 77.6719 201.01 78.0979 200.818 78.5419C200.638 78.9739 200.548 79.3879 200.548 79.7839C200.548 80.1679 200.614 80.4259 200.746 80.5579C200.89 80.6779 201.094 80.7379 201.358 80.7379C201.766 80.7379 202.21 80.5339 202.69 80.1259C203.17 79.7179 203.668 79.0039 204.184 77.9839L204.454 78.2719C204.034 79.3279 203.5 80.1499 202.852 80.7379C202.204 81.3259 201.508 81.6199 200.764 81.6199ZM202.888 73.5019C202.66 73.5019 202.45 73.4479 202.258 73.3399C202.078 73.2199 201.988 73.0399 201.988 72.7999C201.988 72.5119 202.144 72.2659 202.456 72.0619C202.768 71.8579 203.092 71.7559 203.428 71.7559C203.644 71.7559 203.824 71.8039 203.968 71.8999C204.124 71.9959 204.202 72.1699 204.202 72.4219C204.202 72.6739 204.064 72.9199 203.788 73.1599C203.512 73.3879 203.212 73.5019 202.888 73.5019ZM210.5 82.6459C210.14 82.6459 209.798 82.5499 209.474 82.3579C209.162 82.1659 209.006 81.9199 209.006 81.6199C209.006 81.4639 209.03 81.2959 209.078 81.1159C209.138 80.9359 209.192 80.7679 209.24 80.6119C209.612 79.4719 209.96 78.4099 210.284 77.4259C210.608 76.4299 210.932 75.4759 211.256 74.5639C211.592 73.6399 211.94 72.7159 212.3 71.7919C212.672 70.8679 213.086 69.9019 213.542 68.8939C213.086 68.9899 212.696 69.1159 212.372 69.2719C212.048 69.4159 211.784 69.5479 211.58 69.6679C211.376 69.7759 211.226 69.8299 211.13 69.8299C211.07 69.8299 210.98 69.7879 210.86 69.7039C210.752 69.6199 210.656 69.5239 210.572 69.4159C210.488 69.3079 210.446 69.2119 210.446 69.1279C210.782 68.9839 211.172 68.8339 211.616 68.6779C212.072 68.5219 212.564 68.3899 213.092 68.2819C213.62 68.1739 214.148 68.1199 214.676 68.1199C215.24 68.1199 215.816 68.1979 216.404 68.3539C216.992 68.4979 217.532 68.7199 218.024 69.0199C218.528 69.3079 218.93 69.6739 219.23 70.1179C219.542 70.5499 219.698 71.0599 219.698 71.6479C219.698 72.2839 219.554 72.8299 219.266 73.2859C218.978 73.7419 218.594 74.1259 218.114 74.4379C217.646 74.7499 217.136 75.0019 216.584 75.1939C216.032 75.3859 215.48 75.5299 214.928 75.6259C214.388 75.7219 213.902 75.7879 213.47 75.8239C213.038 75.8599 212.714 75.8779 212.498 75.8779H212.39C212.054 77.0659 211.724 78.2539 211.4 79.4419C211.076 80.6179 210.776 81.6859 210.5 82.6459ZM212.552 75.3199C213.224 75.2719 213.896 75.1579 214.568 74.9779C215.24 74.7979 215.846 74.5519 216.386 74.2399C216.938 73.9159 217.376 73.5139 217.7 73.0339C218.036 72.5539 218.204 71.9959 218.204 71.3599C218.204 70.7599 218.042 70.2739 217.718 69.9019C217.406 69.5299 216.998 69.2479 216.494 69.0559C216.002 68.8639 215.48 68.7619 214.928 68.7499C214.496 69.5899 214.082 70.5859 213.686 71.7379C213.29 72.8779 212.912 74.0719 212.552 75.3199ZM218.261 81.9259C217.865 81.9259 217.523 81.7939 217.235 81.5299C216.935 81.2659 216.785 80.8699 216.785 80.3419C216.785 79.9219 216.881 79.4659 217.073 78.9739C217.265 78.4819 217.529 77.9959 217.865 77.5159C218.201 77.0359 218.585 76.6039 219.017 76.2199C219.449 75.8239 219.911 75.5059 220.403 75.2659C220.895 75.0259 221.387 74.9059 221.879 74.9059C222.395 74.9059 222.833 75.0379 223.193 75.3019C223.553 75.5659 223.733 75.9139 223.733 76.3459C223.733 76.6699 223.619 76.9039 223.391 77.0479C223.163 77.1919 222.893 77.2339 222.581 77.1739C222.605 77.0659 222.623 76.9579 222.635 76.8499C222.659 76.7419 222.671 76.6279 222.671 76.5079C222.671 76.2679 222.623 76.0519 222.527 75.8599C222.431 75.6679 222.227 75.5719 221.915 75.5719C221.579 75.5719 221.237 75.6859 220.889 75.9139C220.541 76.1419 220.205 76.4419 219.881 76.8139C219.569 77.1739 219.287 77.5759 219.035 78.0199C218.783 78.4519 218.585 78.8779 218.441 79.2979C218.297 79.7179 218.225 80.0959 218.225 80.4319C218.225 80.8159 218.363 81.0079 218.639 81.0079C218.915 81.0079 219.221 80.8759 219.557 80.6119C219.893 80.3359 220.229 79.9939 220.565 79.5859C220.913 79.1779 221.243 78.7639 221.555 78.3439C221.867 77.9119 222.137 77.5459 222.365 77.2459C222.401 77.1859 222.449 77.1559 222.509 77.1559C222.557 77.1679 222.647 77.1979 222.779 77.2459C222.923 77.2819 223.055 77.3419 223.175 77.4259C223.295 77.5099 223.355 77.6179 223.355 77.7499C223.355 77.8699 223.301 78.0259 223.193 78.2179C223.097 78.3979 222.977 78.6019 222.833 78.8299C222.701 79.0459 222.581 79.2679 222.473 79.4959C222.377 79.7119 222.329 79.9219 222.329 80.1259C222.329 80.2819 222.371 80.4319 222.455 80.5759C222.539 80.7079 222.677 80.7739 222.869 80.7739C223.157 80.7739 223.559 80.5639 224.075 80.1439C224.603 79.7119 225.137 78.9859 225.677 77.9659L226.019 78.3079C225.731 78.9559 225.383 79.5319 224.975 80.0359C224.579 80.5279 224.159 80.9119 223.715 81.1879C223.271 81.4759 222.821 81.6199 222.365 81.6199C221.873 81.6199 221.507 81.4639 221.267 81.1519C221.027 80.8399 220.895 80.5039 220.871 80.1439C220.871 80.1199 220.871 80.1019 220.871 80.0899C220.871 80.0779 220.871 80.0659 220.871 80.0539C220.391 80.6299 219.947 81.0859 219.539 81.4219C219.143 81.7579 218.717 81.9259 218.261 81.9259ZM226.151 86.1199C225.851 86.1199 225.569 86.0299 225.305 85.8499C225.053 85.6699 224.927 85.3759 224.927 84.9679C224.927 84.5839 225.035 84.2359 225.251 83.9239C225.479 83.6239 225.773 83.3419 226.133 83.0779C226.505 82.8259 226.901 82.5919 227.321 82.3759C227.741 82.1599 228.149 81.9559 228.545 81.7639C228.677 81.4399 228.803 81.0919 228.923 80.7199C229.043 80.3479 229.157 79.9459 229.265 79.5139C228.845 80.0419 228.401 80.4799 227.933 80.8279C227.477 81.1759 227.009 81.3499 226.529 81.3499C226.049 81.3499 225.665 81.1819 225.377 80.8459C225.101 80.5099 224.963 80.0659 224.963 79.5139C224.963 78.8779 225.119 78.2839 225.431 77.7319C225.755 77.1679 226.169 76.6699 226.673 76.2379C227.177 75.7939 227.717 75.4519 228.293 75.2119C228.869 74.9599 229.421 74.8339 229.949 74.8339C230.333 74.8339 230.621 74.9059 230.813 75.0499C231.005 75.1819 231.101 75.3379 231.101 75.5179C231.101 75.6619 231.059 75.7759 230.975 75.8599C230.891 75.9439 230.837 75.9919 230.813 76.0039C230.693 75.8719 230.567 75.7879 230.435 75.7519C230.315 75.7039 230.171 75.6799 230.003 75.6799C229.535 75.6799 229.085 75.8119 228.653 76.0759C228.221 76.3399 227.837 76.6819 227.501 77.1019C227.177 77.5099 226.919 77.9359 226.727 78.3799C226.535 78.8239 226.439 79.2259 226.439 79.5859C226.439 79.8259 226.493 80.0119 226.601 80.1439C226.709 80.2639 226.841 80.3239 226.997 80.3239C227.333 80.3239 227.741 80.1079 228.221 79.6759C228.701 79.2319 229.163 78.6979 229.607 78.0739C229.631 77.9779 229.649 77.8939 229.661 77.8219C229.685 77.7379 229.703 77.6599 229.715 77.5879C229.835 77.1079 229.979 76.7539 230.147 76.5259C230.315 76.2979 230.549 76.1839 230.849 76.1839C230.909 76.1839 230.981 76.1899 231.065 76.2019C231.161 76.2139 231.263 76.2319 231.371 76.2559C231.371 76.4719 231.311 76.8259 231.191 77.3179C231.071 77.8099 230.909 78.3859 230.705 79.0459C230.501 79.6939 230.273 80.3599 230.021 81.0439C230.393 80.8879 230.771 80.6719 231.155 80.3959C231.539 80.1079 231.893 79.7659 232.217 79.3699C232.541 78.9619 232.787 78.5119 232.955 78.0199L233.279 78.3439C233.087 78.8959 232.787 79.3999 232.379 79.8559C231.983 80.3119 231.551 80.7079 231.083 81.0439C230.615 81.3679 230.183 81.6199 229.787 81.7999C229.463 82.5919 229.109 83.3119 228.725 83.9599C228.353 84.6199 227.951 85.1419 227.519 85.5259C227.099 85.9219 226.643 86.1199 226.151 86.1199ZM226.079 85.2919C226.295 85.2919 226.589 85.0879 226.961 84.6799C227.345 84.2719 227.759 83.5819 228.203 82.6099C227.759 82.8259 227.351 83.0479 226.979 83.2759C226.607 83.5039 226.307 83.7439 226.079 83.9959C225.851 84.2479 225.737 84.5119 225.737 84.7879C225.737 84.9439 225.767 85.0639 225.827 85.1479C225.899 85.2439 225.983 85.2919 226.079 85.2919ZM234.059 81.6199C233.495 81.6199 233.099 81.4339 232.871 81.0619C232.655 80.6779 232.547 80.2279 232.547 79.7119C232.547 79.1239 232.655 78.4339 232.871 77.6419C233.087 76.8499 233.369 76.0219 233.717 75.1579C234.077 74.2819 234.467 73.4299 234.887 72.6019C235.319 71.7619 235.751 71.0059 236.183 70.3339C236.615 69.6619 237.011 69.1279 237.371 68.7319C237.743 68.3239 238.043 68.1199 238.271 68.1199C238.427 68.1199 238.559 68.2039 238.667 68.3719C238.775 68.5279 238.859 68.7199 238.919 68.9479C238.991 69.1639 239.027 69.3679 239.027 69.5599C239.027 69.8839 238.943 70.3099 238.775 70.8379C238.619 71.3539 238.391 71.9239 238.091 72.5479C237.803 73.1719 237.455 73.8139 237.047 74.4739C236.651 75.1219 236.207 75.7399 235.715 76.3279C235.235 76.9159 234.719 77.4259 234.167 77.8579C234.119 78.1579 234.071 78.4579 234.023 78.7579C233.987 79.0459 233.969 79.3099 233.969 79.5499C233.969 79.9819 234.041 80.2999 234.185 80.5039C234.329 80.6959 234.515 80.7919 234.743 80.7919C235.043 80.7919 235.349 80.6539 235.661 80.3779C235.985 80.0899 236.291 79.7299 236.579 79.2979C236.879 78.8539 237.137 78.3979 237.353 77.9299L237.785 78.1639C237.269 79.2319 236.693 80.0779 236.057 80.7019C235.421 81.3139 234.755 81.6199 234.059 81.6199ZM234.491 76.7419C234.899 76.2979 235.283 75.8179 235.643 75.3019C236.015 74.7739 236.351 74.2399 236.651 73.6999C236.963 73.1599 237.233 72.6379 237.461 72.1339C237.689 71.6299 237.863 71.1799 237.983 70.7839C238.115 70.3759 238.187 70.0519 238.199 69.8119C238.199 69.7999 238.199 69.7939 238.199 69.7939C238.199 69.7819 238.199 69.7699 238.199 69.7579C238.103 69.7579 237.947 69.8959 237.731 70.1719C237.527 70.4359 237.281 70.8019 236.993 71.2699C236.705 71.7379 236.405 72.2719 236.093 72.8719C235.793 73.4719 235.499 74.1079 235.211 74.7799C234.935 75.4399 234.695 76.0939 234.491 76.7419ZM238.363 81.6199C237.835 81.6199 237.439 81.4639 237.175 81.1519C236.911 80.8399 236.779 80.4619 236.779 80.0179C236.779 79.7419 236.827 79.3939 236.923 78.9739C237.019 78.5539 237.151 78.1159 237.319 77.6599C237.499 77.1919 237.703 76.7539 237.931 76.3459C238.159 75.9379 238.405 75.6079 238.669 75.3559C238.933 75.0919 239.197 74.9599 239.461 74.9599C239.605 74.9599 239.731 75.0079 239.839 75.1039C239.947 75.1879 240.001 75.3139 240.001 75.4819C240.001 75.6379 239.905 75.8719 239.713 76.1839C239.533 76.4959 239.317 76.8559 239.065 77.2639C238.825 77.6719 238.609 78.0979 238.417 78.5419C238.237 78.9739 238.147 79.3879 238.147 79.7839C238.147 80.1679 238.213 80.4259 238.345 80.5579C238.489 80.6779 238.693 80.7379 238.957 80.7379C239.365 80.7379 239.809 80.5339 240.289 80.1259C240.769 79.7179 241.267 79.0039 241.783 77.9839L242.053 78.2719C241.633 79.3279 241.099 80.1499 240.451 80.7379C239.803 81.3259 239.107 81.6199 238.363 81.6199ZM240.487 73.5019C240.259 73.5019 240.049 73.4479 239.857 73.3399C239.677 73.2199 239.587 73.0399 239.587 72.7999C239.587 72.5119 239.743 72.2659 240.055 72.0619C240.367 71.8579 240.691 71.7559 241.027 71.7559C241.243 71.7559 241.423 71.8039 241.567 71.8999C241.723 71.9959 241.801 72.1699 241.801 72.4219C241.801 72.6739 241.663 72.9199 241.387 73.1599C241.111 73.3879 240.811 73.5019 240.487 73.5019Z" fill="black"/>
<path d="M53.3198 17.7042L70.2118 6.28437L53.2567 102.442L41.2892 85.9331L40.9956 85.5281L40.5907 85.8219L24.7071 97.3497L41.6425 1.30468L52.6254 17.5698L52.9054 17.9844L53.3198 17.7042Z" fill="#D9D9D9" stroke="black"/>
</svg>
