<svg width="679" height="812" viewBox="0 0 679 812" fill="none" xmlns="http://www.w3.org/2000/svg">
<path fill-rule="evenodd" clip-rule="evenodd" d="M587.77 414.358L651.834 170.07L29.9662 174.92L94.8111 406.004H92.473L28.4092 641.944L650.284 637.254L585.535 414.358H587.77Z" fill="white"/>
<path fill-rule="evenodd" clip-rule="evenodd" d="M336.18 24.75L20.5693 48.1885L29.9801 174.751H651.848V41.9421L336.239 24.75" fill="#EF204D"/>
<path fill-rule="evenodd" clip-rule="evenodd" d="M383.674 299.22C383.674 299.22 300.478 296.07 298.979 295.477L292.683 328.196L319.922 368.654H357.528L385.947 333.646L383.644 299.22" fill="black"/>
<path d="M584.952 759.994L584.926 759.996L584.9 759.999C528.383 766.401 445.749 769.643 339.344 769.643C232.939 769.643 150.327 766.401 93.7808 759.999L93.755 759.996L93.7293 759.994C76.4238 758.336 59.2544 755.478 42.3469 751.44V658.998H636.347V751.44C619.434 755.478 602.262 758.336 584.952 759.994ZM93.7301 51.9992L93.7553 51.9967L93.7804 51.9939C150.327 45.5995 232.925 42.3494 339.344 42.3494C445.763 42.3494 528.383 45.5995 584.901 51.9939L584.926 51.9967L584.951 51.9992C602.261 53.6617 619.434 56.5224 636.347 60.5598V153.001H42.3469V60.5596C59.255 56.522 76.4245 53.6614 93.7301 51.9992ZM675.69 639.35V638.961L675.591 638.585L614.263 406L675.591 173.416L675.69 173.04V172.651V39.5101C675.692 39.4802 675.694 39.4495 675.696 39.4182C675.709 39.1849 675.704 38.9157 675.667 38.615C675.594 38.007 675.398 37.3104 675.012 36.5535C674.246 35.0529 672.781 33.3996 670.189 31.6513C665.056 28.1899 654.858 23.927 634.37 19.7356C593.306 11.3345 509.718 3 339.344 3C168.97 3 85.3857 11.3345 44.3253 19.7356C23.8395 23.9271 13.6427 28.1899 8.51106 31.6515C5.91917 33.3999 4.45439 35.0535 3.68957 36.5544C3.30374 37.3115 3.10801 38.0082 3.03479 38.6162C2.99856 38.917 2.99354 39.1862 3.00644 39.4194C3.00817 39.4506 3.01021 39.481 3.01252 39.5107V172.651V173.04L3.11167 173.416L64.4395 406L3.11167 638.585L3.01252 638.961V639.35V772.483C3.01018 772.513 3.00813 772.544 3.0064 772.575C2.99365 772.809 2.99884 773.078 3.03524 773.379C3.10881 773.986 3.30488 774.683 3.69098 775.44C4.45636 776.94 5.92162 778.594 8.51426 780.343C13.6475 783.805 23.8461 788.069 44.3334 792.261C85.3965 800.664 168.981 809.001 339.344 809.001C509.707 809.001 593.295 800.664 634.362 792.261C654.851 788.069 665.051 783.805 670.186 780.343C672.779 778.594 674.244 776.941 675.01 775.441C675.397 774.684 675.593 773.988 675.667 773.38C675.703 773.079 675.709 772.81 675.696 772.577C675.694 772.545 675.692 772.514 675.69 772.483V639.35ZM48.7726 619.649L99.9518 425.65H156.006C158.593 425.657 161.158 425.15 163.549 424.16C165.939 423.169 168.109 421.715 169.933 419.88C173.611 416.196 175.677 411.203 175.677 405.997C175.677 400.79 173.611 395.797 169.932 392.113C168.107 390.281 165.936 388.828 163.546 387.839C161.156 386.85 158.592 386.344 156.006 386.351H99.9518L48.7726 192.352H629.93L578.749 386.351H522.696C520.11 386.343 517.549 386.848 515.159 387.837C512.773 388.825 510.605 390.278 508.783 392.107C506.953 393.926 505.5 396.088 504.508 398.471C503.515 400.857 503.005 403.415 503.005 405.997C503.005 408.579 503.515 411.137 504.508 413.522C505.5 415.904 506.952 418.066 508.781 419.884C510.602 421.718 512.77 423.17 515.156 424.159C517.545 425.15 520.107 425.658 522.696 425.65H578.749L629.93 619.649H48.7726Z" fill="black" stroke="white" stroke-width="6"/>
<path fill-rule="evenodd" clip-rule="evenodd" d="M310.845 329.924L313.298 322.685H365.419L367.872 329.924L341.986 356.041C341.103 356.041 340.227 355.998 339.351 355.998C338.475 355.998 337.592 355.997 336.738 356.041L310.845 329.924ZM177.594 534.463C179.14 536.011 180.976 537.238 182.997 538.076C185.018 538.913 187.184 539.345 189.371 539.345C191.559 539.345 193.725 538.913 195.746 538.076C197.767 537.238 199.602 536.011 201.148 534.463C202.699 532.912 203.929 531.069 204.768 529.041C205.606 527.014 206.037 524.843 206.035 522.649C205.987 505.137 209.412 487.788 216.112 471.608C222.812 455.428 232.652 440.738 245.065 428.386C257.424 415.973 272.121 406.132 288.305 399.431C304.49 392.73 321.842 389.303 339.358 389.347C356.874 389.301 374.225 392.729 390.408 399.429C406.591 406.13 421.286 415.972 433.643 428.386C446.071 440.73 455.927 455.419 462.637 471.6C469.347 487.781 472.778 505.132 472.733 522.649C472.726 524.844 473.154 527.017 473.993 529.045C474.832 531.073 476.065 532.915 477.62 534.463C479.166 536.01 481 537.235 483.02 538.072C485.041 538.909 487.207 539.341 489.393 539.341C491.58 539.341 493.744 538.909 495.764 538.072C497.784 537.235 499.621 536.01 501.167 534.463C504.293 531.326 506.05 527.078 506.053 522.649C506.041 486.083 494.008 450.534 471.811 421.476C449.613 392.418 418.479 371.461 383.203 361.832L406.055 338.813L389.408 289.344H289.412L272.762 338.813L295.615 361.832C260.333 371.452 229.193 392.406 206.993 421.465C184.792 450.525 172.764 486.08 172.759 522.649C172.752 524.844 173.179 527.019 174.019 529.047C174.859 531.075 176.094 532.916 177.651 534.463" fill="#070505"/>
<path d="M44.5 754L44.018 756.961L41.5 756.551V754V651V648H44.5H633.5H636.5V651V763V765.77L633.739 765.99L633.5 763C633.739 765.99 633.738 765.991 633.737 765.991L633.731 765.991L633.71 765.993L633.623 766L633.283 766.027C632.981 766.05 632.532 766.086 631.941 766.132C630.758 766.224 629.006 766.359 626.726 766.531C622.167 766.877 615.498 767.371 607.056 767.969C590.171 769.165 566.189 770.775 537.8 772.432C481.027 775.746 406.599 779.249 336.032 780C265.367 780.752 192.363 774.989 137.054 769.045C109.393 766.073 86.1428 763.053 69.8046 760.776C61.6353 759.637 55.1935 758.684 50.7916 758.016C48.5907 757.681 46.8997 757.418 45.7578 757.238C45.1868 757.148 44.753 757.079 44.4615 757.032L44.1313 756.979L44.0473 756.966L44.0258 756.962L44.0202 756.961C44.0188 756.961 44.018 756.961 44.5 754Z" fill="#EF204D" stroke="white" stroke-width="6"/>
<path d="M205.438 691.125C208.938 691.25 212.583 691.312 216.375 691.312H219.969C221.49 691.292 224.115 691.281 227.844 691.281C231.594 691.26 234.792 691.24 237.438 691.219C240.104 691.198 242.75 691.146 245.375 691.062C245.542 692.5 245.896 694 246.438 695.562C246.979 697.104 247.5 698.375 248 699.375C248.5 700.354 249.156 701.542 249.969 702.938C249.802 703.292 249.438 703.573 248.875 703.781C248.125 702.365 247.219 701.104 246.156 700C245.094 698.896 243.75 697.854 242.125 696.875C240.521 695.896 238.51 695.094 236.094 694.469C233.698 693.844 230.969 693.427 227.906 693.219H219.969C219.698 702.219 219.562 709.021 219.562 713.625H228.469C228.99 713.625 229.479 713.583 229.938 713.5C230.396 713.396 230.823 713.229 231.219 713C231.635 712.771 231.99 712.552 232.281 712.344C232.594 712.115 232.917 711.781 233.25 711.344C233.604 710.885 233.885 710.51 234.094 710.219C234.302 709.927 234.562 709.469 234.875 708.844C235.188 708.198 235.427 707.708 235.594 707.375C235.76 707.042 236.01 706.49 236.344 705.719C236.698 704.948 236.958 704.385 237.125 704.031C237.854 704.344 238.25 704.604 238.312 704.812C237.083 708.021 236.469 711.281 236.469 714.594C236.469 717.885 237.083 721.156 238.312 724.406C238.167 724.698 237.771 724.969 237.125 725.219C235.854 722.156 234.885 720.104 234.219 719.062C232.677 716.75 230.76 715.583 228.469 715.562H219.562C219.562 720.042 219.677 725.76 219.906 732.719C219.927 733.26 220.167 733.729 220.625 734.125C221.083 734.5 221.74 734.792 222.594 735C223.469 735.208 224.198 735.365 224.781 735.469C225.385 735.552 226.167 735.635 227.125 735.719C227.208 736.135 227.25 736.417 227.25 736.562C227.25 736.729 227.208 736.938 227.125 737.188C223.583 737.062 219.958 737 216.25 737C212.5 737 208.875 737.062 205.375 737.188C205.292 736.938 205.25 736.729 205.25 736.562C205.25 736.417 205.292 736.135 205.375 735.719C206 735.656 206.5 735.604 206.875 735.562C207.25 735.521 207.76 735.448 208.406 735.344C209.073 735.24 209.604 735.125 210 735C210.417 734.854 210.844 734.677 211.281 734.469C211.719 734.26 212.042 734.01 212.25 733.719C212.479 733.427 212.594 733.094 212.594 732.719C212.844 726.198 212.969 719.625 212.969 713C212.969 706.25 212.865 700.427 212.656 695.531C212.635 694.99 212.396 694.531 211.938 694.156C211.5 693.781 210.833 693.49 209.938 693.281C209.042 693.073 208.323 692.938 207.781 692.875C207.24 692.792 206.458 692.698 205.438 692.594C205.354 692.219 205.312 691.958 205.312 691.812C205.312 691.688 205.354 691.458 205.438 691.125ZM267.281 708.594C269.344 708.594 271.198 708.958 272.844 709.688C274.51 710.417 275.927 711.427 277.094 712.719C278.26 714.01 279.156 715.562 279.781 717.375C280.406 719.167 280.719 721.125 280.719 723.25C280.719 727.583 279.5 731.104 277.062 733.812C274.646 736.542 271.385 737.906 267.281 737.906C265.24 737.906 263.385 737.552 261.719 736.844C260.073 736.115 258.667 735.104 257.5 733.812C256.333 732.5 255.427 730.948 254.781 729.156C254.156 727.365 253.844 725.396 253.844 723.25C253.844 721.125 254.156 719.167 254.781 717.375C255.406 715.562 256.292 714.01 257.438 712.719C258.604 711.427 260.021 710.417 261.688 709.688C263.354 708.958 265.219 708.594 267.281 708.594ZM267.281 710.625C265.156 710.625 263.458 711.656 262.188 713.719C260.938 715.781 260.312 718.958 260.312 723.25C260.312 727.542 260.938 730.719 262.188 732.781C263.458 734.823 265.156 735.844 267.281 735.844C269.406 735.844 271.094 734.812 272.344 732.75C273.615 730.688 274.25 727.521 274.25 723.25C274.25 721.104 274.083 719.24 273.75 717.656C273.417 716.073 272.948 714.76 272.344 713.719C271.74 712.677 271.01 711.906 270.156 711.406C269.302 710.885 268.344 710.625 267.281 710.625ZM286.938 711.281C290.979 710.865 294.5 710.01 297.5 708.719C298.021 708.927 298.385 709.198 298.594 709.531V714.906C299.365 713.448 300.51 712.031 302.031 710.656C303.573 709.281 305.177 708.594 306.844 708.594C308.094 708.594 309.104 708.969 309.875 709.719C310.667 710.448 311.062 711.458 311.062 712.75C311.062 713.979 310.698 714.938 309.969 715.625C309.24 716.312 308.323 716.656 307.219 716.656C306.198 716.656 305.354 716.333 304.688 715.688C304.042 715.021 303.688 714.146 303.625 713.062C302.75 713.438 301.75 714.271 300.625 715.562C299.521 716.854 298.844 718.135 298.594 719.406C298.594 724.052 298.677 728.49 298.844 732.719C298.865 733.26 299.062 733.729 299.438 734.125C299.812 734.5 300.365 734.792 301.094 735C301.823 735.208 302.427 735.365 302.906 735.469C303.385 735.552 304.01 735.635 304.781 735.719C304.906 735.969 304.969 736.229 304.969 736.5C304.969 736.708 304.906 736.938 304.781 737.188C301.656 737.062 298.562 737 295.5 737C292.958 737 290.312 737.062 287.562 737.188C287.479 736.854 287.438 736.625 287.438 736.5C287.438 736.396 287.479 736.135 287.562 735.719C288.25 735.635 288.812 735.552 289.25 735.469C289.688 735.365 290.229 735.208 290.875 735C291.521 734.792 292.01 734.5 292.344 734.125C292.677 733.729 292.854 733.26 292.875 732.719C292.958 730.656 293 728.156 293 725.219C293 724.24 292.99 722.573 292.969 720.219C292.948 717.865 292.938 715.802 292.938 714.031C291.75 713.302 289.75 712.875 286.938 712.75C286.854 712.417 286.812 712.156 286.812 711.969C286.812 711.844 286.854 711.615 286.938 711.281ZM339.156 715.812C339.156 714.312 339.052 707.448 338.844 695.219C338.781 694.74 338.531 694.333 338.094 694C337.677 693.646 337.062 693.375 336.25 693.188C335.438 693 334.771 692.865 334.25 692.781C333.75 692.698 333.042 692.615 332.125 692.531C332.042 692.156 332 691.896 332 691.75C332 691.625 332.042 691.396 332.125 691.062C332.667 691.083 333.958 691.135 336 691.219C338.042 691.281 339.615 691.312 340.719 691.312C341.656 691.312 343.427 691.271 346.031 691.188C348.635 691.104 350.51 691.062 351.656 691.062C356.99 691.062 361.062 692.302 363.875 694.781C366.688 697.26 368.094 700.562 368.094 704.688C368.094 708.604 366.833 711.802 364.312 714.281C361.792 716.76 358.208 718 353.562 718C350.771 718 348.26 717.417 346.031 716.25C346.031 721.333 346.094 726.823 346.219 732.719C346.24 733.26 346.479 733.729 346.938 734.125C347.396 734.5 348.052 734.792 348.906 735C349.781 735.208 350.51 735.365 351.094 735.469C351.698 735.552 352.479 735.635 353.438 735.719C353.521 736.135 353.562 736.417 353.562 736.562C353.562 736.729 353.521 736.938 353.438 737.188C349.896 737.062 346.271 737 342.562 737C338.812 737 335.188 737.062 331.688 737.188C331.604 736.938 331.562 736.729 331.562 736.562C331.562 736.208 331.604 735.927 331.688 735.719C332.646 735.635 333.417 735.552 334 735.469C334.604 735.365 335.333 735.208 336.188 735C337.062 734.792 337.729 734.5 338.188 734.125C338.646 733.729 338.885 733.26 338.906 732.719C339.073 727.365 339.156 721.729 339.156 715.812ZM346.219 693.219C346.094 700.719 346.031 707.698 346.031 714.156C347.74 714.927 349.438 715.312 351.125 715.312C354.062 715.312 356.271 714.365 357.75 712.469C359.229 710.573 359.969 707.958 359.969 704.625C359.969 696.938 356.167 693.094 348.562 693.094C348.083 693.094 347.302 693.135 346.219 693.219ZM375.688 716.469C375.688 714.177 376.729 712.292 378.812 710.812C380.917 709.333 383.396 708.594 386.25 708.594C389.75 708.594 392.208 709.292 393.625 710.688C395.062 712.083 395.781 714.438 395.781 717.75V730.719C395.781 731.885 396.208 732.469 397.062 732.469C397.75 732.469 398.625 731.635 399.688 729.969C400.438 730.031 400.948 730.365 401.219 730.969C401.073 731.177 400.823 731.552 400.469 732.094C400.115 732.635 399.854 733.021 399.688 733.25C399.521 733.479 399.26 733.833 398.906 734.312C398.552 734.771 398.26 735.115 398.031 735.344C397.823 735.573 397.531 735.844 397.156 736.156C396.802 736.469 396.469 736.708 396.156 736.875C395.865 737.021 395.521 737.146 395.125 737.25C394.729 737.375 394.333 737.438 393.938 737.438C392.896 737.438 392.031 737.062 391.344 736.312C390.677 735.562 390.281 734.406 390.156 732.844C390.135 732.865 389.812 733.167 389.188 733.75C388.562 734.333 388.125 734.729 387.875 734.938C387.646 735.125 387.198 735.469 386.531 735.969C385.885 736.448 385.333 736.792 384.875 737C384.417 737.208 383.844 737.406 383.156 737.594C382.469 737.802 381.792 737.906 381.125 737.906C380.062 737.906 379.115 737.76 378.281 737.469C377.469 737.177 376.833 736.823 376.375 736.406C375.917 735.99 375.542 735.51 375.25 734.969C374.958 734.406 374.76 733.896 374.656 733.438C374.573 732.979 374.531 732.521 374.531 732.062C374.531 730.667 374.76 729.49 375.219 728.531C375.698 727.573 376.573 726.677 377.844 725.844C379.135 725.01 380.719 724.271 382.594 723.625C384.469 722.979 386.99 722.25 390.156 721.438V717.094C390.156 714.99 389.688 713.417 388.75 712.375C387.833 711.333 386.594 710.812 385.031 710.812C383.635 710.812 382.458 711.094 381.5 711.656C380.562 712.198 379.99 712.833 379.781 713.562C381.823 713.875 382.844 714.99 382.844 716.906C382.844 717.781 382.531 718.552 381.906 719.219C381.281 719.885 380.406 720.219 379.281 720.219C378.344 720.219 377.51 719.896 376.781 719.25C376.052 718.583 375.688 717.656 375.688 716.469ZM390.156 729.969V723.438C388.24 723.875 386.656 724.354 385.406 724.875C384.156 725.375 383.198 725.927 382.531 726.531C381.885 727.135 381.438 727.76 381.188 728.406C380.938 729.031 380.812 729.76 380.812 730.594C380.812 731.635 381.115 732.458 381.719 733.062C382.344 733.646 383.104 733.938 384 733.938C386.083 733.938 388.135 732.615 390.156 729.969ZM429.188 718.375C429.188 721.667 428.125 724.302 426 726.281C423.875 728.26 421.292 729.25 418.25 729.25C416.812 729.25 415.469 729.146 414.219 728.938C412.969 729.729 412.344 730.708 412.344 731.875C412.344 732.812 412.927 733.5 414.094 733.938C415.281 734.354 417.302 734.562 420.156 734.562C420.615 734.562 421.479 734.542 422.75 734.5C424.021 734.458 425.031 734.438 425.781 734.438C431.594 734.438 434.5 736.823 434.5 741.594C434.5 742.948 434.094 744.375 433.281 745.875C432.49 747.375 431.396 748.771 430 750.062C428.625 751.375 426.885 752.458 424.781 753.312C422.698 754.167 420.5 754.594 418.188 754.594C414.542 754.594 411.781 753.917 409.906 752.562C408.031 751.229 407.094 749.562 407.094 747.562C407.094 746.167 407.604 744.771 408.625 743.375C409.667 741.979 411.208 740.729 413.25 739.625C409.229 739.042 407.219 737.479 407.219 734.938C407.219 733.729 407.667 732.594 408.562 731.531C409.479 730.448 410.719 729.323 412.281 728.156C410.156 726.969 408.688 725.604 407.875 724.062C407.062 722.521 406.656 720.771 406.656 718.812C406.656 717.604 406.938 716.396 407.5 715.188C408.083 713.958 408.865 712.865 409.844 711.906C410.823 710.927 412.021 710.135 413.438 709.531C414.875 708.906 416.385 708.594 417.969 708.594C419.427 708.594 420.625 708.708 421.562 708.938C422.5 709.146 423.667 709.521 425.062 710.062C426.458 710.604 427.771 711.052 429 711.406C429.104 710.594 429.427 709.906 429.969 709.344C430.51 708.76 431.208 708.469 432.062 708.469C432.833 708.469 433.521 708.792 434.125 709.438C434.75 710.083 435.062 710.823 435.062 711.656C435.062 712.51 434.792 713.25 434.25 713.875C433.729 714.479 433.062 714.781 432.25 714.781C431.771 714.781 431.292 714.698 430.812 714.531C430.333 714.365 429.938 714.198 429.625 714.031C429.333 713.844 428.896 713.552 428.312 713.156C427.729 712.74 427.271 712.427 426.938 712.219L426.812 712.375C427.583 713.062 428.167 713.948 428.562 715.031C428.979 716.094 429.188 717.208 429.188 718.375ZM412.875 745.312C412.875 746.146 413 746.938 413.25 747.688C413.5 748.438 413.896 749.146 414.438 749.812C414.979 750.479 415.74 751 416.719 751.375C417.719 751.771 418.885 751.969 420.219 751.969C421.927 751.969 423.438 751.698 424.75 751.156C426.083 750.635 427.094 749.979 427.781 749.188C428.469 748.396 428.979 747.625 429.312 746.875C429.646 746.146 429.812 745.479 429.812 744.875C429.812 744.042 429.74 743.333 429.594 742.75C429.448 742.188 429.167 741.635 428.75 741.094C428.354 740.573 427.729 740.177 426.875 739.906C426.021 739.635 424.938 739.5 423.625 739.5C422.917 739.5 421.594 739.542 419.656 739.625C417.719 739.708 416.479 739.75 415.938 739.75C414.979 740.417 414.229 741.24 413.688 742.219C413.146 743.198 412.875 744.229 412.875 745.312ZM413 718.875C413 724.438 414.656 727.219 417.969 727.219C419.552 727.219 420.76 726.531 421.594 725.156C422.427 723.781 422.844 721.5 422.844 718.312C422.844 716.854 422.677 715.594 422.344 714.531C422.01 713.448 421.573 712.646 421.031 712.125C420.51 711.583 419.979 711.198 419.438 710.969C418.917 710.74 418.385 710.625 417.844 710.625C416.448 710.625 415.292 711.281 414.375 712.594C413.458 713.906 413 716 413 718.875ZM437.812 692.062C441.771 691.688 445.281 690.833 448.344 689.5C448.906 689.729 449.271 690.01 449.438 690.344C449.438 713.948 449.521 728.073 449.688 732.719C449.708 733.156 449.833 733.552 450.062 733.906C450.312 734.24 450.583 734.51 450.875 734.719C451.167 734.906 451.562 735.083 452.062 735.25C452.562 735.396 452.948 735.5 453.219 735.562C453.51 735.604 453.896 735.656 454.375 735.719C454.5 735.969 454.562 736.229 454.562 736.5C454.562 736.771 454.5 737 454.375 737.188C451.625 737.062 448.958 737 446.375 737C443.833 737 441.188 737.062 438.438 737.188C438.354 736.854 438.312 736.625 438.312 736.5C438.312 736.396 438.354 736.135 438.438 735.719C439.125 735.635 439.677 735.552 440.094 735.469C440.531 735.365 441.073 735.208 441.719 735C442.385 734.792 442.885 734.5 443.219 734.125C443.552 733.729 443.729 733.26 443.75 732.719C443.833 730.656 443.875 726.042 443.875 718.875C443.875 715.562 443.865 711.052 443.844 705.344C443.823 699.635 443.812 696.125 443.812 694.812C442.625 694.125 440.625 693.698 437.812 693.531C437.708 693.26 437.656 693.01 437.656 692.781C437.656 692.573 437.708 692.333 437.812 692.062ZM458.875 711.281C462.917 710.865 466.438 710.01 469.438 708.719C469.958 708.927 470.323 709.198 470.531 709.531C470.531 720.344 470.615 728.073 470.781 732.719C470.802 733.26 470.958 733.729 471.25 734.125C471.562 734.5 472 734.792 472.562 735C473.125 735.208 473.594 735.365 473.969 735.469C474.344 735.552 474.833 735.635 475.438 735.719C475.562 735.969 475.625 736.229 475.625 736.5C475.625 736.771 475.562 737 475.438 737.188C472.688 737.062 470.021 737 467.438 737C464.896 737 462.25 737.062 459.5 737.188C459.417 736.854 459.375 736.625 459.375 736.5C459.375 736.396 459.417 736.135 459.5 735.719C460.188 735.635 460.75 735.552 461.188 735.469C461.625 735.365 462.167 735.208 462.812 735C463.458 734.792 463.948 734.5 464.281 734.125C464.615 733.729 464.792 733.26 464.812 732.719C464.896 730.656 464.938 728.156 464.938 725.219C464.938 724.24 464.927 722.573 464.906 720.219C464.885 717.865 464.875 715.802 464.875 714.031C463.688 713.302 461.688 712.875 458.875 712.75C458.792 712.417 458.75 712.156 458.75 711.969C458.75 711.844 458.792 711.615 458.875 711.281ZM463.781 698.219C463.781 697.156 464.156 696.25 464.906 695.5C465.677 694.75 466.583 694.375 467.625 694.375C468.688 694.375 469.594 694.75 470.344 695.5C471.094 696.25 471.469 697.156 471.469 698.219C471.469 699.26 471.094 700.167 470.344 700.938C469.594 701.688 468.688 702.062 467.625 702.062C466.583 702.062 465.677 701.688 464.906 700.938C464.156 700.167 463.781 699.26 463.781 698.219Z" fill="white"/>
<path d="M227.125 77.0625C231.833 77.2292 235.615 77.3125 238.469 77.3125C242.365 77.3125 245.885 77.2292 249.031 77.0625C249.115 77.3958 249.156 77.625 249.156 77.75C249.156 77.9792 249.115 78.2396 249.031 78.5312C246.594 78.6354 244.802 78.8542 243.656 79.1875C242.531 79.5208 241.969 80.0625 241.969 80.8125C241.969 81.0833 242.146 81.5521 242.5 82.2188L252.094 99.4375H252.344L262.844 81.9688C263.094 81.5521 263.219 81.125 263.219 80.6875C263.219 80.0417 262.802 79.5729 261.969 79.2812C261.156 78.9688 259.927 78.7188 258.281 78.5312C258.198 78.0729 258.156 77.7917 258.156 77.6875C258.156 77.5208 258.198 77.3125 258.281 77.0625C260.969 77.1875 263.406 77.25 265.594 77.25C267.948 77.25 270.312 77.1875 272.688 77.0625C272.771 77.3125 272.812 77.5208 272.812 77.6875C272.812 78.0208 272.771 78.3021 272.688 78.5312C271.167 78.6771 269.885 78.9896 268.844 79.4688C267.802 79.9479 266.906 80.7812 266.156 81.9688L253.188 102.906C253.188 107.406 253.292 112.677 253.5 118.719C253.521 119.26 253.76 119.729 254.219 120.125C254.677 120.5 255.333 120.792 256.188 121C257.062 121.208 257.792 121.365 258.375 121.469C258.979 121.552 259.76 121.635 260.719 121.719C260.802 121.969 260.844 122.25 260.844 122.562C260.844 122.729 260.802 122.938 260.719 123.188C257.219 123.062 253.594 123 249.844 123C246.115 123 242.49 123.062 238.969 123.188C238.885 122.938 238.844 122.729 238.844 122.562C238.844 122.208 238.885 121.927 238.969 121.719C239.927 121.635 240.698 121.552 241.281 121.469C241.885 121.365 242.615 121.208 243.469 121C244.344 120.792 245.01 120.5 245.469 120.125C245.927 119.729 246.167 119.26 246.188 118.719C246.396 113.49 246.531 108.219 246.594 102.906L234.375 81.5312C233.562 80.5104 232.562 79.7917 231.375 79.375C230.188 78.9583 228.771 78.6771 227.125 78.5312C227.042 78.1562 227 77.8958 227 77.75C227 77.5417 227.042 77.3125 227.125 77.0625ZM299.688 106.438H282.656C282.573 107.688 282.531 108.792 282.531 109.75C282.594 112.854 283.5 115.344 285.25 117.219C287 119.073 289.344 120 292.281 120C293.073 120 293.812 119.917 294.5 119.75C295.188 119.562 295.75 119.354 296.188 119.125C296.646 118.896 297.115 118.562 297.594 118.125C298.073 117.688 298.417 117.344 298.625 117.094C298.854 116.823 299.156 116.427 299.531 115.906C299.906 115.365 300.156 115.021 300.281 114.875C300.781 114.979 301.188 115.208 301.5 115.562C300.458 118.354 298.844 120.448 296.656 121.844C294.469 123.219 292.094 123.906 289.531 123.906C288.26 123.906 287.021 123.74 285.812 123.406C284.625 123.094 283.469 122.573 282.344 121.844C281.219 121.115 280.24 120.219 279.406 119.156C278.573 118.073 277.906 116.729 277.406 115.125C276.906 113.5 276.656 111.708 276.656 109.75C276.656 105.354 278 101.729 280.688 98.875C283.375 96.0208 286.677 94.5938 290.594 94.5938C292.323 94.5938 293.823 94.8438 295.094 95.3438C296.385 95.8229 297.385 96.4792 298.094 97.3125C298.823 98.1458 299.354 99.0625 299.688 100.062C300.042 101.042 300.219 102.094 300.219 103.219C300.219 104.26 300.042 105.333 299.688 106.438ZM289.844 96.625C288.406 96.625 287.042 97.2604 285.75 98.5312C284.479 99.8021 283.562 101.729 283 104.312H294.25C294.458 103.521 294.562 102.833 294.562 102.25C294.562 100.625 294.188 99.2812 293.438 98.2188C292.688 97.1562 291.49 96.625 289.844 96.625ZM322.375 78.0625C326.312 77.6875 329.833 76.8333 332.938 75.5C333.479 75.7292 333.833 76.0104 334 76.3438C334 99.9479 334.094 114.073 334.281 118.719C334.302 119.26 334.458 119.729 334.75 120.125C335.062 120.5 335.5 120.792 336.062 121C336.625 121.208 337.094 121.365 337.469 121.469C337.844 121.552 338.333 121.635 338.938 121.719C339.021 122.052 339.062 122.312 339.062 122.5C339.062 122.625 339.021 122.854 338.938 123.188C338.208 123.146 337.458 123.104 336.688 123.062C335.938 123.021 335.344 122.99 334.906 122.969C334.469 122.948 334.062 122.938 333.688 122.938C333.375 122.938 333.021 122.948 332.625 122.969C332.229 122.99 331.688 123.021 331 123.062C330.312 123.104 329.635 123.146 328.969 123.188C328.865 123.146 328.771 123.094 328.688 123.031C328.625 122.99 328.573 122.958 328.531 122.938C328.51 122.896 328.479 122.844 328.438 122.781C328.396 122.698 328.365 122.646 328.344 122.625C328.323 122.604 328.292 122.542 328.25 122.438C328.229 122.312 328.208 122.24 328.188 122.219C328.271 121.719 328.312 120.594 328.312 118.844C324.875 122.219 321.698 123.906 318.781 123.906C315.573 123.906 312.958 122.698 310.938 120.281C308.917 117.865 307.906 114.573 307.906 110.406C307.906 108.969 308.073 107.531 308.406 106.094C308.74 104.656 309.292 103.24 310.062 101.844C310.833 100.448 311.781 99.2188 312.906 98.1562C314.031 97.0938 315.458 96.2396 317.188 95.5938C318.917 94.9271 320.833 94.5938 322.938 94.5938C324.5 94.5938 326.333 94.9271 328.438 95.5938C328.396 91.6354 328.375 86.7083 328.375 80.8125C327.188 80.125 325.188 79.6979 322.375 79.5312C322.292 79.1979 322.25 78.9479 322.25 78.7812C322.25 78.6354 322.292 78.3958 322.375 78.0625ZM321.781 119.812C323.865 119.812 326.062 118.698 328.375 116.469C328.417 114.427 328.438 110.562 328.438 104.875V100.344C327 97.8646 324.802 96.625 321.844 96.625C321.219 96.625 320.594 96.7188 319.969 96.9062C319.344 97.0938 318.677 97.4688 317.969 98.0312C317.26 98.5938 316.635 99.3125 316.094 100.188C315.573 101.062 315.135 102.281 314.781 103.844C314.427 105.385 314.25 107.167 314.25 109.188C314.25 112.271 314.885 114.812 316.156 116.812C317.448 118.812 319.323 119.812 321.781 119.812ZM341.75 97.2812C345.833 96.8646 349.354 96.0104 352.312 94.7188C352.875 94.9062 353.24 95.1771 353.406 95.5312V99.1875C356.615 96.125 359.833 94.5938 363.062 94.5938C366.271 94.5938 368.885 95.7917 370.906 98.1875C372.927 100.562 373.938 103.781 373.938 107.844C373.938 109.365 373.771 110.865 373.438 112.344C373.104 113.802 372.552 115.24 371.781 116.656C371.031 118.052 370.094 119.281 368.969 120.344C367.865 121.406 366.458 122.271 364.75 122.938C363.042 123.583 361.156 123.906 359.094 123.906C357.156 123.906 355.281 123.542 353.469 122.812C353.469 128.479 353.531 132.656 353.656 135.344C353.677 135.781 353.854 136.167 354.188 136.5C354.521 136.854 354.906 137.125 355.344 137.312C355.781 137.521 356.375 137.698 357.125 137.844C357.875 138.01 358.49 138.115 358.969 138.156C359.469 138.219 360.115 138.292 360.906 138.375C361.031 138.625 361.094 138.875 361.094 139.125C361.094 139.375 361.031 139.615 360.906 139.844C356.573 139.698 353.052 139.625 350.344 139.625C348.26 139.625 345.615 139.698 342.406 139.844C342.323 139.469 342.281 139.229 342.281 139.125C342.281 139.042 342.323 138.792 342.406 138.375C343.135 138.271 343.698 138.177 344.094 138.094C344.49 138.01 345.021 137.854 345.688 137.625C346.354 137.417 346.854 137.115 347.188 136.719C347.521 136.344 347.698 135.885 347.719 135.344C347.802 133.302 347.844 128.698 347.844 121.531C347.844 118.198 347.833 114.104 347.812 109.25C347.792 104.396 347.781 101.323 347.781 100.031C346.594 99.3021 344.583 98.875 341.75 98.75C341.667 98.4167 341.625 98.1562 341.625 97.9688C341.625 97.8438 341.667 97.6146 341.75 97.2812ZM360.062 98.6875C358.708 98.6875 357.521 98.9375 356.5 99.4375C355.479 99.9375 354.448 100.667 353.406 101.625V117.875C354.635 120.521 356.833 121.844 360 121.844C360.625 121.844 361.25 121.74 361.875 121.531C362.521 121.323 363.198 120.927 363.906 120.344C364.615 119.76 365.229 119.021 365.75 118.125C366.292 117.229 366.74 116.021 367.094 114.5C367.448 112.979 367.625 111.25 367.625 109.312C367.625 107.312 367.365 105.531 366.844 103.969C366.323 102.406 365.479 101.135 364.312 100.156C363.146 99.1771 361.729 98.6875 360.062 98.6875ZM383.125 102.469C383.125 100.177 384.167 98.2917 386.25 96.8125C388.354 95.3333 390.833 94.5938 393.688 94.5938C397.188 94.5938 399.646 95.2917 401.062 96.6875C402.5 98.0833 403.219 100.438 403.219 103.75V116.719C403.219 117.885 403.646 118.469 404.5 118.469C405.188 118.469 406.062 117.635 407.125 115.969C407.875 116.031 408.385 116.365 408.656 116.969C408.51 117.177 408.26 117.552 407.906 118.094C407.552 118.635 407.292 119.021 407.125 119.25C406.958 119.479 406.698 119.833 406.344 120.312C405.99 120.771 405.698 121.115 405.469 121.344C405.26 121.573 404.969 121.844 404.594 122.156C404.24 122.469 403.906 122.708 403.594 122.875C403.302 123.021 402.958 123.146 402.562 123.25C402.167 123.375 401.771 123.438 401.375 123.438C400.333 123.438 399.469 123.062 398.781 122.312C398.115 121.562 397.719 120.406 397.594 118.844C397.573 118.865 397.25 119.167 396.625 119.75C396 120.333 395.562 120.729 395.312 120.938C395.083 121.125 394.635 121.469 393.969 121.969C393.323 122.448 392.771 122.792 392.312 123C391.854 123.208 391.281 123.406 390.594 123.594C389.906 123.802 389.229 123.906 388.562 123.906C387.5 123.906 386.552 123.76 385.719 123.469C384.906 123.177 384.271 122.823 383.812 122.406C383.354 121.99 382.979 121.51 382.688 120.969C382.396 120.406 382.198 119.896 382.094 119.438C382.01 118.979 381.969 118.521 381.969 118.062C381.969 116.667 382.198 115.49 382.656 114.531C383.135 113.573 384.01 112.677 385.281 111.844C386.573 111.01 388.156 110.271 390.031 109.625C391.906 108.979 394.427 108.25 397.594 107.438V103.094C397.594 100.99 397.125 99.4167 396.188 98.375C395.271 97.3333 394.031 96.8125 392.469 96.8125C391.073 96.8125 389.896 97.0938 388.938 97.6562C388 98.1979 387.427 98.8333 387.219 99.5625C389.26 99.875 390.281 100.99 390.281 102.906C390.281 103.781 389.969 104.552 389.344 105.219C388.719 105.885 387.844 106.219 386.719 106.219C385.781 106.219 384.948 105.896 384.219 105.25C383.49 104.583 383.125 103.656 383.125 102.469ZM397.594 115.969V109.438C395.677 109.875 394.094 110.354 392.844 110.875C391.594 111.375 390.635 111.927 389.969 112.531C389.323 113.135 388.875 113.76 388.625 114.406C388.375 115.031 388.25 115.76 388.25 116.594C388.25 117.635 388.552 118.458 389.156 119.062C389.781 119.646 390.542 119.938 391.438 119.938C393.521 119.938 395.573 118.615 397.594 115.969ZM432 121.719C433.833 121.531 434.75 121.042 434.75 120.25C434.75 119.792 434.521 119.281 434.062 118.719L425.531 107.781H424C424 112.76 424.062 116.406 424.188 118.719C424.188 119.26 424.323 119.729 424.594 120.125C424.885 120.5 425.302 120.792 425.844 121C426.406 121.208 426.865 121.365 427.219 121.469C427.594 121.552 428.083 121.635 428.688 121.719C428.812 121.969 428.875 122.229 428.875 122.5C428.875 122.771 428.812 123 428.688 123.188C425.938 123.062 423.333 123 420.875 123C418.333 123 415.688 123.062 412.938 123.188C412.854 122.854 412.812 122.625 412.812 122.5C412.812 122.396 412.854 122.135 412.938 121.719C413.625 121.635 414.177 121.552 414.594 121.469C415.031 121.365 415.573 121.208 416.219 121C416.885 120.792 417.385 120.5 417.719 120.125C418.052 119.729 418.229 119.26 418.25 118.719C418.333 116.656 418.365 110.156 418.344 99.2188C418.323 88.2604 418.312 82.125 418.312 80.8125C417.125 80.125 415.125 79.6979 412.312 79.5312C412.208 79.2604 412.156 79.0104 412.156 78.7812C412.156 78.5729 412.208 78.3333 412.312 78.0625C416.271 77.6875 419.781 76.8333 422.844 75.5C423.406 75.7292 423.771 76.0104 423.938 76.3438L424 105.781H425.625L431.938 99.7812C432.333 99.3229 432.531 98.8542 432.531 98.375C432.531 97.5 431.542 96.9583 429.562 96.75C429.479 96.4167 429.438 96.1875 429.438 96.0625C429.438 95.875 429.479 95.6146 429.562 95.2812C432.271 95.4062 434.427 95.4688 436.031 95.4688C437.781 95.4688 440 95.4062 442.688 95.2812C442.771 95.5312 442.812 95.75 442.812 95.9375C442.812 96.0625 442.771 96.3333 442.688 96.75C440.833 96.9583 439.302 97.2708 438.094 97.6875C436.885 98.0833 435.792 98.7812 434.812 99.7812L429.844 104.812L440.844 118.719C442.094 120.344 443.969 121.344 446.469 121.719C446.552 122.135 446.594 122.417 446.594 122.562C446.594 122.729 446.552 122.938 446.469 123.188C443.781 123.062 441.354 123 439.188 123C437.083 123 434.688 123.062 432 123.188C431.917 122.854 431.875 122.604 431.875 122.438C431.875 122.292 431.917 122.052 432 121.719Z" fill="white"/>
</svg>
