<svg width="667" height="574" viewBox="0 0 667 574" fill="none" xmlns="http://www.w3.org/2000/svg">
<path d="M329.731 77.3246L333.333 81.0675L336.936 77.3246C410.653 0.734727 491.757 -8.74242 554.169 19.7863C616.896 48.459 661.667 115.895 661.667 195.073C661.667 274.561 628.876 335.548 583.678 386.442C546.885 427.873 502.14 462.352 460.225 494.651C450.456 502.179 440.84 509.588 431.515 516.94C414.164 530.618 397.447 543.638 380.97 553.266C364.492 562.894 348.731 568.836 333.333 568.836C317.936 568.836 302.174 562.894 285.696 553.266C269.22 543.638 252.504 530.618 235.153 516.94C225.827 509.588 216.211 502.178 206.442 494.65C164.527 462.352 119.782 427.872 82.9886 386.442C37.791 335.548 5 274.561 5 195.073C5 115.895 49.7702 48.459 112.497 19.7863C174.909 -8.74241 256.013 0.734719 329.731 77.3246Z" fill="#FF0000" stroke="black" stroke-width="10"/>
<mask id="path-2-outside-1_1_59" maskUnits="userSpaceOnUse" x="199.333" y="148.503" width="261" height="269" fill="black">
<rect fill="white" x="199.333" y="148.503" width="261" height="269"/>
<path d="M450.818 159.308C447.628 166.599 444.779 172.98 442.273 178.448C439.766 183.917 437.602 188.588 435.779 192.462C433.728 196.791 432.019 200.665 430.652 204.083C429.512 206.59 428.031 210.008 426.208 214.337C424.385 218.211 422.107 223.338 419.372 229.718C416.866 235.87 413.562 243.845 409.46 253.644C407.41 245.213 404.903 237.807 401.941 231.427C398.979 225.047 395.788 219.464 392.37 214.679C388.953 209.894 385.307 206.02 381.433 203.058C377.787 199.868 374.141 197.247 370.495 195.196C362.064 190.639 353.178 188.133 343.835 187.677C331.531 188.36 321.846 190.411 314.783 193.829C307.947 197.019 302.934 200.779 299.744 205.108C296.553 209.21 294.844 213.539 294.617 218.097C294.389 222.426 294.958 226.072 296.326 229.034C297.465 231.769 301.453 234.959 308.288 238.605C315.352 242.25 323.783 246.466 333.581 251.251C343.607 255.808 354.317 261.049 365.71 266.974C377.104 272.67 387.585 279.051 397.156 286.114C406.954 292.95 415.157 300.47 421.765 308.673C428.601 316.648 432.361 325.193 433.044 334.308C433.728 345.929 433.614 356.411 432.703 365.753C431.791 375.095 428.601 383.071 423.132 389.679C417.663 396.287 409.119 401.528 397.497 405.401C386.104 409.275 370.268 411.668 349.988 412.579C329.024 413.491 311.82 412.351 298.376 409.161C284.932 405.971 273.995 401.642 265.564 396.173C257.361 390.704 251.208 384.666 247.107 378.058C243.233 371.45 240.385 365.183 238.562 359.259C236.739 353.107 235.486 347.866 234.802 343.536C234.119 338.979 232.979 336.245 231.384 335.333C229.561 334.194 227.738 333.168 225.915 332.257C224.32 331.345 222.611 330.548 220.788 329.864C218.966 328.953 217.143 328.155 215.32 327.472L314.783 311.407C309.086 315.965 304.643 320.18 301.453 324.054C298.49 327.927 296.212 331.345 294.617 334.308C292.794 337.726 291.54 340.916 290.857 343.878C290.401 347.068 291.426 351.056 293.933 355.841C296.439 360.626 299.857 365.297 304.187 369.855C308.744 374.184 313.985 377.83 319.91 380.792C325.834 383.754 331.986 385.008 338.367 384.552C346.342 383.868 352.836 381.931 357.849 378.741C362.862 375.323 366.622 371.108 369.128 366.095C371.863 361.082 373.458 355.613 373.913 349.689C374.369 343.764 373.8 337.954 372.204 332.257C370.837 326.332 368.559 320.864 365.369 315.851C362.178 310.61 358.419 306.28 354.089 302.862C350.216 300.128 344.177 297.508 335.974 295.001C327.999 292.495 318.998 289.76 308.972 286.798C299.174 283.836 289.034 280.418 278.552 276.544C268.298 272.67 258.956 267.885 250.525 262.189C242.322 256.492 235.714 249.77 230.701 242.023C225.915 234.275 224.092 224.933 225.232 213.995C226.143 204.653 229.106 196.905 234.119 190.753C239.359 184.373 245.854 179.36 253.601 175.714C261.576 171.84 270.349 168.992 279.919 167.169C289.717 165.346 299.63 164.321 309.656 164.093C319.91 163.637 329.936 163.751 339.734 164.435C349.76 165.118 358.76 165.916 366.736 166.827C374.711 167.739 381.433 168.65 386.902 169.562C392.598 170.245 396.13 170.701 397.497 170.929C403.422 171.385 409.346 171.271 415.271 170.587C420.512 170.131 426.208 169.106 432.361 167.511C438.741 165.688 444.893 162.954 450.818 159.308Z"/>
</mask>
<path d="M450.818 159.308C447.628 166.599 444.779 172.98 442.273 178.448C439.766 183.917 437.602 188.588 435.779 192.462C433.728 196.791 432.019 200.665 430.652 204.083C429.512 206.59 428.031 210.008 426.208 214.337C424.385 218.211 422.107 223.338 419.372 229.718C416.866 235.87 413.562 243.845 409.46 253.644C407.41 245.213 404.903 237.807 401.941 231.427C398.979 225.047 395.788 219.464 392.37 214.679C388.953 209.894 385.307 206.02 381.433 203.058C377.787 199.868 374.141 197.247 370.495 195.196C362.064 190.639 353.178 188.133 343.835 187.677C331.531 188.36 321.846 190.411 314.783 193.829C307.947 197.019 302.934 200.779 299.744 205.108C296.553 209.21 294.844 213.539 294.617 218.097C294.389 222.426 294.958 226.072 296.326 229.034C297.465 231.769 301.453 234.959 308.288 238.605C315.352 242.25 323.783 246.466 333.581 251.251C343.607 255.808 354.317 261.049 365.71 266.974C377.104 272.67 387.585 279.051 397.156 286.114C406.954 292.95 415.157 300.47 421.765 308.673C428.601 316.648 432.361 325.193 433.044 334.308C433.728 345.929 433.614 356.411 432.703 365.753C431.791 375.095 428.601 383.071 423.132 389.679C417.663 396.287 409.119 401.528 397.497 405.401C386.104 409.275 370.268 411.668 349.988 412.579C329.024 413.491 311.82 412.351 298.376 409.161C284.932 405.971 273.995 401.642 265.564 396.173C257.361 390.704 251.208 384.666 247.107 378.058C243.233 371.45 240.385 365.183 238.562 359.259C236.739 353.107 235.486 347.866 234.802 343.536C234.119 338.979 232.979 336.245 231.384 335.333C229.561 334.194 227.738 333.168 225.915 332.257C224.32 331.345 222.611 330.548 220.788 329.864C218.966 328.953 217.143 328.155 215.32 327.472L314.783 311.407C309.086 315.965 304.643 320.18 301.453 324.054C298.49 327.927 296.212 331.345 294.617 334.308C292.794 337.726 291.54 340.916 290.857 343.878C290.401 347.068 291.426 351.056 293.933 355.841C296.439 360.626 299.857 365.297 304.187 369.855C308.744 374.184 313.985 377.83 319.91 380.792C325.834 383.754 331.986 385.008 338.367 384.552C346.342 383.868 352.836 381.931 357.849 378.741C362.862 375.323 366.622 371.108 369.128 366.095C371.863 361.082 373.458 355.613 373.913 349.689C374.369 343.764 373.8 337.954 372.204 332.257C370.837 326.332 368.559 320.864 365.369 315.851C362.178 310.61 358.419 306.28 354.089 302.862C350.216 300.128 344.177 297.508 335.974 295.001C327.999 292.495 318.998 289.76 308.972 286.798C299.174 283.836 289.034 280.418 278.552 276.544C268.298 272.67 258.956 267.885 250.525 262.189C242.322 256.492 235.714 249.77 230.701 242.023C225.915 234.275 224.092 224.933 225.232 213.995C226.143 204.653 229.106 196.905 234.119 190.753C239.359 184.373 245.854 179.36 253.601 175.714C261.576 171.84 270.349 168.992 279.919 167.169C289.717 165.346 299.63 164.321 309.656 164.093C319.91 163.637 329.936 163.751 339.734 164.435C349.76 165.118 358.76 165.916 366.736 166.827C374.711 167.739 381.433 168.65 386.902 169.562C392.598 170.245 396.13 170.701 397.497 170.929C403.422 171.385 409.346 171.271 415.271 170.587C420.512 170.131 426.208 169.106 432.361 167.511C438.741 165.688 444.893 162.954 450.818 159.308Z" fill="white"/>
<path d="M450.818 159.308L454.482 160.911L459.604 149.204L448.721 155.901L450.818 159.308ZM435.779 192.462L439.394 194.174L439.398 194.165L435.779 192.462ZM430.652 204.083L434.293 205.738L434.331 205.654L434.366 205.569L430.652 204.083ZM426.208 214.337L429.828 216.04L429.863 215.965L429.895 215.889L426.208 214.337ZM419.372 229.718L415.696 228.142L415.682 228.175L415.668 228.209L419.372 229.718ZM409.46 253.644L405.574 254.589L408.45 266.415L413.15 255.188L409.46 253.644ZM401.941 231.427L405.569 229.742L401.941 231.427ZM381.433 203.058L378.799 206.068L378.898 206.155L379.003 206.235L381.433 203.058ZM370.495 195.196L372.457 191.71L372.427 191.694L372.398 191.678L370.495 195.196ZM343.835 187.677L344.03 183.682L343.822 183.671L343.613 183.683L343.835 187.677ZM314.783 193.829L316.474 197.454L316.5 197.442L316.525 197.43L314.783 193.829ZM299.744 205.108L302.901 207.564L302.933 207.523L302.964 207.481L299.744 205.108ZM294.617 218.097L298.611 218.307L298.612 218.296L294.617 218.097ZM296.326 229.034L300.018 227.496L299.989 227.426L299.957 227.358L296.326 229.034ZM308.288 238.605L306.406 242.134L306.43 242.147L306.454 242.159L308.288 238.605ZM333.581 251.251L331.826 254.845L331.876 254.87L331.926 254.893L333.581 251.251ZM365.71 266.974L363.865 270.523L363.893 270.537L363.921 270.551L365.71 266.974ZM397.156 286.114L394.78 289.333L394.823 289.364L394.867 289.395L397.156 286.114ZM421.765 308.673L418.65 311.182L418.688 311.23L418.728 311.276L421.765 308.673ZM433.044 334.308L437.037 334.073L437.036 334.041L437.033 334.009L433.044 334.308ZM423.132 389.679L420.051 387.129L423.132 389.679ZM397.497 405.401L396.233 401.607L396.221 401.61L396.21 401.614L397.497 405.401ZM349.988 412.579L350.161 416.575L350.167 416.575L349.988 412.579ZM265.564 396.173L263.345 399.501L263.366 399.515L263.387 399.529L265.564 396.173ZM247.107 378.058L243.656 380.081L243.682 380.124L243.708 380.167L247.107 378.058ZM238.562 359.259L234.727 360.395L234.733 360.415L234.739 360.435L238.562 359.259ZM234.802 343.536L230.846 344.13L230.849 344.145L230.851 344.16L234.802 343.536ZM231.384 335.333L229.264 338.725L229.331 338.767L229.4 338.806L231.384 335.333ZM225.915 332.257L223.931 335.73L224.027 335.785L224.127 335.835L225.915 332.257ZM220.788 329.864L219 333.442L219.187 333.536L219.384 333.61L220.788 329.864ZM215.32 327.472L214.682 323.523L199.805 325.926L213.915 331.217L215.32 327.472ZM314.783 311.407L317.281 314.531L329.151 305.035L314.145 307.458L314.783 311.407ZM301.453 324.054L298.365 321.511L298.319 321.567L298.275 321.624L301.453 324.054ZM294.617 334.308L291.095 332.411L291.091 332.418L291.087 332.425L294.617 334.308ZM290.857 343.878L286.959 342.979L286.921 343.144L286.897 343.312L290.857 343.878ZM304.187 369.855L301.287 372.61L301.358 372.684L301.432 372.755L304.187 369.855ZM319.91 380.792L321.698 377.214L319.91 380.792ZM338.367 384.552L338.652 388.542L338.68 388.54L338.708 388.537L338.367 384.552ZM357.849 378.741L359.997 382.116L360.05 382.082L360.102 382.046L357.849 378.741ZM369.128 366.095L365.617 364.179L365.583 364.242L365.551 364.306L369.128 366.095ZM372.204 332.257L368.307 333.156L368.328 333.246L368.353 333.335L372.204 332.257ZM365.369 315.851L361.952 317.93L361.972 317.965L361.994 317.998L365.369 315.851ZM354.089 302.862L356.568 299.723L356.484 299.656L356.396 299.594L354.089 302.862ZM335.974 295.001L334.775 298.817L334.79 298.822L334.805 298.826L335.974 295.001ZM308.972 286.798L307.814 290.627L307.827 290.63L307.839 290.634L308.972 286.798ZM278.552 276.544L277.139 280.286L277.152 280.291L277.166 280.296L278.552 276.544ZM250.525 262.189L248.243 265.474L248.264 265.489L248.285 265.503L250.525 262.189ZM230.701 242.023L227.297 244.124L227.319 244.16L227.342 244.196L230.701 242.023ZM225.232 213.995L229.21 214.41L229.212 214.397L229.213 214.384L225.232 213.995ZM234.119 190.753L231.028 188.214L231.023 188.22L231.018 188.226L234.119 190.753ZM253.601 175.714L255.304 179.333L255.326 179.323L255.349 179.312L253.601 175.714ZM279.919 167.169L279.188 163.236L279.179 163.238L279.171 163.24L279.919 167.169ZM309.656 164.093L309.747 168.092L309.79 168.091L309.833 168.089L309.656 164.093ZM339.734 164.435L339.455 168.425L339.462 168.425L339.734 164.435ZM386.902 169.562L386.244 173.507L386.334 173.522L386.425 173.533L386.902 169.562ZM397.497 170.929L396.84 174.874L397.014 174.903L397.191 174.917L397.497 170.929ZM415.271 170.587L414.924 166.602L414.868 166.607L414.812 166.613L415.271 170.587ZM432.361 167.511L433.365 171.383L433.412 171.37L433.46 171.357L432.361 167.511ZM447.153 157.704C443.97 164.981 441.131 171.339 438.637 176.782L445.909 180.115C448.428 174.62 451.286 168.218 454.482 160.911L447.153 157.704ZM438.637 176.782C436.134 182.243 433.975 186.901 432.159 190.759L439.398 194.165C441.228 190.276 443.399 185.591 445.909 180.115L438.637 176.782ZM432.164 190.75C430.087 195.133 428.343 199.084 426.938 202.598L434.366 205.569C435.695 202.246 437.368 198.45 439.394 194.174L432.164 190.75ZM427.01 202.428C425.848 204.984 424.351 208.441 422.522 212.785L429.895 215.889C431.712 211.574 433.176 208.195 434.293 205.738L427.01 202.428ZM422.589 212.634C420.738 216.567 418.439 221.742 415.696 228.142L423.049 231.294C425.775 224.933 428.033 219.854 429.828 216.04L422.589 212.634ZM415.668 228.209C413.168 234.344 409.87 242.307 405.771 252.099L413.15 255.188C417.254 245.384 420.564 237.396 423.077 231.227L415.668 228.209ZM413.347 252.698C411.248 244.069 408.663 236.407 405.569 229.742L398.313 233.111C401.143 239.207 403.571 246.356 405.574 254.589L413.347 252.698ZM405.569 229.742C402.522 223.18 399.212 217.375 395.625 212.354L389.116 217.004C392.365 221.553 395.435 226.913 398.313 233.111L405.569 229.742ZM395.625 212.354C392.022 207.309 388.11 203.128 383.863 199.88L379.003 206.235C382.504 208.912 385.883 212.478 389.116 217.004L395.625 212.354ZM384.067 200.047C380.246 196.704 376.377 193.915 372.457 191.71L368.534 198.683C371.906 200.579 375.329 203.032 378.799 206.068L384.067 200.047ZM372.398 191.678C363.454 186.843 353.985 184.167 344.03 183.682L343.64 191.672C352.37 192.098 360.675 194.435 368.593 198.715L372.398 191.678ZM343.613 183.683C331.049 184.381 320.773 186.487 313.04 190.229L316.525 197.43C322.92 194.336 332.013 192.34 344.057 191.671L343.613 183.683ZM313.091 190.204C305.88 193.57 300.238 197.694 296.523 202.736L302.964 207.481C305.629 203.864 310.014 200.469 316.474 197.454L313.091 190.204ZM296.586 202.653C292.964 207.309 290.896 212.409 290.622 217.897L298.612 218.296C298.793 214.67 300.142 211.111 302.901 207.564L296.586 202.653ZM290.622 217.887C290.371 222.66 290.98 226.996 292.694 230.71L299.957 227.358C298.937 225.148 298.407 222.193 298.611 218.307L290.622 217.887ZM292.633 230.573C293.586 232.859 295.484 234.851 297.672 236.601C299.93 238.407 302.87 240.248 306.406 242.134L310.171 235.075C306.871 233.315 304.399 231.738 302.67 230.354C300.87 228.914 300.204 227.944 300.018 227.496L292.633 230.573ZM306.454 242.159C313.552 245.822 322.01 250.052 331.826 254.845L335.337 247.657C325.556 242.88 317.153 238.678 310.123 235.05L306.454 242.159ZM331.926 254.893C341.879 259.416 352.524 264.625 363.865 270.523L367.556 263.425C356.11 257.473 345.336 252.2 335.237 247.61L331.926 254.893ZM363.921 270.551C375.124 276.152 385.407 282.414 394.78 289.333L399.531 282.896C389.763 275.687 379.084 269.188 367.499 263.396L363.921 270.551ZM394.867 289.395C404.395 296.043 412.309 303.31 418.65 311.182L424.88 306.164C418.005 297.629 409.512 289.858 399.444 282.834L394.867 289.395ZM418.728 311.276C425.095 318.705 428.445 326.465 429.056 334.607L437.033 334.009C436.277 323.921 432.107 314.592 424.802 306.07L418.728 311.276ZM429.051 334.543C429.725 346.003 429.609 356.272 428.721 365.365L436.684 366.141C437.619 356.55 437.73 345.854 437.037 334.073L429.051 334.543ZM428.721 365.365C427.88 373.991 424.963 381.193 420.051 387.129L426.214 392.229C432.239 384.948 435.702 376.2 436.684 366.141L428.721 365.365ZM420.051 387.129C415.222 392.963 407.432 397.873 396.233 401.607L398.762 409.196C410.805 405.182 420.105 399.61 426.214 392.229L420.051 387.129ZM396.21 401.614C385.336 405.311 369.931 407.679 349.808 408.583L350.167 416.575C370.604 415.657 386.872 413.239 398.785 409.189L396.21 401.614ZM349.814 408.583C329.049 409.486 312.25 408.342 299.3 405.269L297.453 413.053C311.391 416.36 328.999 417.495 350.161 416.575L349.814 408.583ZM299.3 405.269C286.146 402.148 275.673 397.963 267.741 392.817L263.387 399.529C272.316 405.321 283.719 409.794 297.453 413.053L299.3 405.269ZM267.783 392.845C259.932 387.611 254.236 381.959 250.505 375.948L243.708 380.167C248.181 387.373 254.789 393.797 263.345 399.501L267.783 392.845ZM250.558 376.035C246.805 369.634 244.099 363.652 242.385 358.083L234.739 360.435C236.671 366.715 239.661 373.265 243.656 380.081L250.558 376.035ZM242.397 358.122C240.603 352.069 239.4 347.009 238.753 342.912L230.851 344.16C231.571 348.722 232.875 354.144 234.727 360.395L242.397 358.122ZM238.758 342.943C238.391 340.498 237.873 338.318 237.127 336.529C236.41 334.809 235.278 332.951 233.369 331.86L229.4 338.806C229.086 338.627 229.32 338.592 229.743 339.606C230.137 340.551 230.53 342.017 230.846 344.13L238.758 342.943ZM233.504 331.941C231.58 330.738 229.646 329.65 227.704 328.679L224.127 335.835C225.83 336.686 227.543 337.649 229.264 338.725L233.504 331.941ZM227.9 328.784C226.108 327.76 224.204 326.873 222.193 326.119L219.384 333.61C221.018 334.223 222.532 334.931 223.931 335.73L227.9 328.784ZM222.577 326.287C220.635 325.316 218.684 324.461 216.724 323.726L213.915 331.217C215.601 331.849 217.296 332.59 219 333.442L222.577 326.287ZM215.957 331.421L315.42 315.356L314.145 307.458L214.682 323.523L215.957 331.421ZM312.284 308.284C306.459 312.943 301.79 317.352 298.365 321.511L304.54 326.597C307.495 323.008 311.713 318.986 317.281 314.531L312.284 308.284ZM298.275 321.624C295.236 325.598 292.824 329.2 291.095 332.411L298.138 336.204C299.599 333.491 301.745 330.257 304.63 326.484L298.275 321.624ZM291.087 332.425C289.142 336.073 287.74 339.595 286.959 342.979L294.754 344.777C295.341 342.236 296.446 339.378 298.146 336.19L291.087 332.425ZM286.897 343.312C286.266 347.727 287.732 352.623 290.39 357.697L297.476 353.985C295.121 349.489 294.536 346.409 294.817 344.444L286.897 343.312ZM290.39 357.697C293.093 362.858 296.743 367.827 301.287 372.61L307.087 367.1C302.972 362.768 299.786 358.394 297.476 353.985L290.39 357.697ZM301.432 372.755C306.291 377.371 311.861 381.24 318.121 384.37L321.698 377.214C316.109 374.419 311.197 370.997 306.942 366.955L301.432 372.755ZM318.121 384.37C324.663 387.641 331.529 389.05 338.652 388.542L338.082 380.562C332.443 380.965 327.005 379.868 321.698 377.214L318.121 384.37ZM338.708 388.537C347.113 387.817 354.284 385.751 359.997 382.116L355.701 375.367C351.388 378.112 345.571 379.92 338.025 380.566L338.708 388.537ZM360.102 382.046C365.631 378.277 369.87 373.556 372.706 367.884L365.551 364.306C363.374 368.659 360.093 372.37 355.596 375.436L360.102 382.046ZM372.64 368.01C375.656 362.48 377.404 356.46 377.902 349.995L369.925 349.382C369.511 354.766 368.069 359.683 365.617 364.179L372.64 368.01ZM377.902 349.995C378.393 343.607 377.778 337.327 376.056 331.178L368.353 333.335C369.821 338.58 370.345 343.921 369.925 349.382L377.902 349.995ZM376.102 331.357C374.635 325.001 372.183 319.108 368.743 313.703L361.994 317.998C364.934 322.619 367.039 327.664 368.307 333.156L376.102 331.357ZM368.785 313.771C365.376 308.169 361.31 303.467 356.568 299.723L351.611 306.002C355.527 309.094 358.981 313.05 361.952 317.93L368.785 313.771ZM356.396 299.594C352.001 296.492 345.48 293.723 337.143 291.176L334.805 298.826C342.874 301.292 348.43 303.764 351.783 306.13L356.396 299.594ZM337.173 291.185C329.172 288.67 320.148 285.929 310.105 282.962L307.839 290.634C317.848 293.591 326.826 296.319 334.775 298.817L337.173 291.185ZM310.13 282.969C300.415 280.032 290.352 276.64 279.939 272.792L277.166 280.296C287.716 284.195 297.933 287.639 307.814 290.627L310.13 282.969ZM279.966 272.802C269.981 269.03 260.918 264.384 252.764 258.874L248.285 265.503C256.993 271.386 266.616 276.311 277.139 280.286L279.966 272.802ZM252.806 258.903C244.996 253.479 238.766 247.125 234.059 239.85L227.342 244.196C232.661 252.415 239.648 259.505 248.243 265.474L252.806 258.903ZM234.104 239.921C229.874 233.072 228.143 224.656 229.21 214.41L221.253 213.581C220.042 225.21 221.957 235.479 227.297 244.124L234.104 239.921ZM229.213 214.384C230.062 205.679 232.789 198.717 237.219 193.28L231.018 188.226C225.422 195.094 222.224 203.626 221.251 213.607L229.213 214.384ZM237.209 193.292C242.06 187.387 248.073 182.736 255.304 179.333L251.898 172.095C243.634 175.984 236.659 181.358 231.028 188.214L237.209 193.292ZM255.349 179.312C262.977 175.607 271.41 172.862 280.668 171.098L279.171 163.24C269.288 165.122 260.175 168.074 251.853 172.116L255.349 179.312ZM280.651 171.102C290.236 169.318 299.934 168.315 309.747 168.092L309.565 160.094C299.325 160.327 289.199 161.374 279.188 163.236L280.651 171.102ZM309.833 168.089C319.942 167.64 329.816 167.752 339.455 168.425L340.012 160.444C330.056 159.75 319.877 159.635 309.478 160.097L309.833 168.089ZM339.462 168.425C349.441 169.106 358.38 169.898 366.282 170.801L367.19 162.853C359.141 161.933 350.078 161.131 340.006 160.444L339.462 168.425ZM366.282 170.801C374.216 171.708 380.865 172.611 386.244 173.507L387.559 165.616C382.001 164.69 375.206 163.769 367.19 162.853L366.282 170.801ZM386.425 173.533C392.158 174.221 395.584 174.665 396.84 174.874L398.155 166.983C396.677 166.737 393.039 166.269 387.378 165.59L386.425 173.533ZM397.191 174.917C403.371 175.392 409.552 175.273 415.729 174.561L414.812 166.613C409.141 167.268 403.473 167.377 397.804 166.941L397.191 174.917ZM415.617 174.572C421.12 174.093 427.039 173.023 433.365 171.383L431.357 163.639C425.377 165.189 419.903 166.169 414.924 166.602L415.617 174.572ZM433.46 171.357C440.207 169.429 446.694 166.542 452.914 162.714L448.721 155.901C443.093 159.365 437.274 161.947 431.262 163.665L433.46 171.357Z" fill="black" mask="url(#path-2-outside-1_1_59)"/>
</svg>
