<svg width="668" height="575" viewBox="0 0 668 575" fill="none" xmlns="http://www.w3.org/2000/svg">
<path d="M330.398 77.8217L334 81.5645L337.602 77.8216C411.319 1.23174 492.423 -8.24541 554.835 20.2833C617.563 48.956 662.333 116.392 662.333 195.57C662.333 275.058 629.543 336.045 584.345 386.939C547.552 428.37 502.806 462.849 460.892 495.148C451.122 502.676 441.507 510.085 432.181 517.437C414.83 531.115 398.113 544.135 381.637 553.763C365.159 563.391 349.397 569.333 334 569.333C318.603 569.333 302.841 563.391 286.363 553.763C269.887 544.135 253.17 531.115 235.82 517.437C226.494 510.085 216.878 502.675 207.108 495.147C165.194 462.849 120.448 428.369 83.6553 386.939C38.4576 336.045 5.66663 275.058 5.66663 195.57C5.66663 116.392 50.4368 48.956 113.164 20.2833C175.576 -8.2454 256.68 1.23173 330.398 77.8217Z" fill="#FF0000" stroke="black" stroke-width="10"/>
<mask id="path-2-outside-1_1_57" maskUnits="userSpaceOnUse" x="218" y="152" width="211" height="252" fill="black">
<rect fill="white" x="218" y="152" width="211" height="252"/>
<path d="M223.164 160.488C238.431 162.311 251.647 163.678 262.812 164.59C273.978 165.273 283.206 165.843 290.498 166.299C298.929 166.755 305.993 166.868 311.689 166.641C317.614 166.413 325.703 165.843 335.957 164.932C344.616 164.248 356.009 163.337 370.137 162.197C384.264 160.83 401.924 159.007 423.115 156.729C423.343 161.969 423.457 167.096 423.457 172.109C423.685 176.895 423.913 181.11 424.141 184.756C424.368 189.085 424.482 193.073 424.482 196.719C424.482 200.592 424.255 205.492 423.799 211.416C423.343 216.429 422.546 222.809 421.406 230.557C420.495 238.076 419.014 247.077 416.963 257.559C413.773 245.254 410.697 235.342 407.734 227.822C404.772 220.075 402.038 213.923 399.531 209.365C396.797 204.124 394.062 200.137 391.328 197.402C388.366 195.352 384.834 193.643 380.732 192.275C377.087 191.136 372.415 190.225 366.719 189.541C361.25 188.857 354.756 188.971 347.236 189.883C346.097 219.961 345.299 244.342 344.844 263.027C344.388 281.712 344.046 296.296 343.818 306.777C343.59 319.31 343.477 328.311 343.477 333.779C343.704 341.527 344.958 349.16 347.236 356.68C349.059 363.06 352.021 369.668 356.123 376.504C360.225 383.34 366.149 389.378 373.896 394.619H332.197C328.324 394.619 323.538 394.847 317.842 395.303C313.057 395.758 306.904 396.214 299.385 396.67C292.093 397.126 283.548 397.923 273.75 399.062C277.168 393.138 279.902 387.783 281.953 382.998C284.004 378.213 285.599 374.111 286.738 370.693C288.105 366.592 289.131 362.946 289.814 359.756C290.042 355.199 290.612 345.97 291.523 332.07C291.751 326.374 291.979 319.31 292.207 310.879C292.663 302.448 293.118 292.422 293.574 280.801C294.258 269.18 294.827 255.85 295.283 240.811C295.967 225.544 296.65 208.34 297.334 189.199C293.232 188.06 289.359 188.174 285.713 189.541C282.067 190.68 278.877 192.161 276.143 193.984C272.952 196.263 269.876 198.997 266.914 202.188C263.952 206.061 260.648 211.074 257.002 217.227C253.812 222.467 250.166 229.417 246.064 238.076C241.963 246.507 237.292 256.989 232.051 269.521C230.911 256.305 230.114 245.482 229.658 237.051C229.202 228.392 228.861 221.67 228.633 216.885C228.405 211.188 228.291 206.973 228.291 204.238C228.291 201.732 228.063 198.428 227.607 194.326C227.152 190.908 226.582 186.465 225.898 180.996C225.215 175.299 224.303 168.464 223.164 160.488Z"/>
</mask>
<path d="M223.164 160.488C238.431 162.311 251.647 163.678 262.812 164.59C273.978 165.273 283.206 165.843 290.498 166.299C298.929 166.755 305.993 166.868 311.689 166.641C317.614 166.413 325.703 165.843 335.957 164.932C344.616 164.248 356.009 163.337 370.137 162.197C384.264 160.83 401.924 159.007 423.115 156.729C423.343 161.969 423.457 167.096 423.457 172.109C423.685 176.895 423.913 181.11 424.141 184.756C424.368 189.085 424.482 193.073 424.482 196.719C424.482 200.592 424.255 205.492 423.799 211.416C423.343 216.429 422.546 222.809 421.406 230.557C420.495 238.076 419.014 247.077 416.963 257.559C413.773 245.254 410.697 235.342 407.734 227.822C404.772 220.075 402.038 213.923 399.531 209.365C396.797 204.124 394.062 200.137 391.328 197.402C388.366 195.352 384.834 193.643 380.732 192.275C377.087 191.136 372.415 190.225 366.719 189.541C361.25 188.857 354.756 188.971 347.236 189.883C346.097 219.961 345.299 244.342 344.844 263.027C344.388 281.712 344.046 296.296 343.818 306.777C343.59 319.31 343.477 328.311 343.477 333.779C343.704 341.527 344.958 349.16 347.236 356.68C349.059 363.06 352.021 369.668 356.123 376.504C360.225 383.34 366.149 389.378 373.896 394.619H332.197C328.324 394.619 323.538 394.847 317.842 395.303C313.057 395.758 306.904 396.214 299.385 396.67C292.093 397.126 283.548 397.923 273.75 399.062C277.168 393.138 279.902 387.783 281.953 382.998C284.004 378.213 285.599 374.111 286.738 370.693C288.105 366.592 289.131 362.946 289.814 359.756C290.042 355.199 290.612 345.97 291.523 332.07C291.751 326.374 291.979 319.31 292.207 310.879C292.663 302.448 293.118 292.422 293.574 280.801C294.258 269.18 294.827 255.85 295.283 240.811C295.967 225.544 296.65 208.34 297.334 189.199C293.232 188.06 289.359 188.174 285.713 189.541C282.067 190.68 278.877 192.161 276.143 193.984C272.952 196.263 269.876 198.997 266.914 202.188C263.952 206.061 260.648 211.074 257.002 217.227C253.812 222.467 250.166 229.417 246.064 238.076C241.963 246.507 237.292 256.989 232.051 269.521C230.911 256.305 230.114 245.482 229.658 237.051C229.202 228.392 228.861 221.67 228.633 216.885C228.405 211.188 228.291 206.973 228.291 204.238C228.291 201.732 228.063 198.428 227.607 194.326C227.152 190.908 226.582 186.465 225.898 180.996C225.215 175.299 224.303 168.464 223.164 160.488Z" fill="white"/>
<path d="M223.164 160.488L223.638 156.516L218.468 155.899L219.204 161.054L223.164 160.488ZM262.812 164.59L262.487 168.577L262.528 168.58L262.568 168.582L262.812 164.59ZM290.498 166.299L290.249 170.291L290.265 170.292L290.282 170.293L290.498 166.299ZM311.689 166.641L311.536 162.644L311.53 162.644L311.689 166.641ZM335.957 164.932L335.642 160.944L335.623 160.946L335.603 160.947L335.957 164.932ZM370.137 162.197L370.458 166.184L370.49 166.182L370.522 166.179L370.137 162.197ZM423.115 156.729L427.111 156.555L426.926 152.296L422.688 152.751L423.115 156.729ZM423.457 172.109H419.457V172.205L419.462 172.3L423.457 172.109ZM424.141 184.756L428.135 184.546L428.134 184.526L428.133 184.506L424.141 184.756ZM423.799 211.416L427.782 211.778L427.785 211.75L427.787 211.723L423.799 211.416ZM421.406 230.557L417.449 229.975L417.441 230.025L417.435 230.075L421.406 230.557ZM416.963 257.559L413.091 258.562L420.888 258.327L416.963 257.559ZM407.734 227.822L403.998 229.251L404.005 229.27L404.013 229.288L407.734 227.822ZM399.531 209.365L395.985 211.215L396.005 211.254L396.026 211.293L399.531 209.365ZM391.328 197.402L394.157 194.574L393.902 194.319L393.605 194.114L391.328 197.402ZM380.732 192.275L381.997 188.481L381.962 188.469L381.926 188.457L380.732 192.275ZM366.719 189.541L366.223 193.51L366.232 193.511L366.242 193.513L366.719 189.541ZM347.236 189.883L346.755 185.912L343.368 186.322L343.239 189.731L347.236 189.883ZM343.818 306.777L339.819 306.69L339.819 306.698L339.819 306.705L343.818 306.777ZM343.477 333.779H339.477V333.838L339.478 333.897L343.477 333.779ZM347.236 356.68L351.082 355.581L351.074 355.55L351.064 355.52L347.236 356.68ZM373.896 394.619V398.619H386.948L376.138 391.306L373.896 394.619ZM317.842 395.303L317.523 391.315L317.493 391.318L317.463 391.321L317.842 395.303ZM299.385 396.67L299.143 392.677L299.135 392.678L299.385 396.67ZM273.75 399.062L270.285 397.064L266.31 403.955L274.212 403.036L273.75 399.062ZM286.738 370.693L290.533 371.958L286.738 370.693ZM289.814 359.756L293.726 360.594L293.793 360.278L293.809 359.956L289.814 359.756ZM291.523 332.07L295.515 332.332L295.518 332.281L295.52 332.23L291.523 332.07ZM292.207 310.879L288.213 310.663L288.21 310.717L288.208 310.771L292.207 310.879ZM293.574 280.801L289.581 280.566L289.579 280.605L289.577 280.644L293.574 280.801ZM295.283 240.811L291.287 240.632L291.286 240.66L291.285 240.689L295.283 240.811ZM297.334 189.199L301.331 189.342L301.444 186.189L298.405 185.345L297.334 189.199ZM285.713 189.541L286.906 193.359L287.013 193.326L287.117 193.286L285.713 189.541ZM276.143 193.984L273.924 190.656L273.87 190.692L273.818 190.729L276.143 193.984ZM266.914 202.188L263.983 199.466L263.853 199.606L263.737 199.758L266.914 202.188ZM257.002 217.227L260.419 219.306L260.431 219.286L260.443 219.266L257.002 217.227ZM246.064 238.076L249.661 239.826L249.67 239.807L249.679 239.789L246.064 238.076ZM232.051 269.521L228.066 269.865L235.741 271.065L232.051 269.521ZM229.658 237.051L225.664 237.261L225.664 237.267L229.658 237.051ZM228.633 216.885L224.636 217.045L224.637 217.06L224.637 217.075L228.633 216.885ZM227.607 194.326L231.583 193.884L231.578 193.841L231.572 193.798L227.607 194.326ZM225.898 180.996L221.927 181.473L221.928 181.482L221.929 181.492L225.898 180.996ZM222.69 164.46C237.989 166.287 251.258 167.66 262.487 168.577L263.138 160.603C252.037 159.697 238.873 158.336 223.638 156.516L222.69 164.46ZM262.568 168.582C273.733 169.266 282.959 169.835 290.249 170.291L290.748 162.307C283.454 161.851 274.223 161.281 263.057 160.597L262.568 168.582ZM290.282 170.293C298.785 170.753 305.984 170.872 311.849 170.637L311.53 162.644C306.002 162.865 299.073 162.757 290.714 162.305L290.282 170.293ZM311.843 170.638C317.866 170.406 326.031 169.83 336.311 168.916L335.603 160.947C325.375 161.857 317.362 162.419 311.536 162.644L311.843 170.638ZM336.272 168.919C344.934 168.235 356.33 167.324 370.458 166.184L369.815 158.21C355.689 159.349 344.298 160.261 335.642 160.944L336.272 168.919ZM370.522 166.179C384.669 164.81 402.344 162.985 423.543 160.706L422.688 152.751C401.504 155.029 383.86 156.851 369.751 158.216L370.522 166.179ZM419.119 156.902C419.344 162.088 419.457 167.157 419.457 172.109H427.457C427.457 167.036 427.342 161.851 427.111 156.555L419.119 156.902ZM419.462 172.3C419.69 177.099 419.919 181.335 420.148 185.005L428.133 184.506C427.907 180.885 427.68 176.69 427.453 171.919L419.462 172.3ZM420.146 184.966C420.371 189.238 420.482 193.155 420.482 196.719H428.482C428.482 192.991 428.366 188.932 428.135 184.546L420.146 184.966ZM420.482 196.719C420.482 200.451 420.262 205.239 419.811 211.109L427.787 211.723C428.247 205.744 428.482 200.733 428.482 196.719H420.482ZM419.815 211.054C419.369 215.965 418.583 222.265 417.449 229.975L425.364 231.139C426.509 223.353 427.317 216.893 427.782 211.778L419.815 211.054ZM417.435 230.075C416.539 237.469 415.076 246.369 413.037 256.791L420.888 258.327C422.951 247.785 424.45 238.684 425.377 231.038L417.435 230.075ZM420.835 256.555C417.624 244.171 414.501 234.086 411.456 226.356L404.013 229.288C406.892 236.597 409.921 246.337 413.091 258.562L420.835 256.555ZM411.471 226.394C408.476 218.563 405.667 212.221 403.036 207.438L396.026 211.293C398.408 215.624 401.068 221.587 403.998 229.251L411.471 226.394ZM403.078 207.515C400.243 202.083 397.288 197.705 394.157 194.574L388.5 200.231C390.837 202.568 393.35 206.166 395.985 211.215L403.078 207.515ZM393.605 194.114C390.276 191.809 386.389 189.945 381.997 188.481L379.468 196.07C383.279 197.341 386.456 198.894 389.051 200.691L393.605 194.114ZM381.926 188.457C377.961 187.219 373.027 186.269 367.195 185.57L366.242 193.513C371.804 194.18 376.212 195.054 379.539 196.093L381.926 188.457ZM367.215 185.572C361.326 184.836 354.488 184.975 346.755 185.912L347.718 193.854C355.024 192.968 361.174 192.879 366.223 193.51L367.215 185.572ZM343.239 189.731C342.1 219.818 341.301 244.22 340.845 262.93L348.843 263.125C349.298 244.465 350.094 220.104 351.233 190.034L343.239 189.731ZM340.845 262.93C340.389 281.616 340.047 296.203 339.819 306.69L347.817 306.864C348.045 296.388 348.387 281.809 348.843 263.125L340.845 262.93ZM339.819 306.705C339.591 319.239 339.477 328.271 339.477 333.779H347.477C347.477 328.35 347.59 319.381 347.818 306.85L339.819 306.705ZM339.478 333.897C339.717 342.003 341.028 349.986 343.408 357.84L351.064 355.52C348.887 348.334 347.692 341.051 347.475 333.662L339.478 333.897ZM343.39 357.779C345.326 364.555 348.446 371.484 352.693 378.562L359.553 374.446C355.597 367.852 352.792 361.565 351.082 355.581L343.39 357.779ZM352.693 378.562C357.142 385.977 363.508 392.421 371.655 397.932L376.138 391.306C368.79 386.336 363.307 380.702 359.553 374.446L352.693 378.562ZM373.896 390.619H332.197V398.619H373.896V390.619ZM332.197 390.619C328.18 390.619 323.281 390.855 317.523 391.315L318.161 399.29C323.796 398.839 328.467 398.619 332.197 398.619V390.619ZM317.463 391.321C312.741 391.77 306.639 392.223 299.143 392.677L299.627 400.663C307.17 400.205 313.372 399.747 318.221 399.285L317.463 391.321ZM299.135 392.678C291.753 393.139 283.134 393.944 273.288 395.089L274.212 403.036C283.962 401.902 292.433 401.112 299.634 400.662L299.135 392.678ZM277.215 401.061C280.689 395.04 283.501 389.541 285.63 384.574L278.277 381.422C276.304 386.026 273.647 391.236 270.285 397.064L277.215 401.061ZM285.63 384.574C287.707 379.727 289.347 375.516 290.533 371.958L282.944 369.428C281.851 372.706 280.301 376.699 278.277 381.422L285.63 384.574ZM290.533 371.958C291.933 367.759 293.003 363.966 293.726 360.594L285.903 358.918C285.259 361.926 284.278 365.425 282.944 369.428L290.533 371.958ZM293.809 359.956C294.036 355.435 294.603 346.237 295.515 332.332L287.532 331.809C286.621 345.703 286.049 354.963 285.819 359.556L293.809 359.956ZM295.52 332.23C295.749 326.51 295.977 319.428 296.206 310.987L288.208 310.771C287.981 319.192 287.754 326.237 287.527 331.91L295.52 332.23ZM296.201 311.095C296.658 302.638 297.115 292.592 297.571 280.958L289.577 280.644C289.122 292.252 288.667 302.257 288.213 310.663L296.201 311.095ZM297.567 281.036C298.254 269.368 298.825 255.998 299.281 240.932L291.285 240.689C290.83 255.701 290.262 268.992 289.581 280.566L297.567 281.036ZM299.279 240.989C299.963 225.708 300.648 208.492 301.331 189.342L293.337 189.056C292.653 208.188 291.97 225.379 291.287 240.632L299.279 240.989ZM298.405 185.345C293.567 184.001 288.821 184.103 284.308 185.796L287.117 193.286C289.896 192.244 292.897 192.118 296.263 193.053L298.405 185.345ZM284.52 185.723C280.568 186.958 277.021 188.591 273.924 190.656L278.361 197.313C280.732 195.732 283.566 194.403 286.906 193.359L284.52 185.723ZM273.818 190.729C270.385 193.181 267.109 196.099 263.983 199.466L269.845 204.909C272.644 201.896 275.52 199.345 278.468 197.239L273.818 190.729ZM263.737 199.758C260.646 203.799 257.254 208.956 253.561 215.187L260.443 219.266C264.042 213.193 267.258 208.323 270.091 204.617L263.737 199.758ZM253.585 215.147C250.294 220.553 246.582 227.64 242.45 236.364L249.679 239.789C253.75 231.194 257.329 224.382 260.419 219.306L253.585 215.147ZM242.468 236.326C238.322 244.848 233.619 255.404 228.36 267.978L235.741 271.065C240.964 258.574 245.604 248.166 249.661 239.826L242.468 236.326ZM236.036 269.178C234.899 255.983 234.105 245.206 233.652 236.835L225.664 237.267C226.123 245.757 226.924 256.627 228.066 269.865L236.036 269.178ZM233.653 236.841C233.197 228.184 232.856 221.47 232.628 216.695L224.637 217.075C224.866 221.87 225.208 228.6 225.664 237.261L233.653 236.841ZM232.63 216.725C232.402 211.037 232.291 206.888 232.291 204.238H224.291C224.291 207.057 224.408 211.339 224.636 217.045L232.63 216.725ZM232.291 204.238C232.291 201.521 232.046 198.052 231.583 193.884L223.632 194.768C224.08 198.803 224.291 201.943 224.291 204.238H232.291ZM231.572 193.798C231.119 190.395 230.55 185.963 229.868 180.5L221.929 181.492C222.614 186.966 223.185 191.422 223.643 194.855L231.572 193.798ZM229.87 180.52C229.182 174.784 228.266 167.917 227.124 159.923L219.204 161.054C220.341 169.01 221.248 175.815 221.927 181.473L229.87 180.52Z" fill="black" mask="url(#path-2-outside-1_1_57)"/>
</svg>
